<svg xmlns="http://www.w3.org/2000/svg" width="40" height="40" viewBox="0 0 40 40" fill="none">
  <path d="M14.5163 12.8482L18.333 9.01487V24.9982C18.333 25.4402 18.5086 25.8641 18.8212 26.1767C19.1337 26.4893 19.5576 26.6649 19.9997 26.6649C20.4417 26.6649 20.8656 26.4893 21.1782 26.1767C21.4907 25.8641 21.6663 25.4402 21.6663 24.9982V9.01487L25.483 12.8482C25.6379 13.0044 25.8223 13.1284 26.0254 13.213C26.2285 13.2976 26.4463 13.3412 26.6663 13.3412C26.8864 13.3412 27.1042 13.2976 27.3073 13.213C27.5104 13.1284 27.6947 13.0044 27.8497 12.8482C28.0059 12.6933 28.1299 12.5089 28.2145 12.3058C28.2991 12.1027 28.3427 11.8849 28.3427 11.6649C28.3427 11.4448 28.2991 11.227 28.2145 11.0239C28.1299 10.8208 28.0059 10.6365 27.8497 10.4815L21.183 3.81487C21.0245 3.66313 20.8376 3.54419 20.633 3.46487C20.2272 3.29817 19.7721 3.29817 19.3663 3.46487C19.1618 3.54419 18.9748 3.66313 18.8163 3.81487L12.1497 10.4815C11.9943 10.6369 11.871 10.8214 11.7869 11.0245C11.7028 11.2275 11.6595 11.4451 11.6595 11.6649C11.6595 11.8846 11.7028 12.1022 11.7869 12.3053C11.871 12.5083 11.9943 12.6928 12.1497 12.8482C12.3051 13.0036 12.4896 13.1269 12.6926 13.211C12.8956 13.2951 13.1132 13.3384 13.333 13.3384C13.5528 13.3384 13.7704 13.2951 13.9734 13.211C14.1765 13.1269 14.3609 13.0036 14.5163 12.8482ZM34.9997 19.9982C34.5576 19.9982 34.1337 20.1738 33.8212 20.4864C33.5086 20.7989 33.333 21.2228 33.333 21.6649V31.6649C33.333 32.1069 33.1574 32.5308 32.8449 32.8434C32.5323 33.1559 32.1084 33.3315 31.6663 33.3315H8.33301C7.89098 33.3315 7.46706 33.1559 7.1545 32.8434C6.84194 32.5308 6.66634 32.1069 6.66634 31.6649V21.6649C6.66634 21.2228 6.49075 20.7989 6.17819 20.4864C5.86563 20.1738 5.4417 19.9982 4.99967 19.9982C4.55765 19.9982 4.13372 20.1738 3.82116 20.4864C3.5086 20.7989 3.33301 21.2228 3.33301 21.6649V31.6649C3.33301 32.9909 3.85979 34.2627 4.79747 35.2004C5.73516 36.1381 7.00693 36.6649 8.33301 36.6649H31.6663C32.9924 36.6649 34.2642 36.1381 35.2019 35.2004C36.1396 34.2627 36.6663 32.9909 36.6663 31.6649V21.6649C36.6663 21.2228 36.4907 20.7989 36.1782 20.4864C35.8656 20.1738 35.4417 19.9982 34.9997 19.9982Z" fill="#727272"/>
</svg>
