<svg xmlns="http://www.w3.org/2000/svg" width="40" height="41" viewBox="0 0 40 41" fill="none">
  <path d="M31.667 18.8327H21.667V8.83268C21.667 8.39065 21.4914 7.96673 21.1788 7.65417C20.8663 7.34161 20.4424 7.16602 20.0003 7.16602C19.5583 7.16602 19.1344 7.34161 18.8218 7.65417C18.5093 7.96673 18.3337 8.39065 18.3337 8.83268V18.8327H8.33366C7.89163 18.8327 7.46771 19.0083 7.15515 19.3208C6.84259 19.6334 6.66699 20.0573 6.66699 20.4993C6.66699 20.9414 6.84259 21.3653 7.15515 21.6779C7.46771 21.9904 7.89163 22.166 8.33366 22.166H18.3337V32.166C18.3337 32.608 18.5093 33.032 18.8218 33.3445C19.1344 33.6571 19.5583 33.8327 20.0003 33.8327C20.4424 33.8327 20.8663 33.6571 21.1788 33.3445C21.4914 33.032 21.667 32.608 21.667 32.166V22.166H31.667C32.109 22.166 32.5329 21.9904 32.8455 21.6779C33.1581 21.3653 33.3337 20.9414 33.3337 20.4993C33.3337 20.0573 33.1581 19.6334 32.8455 19.3208C32.5329 19.0083 32.109 18.8327 31.667 18.8327Z" fill="#1F1F1F"/>
</svg>