<svg width="24" height="24" viewBox="0 0 24 24" fill="none" xmlns="http://www.w3.org/2000/svg">
<path d="M22 7.82245C22.0048 7.75921 22.0048 7.69569 22 7.63245L20 2.63245C19.9219 2.43481 19.7828 2.26719 19.603 2.15391C19.4232 2.04063 19.212 1.98758 19 2.00245H5C4.79972 2.00226 4.604 2.06221 4.43818 2.17453C4.27237 2.28686 4.1441 2.44639 4.07 2.63245L2.07 7.63245C2.06518 7.69569 2.06518 7.75921 2.07 7.82245C2.03677 7.87812 2.01311 7.93896 2 8.00245C2.01113 8.69369 2.20123 9.37025 2.55174 9.96613C2.90226 10.562 3.40124 11.0569 4 11.4025V21.0025C4 21.2677 4.10536 21.522 4.29289 21.7096C4.48043 21.8971 4.73478 22.0025 5 22.0025H19C19.2652 22.0025 19.5196 21.8971 19.7071 21.7096C19.8946 21.522 20 21.2677 20 21.0025V11.4425C20.6046 11.0934 21.1072 10.5923 21.4581 9.98879C21.809 9.38531 21.9958 8.70051 22 8.00245C22.0094 7.94282 22.0094 7.88209 22 7.82245ZM13 20.0025H11V16.0025H13V20.0025ZM18 20.0025H15V15.0025C15 14.7372 14.8946 14.4829 14.7071 14.2953C14.5196 14.1078 14.2652 14.0025 14 14.0025H10C9.73478 14.0025 9.48043 14.1078 9.29289 14.2953C9.10536 14.4829 9 14.7372 9 15.0025V20.0025H6V12.0025C6.56947 11.9992 7.13169 11.8745 7.64905 11.6365C8.16642 11.3985 8.627 11.0528 9 10.6225C9.37537 11.0481 9.83701 11.389 10.3542 11.6225C10.8715 11.8559 11.4325 11.9767 12 11.9767C12.5675 11.9767 13.1285 11.8559 13.6458 11.6225C14.163 11.389 14.6246 11.0481 15 10.6225C15.373 11.0528 15.8336 11.3985 16.3509 11.6365C16.8683 11.8745 17.4305 11.9992 18 12.0025V20.0025ZM18 10.0025C17.4696 10.0025 16.9609 9.79174 16.5858 9.41667C16.2107 9.04159 16 8.53289 16 8.00245C16 7.73724 15.8946 7.48288 15.7071 7.29535C15.5196 7.10781 15.2652 7.00245 15 7.00245C14.7348 7.00245 14.4804 7.10781 14.2929 7.29535C14.1054 7.48288 14 7.73724 14 8.00245C14 8.53289 13.7893 9.04159 13.4142 9.41667C13.0391 9.79174 12.5304 10.0025 12 10.0025C11.4696 10.0025 10.9609 9.79174 10.5858 9.41667C10.2107 9.04159 10 8.53289 10 8.00245C10 7.73724 9.89464 7.48288 9.70711 7.29535C9.51957 7.10781 9.26522 7.00245 9 7.00245C8.73478 7.00245 8.48043 7.10781 8.29289 7.29535C8.10536 7.48288 8 7.73724 8 8.00245C8.00985 8.2651 7.96787 8.52711 7.87646 8.77353C7.78505 9.01995 7.646 9.24595 7.46725 9.43863C7.28849 9.63132 7.07354 9.7869 6.83466 9.89651C6.59578 10.0061 6.33764 10.0676 6.075 10.0775C5.54457 10.0973 5.02796 9.90571 4.63882 9.5447C4.44614 9.36595 4.29055 9.15099 4.18094 8.91211C4.07133 8.67323 4.00985 8.4151 4 8.15245L5.68 4.00245H18.32L20 8.15245C19.9621 8.65647 19.7348 9.12744 19.3637 9.47066C18.9927 9.81388 18.5054 10.0039 18 10.0025Z" fill="#727272"/>
</svg>
