<svg xmlns="http://www.w3.org/2000/svg" width="40" height="40" viewBox="0 0 40 40" fill="none">
  <path d="M6 7L19 8.98919V27.9892L6 26.9892V7Z" fill="#EFEBE9"/>
  <path d="M6 27L19 28V29H5L6 27Z" fill="#BCAAA4"/>
  <path d="M4 9.0128L6 7V27L5 29.0128H4V9.0128Z" fill="#D7CCC8"/>
  <path d="M2 8H5L4 9V29H20V31H2V8Z" fill="#D32F2F"/>
  <path d="M19 9H20V29H19V9Z" fill="#BCAAA4"/>
  <path d="M34 7L21 8.98919V27.9892L34 26.9892V7Z" fill="#EFEBE9"/>
  <path d="M34 27L21 28V29H35L34 27Z" fill="#BCAAA4"/>
  <path d="M36 9.0128L34 7V27L35 29.0128H36V9.0128Z" fill="#D7CCC8"/>
  <path d="M38 8H35L36 9V29H20V31H38V8Z" fill="#D32F2F"/>
  <path d="M21 9H20V29H21V9Z" fill="#BCAAA4"/>
  <path d="M18 29C18 29.5304 18.2107 30.0391 18.5858 30.4142C18.9609 30.7893 19.4696 31 20 31C20.5304 31 21.0391 30.7893 21.4142 30.4142C21.7893 30.0391 22 29.5304 22 29H20H18Z" fill="#4C0808"/>
  <path d="M17 31C17 31.2626 17.0776 31.5227 17.2284 31.7654C17.3791 32.008 17.6001 32.2285 17.8787 32.4142C18.1573 32.5999 18.488 32.7472 18.8519 32.8478C19.2159 32.9483 19.606 33 20 33C20.394 33 20.7841 32.9483 21.1481 32.8478C21.512 32.7472 21.8427 32.5999 22.1213 32.4142C22.3999 32.2285 22.6209 32.008 22.7716 31.7654C22.9224 31.5227 23 31.2626 23 31H20H17Z" fill="#D32F2F"/>
</svg>
