<svg xmlns="http://www.w3.org/2000/svg" width="24" height="24" viewBox="0 0 24 24" fill="none">
  <mask id="mask0_12435_25516" style="mask-type:alpha" maskUnits="userSpaceOnUse" x="0" y="0" width="24" height="24">
    <rect width="24" height="24" fill="#D9D9D9"/>
  </mask>
  <g mask="url(#mask0_12435_25516)">
    <path d="M11.9998 14.9484C11.8665 14.9484 11.7415 14.9276 11.6248 14.8859C11.5081 14.8443 11.3998 14.7734 11.2998 14.6734L6.6998 10.0734C6.51647 9.8901 6.4248 9.65677 6.4248 9.37344C6.4248 9.0901 6.51647 8.85677 6.6998 8.67344C6.88314 8.4901 7.11647 8.39844 7.3998 8.39844C7.68314 8.39844 7.91647 8.4901 8.0998 8.67344L11.9998 12.5734L15.8998 8.67344C16.0831 8.4901 16.3165 8.39844 16.5998 8.39844C16.8831 8.39844 17.1165 8.4901 17.2998 8.67344C17.4831 8.85677 17.5748 9.0901 17.5748 9.37344C17.5748 9.65677 17.4831 9.8901 17.2998 10.0734L12.6998 14.6734C12.5998 14.7734 12.4915 14.8443 12.3748 14.8859C12.2581 14.9276 12.1331 14.9484 11.9998 14.9484Z" fill="#4B4B4B"/>
  </g>
</svg>
