<svg xmlns="http://www.w3.org/2000/svg" width="24" height="24" viewBox="0 0 24 24" fill="none">
  <mask id="mask0_35966_71642" style="mask-type:alpha" maskUnits="userSpaceOnUse" x="0" y="0" width="24" height="24">
    <rect width="24" height="24" fill="#D9D9D9"/>
  </mask>
  <g mask="url(#mask0_35966_71642)">
    <path d="M12 10.4569L7.92701 14.5302C7.78851 14.6685 7.61443 14.7394 7.40476 14.7427C7.19526 14.7459 7.01801 14.675 6.87301 14.5302C6.72818 14.3852 6.65576 14.2095 6.65576 14.0032C6.65576 13.7969 6.72818 13.6212 6.87301 13.4762L11.3673 8.98194C11.5481 8.80127 11.759 8.71094 12 8.71094C12.241 8.71094 12.4519 8.80127 12.6328 8.98194L17.127 13.4762C17.2653 13.6147 17.3362 13.7888 17.3395 13.9984C17.3427 14.2079 17.2718 14.3852 17.127 14.5302C16.982 14.675 16.8063 14.7474 16.6 14.7474C16.3937 14.7474 16.218 14.675 16.073 14.5302L12 10.4569Z" fill="#10477A"/>
  </g>
</svg>
