<svg xmlns="http://www.w3.org/2000/svg" width="40" height="40" viewBox="0 0 40 40" fill="none">
  <path d="M9.92538 9.27407C9.12667 8.51109 9.0977 7.2451 9.86068 6.44639C10.6237 5.64768 11.8897 5.61871 12.6884 6.38169L27.3621 20.399C27.6895 20.7117 27.8792 21.1417 27.8896 21.5943C27.8999 22.0469 28.0897 22.4769 28.417 22.7897L34.052 28.1726C34.2517 28.3633 34.5682 28.3561 34.759 28.1564C34.9497 27.9567 35.2662 27.9495 35.4659 28.1402L35.6156 28.2833C35.7513 28.4128 35.8298 28.5909 35.8341 28.7784L35.8436 29.1925C35.854 29.6452 35.6841 30.0834 35.3713 30.4108L34.9667 30.8343C34.654 31.1617 34.224 31.3515 33.7714 31.3618L33.3573 31.3713C33.1698 31.3756 32.9883 31.3052 32.8527 31.1757L32.7029 31.0326C32.5032 30.8419 32.496 30.5254 32.6867 30.3257C32.8775 30.126 32.8702 29.8095 32.6705 29.6188L27.0355 24.2359C26.7082 23.9231 26.2699 23.7532 25.8173 23.7636C25.3647 23.774 24.9265 23.6041 24.5991 23.2913L9.92538 9.27407Z" fill="url(#paint0_linear_31571_149472)"/>
  <path d="M9.92538 9.27407C9.12667 8.51109 9.0977 7.2451 9.86068 6.44639C10.6237 5.64768 11.8897 5.61871 12.6884 6.38169L27.3621 20.399C27.6895 20.7117 27.8792 21.1417 27.8896 21.5943C27.8999 22.0469 28.0897 22.4769 28.417 22.7897L34.052 28.1726C34.2517 28.3633 34.5682 28.3561 34.759 28.1564C34.9497 27.9567 35.2662 27.9495 35.4659 28.1402L35.6156 28.2833C35.7513 28.4128 35.8298 28.5909 35.8341 28.7784L35.8436 29.1925C35.854 29.6452 35.6841 30.0834 35.3713 30.4108L34.9667 30.8343C34.654 31.1617 34.224 31.3515 33.7714 31.3618L33.3573 31.3713C33.1698 31.3756 32.9883 31.3052 32.8527 31.1757L32.7029 31.0326C32.5032 30.8419 32.496 30.5254 32.6867 30.3257C32.8775 30.126 32.8702 29.8095 32.6705 29.6188L27.0355 24.2359C26.7082 23.9231 26.2699 23.7532 25.8173 23.7636C25.3647 23.774 24.9265 23.6041 24.5991 23.2913L9.92538 9.27407Z" fill="url(#paint1_linear_31571_149472)" fill-opacity="0.2"/>
  <path d="M17.5104 21.0111C20.8299 24.3305 20.8299 29.7124 17.5104 33.0319C14.191 36.3513 8.80905 36.3513 5.48959 33.0319C2.17014 29.7124 2.17014 24.3305 5.48959 21.0111C8.80905 17.6916 14.191 17.6916 17.5104 21.0111Z" fill="#284268"/>
  <path d="M16.9794 32.8558C15.1286 34.5962 12.6543 35.2913 10.3047 34.9385C11.2157 33.1348 10.9666 30.8955 9.55408 29.332L9.54924 29.3272L11.5 27.3764L16.9794 32.8558Z" fill="#BA6847"/>
  <path d="M13.8098 25.0763C15.3731 26.4886 17.6121 26.7382 19.4156 25.8276C19.7683 28.177 19.0739 30.6509 17.3336 32.5016L11.8542 27.0222L13.805 25.0714L13.8098 25.0763Z" fill="#BA6847"/>
  <path d="M9.19569 29.6807C10.4899 31.1251 10.6868 33.2031 9.79024 34.8425C8.41853 34.5439 7.11165 33.8818 6.02061 32.8558L9.19569 29.6807Z" fill="#BA6847"/>
  <path d="M17.3336 21.5428C18.3597 22.634 19.0211 23.9412 19.3196 25.3131C17.6804 26.2092 15.6027 26.0119 14.1586 24.7179L17.3336 21.5428Z" fill="#BA6847"/>
  <path d="M3.67901 28.7312C5.31843 27.8345 7.39698 28.0321 8.84144 29.3265L5.66637 32.5016C4.64022 31.4103 3.97747 30.1032 3.67901 28.7312Z" fill="#BA6847"/>
  <path d="M6.01992 21.1879C7.87039 19.4478 10.3447 18.7535 12.6939 19.1059C11.7821 20.9116 12.0341 23.1536 13.4508 24.7172L11.5 26.6679L6.01992 21.1879Z" fill="#BA6847"/>
  <path d="M13.2084 19.2019C14.5806 19.5003 15.888 20.1623 16.9794 21.1885L13.8043 24.3636C12.5102 22.9194 12.3121 20.8412 13.2084 19.2019Z" fill="#BA6847"/>
  <path d="M11.1458 27.0222L9.19569 28.9722C7.63186 27.5553 5.38882 27.3044 3.58303 28.2168C3.23043 25.8674 3.92544 23.3927 5.66568 21.5421L11.1458 27.0222Z" fill="#BA6847"/>
  <path d="M26.4792 32C26.4792 33.6569 25.136 35 23.4792 35C21.8223 35 20.4792 33.6569 20.4792 32C20.4792 30.3431 21.8223 29 23.4792 29C25.136 29 26.4792 30.3431 26.4792 32Z" fill="#EEF4C3"/>
  <path d="M23.4792 29C24.4218 29 25.2622 29.4353 25.8122 30.1152C25.0358 30.39 24.4792 31.1295 24.4792 32C24.4792 32.8704 25.0359 33.6089 25.8122 33.8838C25.2622 34.5641 24.4221 35 23.4792 35C22.5361 35 21.6952 34.5643 21.1452 33.8838C21.9219 33.6092 22.4792 32.8707 22.4792 32C22.4792 31.1291 21.9221 30.3898 21.1452 30.1152C21.6952 29.435 22.5363 29 23.4792 29Z" fill="url(#paint2_linear_31571_149472)"/>
  <path d="M20.8542 30.5488C21.501 30.7155 21.9792 31.3012 21.9792 32C21.9792 32.6987 21.5008 33.2835 20.8542 33.4502C20.6161 33.0202 20.4792 32.5263 20.4792 32C20.4792 31.4734 20.6159 30.979 20.8542 30.5488Z" fill="url(#paint3_linear_31571_149472)"/>
  <path d="M26.1032 30.5488C26.3417 30.9791 26.4792 31.4732 26.4792 32C26.4792 32.5265 26.3414 33.0201 26.1032 33.4502C25.457 33.2831 24.9792 32.6984 24.9792 32C24.9792 31.3015 25.4569 30.7158 26.1032 30.5488Z" fill="url(#paint4_linear_31571_149472)"/>
  <path d="M23.4792 8C23.4792 9.65685 22.136 11 20.4792 11C18.8223 11 17.4792 9.65685 17.4792 8C17.4792 6.34315 18.8223 5 20.4792 5C22.136 5 23.4792 6.34315 23.4792 8Z" fill="#E74343"/>
  <path d="M20.4792 5C21.4218 5 22.2622 5.43531 22.8122 6.11523C22.0358 6.39 21.4792 7.12946 21.4792 8C21.4792 8.87042 22.0359 9.60894 22.8122 9.88379C22.2622 10.5641 21.4221 11 20.4792 11C19.5361 11 18.6952 10.5643 18.1452 9.88379C18.9219 9.60918 19.4792 8.87075 19.4792 8C19.4792 7.12914 18.9221 6.38976 18.1452 6.11523C18.6952 5.43503 19.5363 5 20.4792 5Z" fill="white"/>
  <path d="M17.8542 6.54883C18.501 6.71548 18.9792 7.3012 18.9792 8C18.9792 8.69872 18.5008 9.28346 17.8542 9.4502C17.6161 9.02019 17.4792 8.52631 17.4792 8C17.4792 7.47338 17.6159 6.97901 17.8542 6.54883Z" fill="white"/>
  <path d="M23.1032 6.54883C23.3417 6.9791 23.4792 7.47321 23.4792 8C23.4792 8.52648 23.3414 9.02009 23.1032 9.4502C22.457 9.28315 21.9792 8.69839 21.9792 8C21.9792 7.30153 22.4569 6.71579 23.1032 6.54883Z" fill="white"/>
  <path d="M28.4792 13.8889C28.4792 11.7411 30.4939 10 32.9792 10C35.4645 10 37.4792 11.7411 37.4792 13.8889V16.6942C37.4792 17.7323 36.7747 18.674 35.6792 19.1L35.6195 19.1232C34.5604 19.5351 33.8792 20.4455 33.8792 21.4493V23.2222C33.8792 23.6518 33.4762 24 32.9792 24C32.4821 24 32.0792 23.6518 32.0792 23.2222V21.4493C32.0792 20.4455 31.398 19.5351 30.3388 19.1232L30.2792 19.1C29.1837 18.674 28.4792 17.7323 28.4792 16.6942V13.8889Z" fill="url(#paint5_linear_31571_149472)"/>
  <path d="M32.0792 18.4006H33.8792V23.2222C33.8792 23.6518 33.4762 24 32.9792 24C32.4821 24 32.0792 23.6518 32.0792 23.2222V18.4006Z" fill="#7F7F7F"/>
  <defs>
    <linearGradient id="paint0_linear_31571_149472" x1="3" y1="17.6446" x2="37.4792" y2="17.6447" gradientUnits="userSpaceOnUse">
      <stop stop-color="#A07C6B"/>
      <stop offset="0.274038" stop-color="#BA907B"/>
      <stop offset="1" stop-color="#C79A83"/>
    </linearGradient>
    <linearGradient id="paint1_linear_31571_149472" x1="20.2396" y1="5" x2="20.2396" y2="33.7774" gradientUnits="userSpaceOnUse">
      <stop/>
      <stop offset="1" stop-color="#6E6469"/>
    </linearGradient>
    <linearGradient id="paint2_linear_31571_149472" x1="20.2396" y1="5" x2="20.2396" y2="35.5215" gradientUnits="userSpaceOnUse">
      <stop stop-color="#DEF135"/>
      <stop offset="0.576923" stop-color="#C7DF2C"/>
      <stop offset="1" stop-color="#7EA30E"/>
    </linearGradient>
    <linearGradient id="paint3_linear_31571_149472" x1="20.2396" y1="5" x2="20.2396" y2="35.5215" gradientUnits="userSpaceOnUse">
      <stop stop-color="#DEF135"/>
      <stop offset="0.576923" stop-color="#C7DF2C"/>
      <stop offset="1" stop-color="#7EA30E"/>
    </linearGradient>
    <linearGradient id="paint4_linear_31571_149472" x1="20.2396" y1="5" x2="20.2396" y2="35.5215" gradientUnits="userSpaceOnUse">
      <stop stop-color="#DEF135"/>
      <stop offset="0.576923" stop-color="#C7DF2C"/>
      <stop offset="1" stop-color="#7EA30E"/>
    </linearGradient>
    <linearGradient id="paint5_linear_31571_149472" x1="27.4785" y1="15" x2="27.4785" y2="20.5" gradientUnits="userSpaceOnUse">
      <stop stop-color="#EE3E54"/>
      <stop offset="0.6" stop-color="#EE3E54"/>
      <stop offset="0.6001" stop-color="#CC7D42"/>
    </linearGradient>
  </defs>
</svg>
