<svg xmlns="http://www.w3.org/2000/svg" width="40" height="40" viewBox="0 0 40 40" fill="none">
  <path d="M6 21.0489C6 16.5954 8.00449 10.7567 11.5 7.99706C12.905 6.88787 14.0557 5.85849 15.7081 4.99639C18.3485 3.61885 21.5219 3.00408 24.5 3.00004C28.5 2.99462 30 3.49909 32 5C34 6.50091 33.5 8.63365 33.5 11.2693C33.5 12.3857 33.1086 13.4667 32.3939 14.3244L28.9335 18.4768C27.1276 20.6439 26.6618 23.6294 27.7216 26.2437C30.0948 32.0975 25.5 35.9971 20.5 36.4971C19.4655 36.6005 18.2811 36.6826 17.0532 36.7476C11.538 37.0399 7.33889 32.423 6.51962 26.9612L6.15347 24.5202C6.0513 23.839 6 23.1512 6 22.4625V21.0489Z" fill="#FFC107"/>
  <path d="M22.5 31.4971C22.5 32.8778 21.3807 33.9971 20 33.9971C18.6193 33.9971 17.5 32.8778 17.5 31.4971C17.5 30.1163 18.6193 28.9971 20 28.9971C21.3807 28.9971 22.5 30.1163 22.5 31.4971Z" fill="#E4E4E4"/>
  <path d="M12.5 24.4971C12.5 25.8778 11.3807 26.9971 10 26.9971C8.61929 26.9971 7.5 25.8778 7.5 24.4971C7.5 23.1163 8.61929 21.9971 10 21.9971C11.3807 21.9971 12.5 23.1163 12.5 24.4971Z" fill="#FF3D00"/>
  <path d="M13.5 17.4971C13.5 18.8778 12.3807 19.9971 11 19.9971C9.61929 19.9971 8.5 18.8778 8.5 17.4971C8.5 16.1163 9.61929 14.9971 11 14.9971C12.3807 14.9971 13.5 16.1163 13.5 17.4971Z" fill="#4CAF50"/>
  <path d="M18.5 12.4971C18.5 13.8778 17.3807 14.9971 16 14.9971C14.6193 14.9971 13.5 13.8778 13.5 12.4971C13.5 11.1163 14.6193 9.99706 16 9.99706C17.3807 9.99706 18.5 11.1163 18.5 12.4971Z" fill="#2196F3"/>
  <path d="M25.5 10.4971C25.5 11.8778 24.3807 12.9971 23 12.9971C21.6193 12.9971 20.5 11.8778 20.5 10.4971C20.5 9.11635 21.6193 7.99706 23 7.99706C24.3807 7.99706 25.5 9.11635 25.5 10.4971Z" fill="#B0B1E8"/>
  <path d="M26.5 17.9971H29.5L29 33.9971H27L26.5 17.9971Z" fill="url(#paint0_linear_31571_149499)"/>
  <path d="M29 33.9971C29 34.5493 28.5523 34.9971 28 34.9971C27.4477 34.9971 27 34.5493 27 33.9971C27 33.4448 27.4477 32.9971 28 32.9971C28.5523 32.9971 29 33.4448 29 33.9971Z" fill="#434343"/>
  <path d="M29.5 17.9971C29.5 17.9971 28.8294 18.0003 28.001 18.0003C27.1726 18.0003 26.5 17.9971 26.5 17.9971C25.999 16.9938 26.5 11.4971 31 8.49706C31 11.9971 29.5 17.1686 29.5 17.9971Z" fill="#F6F6F6"/>
  <defs>
    <linearGradient id="paint0_linear_31571_149499" x1="19.7778" y1="3" x2="19.7778" y2="36.9971" gradientUnits="userSpaceOnUse">
      <stop offset="0.1" stop-color="#9E9E9E"/>
      <stop offset="0.422977" stop-color="#9E9E9E"/>
      <stop offset="0.423077" stop-color="#424242"/>
      <stop offset="1" stop-color="#424242"/>
    </linearGradient>
  </defs>
</svg>
