<svg xmlns="http://www.w3.org/2000/svg" viewBox="0 0 32 32" width="32" height="32" fill="none">
  <path d="M27.7872 6.14519C27.1061 5.46387 26.2976 4.92339 25.4076 4.55464C24.5177 4.18589 23.5638 3.99609 22.6005 3.99609C21.6372 3.99609 20.6833 4.18589 19.7933 4.55464C18.9034 4.92339 18.0948 5.46387 17.4138 6.14519L16.0005 7.55853L14.5872 6.14519C13.2116 4.76961 11.3459 3.99681 9.40048 3.99681C7.45511 3.99681 5.58941 4.76961 4.21382 6.14519C2.83823 7.52078 2.06543 9.38648 2.06543 11.3319C2.06543 13.2772 2.83823 15.1429 4.21382 16.5185L5.62715 17.9319L16.0005 28.3052L26.3738 17.9319L27.7872 16.5185C28.4685 15.8375 29.009 15.0289 29.3777 14.139C29.7465 13.2491 29.9363 12.2952 29.9363 11.3319C29.9363 10.3685 29.7465 9.41467 29.3777 8.52472C29.009 7.63478 28.4685 6.8262 27.7872 6.14519Z" fill="#FF6969" stroke="#FF6969" stroke-width="2" stroke-linecap="round" stroke-linejoin="round"/>
</svg>
