<svg width="40" height="41" viewBox="0 0 40 41" fill="none" xmlns="http://www.w3.org/2000/svg">
<path d="M6.1834 27.65C6.02489 27.4983 5.83798 27.3793 5.6334 27.3C5.22763 27.1333 4.7725 27.1333 4.36673 27.3C4.16214 27.3793 3.97523 27.4983 3.81673 27.65C3.66499 27.8085 3.54605 27.9954 3.46673 28.2C3.3391 28.5035 3.30423 28.838 3.36652 29.1614C3.42881 29.4847 3.58547 29.7823 3.81673 30.0167C3.97873 30.1639 4.16475 30.2823 4.36673 30.3667C4.56623 30.4548 4.78194 30.5004 5.00006 30.5004C5.21818 30.5004 5.43389 30.4548 5.6334 30.3667C5.83537 30.2823 6.02139 30.1639 6.1834 30.0167C6.41466 29.7823 6.57132 29.4847 6.63361 29.1614C6.6959 28.838 6.66103 28.5035 6.5334 28.2C6.45407 27.9954 6.33513 27.8085 6.1834 27.65V27.65ZM11.6667 13.8333H35.0001C35.4421 13.8333 35.866 13.6577 36.1786 13.3452C36.4911 13.0326 36.6667 12.6087 36.6667 12.1667C36.6667 11.7246 36.4911 11.3007 36.1786 10.9882C35.866 10.6756 35.4421 10.5 35.0001 10.5H11.6667C11.2247 10.5 10.8008 10.6756 10.4882 10.9882C10.1757 11.3007 10.0001 11.7246 10.0001 12.1667C10.0001 12.6087 10.1757 13.0326 10.4882 13.3452C10.8008 13.6577 11.2247 13.8333 11.6667 13.8333ZM6.1834 19.3167C5.94902 19.0854 5.6514 18.9287 5.32808 18.8665C5.00477 18.8042 4.67025 18.839 4.36673 18.9667C4.16475 19.0511 3.97873 19.1694 3.81673 19.3167C3.66499 19.4752 3.54605 19.6621 3.46673 19.8667C3.37855 20.0662 3.33301 20.2819 3.33301 20.5C3.33301 20.7181 3.37855 20.9338 3.46673 21.1333C3.55113 21.3353 3.66951 21.5213 3.81673 21.6833C3.97873 21.8306 4.16475 21.9489 4.36673 22.0333C4.56623 22.1215 4.78194 22.1671 5.00006 22.1671C5.21818 22.1671 5.43389 22.1215 5.6334 22.0333C5.83537 21.9489 6.02139 21.8306 6.1834 21.6833C6.33061 21.5213 6.44899 21.3353 6.5334 21.1333C6.62157 20.9338 6.66712 20.7181 6.66712 20.5C6.66712 20.2819 6.62157 20.0662 6.5334 19.8667C6.45407 19.6621 6.33513 19.4752 6.1834 19.3167V19.3167ZM35.0001 18.8333H11.6667C11.2247 18.8333 10.8008 19.0089 10.4882 19.3215C10.1757 19.634 10.0001 20.058 10.0001 20.5C10.0001 20.942 10.1757 21.366 10.4882 21.6785C10.8008 21.9911 11.2247 22.1667 11.6667 22.1667H35.0001C35.4421 22.1667 35.866 21.9911 36.1786 21.6785C36.4911 21.366 36.6667 20.942 36.6667 20.5C36.6667 20.058 36.4911 19.634 36.1786 19.3215C35.866 19.0089 35.4421 18.8333 35.0001 18.8333ZM6.1834 10.9833C6.02489 10.8316 5.83798 10.7127 5.6334 10.6333C5.32988 10.5057 4.99536 10.4708 4.67204 10.5331C4.34872 10.5954 4.0511 10.7521 3.81673 10.9833C3.66951 11.1453 3.55113 11.3314 3.46673 11.5333C3.37855 11.7328 3.33301 11.9485 3.33301 12.1667C3.33301 12.3848 3.37855 12.6005 3.46673 12.8C3.55113 13.002 3.66951 13.188 3.81673 13.35C3.97873 13.4972 4.16475 13.6156 4.36673 13.7C4.67025 13.8276 5.00477 13.8625 5.32808 13.8002C5.6514 13.7379 5.94902 13.5813 6.1834 13.35C6.33061 13.188 6.44899 13.002 6.5334 12.8C6.62157 12.6005 6.66712 12.3848 6.66712 12.1667C6.66712 11.9485 6.62157 11.7328 6.5334 11.5333C6.44899 11.3314 6.33061 11.1453 6.1834 10.9833V10.9833ZM35.0001 27.1667H11.6667C11.2247 27.1667 10.8008 27.3423 10.4882 27.6548C10.1757 27.9674 10.0001 28.3913 10.0001 28.8333C10.0001 29.2754 10.1757 29.6993 10.4882 30.0118C10.8008 30.3244 11.2247 30.5 11.6667 30.5H35.0001C35.4421 30.5 35.866 30.3244 36.1786 30.0118C36.4911 29.6993 36.6667 29.2754 36.6667 28.8333C36.6667 28.3913 36.4911 27.9674 36.1786 27.6548C35.866 27.3423 35.4421 27.1667 35.0001 27.1667Z" fill="#1F1F1F"/>
</svg>
