<svg xmlns="http://www.w3.org/2000/svg" width="40" height="40" viewBox="0 0 40 40" fill="none">
  <path d="M32.7894 16.1782C30.5803 20.0045 25.6876 21.3155 21.8612 19.1064C18.0349 16.8973 16.7239 12.0045 18.933 8.1782C21.1422 4.35186 26.0349 3.04086 29.8612 5.25C33.6876 7.45914 34.9986 12.3519 32.7894 16.1782Z" fill="url(#paint0_linear_31571_149471)"/>
  <path d="M18.5 7.9282C18.7761 7.44991 19.3877 7.28604 19.866 7.56218L32.8564 15.0622C33.3347 15.3383 33.4986 15.9499 33.2224 16.4282C32.9463 16.9065 32.3347 17.0704 31.8564 16.7942L18.866 9.29423C18.3877 9.01809 18.2239 8.4065 18.5 7.9282Z" fill="#69737C"/>
  <path d="M28.0574 20.3744C25.1923 22.5221 21.7731 27.2642 14.9593 37.0609L9.76314 34.0609C14.8405 23.2616 17.2376 17.9294 17.6651 14.3744L28.0574 20.3744Z" fill="#6C7882"/>
  <path d="M18.6292 20.7045C19.1814 19.7479 20.4046 19.4201 21.3612 19.9724C22.3178 20.5247 22.6456 21.7479 22.0933 22.7045L21.0933 24.4365C20.541 25.3931 19.3178 25.7209 18.3612 25.1686C17.4046 24.6163 17.0769 23.3931 17.6292 22.4365L18.6292 20.7045Z" fill="#3B3B3B"/>
  <path d="M21.6603 22.4545C21.246 23.1719 20.3287 23.4177 19.6112 23.0035C18.8938 22.5893 18.648 21.6719 19.0622 20.9545C19.4764 20.237 20.3938 19.9912 21.1112 20.4054C21.8287 20.8197 22.0745 21.737 21.6603 22.4545Z" fill="#CCCCCC"/>
  <path d="M17.4821 13.6913C17.6201 13.4522 17.9259 13.3703 18.1651 13.5083L28.5574 19.5083C28.7965 19.6464 28.8785 19.9522 28.7404 20.1913C28.6023 20.4305 28.2965 20.5124 28.0574 20.3744L17.6651 14.3744C17.4259 14.2363 17.344 13.9305 17.4821 13.6913Z" fill="#69737C"/>
  <defs>
    <linearGradient id="paint0_linear_31571_149471" x1="21.1459" y1="6.53295" x2="34.1437" y2="23.8717" gradientUnits="userSpaceOnUse">
      <stop stop-color="#626262"/>
      <stop offset="1" stop-color="#4B4B4B"/>
    </linearGradient>
  </defs>
</svg>
