<svg xmlns="http://www.w3.org/2000/svg" width="60" height="60" viewBox="0 0 60 60" fill="none">
  <rect width="60" height="60" rx="30" fill="#10477A"/>
  <mask id="mask0_13878_39474" style="mask-type:alpha" maskUnits="userSpaceOnUse" x="0" y="0" width="60" height="60">
    <rect width="60" height="60" fill="black"/>
  </mask>
  <g mask="url(#mask0_13878_39474)">
    <path d="M31.5 30L21.75 20.25C21.2917 19.7917 21.0625 19.2083 21.0625 18.5C21.0625 17.7917 21.2917 17.2083 21.75 16.75C22.2083 16.2917 22.7917 16.0625 23.5 16.0625C24.2083 16.0625 24.7917 16.2917 25.25 16.75L36.75 28.25C37 28.5 37.1771 28.7708 37.2812 29.0625C37.3854 29.3542 37.4375 29.6667 37.4375 30C37.4375 30.3333 37.3854 30.6458 37.2812 30.9375C37.1771 31.2292 37 31.5 36.75 31.75L25.25 43.25C24.7917 43.7083 24.2083 43.9375 23.5 43.9375C22.7917 43.9375 22.2083 43.7083 21.75 43.25C21.2917 42.7917 21.0625 42.2083 21.0625 41.5C21.0625 40.7917 21.2917 40.2083 21.75 39.75L31.5 30Z" fill="white"/>
  </g>
</svg>
