<svg xmlns="http://www.w3.org/2000/svg" width="60" height="60" viewBox="0 0 60 60" fill="none">
  <rect width="60" height="60" rx="30" fill="#10477A"/>
  <mask id="mask0_13878_39475" style="mask-type:alpha" maskUnits="userSpaceOnUse" x="0" y="0" width="60" height="60">
    <rect width="60" height="60" fill="black"/>
  </mask>
  <g mask="url(#mask0_13878_39475)">
    <path d="M27 30L36.75 39.75C37.2083 40.2083 37.4375 40.7917 37.4375 41.5C37.4375 42.2083 37.2083 42.7917 36.75 43.25C36.2917 43.7083 35.7083 43.9375 35 43.9375C34.2917 43.9375 33.7083 43.7083 33.25 43.25L21.75 31.75C21.5 31.5 21.3229 31.2292 21.2188 30.9375C21.1146 30.6458 21.0625 30.3333 21.0625 30C21.0625 29.6667 21.1146 29.3542 21.2188 29.0625C21.3229 28.7708 21.5 28.5 21.75 28.25L33.25 16.75C33.7083 16.2917 34.2917 16.0625 35 16.0625C35.7083 16.0625 36.2917 16.2917 36.75 16.75C37.2083 17.2083 37.4375 17.7917 37.4375 18.5C37.4375 19.2083 37.2083 19.7917 36.75 20.25L27 30Z" fill="white"/>
  </g>
</svg>
