<svg xmlns="http://www.w3.org/2000/svg" width="40" height="40" viewBox="0 0 40 40" fill="none">
  <path d="M24.25 3.84073C23.25 0.845957 20.25 1.96238 20.25 3.95688V29.9514L30.75 39.8407L36.25 34.3407L27.75 25.8407L24.25 3.84073Z" fill="#FFAF93"/>
  <path d="M20.5 4.20688C20.5 4.06881 20.3881 3.95688 20.25 3.95688C20.1119 3.95688 20 4.06881 20 4.20688V29.7069C20 29.845 20.1119 29.9569 20.25 29.9569C20.3881 29.9569 20.5 29.8449 20.5 29.7069V4.20688Z" fill="#EE8778"/>
  <path d="M21.4105 11.9107C21.4105 11.9107 18.7514 12.458 21.4145 12.4117C24.0776 12.3655 24.494 20.0004 23.6869 25.0841L24.0181 25.0937C24.7724 16.9695 24.25 12.4569 21.4105 11.9107Z" fill="#EE8778"/>
  <path d="M23.4477 34.085C23.0343 33.682 23.0259 33.0202 23.4289 32.6069L28.9538 26.9401C29.3568 26.5268 30.0186 26.5184 30.432 26.9214C30.8453 27.3244 30.8537 27.9862 30.4507 28.3995L24.9258 34.0663C24.5228 34.4796 23.861 34.488 23.4477 34.085Z" fill="#65B9FF"/>
  <path d="M24.9465 35.4733C24.551 35.0878 24.543 34.4547 24.9286 34.0592L30.5167 28.3276C30.9022 27.9322 31.5354 27.9241 31.9308 28.3097C32.3262 28.6952 32.3343 29.3283 31.9487 29.7238L26.3606 35.4554C25.975 35.8508 25.3419 35.8589 24.9465 35.4733Z" fill="#65B9FF"/>
  <path d="M16 3.84073C17 0.845957 20 1.96238 20 3.95688V29.9514L9.5 39.8407L4 34.3407L12.5 25.8407L16 3.84073Z" fill="#FFAF93"/>
  <path d="M19.75 4.20688C19.75 4.06881 19.8619 3.95688 20 3.95688C20.1381 3.95688 20.25 4.06881 20.25 4.20688V29.7069C20.25 29.845 20.1381 29.9569 20 29.9569C19.8619 29.9569 19.75 29.8449 19.75 29.7069V4.20688Z" fill="#EE8778"/>
  <path d="M18.8395 11.9107C18.8395 11.9107 21.4986 12.458 18.8355 12.4117C16.1724 12.3655 15.756 20.0004 16.5631 25.0841L16.2319 25.0937C15.4776 16.9695 16 12.4569 18.8395 11.9107Z" fill="#EE8778"/>
  <path d="M16.8023 34.085C17.2157 33.682 17.2241 33.0202 16.8211 32.6069L11.2962 26.9401C10.8932 26.5268 10.2314 26.5184 9.81801 26.9214C9.40466 27.3244 9.39627 27.9862 9.79928 28.3995L15.3242 34.0663C15.7272 34.4796 16.389 34.488 16.8023 34.085Z" fill="#65B9FF"/>
  <path d="M15.3035 35.4733C15.699 35.0878 15.707 34.4547 15.3214 34.0592L9.7333 28.3276C9.34775 27.9322 8.71464 27.9241 8.3192 28.3097C7.92375 28.6952 7.91573 29.3283 8.30127 29.7238L13.8894 35.4554C14.275 35.8508 14.9081 35.8589 15.3035 35.4733Z" fill="#65B9FF"/>
</svg>
