<svg xmlns="http://www.w3.org/2000/svg" width="30" height="30" viewBox="0 0 30 30" fill="none">
  <path d="M24.5124 20C24.4445 19.8481 24.3515 19.7086 24.2374 19.5875L18.4499 13.75C18.2108 13.5452 17.9032 13.4382 17.5886 13.4504C17.274 13.4625 16.9756 13.5929 16.7529 13.8155C16.5303 14.0382 16.3999 14.3366 16.3878 14.6512C16.3756 14.9658 16.4826 15.2734 16.6874 15.5125L20.3374 19.1625H11.5874C10.5928 19.1625 9.63901 18.7674 8.93575 18.0642C8.23249 17.3609 7.8374 16.4071 7.8374 15.4125V3.75C7.8374 3.41848 7.70571 3.10054 7.47129 2.86612C7.23687 2.6317 6.91892 2.5 6.5874 2.5C6.25588 2.5 5.93794 2.6317 5.70352 2.86612C5.4691 3.10054 5.3374 3.41848 5.3374 3.75V15.4625C5.3374 17.1201 5.99588 18.7098 7.16798 19.8819C8.34009 21.054 9.9298 21.7125 11.5874 21.7125H20.3374L16.6874 25.3625C16.5702 25.4787 16.4772 25.617 16.4138 25.7693C16.3503 25.9216 16.3177 26.085 16.3177 26.25C16.3177 26.415 16.3503 26.5784 16.4138 26.7307C16.4772 26.883 16.5702 27.0213 16.6874 27.1375C16.8042 27.2534 16.9427 27.345 17.095 27.4072C17.2473 27.4694 17.4104 27.501 17.5749 27.5C17.9028 27.4986 18.2171 27.3684 18.4499 27.1375L24.2374 21.35C24.3557 21.2322 24.4492 21.092 24.5124 20.9375C24.634 20.6368 24.634 20.3007 24.5124 20Z" fill="black"/>
</svg>
