<svg width="24" height="24" viewBox="0 0 24 24" fill="none" xmlns="http://www.w3.org/2000/svg">
<path d="M15.5004 14.0024H14.7104L14.4304 13.7324C15.5285 12.4532 16.0883 10.7984 15.9922 9.11536C15.8962 7.4323 15.1517 5.85192 13.9153 4.70603C12.6788 3.56015 11.0464 2.93789 9.36094 2.96993C7.67545 3.00196 6.06792 3.68579 4.87588 4.87783C3.68384 6.06987 3.00001 7.6774 2.96798 9.3629C2.93594 11.0484 3.55819 12.6807 4.70408 13.9172C5.84996 15.1537 7.43035 15.8981 9.11341 15.9942C10.7965 16.0902 12.4513 15.5304 13.7304 14.4324L14.0004 14.7124V15.5024L18.2504 19.7524C18.4498 19.9409 18.7149 20.0443 18.9893 20.0405C19.2637 20.0366 19.5258 19.9259 19.7199 19.7318C19.914 19.5378 20.0247 19.2757 20.0285 19.0013C20.0323 18.7269 19.929 18.4618 19.7404 18.2624L15.5004 14.0024ZM9.50041 14.0024C8.6104 14.0024 7.74037 13.7384 7.00035 13.244C6.26032 12.7495 5.68355 12.0467 5.34295 11.2244C5.00236 10.4022 4.91324 9.49737 5.08688 8.62446C5.26051 7.75154 5.68909 6.94972 6.31843 6.32038C6.94777 5.69105 7.74959 5.26246 8.6225 5.08883C9.49542 4.9152 10.4002 5.00431 11.2225 5.34491C12.0448 5.6855 12.7476 6.26228 13.242 7.0023C13.7365 7.74232 14.0004 8.61235 14.0004 9.50236C14.0012 10.0935 13.8853 10.6791 13.6595 11.2254C13.4336 11.7717 13.1022 12.2681 12.6842 12.6861C12.2661 13.1041 11.7697 13.4356 11.2234 13.6614C10.6771 13.8873 10.0916 14.0032 9.50041 14.0024Z" fill="#727272"/>
</svg>
