<svg width="15" height="16" viewBox="0 0 15 16" fill="none" xmlns="http://www.w3.org/2000/svg">
<path d="M11.25 5.5C11.25 4.50544 10.8549 3.55161 10.1517 2.84835C9.44839 2.14509 8.49456 1.75 7.5 1.75C6.50544 1.75 5.55161 2.14509 4.84835 2.84835C4.14509 3.55161 3.75 4.50544 3.75 5.5C3.75 9.875 1.875 11.125 1.875 11.125H13.125C13.125 11.125 11.25 9.875 11.25 5.5Z" stroke="#EEEEEE" stroke-linecap="round" stroke-linejoin="round"/>
<path d="M8.58144 13.625C8.47156 13.8144 8.31385 13.9717 8.12409 14.081C7.93433 14.1903 7.71918 14.2478 7.50019 14.2478C7.28121 14.2478 7.06606 14.1903 6.8763 14.081C6.68654 13.9717 6.52883 13.8144 6.41895 13.625" stroke="#EEEEEE" stroke-linecap="round" stroke-linejoin="round"/>
</svg>
