<svg xmlns="http://www.w3.org/2000/svg" width="36" height="36" viewBox="0 0 36 36" fill="none">
  <path d="M25.5 20.1162L19.065 13.7562C18.9256 13.6156 18.7597 13.504 18.5769 13.4279C18.3941 13.3517 18.1981 13.3125 18 13.3125C17.802 13.3125 17.606 13.3517 17.4232 13.4279C17.2404 13.504 17.0745 13.6156 16.935 13.7562L10.575 20.1162C10.4345 20.2556 10.3229 20.4215 10.2467 20.6043C10.1706 20.7871 10.1313 20.9832 10.1313 21.1812C10.1313 21.3792 10.1706 21.5753 10.2467 21.7581C10.3229 21.9409 10.4345 22.1068 10.575 22.2462C10.8561 22.5256 11.2363 22.6824 11.6325 22.6824C12.0288 22.6824 12.409 22.5256 12.69 22.2462L18 16.9362L23.31 22.2462C23.5894 22.5233 23.9665 22.6795 24.36 22.6812C24.5575 22.6823 24.7531 22.6445 24.9359 22.5699C25.1187 22.4952 25.2849 22.3852 25.425 22.2462C25.5707 22.1118 25.6882 21.9498 25.7708 21.7697C25.8535 21.5896 25.8997 21.3949 25.9066 21.1968C25.9136 20.9988 25.8813 20.8013 25.8115 20.6158C25.7417 20.4303 25.6358 20.2605 25.5 20.1162Z" fill="white"/>
</svg>
