<svg width="15" height="16" viewBox="0 0 15 16" fill="none" xmlns="http://www.w3.org/2000/svg">
<path d="M4.89005 12.5846C4.4999 12.5846 4.17014 12.4551 3.90075 12.1961C3.63136 11.9371 3.49666 11.62 3.49666 11.2448V1.75776C3.49666 1.38262 3.63136 1.06554 3.90075 0.806511C4.17014 0.547483 4.4999 0.417969 4.89005 0.417969H12.6766C13.0668 0.417969 13.3965 0.547483 13.6659 0.806511C13.9353 1.06554 14.07 1.38262 14.07 1.75776V11.2448C14.07 11.62 13.9353 11.9371 13.6659 12.1961C13.3965 12.4551 13.0668 12.5846 12.6766 12.5846H4.89005ZM4.89005 11.5013H12.6766C12.7433 11.5013 12.8044 11.4746 12.8599 11.4211C12.9155 11.3678 12.9433 11.309 12.9433 11.2448V1.75776C12.9433 1.69359 12.9155 1.63484 12.8599 1.58151C12.8044 1.52804 12.7433 1.5013 12.6766 1.5013H4.89005C4.82331 1.5013 4.76221 1.52804 4.70675 1.58151C4.65114 1.63484 4.62333 1.69359 4.62333 1.75776V11.2448C4.62333 11.309 4.65114 11.3678 4.70675 11.4211C4.76221 11.4746 4.82331 11.5013 4.89005 11.5013ZM2.20338 15.168C1.81324 15.168 1.48347 15.0385 1.21408 14.7794C0.944692 14.5204 0.809998 14.2033 0.809998 13.8282V3.79943C0.809998 3.64568 0.863514 3.51693 0.970548 3.41318C1.07744 3.30957 1.21018 3.25776 1.36878 3.25776C1.52738 3.25776 1.66171 3.30957 1.77178 3.41318C1.8817 3.51693 1.93666 3.64568 1.93666 3.79943V13.8282C1.93666 13.8923 1.96447 13.9511 2.02008 14.0044C2.07555 14.0579 2.13665 14.0846 2.20338 14.0846H10.5533C10.7132 14.0846 10.8471 14.136 10.955 14.2388C11.0627 14.3417 11.1166 14.4694 11.1166 14.6219C11.1166 14.7744 11.0627 14.9035 10.955 15.0092C10.8471 15.1151 10.7132 15.168 10.5533 15.168H2.20338Z" fill="#727272"/>
</svg>
