<svg width="16" height="16" viewBox="0 0 16 16" fill="none" xmlns="http://www.w3.org/2000/svg">
<path d="M10.3525 9.42014C10.2906 9.35765 10.2168 9.30806 10.1356 9.27421C10.0544 9.24037 9.96722 9.22294 9.87922 9.22294C9.79121 9.22294 9.70407 9.24037 9.62283 9.27421C9.54159 9.30806 9.46786 9.35765 9.40588 9.42014C9.28171 9.54505 9.21202 9.71402 9.21202 9.89014C9.21202 10.0663 9.28171 10.2352 9.40588 10.3601L13.5259 14.4801C13.5879 14.5426 13.6616 14.5922 13.7428 14.6261C13.8241 14.6599 13.9112 14.6773 13.9992 14.6773C14.0872 14.6773 14.1744 14.6599 14.2556 14.6261C14.3368 14.5922 14.4106 14.5426 14.4725 14.4801C14.5967 14.3552 14.6664 14.1863 14.6664 14.0101C14.6664 13.834 14.5967 13.665 14.4725 13.5401L10.3525 9.42014ZM11.1725 7.76014C11.7028 7.75967 12.2112 7.54865 12.5859 7.17347L14.4725 5.28681C14.5967 5.1619 14.6664 4.99293 14.6664 4.81681C14.6664 4.64068 14.5967 4.47171 14.4725 4.34681C14.4106 4.28432 14.3368 4.23472 14.2556 4.20088C14.1744 4.16703 14.0872 4.14961 13.9992 4.14961C13.9112 4.14961 13.8241 4.16703 13.7428 4.20088C13.6616 4.23472 13.5879 4.28432 13.5259 4.34681L11.6392 6.23347C11.5143 6.35764 11.3453 6.42733 11.1692 6.42733C10.9931 6.42733 10.8241 6.35764 10.6992 6.23347L13.0592 3.87347C13.1834 3.74856 13.2531 3.5796 13.2531 3.40347C13.2531 3.22735 13.1834 3.05838 13.0592 2.93347C12.9972 2.87099 12.9235 2.82139 12.8423 2.78754C12.761 2.7537 12.6739 2.73627 12.5859 2.73627C12.4979 2.73627 12.4107 2.7537 12.3295 2.78754C12.2483 2.82139 12.1745 2.87099 12.1125 2.93347L9.75922 5.28681C9.63505 5.1619 9.56535 4.99293 9.56535 4.81681C9.56535 4.64068 9.63505 4.47171 9.75922 4.34681L11.6392 2.46014C11.709 2.40037 11.7657 2.32683 11.8057 2.24412C11.8457 2.16141 11.8682 2.07132 11.8717 1.97951C11.8753 1.88769 11.8598 1.79614 11.8263 1.71059C11.7928 1.62504 11.742 1.54734 11.677 1.48237C11.612 1.4174 11.5343 1.36656 11.4488 1.33305C11.3632 1.29953 11.2717 1.28406 11.1798 1.28761C11.088 1.29115 10.9979 1.31364 10.9152 1.35365C10.8325 1.39367 10.759 1.45035 10.6992 1.52014L8.81255 3.40681C8.43801 3.78181 8.22764 4.29014 8.22764 4.82014C8.22764 5.35014 8.43801 5.85847 8.81255 6.23347L7.99922 7.06014L6.95921 6.03347C7.25438 5.50078 7.366 4.88573 7.27684 4.28329C7.18768 3.68085 6.90269 3.1245 6.46588 2.70014C5.50588 1.74014 3.01921 0.666805 1.84588 1.86014C0.672548 3.05347 1.73255 5.51347 2.66588 6.48014C3.1871 7.00323 3.88787 7.30832 4.62588 7.33347H4.71921C5.16996 7.32706 5.61121 7.20296 5.99922 6.97347L7.04588 8.00014L1.52588 13.5201C1.46416 13.5823 1.41529 13.656 1.38205 13.7371C1.34881 13.8181 1.33187 13.9049 1.33218 13.9925C1.33249 14.0801 1.35005 14.1668 1.38385 14.2476C1.41766 14.3284 1.46706 14.4018 1.52921 14.4635C1.59137 14.5252 1.66508 14.5741 1.74613 14.6073C1.82718 14.6405 1.91398 14.6575 2.00157 14.6572C2.08917 14.6569 2.17585 14.6393 2.25666 14.6055C2.33747 14.5717 2.41083 14.5223 2.47255 14.4601L8.47255 8.46014L9.75255 7.18014C9.93943 7.3655 10.1611 7.51215 10.4047 7.61168C10.6484 7.71121 10.9093 7.76166 11.1725 7.76014ZM5.61922 5.62681C5.49432 5.75096 5.34526 5.84816 5.18128 5.91238C5.0173 5.97659 4.84188 6.00647 4.66588 6.00014C4.27615 5.98336 3.90812 5.81607 3.63921 5.53347C2.91921 4.81347 2.41255 3.18014 2.79255 2.80014C2.91876 2.70493 3.07471 2.65767 3.23255 2.66681C4.08341 2.73462 4.88877 3.07877 5.52588 3.64681C5.79806 3.89862 5.96038 4.24731 5.97784 4.6177C5.9953 4.98809 5.8665 5.35051 5.61922 5.62681Z" fill="#727272"/>
</svg>
