<svg width="16" height="16" viewBox="0 0 16 16" fill="none" xmlns="http://www.w3.org/2000/svg">
<path d="M6.27333 5.33333H11.3333C11.5101 5.33333 11.6797 5.2631 11.8047 5.13807C11.9298 5.01305 12 4.84348 12 4.66667C12 4.48986 11.9298 4.32029 11.8047 4.19526C11.6797 4.07024 11.5101 4 11.3333 4H4.66667C4.57955 4.00105 4.49348 4.01917 4.41333 4.05333C4.25043 4.12098 4.12098 4.25043 4.05333 4.41333C4.01917 4.49348 4.00105 4.57955 4 4.66667V11.3333C4 11.5101 4.07024 11.6797 4.19526 11.8047C4.32029 11.9298 4.48986 12 4.66667 12C4.84348 12 5.01305 11.9298 5.13807 11.8047C5.2631 11.6797 5.33333 11.5101 5.33333 11.3333V6.27333L10.86 11.8067C10.922 11.8692 10.9957 11.9187 11.0769 11.9526C11.1582 11.9864 11.2453 12.0039 11.3333 12.0039C11.4213 12.0039 11.5085 11.9864 11.5897 11.9526C11.671 11.9187 11.7447 11.8692 11.8067 11.8067C11.8692 11.7447 11.9187 11.671 11.9526 11.5897C11.9864 11.5085 12.0039 11.4213 12.0039 11.3333C12.0039 11.2453 11.9864 11.1582 11.9526 11.0769C11.9187 10.9957 11.8692 10.922 11.8067 10.86L6.27333 5.33333Z" fill="#727272"/>
</svg>
