<svg width="16" height="16" viewBox="0 0 16 16" fill="none" xmlns="http://www.w3.org/2000/svg">
<path d="M14.6673 5.21318C14.6705 5.17102 14.6705 5.12867 14.6673 5.08651L13.334 1.75318C13.2819 1.62142 13.1892 1.50967 13.0693 1.43415C12.9495 1.35863 12.8087 1.32326 12.6673 1.33318H3.33398C3.20047 1.33305 3.06998 1.37302 2.95944 1.4479C2.8489 1.52278 2.76339 1.62914 2.71398 1.75318L1.38065 5.08651C1.37744 5.12867 1.37744 5.17102 1.38065 5.21318C1.3585 5.25029 1.34272 5.29085 1.33398 5.33318C1.3414 5.79401 1.46814 6.24504 1.70181 6.6423C1.93549 7.03955 2.26814 7.36946 2.66732 7.59985V13.9998C2.66732 14.1767 2.73756 14.3462 2.86258 14.4713C2.9876 14.5963 3.15717 14.6665 3.33398 14.6665H12.6673C12.8441 14.6665 13.0137 14.5963 13.1387 14.4713C13.2637 14.3462 13.334 14.1767 13.334 13.9998V7.62651C13.737 7.39383 14.0721 7.05973 14.3061 6.6574C14.54 6.25508 14.6645 5.79855 14.6673 5.33318C14.6736 5.29342 14.6736 5.25293 14.6673 5.21318ZM8.66732 13.3332H7.33398V10.6665H8.66732V13.3332ZM12.0007 13.3332H10.0007V9.99985C10.0007 9.82303 9.93041 9.65347 9.80539 9.52844C9.68036 9.40342 9.5108 9.33318 9.33398 9.33318H6.66732C6.49051 9.33318 6.32094 9.40342 6.19591 9.52844C6.07089 9.65347 6.00065 9.82303 6.00065 9.99985V13.3332H4.00065V7.99985C4.3803 7.9977 4.75511 7.91452 5.10002 7.75586C5.44493 7.5972 5.75199 7.36673 6.00065 7.07985C6.2509 7.3636 6.55866 7.59085 6.90348 7.74651C7.24831 7.90217 7.62232 7.98268 8.00065 7.98268C8.37899 7.98268 8.75299 7.90217 9.09782 7.74651C9.44265 7.59085 9.75041 7.3636 10.0007 7.07985C10.2493 7.36673 10.5564 7.5972 10.9013 7.75586C11.2462 7.91452 11.621 7.9977 12.0007 7.99985V13.3332ZM12.0007 6.66651C11.647 6.66651 11.3079 6.52604 11.0578 6.27599C10.8078 6.02594 10.6673 5.6868 10.6673 5.33318C10.6673 5.15637 10.5971 4.9868 10.4721 4.86177C10.347 4.73675 10.1775 4.66651 10.0007 4.66651C9.82384 4.66651 9.65427 4.73675 9.52925 4.86177C9.40422 4.9868 9.33398 5.15637 9.33398 5.33318C9.33398 5.6868 9.19351 6.02594 8.94346 6.27599C8.69341 6.52604 8.35427 6.66651 8.00065 6.66651C7.64703 6.66651 7.30789 6.52604 7.05784 6.27599C6.80779 6.02594 6.66732 5.6868 6.66732 5.33318C6.66732 5.15637 6.59708 4.9868 6.47206 4.86177C6.34703 4.73675 6.17746 4.66651 6.00065 4.66651C5.82384 4.66651 5.65427 4.73675 5.52925 4.86177C5.40422 4.9868 5.33398 5.15637 5.33398 5.33318C5.34055 5.50827 5.31256 5.68295 5.25162 5.84723C5.19068 6.01151 5.09798 6.16218 4.97882 6.29063C4.85965 6.41909 4.71634 6.52281 4.55709 6.59588C4.39783 6.66896 4.22575 6.70995 4.05065 6.71651C3.69703 6.72977 3.35262 6.60202 3.0932 6.36134C2.96474 6.24217 2.86102 6.09887 2.78795 5.93962C2.71487 5.78036 2.67388 5.60827 2.66732 5.43318L3.78732 2.66651H12.214L13.334 5.43318C13.3087 5.76919 13.1572 6.08317 12.9098 6.31198C12.6624 6.54079 12.3376 6.66746 12.0007 6.66651Z" fill="#727272"/>
</svg>
