<svg width="56" height="56" viewBox="0 0 56 56" fill="none" xmlns="http://www.w3.org/2000/svg">
<path d="M46.6552 20.8275C46.6552 35.1723 32.7621 49.9653 27.8276 53.9997C22.9004 49.9653 8.99755 35.1723 9 20.8275C9 10.4294 17.4294 2 27.8276 2C38.2258 2 46.6552 10.4294 46.6552 20.8275Z" fill="#FEE1A4"/>
<path d="M16.6211 41.4262C29.2509 38.3715 35.8398 35.0806 46.2073 25.3105C43.8356 38.1365 32.2161 50.3857 27.792 54.0001C25.3466 51.9992 20.6919 47.3523 16.6211 41.4262Z" fill="#FCCC77"/>
<ellipse cx="27.8283" cy="20.8282" rx="15.2414" ry="15.2413" fill="#FEF2D1"/>
<path d="M32.3098 11.8633H34.1029V31.5873H32.3098V11.8633Z" fill="#FAB655"/>
<path d="M28.7236 11.8633H30.5167V19.0357H28.7236V11.8633Z" fill="#FAB655"/>
<path d="M30.5167 19.0357H28.7236V20.3805L30.0685 21.277L32.3098 22.6219V20.0603L30.5167 19.0357Z" fill="#FAB655"/>
<path d="M35.896 19.0357H37.6891V20.3805L36.3443 21.277L34.1029 22.6219V20.0603L35.896 19.0357Z" fill="#FAB655"/>
<path d="M35.896 11.8633H37.6891V19.0357H35.896V11.8633Z" fill="#FAB655"/>
<path d="M21.5524 21.7238L23.3455 21.7255L23.3361 31.5876L21.543 31.5858L21.5524 21.7238Z" fill="#FAB655"/>
<path d="M26.936 17.2462C26.9331 20.2171 24.9239 22.6236 22.4481 22.6212C19.9723 22.6189 17.9676 20.2086 17.9705 17.2377C17.9733 14.2668 19.9826 11.8603 22.4583 11.8627C24.9341 11.865 26.9388 14.2753 26.936 17.2462Z" fill="#FAB655"/>
</svg>
