<svg width="16" height="16" viewBox="0 0 16 16" fill="none" xmlns="http://www.w3.org/2000/svg">
<path d="M7.99992 14.6663C11.6818 14.6663 14.6666 11.6816 14.6666 7.99967C14.6666 4.31778 11.6818 1.33301 7.99992 1.33301C4.31802 1.33301 1.33325 4.31778 1.33325 7.99967C1.33325 11.6816 4.31802 14.6663 7.99992 14.6663Z" stroke="#CACACA" stroke-linecap="round" stroke-linejoin="round"/>
<path d="M8 5.33301V7.99967" stroke="#CACACA" stroke-linecap="round" stroke-linejoin="round"/>
<path d="M8.08325 10.4997H7.99992M8.16659 10.4997C8.16659 10.5917 8.09199 10.6663 7.99992 10.6663C7.90785 10.6663 7.83325 10.5917 7.83325 10.4997C7.83325 10.4076 7.90785 10.333 7.99992 10.333C8.09199 10.333 8.16659 10.4076 8.16659 10.4997Z" stroke="#CACACA" stroke-linecap="round" stroke-linejoin="round"/>
</svg>
