<svg width="24" height="24" viewBox="0 0 24 24" fill="none" xmlns="http://www.w3.org/2000/svg">
<path d="M12.0003 22C17.5231 22 22.0003 17.5228 22.0003 12C22.0003 6.47715 17.5231 2 12.0003 2C6.4774 2 2.00024 6.47715 2.00024 12C2.00024 17.5228 6.4774 22 12.0003 22Z" stroke="#B611F5" stroke-width="1.5" stroke-linecap="round" stroke-linejoin="round"/>
<path d="M12.0002 11.875V12M12.2502 12C12.2502 12.138 12.1383 12.25 12.0002 12.25C11.8621 12.25 11.7502 12.138 11.7502 12C11.7502 11.8619 11.8621 11.75 12.0002 11.75C12.1383 11.75 12.2502 11.8619 12.2502 12Z" stroke="#B611F5" stroke-width="1.5" stroke-linecap="round" stroke-linejoin="round"/>
<path d="M17.0002 11.875V12M17.2502 12C17.2502 12.138 17.1383 12.25 17.0002 12.25C16.8621 12.25 16.7502 12.138 16.7502 12C16.7502 11.8619 16.8621 11.75 17.0002 11.75C17.1383 11.75 17.2502 11.8619 17.2502 12Z" stroke="#B611F5" stroke-width="1.5" stroke-linecap="round" stroke-linejoin="round"/>
<path d="M7.00024 11.875V12M7.25024 12C7.25024 12.138 7.13831 12.25 7.00024 12.25C6.86217 12.25 6.75024 12.138 6.75024 12C6.75024 11.8619 6.86217 11.75 7.00024 11.75C7.13831 11.75 7.25024 11.8619 7.25024 12Z" stroke="#B611F5" stroke-width="1.5" stroke-linecap="round" stroke-linejoin="round"/>
</svg>
