<svg width="16" height="16" viewBox="0 0 16 16" fill="none" xmlns="http://www.w3.org/2000/svg">
<path d="M7.66797 8.66699H13.668" stroke="#CACACA" stroke-linecap="round" stroke-linejoin="round"/>
<path d="M9.0014 6.66699C9.0014 6.66699 7.00146 8.13993 7.00146 8.66699C7.0014 9.19406 9.00146 10.667 9.00146 10.667" stroke="#CACACA" stroke-linecap="round" stroke-linejoin="round"/>
<path d="M9.33184 1.33301H5.99853C5.44625 1.33301 4.99854 1.78073 4.99854 2.33301C4.99854 2.88529 5.44625 3.33301 5.99853 3.33301H9.33184C9.88417 3.33301 10.3318 2.88529 10.3318 2.33301C10.3318 1.78073 9.88417 1.33301 9.33184 1.33301Z" stroke="#CACACA" stroke-linecap="round" stroke-linejoin="round"/>
<path d="M10.3321 2.33301C11.3677 2.36422 11.9854 2.47973 12.4129 2.90725C12.9644 3.45873 12.9967 4.32661 12.9986 5.99967M4.99863 2.33301C3.96304 2.36421 3.34534 2.47972 2.91782 2.90725C2.33203 3.49303 2.33203 4.43585 2.33204 6.32147L2.33203 10.666C2.33203 12.5516 2.33204 13.4944 2.91782 14.0802C3.5036 14.666 4.44642 14.666 6.33203 14.666H8.99867C10.8843 14.666 11.8271 14.666 12.4129 14.0802C12.9251 13.568 12.9895 12.7828 12.9975 11.333" stroke="#CACACA" stroke-linecap="round" stroke-linejoin="round"/>
</svg>
