<svg width="24" height="24" viewBox="0 0 24 24" fill="none" xmlns="http://www.w3.org/2000/svg">
<path d="M22 11V16C22 18.357 22 19.5355 21.2678 20.2678C20.5355 21 19.357 21 17 21H7C4.64298 21 3.46447 21 2.73223 20.2678C2 19.5355 2 18.357 2 16V11C2 9.59987 2 8.8998 2.27248 8.36502C2.51217 7.89462 2.89462 7.51217 3.36502 7.27248C3.8998 7 4.59987 7 6 7L9.6 4.3C10.7556 3.43333 11.3333 3 12 3C12.6667 3 13.2444 3.43333 14.4 4.3L18 7C19.4001 7 20.1002 7 20.635 7.27248C21.1054 7.51217 21.4878 7.89462 21.7275 8.36502C22 8.8998 22 9.59987 22 11Z" stroke="#B611F5" stroke-width="1.5" stroke-linecap="round" stroke-linejoin="round"/>
<path d="M10 21V18C10 16.8954 10.8954 16 12 16C13.1046 16 14 16.8954 14 18V21" stroke="#B611F5" stroke-width="1.5" stroke-linecap="round" stroke-linejoin="round"/>
<path d="M6.5 11H5.5V12H6.5V11Z" stroke="#B611F5" stroke-width="1.5" stroke-linecap="round" stroke-linejoin="round"/>
<path d="M6.5 15.5H5.5V16.5H6.5V15.5Z" stroke="#B611F5" stroke-width="1.5" stroke-linecap="round" stroke-linejoin="round"/>
<path d="M18.5 11H17.5V12H18.5V11Z" stroke="#B611F5" stroke-width="1.5" stroke-linecap="round" stroke-linejoin="round"/>
<path d="M18.5 15.5H17.5V16.5H18.5V15.5Z" stroke="#B611F5" stroke-width="1.5" stroke-linecap="round" stroke-linejoin="round"/>
<path d="M12 12C13.1046 12 14 11.1046 14 10C14 8.89544 13.1046 8 12 8C10.8954 8 10 8.89544 10 10C10 11.1046 10.8954 12 12 12Z" stroke="#B611F5" stroke-width="1.5" stroke-linecap="round" stroke-linejoin="round"/>
</svg>
