<svg width="24" height="24" viewBox="0 0 24 24" fill="none" xmlns="http://www.w3.org/2000/svg">
<path d="M6.00227 4C4.44882 4.0468 3.52225 4.22005 2.88095 4.86135C2.00227 5.74003 2.00227 7.15425 2.00227 9.98267L1.99756 16.0002C1.99756 18.8287 1.99756 20.2429 2.87624 21.1216C3.75492 22.0002 5.16913 22.0002 7.99756 22.0002H15.9975C18.8259 22.0002 20.2402 22.0002 21.1188 21.1216C21.9975 20.2429 21.9975 18.8287 21.9975 16.0002L22.0022 9.98267C22.0022 7.15425 22.0022 5.74003 21.1235 4.86135C20.4822 4.22005 19.5557 4.0468 18.0022 4" stroke="#B611F5" stroke-width="1.5" stroke-linecap="round" stroke-linejoin="round"/>
<path d="M17.9976 4L17.2703 6.25629C16.4899 8.63873 16.0998 9.82995 15.2142 9.98434C14.3285 10.1387 13.5125 8.98231 11.9976 7L15.9976 2L17.9976 4Z" stroke="#B611F5" stroke-width="1.5" stroke-linecap="round" stroke-linejoin="round"/>
<path d="M5.99756 4L6.72493 6.25629C7.50523 8.63873 7.89538 9.82995 8.78102 9.98434C9.66665 10.1387 10.4826 8.98231 11.9975 7L7.99756 2L5.99756 4Z" stroke="#B611F5" stroke-width="1.5" stroke-linecap="round" stroke-linejoin="round"/>
<path d="M15.9975 2H7.99756" stroke="#B611F5" stroke-width="1.5" stroke-linecap="round" stroke-linejoin="round"/>
<path d="M9.49756 10L10.4975 12H13.4975L14.4975 10" stroke="#B611F5" stroke-width="1.5" stroke-linecap="round" stroke-linejoin="round"/>
<path d="M10.4975 12L8.99756 22M14.9975 22L13.4975 12" stroke="#B611F5" stroke-width="1.5" stroke-linecap="round" stroke-linejoin="round"/>
</svg>
