<svg width="24" height="24" viewBox="0 0 24 24" fill="none" xmlns="http://www.w3.org/2000/svg">
<mask id="mask0_8294_15943" style="mask-type:alpha" maskUnits="userSpaceOnUse" x="0" y="0" width="24" height="24">
<rect width="24" height="24" fill="#D9D9D9"/>
</mask>
<g mask="url(#mask0_8294_15943)">
<path d="M12.0008 13.4008L7.10078 18.3008C6.91745 18.4841 6.68411 18.5758 6.40078 18.5758C6.11745 18.5758 5.88411 18.4841 5.70078 18.3008C5.51745 18.1174 5.42578 17.8841 5.42578 17.6008C5.42578 17.3174 5.51745 17.0841 5.70078 16.9008L10.6008 12.0008L5.70078 7.10078C5.51745 6.91745 5.42578 6.68411 5.42578 6.40078C5.42578 6.11745 5.51745 5.88411 5.70078 5.70078C5.88411 5.51745 6.11745 5.42578 6.40078 5.42578C6.68411 5.42578 6.91745 5.51745 7.10078 5.70078L12.0008 10.6008L16.9008 5.70078C17.0841 5.51745 17.3174 5.42578 17.6008 5.42578C17.8841 5.42578 18.1174 5.51745 18.3008 5.70078C18.4841 5.88411 18.5758 6.11745 18.5758 6.40078C18.5758 6.68411 18.4841 6.91745 18.3008 7.10078L13.4008 12.0008L18.3008 16.9008C18.4841 17.0841 18.5758 17.3174 18.5758 17.6008C18.5758 17.8841 18.4841 18.1174 18.3008 18.3008C18.1174 18.4841 17.8841 18.5758 17.6008 18.5758C17.3174 18.5758 17.0841 18.4841 16.9008 18.3008L12.0008 13.4008Z" fill="#CACACA"/>
</g>
</svg>
