<svg width="32" height="32" viewBox="0 0 32 32" fill="none" xmlns="http://www.w3.org/2000/svg">
<mask id="mask0_6941_11913" style="mask-type:alpha" maskUnits="userSpaceOnUse" x="0" y="0" width="32" height="32">
<rect width="32" height="32" fill="#D9D9D9"/>
</mask>
<g mask="url(#mask0_6941_11913)">
<path d="M15.9995 17.2514L11.6409 21.5794C11.4458 21.7727 11.244 21.8672 11.0355 21.8627C10.8269 21.8585 10.626 21.7598 10.4329 21.5667C10.2398 21.3736 10.1432 21.1706 10.1432 20.9577C10.1432 20.7448 10.2398 20.541 10.4329 20.3461L14.7482 16.0001L10.4202 11.6747C10.2269 11.4796 10.1324 11.2756 10.1369 11.0627C10.1411 10.8501 10.2398 10.6472 10.4329 10.4541C10.626 10.2607 10.829 10.1641 11.0419 10.1641C11.2548 10.1641 11.4586 10.2607 11.6535 10.4541L15.9995 14.7821L20.3249 10.4541C20.52 10.2607 20.7218 10.1641 20.9302 10.1641C21.1389 10.1641 21.3398 10.2607 21.5329 10.4541C21.7175 10.6385 21.8099 10.8393 21.8099 11.0564C21.8099 11.2735 21.7175 11.4796 21.5329 11.6747L17.2175 16.0001L21.5455 20.3587C21.7389 20.5538 21.8355 20.7556 21.8355 20.9641C21.8355 21.1727 21.7389 21.3736 21.5455 21.5667C21.3611 21.7514 21.1603 21.8437 20.9432 21.8437C20.7261 21.8437 20.52 21.7514 20.3249 21.5667L15.9995 17.2514Z" fill="#CACACA"/>
</g>
</svg>
