<svg width="20" height="20" viewBox="0 0 20 20" fill="none" xmlns="http://www.w3.org/2000/svg">
<mask id="mask0_5310_6676" style="mask-type:alpha" maskUnits="userSpaceOnUse" x="0" y="0" width="20" height="20">
<rect width="20" height="20" fill="#D9D9D9"/>
</mask>
<g mask="url(#mask0_5310_6676)">
<path d="M10.0002 10.7811L7.27603 13.4861C7.15409 13.607 7.02798 13.666 6.8977 13.6632C6.76728 13.6606 6.64173 13.5989 6.52103 13.4782C6.40034 13.3575 6.33999 13.2307 6.33999 13.0976C6.33999 12.9645 6.40034 12.8371 6.52103 12.7153L9.21811 9.99906L6.51311 7.29573C6.39228 7.17378 6.33325 7.04629 6.33603 6.91323C6.33867 6.78031 6.40034 6.65351 6.52103 6.53281C6.64173 6.41198 6.7686 6.35156 6.90166 6.35156C7.03471 6.35156 7.16214 6.41198 7.28395 6.53281L10.0002 9.23781L12.7035 6.53281C12.8255 6.41198 12.9516 6.35156 13.0819 6.35156C13.2123 6.35156 13.3378 6.41198 13.4585 6.53281C13.5739 6.64809 13.6317 6.77358 13.6317 6.90927C13.6317 7.04497 13.5739 7.17378 13.4585 7.29573L10.7614 9.99906L13.4664 12.7232C13.5873 12.8452 13.6477 12.9713 13.6477 13.1016C13.6477 13.232 13.5873 13.3575 13.4664 13.4782C13.3512 13.5936 13.2257 13.6514 13.09 13.6514C12.9543 13.6514 12.8255 13.5936 12.7035 13.4782L10.0002 10.7811Z" fill="white"/>
</g>
</svg>
