<svg width="10" height="14" viewBox="0 0 10 14" fill="none" xmlns="http://www.w3.org/2000/svg">
<path d="M5.00046 13.2056C4.89101 13.2056 4.77884 13.1883 4.66396 13.1536C4.54896 13.1191 4.44234 13.0616 4.34412 12.9811L0.549122 10.0685C0.410678 9.95901 0.306845 9.83229 0.237622 9.68829C0.1684 9.54429 0.133789 9.38851 0.133789 9.22096V1.70562C0.133789 1.40551 0.2374 1.15185 0.444622 0.944623C0.651845 0.737401 0.905511 0.633789 1.20562 0.633789H8.79529C9.0954 0.633789 9.34907 0.737401 9.55629 0.944623C9.76351 1.15185 9.86712 1.40551 9.86712 1.70562V9.22096C9.86712 9.38851 9.83251 9.54429 9.76329 9.68829C9.69407 9.83229 9.59023 9.95901 9.45179 10.0685L5.65679 12.9811C5.55857 13.0616 5.45196 13.1191 5.33696 13.1536C5.22207 13.1883 5.1099 13.2056 5.00046 13.2056ZM4.87862 12.294C4.91284 12.324 4.95346 12.339 5.00046 12.339C5.04746 12.339 5.08807 12.324 5.12229 12.294L8.91712 9.36462C8.94279 9.34318 8.96307 9.31857 8.97796 9.29079C8.99296 9.26301 9.00046 9.23207 9.00046 9.19796V1.70562C9.00046 1.65429 8.97907 1.60729 8.93629 1.56462C8.89362 1.52184 8.84662 1.50046 8.79529 1.50046H1.20562C1.15429 1.50046 1.10729 1.52184 1.06462 1.56462C1.02184 1.60729 1.00046 1.65429 1.00046 1.70562V9.19796C1.00046 9.23207 1.00796 9.26301 1.02296 9.29079C1.03784 9.31857 1.05812 9.34318 1.08379 9.36462L4.87862 12.294ZM4.30046 6.84412L3.17229 5.71579C3.08418 5.62779 2.98479 5.58168 2.87412 5.57746C2.76346 5.57312 2.66196 5.61662 2.56962 5.70796C2.4774 5.80551 2.43234 5.91029 2.43446 6.02229C2.43657 6.13418 2.48379 6.23629 2.57612 6.32862L3.91196 7.68129C4.0204 7.79062 4.14685 7.84529 4.29129 7.84529C4.43585 7.84529 4.56284 7.79062 4.67229 7.68129L7.43512 4.91846C7.52312 4.83035 7.56923 4.73096 7.57346 4.62029C7.57779 4.50962 7.53429 4.40812 7.44296 4.31579C7.3454 4.22357 7.24062 4.17851 7.12862 4.18062C7.01673 4.18273 6.91462 4.22996 6.82229 4.32229L4.30046 6.84412Z" fill="#175C8E"/>
</svg>
