<svg width="9" height="6" viewBox="0 0 9 6" fill="none" xmlns="http://www.w3.org/2000/svg">
<path d="M3 4.47L7.28 0.18C7.395 0.0647222 7.5425 0 7.72 0C7.89764 0 8.04459 0.0650214 8.16 0.180021C8.27528 0.295021 8.34 0.452781 8.34 0.63042C8.34 0.808198 8.27528 0.945003 8.16 1.06042L3.52 5.70042C3.36931 5.85111 3.20084 5.92 3 5.92C2.79917 5.92 2.6207 5.85069 2.47 5.7L0.180002 3.41C0.0647241 3.295 0 3.1475 0 2.97C0 2.79236 0.0650012 2.64542 0.180001 2.53C0.300002 2.41472 0.450002 2.35042 0.630001 2.36C0.800002 2.36 0.944585 2.41472 1.06 2.53L3 4.47Z" fill="black" fill-opacity="0.87"/>
</svg>
