<svg width="16" height="16" viewBox="0 0 16 16" fill="none" xmlns="http://www.w3.org/2000/svg">
<mask id="mask0_9230_21001" style="mask-type:alpha" maskUnits="userSpaceOnUse" x="0" y="0" width="16" height="16">
<rect width="16" height="16" fill="#D9D9D9"/>
</mask>
<g mask="url(#mask0_9230_21001)">
<path d="M7.99598 10.1433C8.12865 10.1433 8.24103 10.0985 8.33315 10.0088C8.42526 9.91902 8.47131 9.8078 8.47131 9.67513C8.47131 9.54246 8.42642 9.43008 8.33665 9.33796C8.24687 9.24585 8.13565 9.1998 8.00298 9.1998C7.87031 9.1998 7.75792 9.24469 7.66581 9.33446C7.5737 9.42424 7.52765 9.53546 7.52765 9.66813C7.52765 9.8008 7.57253 9.91319 7.66231 10.0053C7.75209 10.0973 7.86331 10.1433 7.99598 10.1433ZM7.99615 8.1408C8.11803 8.1408 8.22126 8.0993 8.30581 8.0163C8.39048 7.93319 8.43281 7.83024 8.43281 7.70746V5.48963C8.43281 5.36685 8.39159 5.26391 8.30915 5.1808C8.2267 5.0978 8.12459 5.0563 8.00281 5.0563C7.88092 5.0563 7.7777 5.0978 7.69315 5.1808C7.60848 5.26391 7.56615 5.36685 7.56615 5.48963V7.70746C7.56615 7.83024 7.60737 7.93319 7.68981 8.0163C7.77226 8.0993 7.87437 8.1408 7.99615 8.1408ZM7.99948 13.9805C7.94137 13.9805 7.87898 13.9777 7.81231 13.9721C7.74565 13.9666 7.68665 13.9527 7.63531 13.9305C6.27387 13.4527 5.18309 12.6079 4.36298 11.396C3.54287 10.184 3.13281 8.85746 3.13281 7.41646V4.56396C3.13281 4.3363 3.19453 4.13146 3.31798 3.94946C3.44131 3.76735 3.60737 3.6363 3.81615 3.5563L7.61098 2.1063C7.74265 2.05496 7.87215 2.0293 7.99948 2.0293C8.12681 2.0293 8.25631 2.05496 8.38798 2.1063L12.1828 3.5563C12.3916 3.6363 12.5576 3.76735 12.681 3.94946C12.8044 4.13146 12.8661 4.3363 12.8661 4.56396V7.41646C12.8661 8.85746 12.4561 10.184 11.636 11.396C10.8159 12.6079 9.72509 13.4527 8.36365 13.9305C8.31231 13.9527 8.25331 13.9666 8.18665 13.9721C8.11998 13.9777 8.05759 13.9805 7.99948 13.9805ZM7.99948 13.1498C9.15504 12.7915 10.1106 12.0748 10.8661 10.9998C11.6217 9.9248 11.9995 8.73035 11.9995 7.41646V4.55746C11.9995 4.5148 11.9877 4.47635 11.9641 4.44213C11.9407 4.40791 11.9076 4.38224 11.8648 4.36513L8.06998 2.91513C8.04865 2.90657 8.02515 2.9023 7.99948 2.9023C7.97381 2.9023 7.95031 2.90657 7.92898 2.91513L4.13415 4.36513C4.09137 4.38224 4.05826 4.40791 4.03481 4.44213C4.01126 4.47635 3.99948 4.5148 3.99948 4.55746V7.41646C3.99948 8.73035 4.37726 9.9248 5.13281 10.9998C5.88837 12.0748 6.84392 12.7915 7.99948 13.1498Z" fill="#4B4B4B"/>
</g>
</svg>
