<svg width="14" height="12" viewBox="0 0 14 12" fill="none" xmlns="http://www.w3.org/2000/svg">
<path d="M4.40026 3.09704L6.16943 0.781544C6.27798 0.643655 6.4062 0.539989 6.55409 0.470544C6.70198 0.400989 6.85626 0.366211 7.01693 0.366211C7.17759 0.366211 7.32909 0.400989 7.47143 0.470544C7.61376 0.539989 7.7392 0.643655 7.84776 0.781544L9.61693 3.09704L12.3399 3.99438C12.5699 4.07904 12.7475 4.21166 12.8726 4.39221C12.9978 4.57288 13.0604 4.77588 13.0604 5.00121C13.0604 5.10954 13.0458 5.21471 13.0164 5.31671C12.9871 5.41871 12.9381 5.51854 12.8694 5.61621L11.1079 8.02388L11.1746 10.6342C11.1746 10.9408 11.07 11.2005 10.8608 11.4134C10.6516 11.6264 10.4024 11.7329 10.1131 11.7329C10.1036 11.7329 10.0088 11.7183 9.82843 11.6892L7.00026 10.8854L4.17209 11.6892C4.11654 11.7114 4.06754 11.7243 4.02509 11.7277C3.98265 11.7312 3.93676 11.7329 3.88743 11.7329C3.59509 11.7329 3.34232 11.6264 3.12909 11.4134C2.91587 11.2005 2.81482 10.9408 2.82593 10.6342L2.89259 8.02388L1.12459 5.61621C1.05593 5.5181 1.00693 5.4206 0.977594 5.32371C0.94826 5.22671 0.933594 5.12421 0.933594 5.01621C0.933594 4.78699 0.998483 4.57816 1.12826 4.38971C1.25804 4.20127 1.44315 4.06738 1.68359 3.98804L4.40026 3.09704Z" fill="#FFC62B"/>
</svg>
