<svg width="24" height="25" viewBox="0 0 24 25" fill="none" xmlns="http://www.w3.org/2000/svg">
<mask id="mask0_8025_16072" style="mask-type:alpha" maskUnits="userSpaceOnUse" x="0" y="0" width="24" height="25">
<rect y="0.5" width="24" height="24" fill="black"/>
</mask>
<g mask="url(#mask0_8025_16072)">
<path d="M10.7998 12.5008L14.6998 16.4008C14.8831 16.5841 14.9748 16.8174 14.9748 17.1008C14.9748 17.3841 14.8831 17.6174 14.6998 17.8008C14.5165 17.9841 14.2831 18.0758 13.9998 18.0758C13.7165 18.0758 13.4831 17.9841 13.2998 17.8008L8.6998 13.2008C8.5998 13.1008 8.52897 12.9924 8.4873 12.8758C8.44564 12.7591 8.4248 12.6341 8.4248 12.5008C8.4248 12.3674 8.44564 12.2424 8.4873 12.1258C8.52897 12.0091 8.5998 11.9008 8.6998 11.8008L13.2998 7.20078C13.4831 7.01745 13.7165 6.92578 13.9998 6.92578C14.2831 6.92578 14.5165 7.01745 14.6998 7.20078C14.8831 7.38411 14.9748 7.61745 14.9748 7.90078C14.9748 8.18411 14.8831 8.41745 14.6998 8.60078L10.7998 12.5008Z" fill="black"/>
</g>
</svg>
