<svg width="32" height="32" viewBox="0 0 32 32" fill="none" xmlns="http://www.w3.org/2000/svg">
<rect width="32" height="32" rx="16" fill="#10477A"/>
<mask id="mask0_7989_26595" style="mask-type:alpha" maskUnits="userSpaceOnUse" x="0" y="0" width="32" height="32">
<rect width="32" height="32" fill="black"/>
</mask>
<g mask="url(#mask0_7989_26595)">
<path d="M14.4001 15.9997L19.6001 21.1997C19.8445 21.4442 19.9667 21.7553 19.9667 22.1331C19.9667 22.5109 19.8445 22.822 19.6001 23.0664C19.3556 23.3109 19.0445 23.4331 18.6667 23.4331C18.289 23.4331 17.9778 23.3109 17.7334 23.0664L11.6001 16.9331C11.4667 16.7997 11.3723 16.6553 11.3167 16.4997C11.2612 16.3442 11.2334 16.1775 11.2334 15.9997C11.2334 15.822 11.2612 15.6553 11.3167 15.4997C11.3723 15.3442 11.4667 15.1997 11.6001 15.0664L17.7334 8.93307C17.9778 8.68863 18.289 8.56641 18.6667 8.56641C19.0445 8.56641 19.3556 8.68863 19.6001 8.93307C19.8445 9.17752 19.9667 9.48863 19.9667 9.86641C19.9667 10.2442 19.8445 10.5553 19.6001 10.7997L14.4001 15.9997Z" fill="white"/>
</g>
</svg>
