<svg width="24" height="24" viewBox="0 0 24 24" fill="none" xmlns="http://www.w3.org/2000/svg">
<mask id="mask0_7960_30860" style="mask-type:alpha" maskUnits="userSpaceOnUse" x="0" y="0" width="24" height="24">
<rect width="24" height="24" fill="#D9D9D9"/>
</mask>
<g mask="url(#mask0_7960_30860)">
<path d="M9.99987 5.90319C9.4922 5.90319 9.05762 5.72244 8.69612 5.36094C8.33445 4.99944 8.15362 4.56485 8.15362 4.05719C8.15362 3.54952 8.33445 3.11485 8.69612 2.75319C9.05762 2.39169 9.4922 2.21094 9.99987 2.21094C10.5075 2.21094 10.9421 2.39169 11.3036 2.75319C11.6653 3.11485 11.8461 3.54952 11.8461 4.05719C11.8461 4.56485 11.6653 4.99944 11.3036 5.36094C10.9421 5.72244 10.5075 5.90319 9.99987 5.90319ZM16.4999 18.1532C17.2384 18.1532 17.8653 17.8955 18.3806 17.3802C18.896 16.8649 19.1536 16.2379 19.1536 15.4994C19.1536 14.7609 18.896 14.134 18.3806 13.6187C17.8653 13.1034 17.2384 12.8457 16.4999 12.8457C15.7614 12.8457 15.1345 13.1034 14.6191 13.6187C14.1038 14.134 13.8461 14.7609 13.8461 15.4994C13.8461 16.2379 14.1038 16.8649 14.6191 17.3802C15.1345 17.8955 15.7614 18.1532 16.4999 18.1532ZM18.8614 18.9052C18.5075 19.1514 18.1327 19.3376 17.7369 19.4639C17.341 19.5901 16.9287 19.6532 16.4999 19.6532C15.346 19.6532 14.3653 19.2494 13.5576 18.4417C12.75 17.634 12.3461 16.6533 12.3461 15.4994C12.3461 14.3456 12.75 13.3649 13.5576 12.5572C14.3653 11.7495 15.346 11.3457 16.4999 11.3457C17.6537 11.3457 18.6345 11.7495 19.4421 12.5572C20.2498 13.3649 20.6536 14.3456 20.6536 15.4994C20.6536 15.9283 20.5905 16.3406 20.4644 16.7364C20.338 17.1323 20.1518 17.5071 19.9056 17.8609L22.1269 20.0724C22.2652 20.2104 22.3344 20.3859 22.3344 20.5989C22.3344 20.8121 22.2654 20.9879 22.1274 21.1264C21.9894 21.2648 21.8138 21.3339 21.6006 21.3339C21.3873 21.3339 21.2114 21.2648 21.0729 21.1264L18.8614 18.9052ZM11.0961 18.8302C11.2883 19.1469 11.512 19.4382 11.7671 19.7042C12.0223 19.9702 12.2985 20.2141 12.5959 20.4359V20.9994C12.5959 21.2119 12.524 21.39 12.3804 21.5337C12.2365 21.6775 12.0583 21.7494 11.8456 21.7494C11.6331 21.7494 11.455 21.6775 11.3114 21.5337C11.1679 21.39 11.0961 21.2119 11.0961 20.9994V18.8302ZM8.90362 15.6339V20.9994C8.90362 21.2119 8.8317 21.39 8.68787 21.5337C8.5442 21.6775 8.36604 21.7494 8.15337 21.7494C7.94087 21.7494 7.76278 21.6775 7.61912 21.5337C7.47562 21.39 7.40387 21.2119 7.40387 20.9994V8.71219C6.5467 8.64385 5.69804 8.54994 4.85787 8.43044C4.01787 8.3111 3.17679 8.15977 2.33462 7.97644C2.11529 7.9226 1.93579 7.80427 1.79612 7.62144C1.65629 7.43877 1.61845 7.23944 1.68262 7.02344C1.74679 6.80744 1.87754 6.64877 2.07487 6.54744C2.27237 6.44627 2.4807 6.4226 2.69987 6.47644C3.89737 6.75327 5.10629 6.94494 6.32662 7.05144C7.54695 7.15777 8.77137 7.21094 9.99987 7.21094C11.2284 7.21094 12.4528 7.15777 13.6731 7.05144C14.8935 6.94494 16.1024 6.75327 17.2999 6.47644C17.519 6.4226 17.7275 6.44602 17.9251 6.54669C18.1228 6.64735 18.2535 6.80469 18.3171 7.01869C18.3813 7.23785 18.3435 7.43877 18.2036 7.62144C18.064 7.80427 17.8845 7.9226 17.6651 7.97644C16.8246 8.1621 15.984 8.31402 15.1434 8.43219C14.3029 8.55052 13.4537 8.64344 12.5959 8.71094V10.5629C11.8754 11.1078 11.2946 11.7937 10.8536 12.6207C10.4126 13.4475 10.1825 14.3494 10.1634 15.3264V15.4802C10.1634 15.5315 10.1685 15.5828 10.1786 15.6339H8.90362Z" fill="#4B4B4B"/>
</g>
</svg>
