<svg width="32" height="32" viewBox="0 0 32 32" fill="none" xmlns="http://www.w3.org/2000/svg">
<mask id="mask0_7960_27980" style="mask-type:alpha" maskUnits="userSpaceOnUse" x="0" y="0" width="32" height="32">
<rect width="32" height="32" fill="#D9D9D9"/>
</mask>
<g mask="url(#mask0_7960_27980)">
<path d="M9.7436 27.333C9.08078 27.333 8.51337 27.097 8.04137 26.625C7.56934 26.153 7.33333 25.5856 7.33333 24.9228V7.99975H7C6.71667 7.99975 6.47917 7.90387 6.2875 7.71211C6.09583 7.52038 6 7.28278 6 6.99931C6 6.71587 6.09583 6.47842 6.2875 6.28698C6.47917 6.09551 6.71667 5.99978 7 5.99978H12C12 5.67329 12.1149 5.39509 12.3448 5.16518C12.5747 4.93527 12.8529 4.82031 13.1794 4.82031H18.8205C19.147 4.82031 19.4252 4.93527 19.6551 5.16518C19.885 5.39509 20 5.67329 20 5.99978H24.9999C25.2833 5.99978 25.5208 6.09566 25.7124 6.28741C25.9041 6.47917 25.9999 6.71677 25.9999 7.00021C25.9999 7.28368 25.9041 7.52114 25.7124 7.71258C25.5208 7.90402 25.2833 7.99975 24.9999 7.99975H24.6666V24.9228C24.6666 25.5856 24.4306 26.153 23.9586 26.625C23.4866 27.097 22.9192 27.333 22.2563 27.333H9.7436ZM22.6666 7.99975H9.3333V24.9228C9.3333 25.0424 9.37177 25.1407 9.4487 25.2177C9.52563 25.2946 9.62393 25.3331 9.7436 25.3331H22.2563C22.376 25.3331 22.4743 25.2946 22.5512 25.2177C22.6282 25.1407 22.6666 25.0424 22.6666 24.9228V7.99975ZM13.5389 22.6664C13.8223 22.6664 14.0598 22.5706 14.2512 22.3789C14.4427 22.1872 14.5384 21.9498 14.5384 21.6664V11.6664C14.5384 11.3831 14.4426 11.1456 14.2508 10.9539C14.059 10.7622 13.8214 10.6664 13.538 10.6664C13.2545 10.6664 13.0171 10.7622 12.8256 10.9539C12.6342 11.1456 12.5385 11.3831 12.5385 11.6664V21.6664C12.5385 21.9498 12.6343 22.1872 12.8261 22.3789C13.0178 22.5706 13.2554 22.6664 13.5389 22.6664ZM18.4619 22.6664C18.7454 22.6664 18.9829 22.5706 19.1743 22.3789C19.3657 22.1872 19.4615 21.9498 19.4615 21.6664V11.6664C19.4615 11.3831 19.3656 11.1456 19.1738 10.9539C18.9821 10.7622 18.7445 10.6664 18.461 10.6664C18.1776 10.6664 17.9401 10.7622 17.7487 10.9539C17.5572 11.1456 17.4615 11.3831 17.4615 11.6664V21.6664C17.4615 21.9498 17.5574 22.1872 17.7491 22.3789C17.9409 22.5706 18.1785 22.6664 18.4619 22.6664Z" fill="#10477A"/>
</g>
</svg>
