<svg width="20" height="20" viewBox="0 0 20 20" fill="none" xmlns="http://www.w3.org/2000/svg">
<mask id="mask0_7960_27872" style="mask-type:alpha" maskUnits="userSpaceOnUse" x="0" y="0" width="20" height="20">
<rect width="20" height="20" fill="#D9D9D9"/>
</mask>
<g mask="url(#mask0_7960_27872)">
<path d="M4.26323 17.0828C3.84897 17.0828 3.49434 16.9353 3.19934 16.6403C2.90434 16.3453 2.75684 15.9907 2.75684 15.5764V4.42264C2.75684 4.00838 2.90434 3.65374 3.19934 3.35874C3.49434 3.06373 3.84897 2.91622 4.26323 2.91622H10.8818C11.0589 2.91622 11.2073 2.97615 11.3271 3.09599C11.4469 3.21584 11.5068 3.36434 11.5068 3.54149C11.5068 3.71866 11.4469 3.86707 11.3271 3.98672C11.2073 4.10638 11.0589 4.1662 10.8818 4.1662H4.26323C4.18844 4.1662 4.127 4.19024 4.07892 4.23833C4.03084 4.28641 4.00679 4.34785 4.00679 4.42264V15.5764C4.00679 15.6512 4.03084 15.7127 4.07892 15.7607C4.127 15.8088 4.18844 15.8329 4.26323 15.8329H15.417C15.4918 15.8329 15.5533 15.8088 15.6013 15.7607C15.6494 15.7127 15.6735 15.6512 15.6735 15.5764V8.95785C15.6735 8.78078 15.7334 8.63235 15.8532 8.51256C15.9731 8.39276 16.1216 8.33287 16.2987 8.33287C16.4759 8.33287 16.6243 8.39276 16.7439 8.51256C16.8636 8.63235 16.9234 8.78078 16.9234 8.95785V15.5764C16.9234 15.9907 16.7759 16.3453 16.4809 16.6403C16.1859 16.9353 15.8313 17.0828 15.417 17.0828H4.26323ZM14.3273 5.51233H13.2856C13.1086 5.51233 12.9601 5.45241 12.8404 5.33258C12.7206 5.21273 12.6607 5.06423 12.6607 4.88708C12.6607 4.70991 12.7206 4.5615 12.8404 4.44185C12.9601 4.3222 13.1086 4.26237 13.2856 4.26237H14.3273V3.22068C14.3273 3.0436 14.3873 2.89516 14.5071 2.77537C14.6269 2.65559 14.7754 2.5957 14.9526 2.5957C15.1298 2.5957 15.2782 2.65559 15.3978 2.77537C15.5175 2.89516 15.5773 3.0436 15.5773 3.22068V4.26237H16.619C16.7961 4.26237 16.9445 4.32229 17.0643 4.44212C17.1841 4.56197 17.244 4.71047 17.244 4.88762C17.244 5.06479 17.1841 5.2132 17.0643 5.33285C16.9445 5.4525 16.7961 5.51233 16.619 5.51233H15.5773V6.55401C15.5773 6.7311 15.5174 6.87953 15.3975 6.99933C15.2777 7.1191 15.1292 7.17899 14.952 7.17899C14.7749 7.17899 14.6265 7.1191 14.5068 6.99933C14.3872 6.87953 14.3273 6.7311 14.3273 6.55401V5.51233ZM9.19911 13.3489L7.83373 11.5989C7.75575 11.5038 7.65666 11.4563 7.53646 11.4563C7.41627 11.4563 7.31718 11.5065 7.23919 11.6069L5.92511 13.3553C5.82468 13.4835 5.81145 13.616 5.88544 13.7527C5.95943 13.8895 6.07041 13.9578 6.21838 13.9578H13.526C13.674 13.9578 13.7849 13.8895 13.8589 13.7527C13.9329 13.616 13.9224 13.4835 13.8273 13.3553L11.8401 10.6935C11.7621 10.593 11.6617 10.5428 11.5388 10.5428C11.416 10.5428 11.3154 10.5937 11.237 10.6955L9.19911 13.3489Z" fill="#10477A"/>
</g>
</svg>
