<svg width="40" height="41" viewBox="0 0 40 41" fill="none" xmlns="http://www.w3.org/2000/svg">
<g clip-path="url(#clip0_7592_2333)">
<path d="M6.66406 27.168C6.66623 27.8671 6.81572 28.558 7.10278 29.1955C7.38983 29.833 7.80801 30.4029 8.33006 30.868V33.834C8.33164 34.2753 8.50768 34.6982 8.81977 35.0103C9.13186 35.3224 9.5547 35.4984 9.99606 35.5H11.6641C12.1054 35.4984 12.5283 35.3224 12.8404 35.0103C13.1524 34.6982 13.3285 34.2753 13.3301 33.834V32.168H26.6641V33.834C26.6656 34.2753 26.8417 34.6982 27.1538 35.0103C27.4659 35.3224 27.8887 35.4984 28.3301 35.5H29.9961C30.4378 35.4989 30.8611 35.3231 31.1736 35.011C31.4862 34.6988 31.6625 34.2757 31.6641 33.834V30.868C32.1861 30.4029 32.6043 29.833 32.8913 29.1955C33.1784 28.558 33.3279 27.8671 33.3301 27.168V10.5C33.3301 4.66798 27.3641 3.83398 19.9981 3.83398C12.6321 3.83398 6.66406 4.66798 6.66406 10.5V27.168ZM12.4981 28.834C12.0036 28.834 11.5203 28.6874 11.1091 28.4127C10.698 28.138 10.3776 27.7475 10.1884 27.2907C9.99915 26.8339 9.94964 26.3312 10.0461 25.8463C10.1426 25.3613 10.3807 24.9158 10.7303 24.5662C11.0799 24.2166 11.5254 23.9785 12.0103 23.882C12.4953 23.7856 12.998 23.8351 13.4548 24.0243C13.9116 24.2135 14.302 24.5339 14.5767 24.9451C14.8514 25.3562 14.9981 25.8395 14.9981 26.334C14.9986 26.6624 14.9343 26.9878 14.8088 27.2913C14.6834 27.5949 14.4993 27.8707 14.267 28.1029C14.0348 28.3352 13.7589 28.5193 13.4554 28.6448C13.1518 28.7702 12.8265 28.8345 12.4981 28.834ZM27.4981 28.834C27.0036 28.834 26.5203 28.6874 26.1091 28.4127C25.698 28.138 25.3776 27.7475 25.1884 27.2907C24.9991 26.8339 24.9496 26.3312 25.0461 25.8463C25.1426 25.3613 25.3807 24.9158 25.7303 24.5662C26.0799 24.2166 26.5254 23.9785 27.0103 23.882C27.4953 23.7856 27.998 23.8351 28.4548 24.0243C28.9116 24.2135 29.302 24.5339 29.5767 24.9451C29.8514 25.3562 29.9981 25.8395 29.9981 26.334C29.9986 26.6624 29.9343 26.9878 29.8088 27.2913C29.6834 27.5949 29.4993 27.8707 29.267 28.1029C29.0348 28.3352 28.7589 28.5193 28.4554 28.6448C28.1518 28.7702 27.8265 28.8345 27.4981 28.834ZM29.9981 18.834H9.99806V10.5H29.9981V18.834Z" fill="#175C8E"/>
</g>
<defs>
<clipPath id="clip0_7592_2333">
<rect width="40" height="40" fill="white" transform="translate(0 0.5)"/>
</clipPath>
</defs>
</svg>
