<svg width="24" height="25" viewBox="0 0 24 25" fill="none" xmlns="http://www.w3.org/2000/svg">
<mask id="mask0_7592_2339" style="mask-type:alpha" maskUnits="userSpaceOnUse" x="0" y="0" width="24" height="25">
<rect y="0.5" width="24" height="24" fill="#D9D9D9"/>
</mask>
<g mask="url(#mask0_7592_2339)">
<path d="M12.9467 12.4995L8.8735 8.42652C8.73517 8.28802 8.66433 8.11394 8.661 7.90427C8.65783 7.69477 8.72867 7.51752 8.8735 7.37252C9.0185 7.22769 9.19417 7.15527 9.4005 7.15527C9.60683 7.15527 9.7825 7.22769 9.9275 7.37252L14.4217 11.8668C14.5152 11.9604 14.5813 12.0592 14.6198 12.163C14.6583 12.2669 14.6775 12.379 14.6775 12.4995C14.6775 12.62 14.6583 12.7322 14.6198 12.836C14.5813 12.9399 14.5152 13.0386 14.4217 13.1323L9.9275 17.6265C9.789 17.7649 9.61492 17.8357 9.40525 17.839C9.19575 17.8422 9.0185 17.7714 8.8735 17.6265C8.72867 17.4815 8.65625 17.3059 8.65625 17.0995C8.65625 16.8932 8.72867 16.7175 8.8735 16.5725L12.9467 12.4995Z" fill="#1C1B1F"/>
</g>
</svg>
