<svg width="20" height="20" viewBox="0 0 20 20" fill="none" xmlns="http://www.w3.org/2000/svg">
<mask id="mask0_20273_44944" style="mask-type:alpha" maskUnits="userSpaceOnUse" x="0" y="0" width="20" height="20">
<rect width="20" height="20" fill="#D9D9D9"/>
</mask>
<g mask="url(#mask0_20273_44944)">
<path d="M2.5 8.33333V3.33333C2.5 3.09722 2.57986 2.89931 2.73958 2.73958C2.89931 2.57986 3.09722 2.5 3.33333 2.5H8.33333C8.56944 2.5 8.76736 2.57986 8.92708 2.73958C9.08681 2.89931 9.16667 3.09722 9.16667 3.33333V8.33333C9.16667 8.56944 9.08681 8.76736 8.92708 8.92708C8.76736 9.08681 8.56944 9.16667 8.33333 9.16667H3.33333C3.09722 9.16667 2.89931 9.08681 2.73958 8.92708C2.57986 8.76736 2.5 8.56944 2.5 8.33333ZM4.16667 7.5H7.5V4.16667H4.16667V7.5ZM2.5 16.6667V11.6667C2.5 11.4306 2.57986 11.2326 2.73958 11.0729C2.89931 10.9132 3.09722 10.8333 3.33333 10.8333H8.33333C8.56944 10.8333 8.76736 10.9132 8.92708 11.0729C9.08681 11.2326 9.16667 11.4306 9.16667 11.6667V16.6667C9.16667 16.9028 9.08681 17.1007 8.92708 17.2604C8.76736 17.4201 8.56944 17.5 8.33333 17.5H3.33333C3.09722 17.5 2.89931 17.4201 2.73958 17.2604C2.57986 17.1007 2.5 16.9028 2.5 16.6667ZM4.16667 15.8333H7.5V12.5H4.16667V15.8333ZM10.8333 8.33333V3.33333C10.8333 3.09722 10.9132 2.89931 11.0729 2.73958C11.2326 2.57986 11.4306 2.5 11.6667 2.5H16.6667C16.9028 2.5 17.1007 2.57986 17.2604 2.73958C17.4201 2.89931 17.5 3.09722 17.5 3.33333V8.33333C17.5 8.56944 17.4201 8.76736 17.2604 8.92708C17.1007 9.08681 16.9028 9.16667 16.6667 9.16667H11.6667C11.4306 9.16667 11.2326 9.08681 11.0729 8.92708C10.9132 8.76736 10.8333 8.56944 10.8333 8.33333ZM12.5 7.5H15.8333V4.16667H12.5V7.5ZM15.8333 17.5V15.8333H17.5V17.5H15.8333ZM10.8333 12.5V10.8333H12.5V12.5H10.8333ZM12.5 14.1667V12.5H14.1667V14.1667H12.5ZM10.8333 15.8333V14.1667H12.5V15.8333H10.8333ZM12.5 17.5V15.8333H14.1667V17.5H12.5ZM14.1667 15.8333V14.1667H15.8333V15.8333H14.1667ZM14.1667 12.5V10.8333H15.8333V12.5H14.1667ZM15.8333 14.1667V12.5H17.5V14.1667H15.8333Z" fill="#175C8E"/>
</g>
</svg>
