<svg width="20" height="21" viewBox="0 0 20 21" fill="none" xmlns="http://www.w3.org/2000/svg">
<mask id="mask0_26893_62154" style="mask-type:alpha" maskUnits="userSpaceOnUse" x="0" y="0" width="20" height="21">
<rect y="0.5" width="20" height="20" fill="#D9D9D9"/>
</mask>
<g mask="url(#mask0_26893_62154)">
<path d="M9.9987 11.6673L5.91536 15.7507C5.76259 15.9034 5.56814 15.9798 5.33203 15.9798C5.09592 15.9798 4.90148 15.9034 4.7487 15.7507C4.59592 15.5979 4.51953 15.4034 4.51953 15.1673C4.51953 14.9312 4.59592 14.7368 4.7487 14.584L8.83203 10.5007L4.7487 6.41732C4.59592 6.26454 4.51953 6.0701 4.51953 5.83398C4.51953 5.59787 4.59592 5.40343 4.7487 5.25065C4.90148 5.09787 5.09592 5.02148 5.33203 5.02148C5.56814 5.02148 5.76259 5.09787 5.91536 5.25065L9.9987 9.33398L14.082 5.25065C14.2348 5.09787 14.4293 5.02148 14.6654 5.02148C14.9015 5.02148 15.0959 5.09787 15.2487 5.25065C15.4015 5.40343 15.4779 5.59787 15.4779 5.83398C15.4779 6.0701 15.4015 6.26454 15.2487 6.41732L11.1654 10.5007L15.2487 14.584C15.4015 14.7368 15.4779 14.9312 15.4779 15.1673C15.4779 15.4034 15.4015 15.5979 15.2487 15.7507C15.0959 15.9034 14.9015 15.9798 14.6654 15.9798C14.4293 15.9798 14.2348 15.9034 14.082 15.7507L9.9987 11.6673Z" fill="#727272"/>
</g>
</svg>
