<svg width="16" height="17" viewBox="0 0 16 17" fill="none" xmlns="http://www.w3.org/2000/svg">
<path d="M9.81203 6.36065L6.95203 9.22732L5.85203 8.12732C5.79227 8.05753 5.71872 8.00085 5.63601 7.96083C5.5533 7.92082 5.46322 7.89833 5.3714 7.89479C5.27959 7.89124 5.18804 7.90671 5.10249 7.94023C5.01694 7.97374 4.93924 8.02458 4.87427 8.08955C4.8093 8.15452 4.75846 8.23222 4.72494 8.31777C4.69143 8.40332 4.67596 8.49487 4.6795 8.58669C4.68305 8.6785 4.70553 8.76859 4.74555 8.8513C4.78557 8.93401 4.84225 9.00755 4.91203 9.06732L6.4787 10.6407C6.54099 10.7024 6.61487 10.7513 6.6961 10.7845C6.77732 10.8177 6.8643 10.8345 6.95203 10.834C7.12693 10.8332 7.29453 10.7638 7.4187 10.6407L10.752 7.30732C10.8145 7.24534 10.8641 7.17161 10.898 7.09037C10.9318 7.00913 10.9492 6.92199 10.9492 6.83398C10.9492 6.74598 10.9318 6.65884 10.898 6.5776C10.8641 6.49636 10.8145 6.42263 10.752 6.36065C10.6271 6.23648 10.4582 6.16679 10.282 6.16679C10.1059 6.16679 9.93694 6.23648 9.81203 6.36065ZM7.9987 1.83398C6.68016 1.83398 5.39123 2.22498 4.2949 2.95752C3.19857 3.69006 2.34409 4.73125 1.8395 5.94943C1.33492 7.1676 1.2029 8.50805 1.46013 9.80125C1.71737 11.0945 2.35231 12.2823 3.28466 13.2147C4.21701 14.147 5.40489 14.782 6.6981 15.0392C7.99131 15.2965 9.33175 15.1644 10.5499 14.6598C11.7681 14.1553 12.8093 13.3008 13.5418 12.2045C14.2744 11.1081 14.6654 9.81919 14.6654 8.50065C14.6654 7.62517 14.4929 6.75827 14.1579 5.94943C13.8229 5.14059 13.3318 4.40566 12.7127 3.78661C12.0937 3.16755 11.3588 2.67649 10.5499 2.34145C9.74109 2.00642 8.87418 1.83398 7.9987 1.83398ZM7.9987 13.834C6.94387 13.834 5.91272 13.5212 5.03566 12.9352C4.1586 12.3491 3.47501 11.5162 3.07134 10.5416C2.66768 9.56709 2.56206 8.49474 2.76785 7.46017C2.97363 6.4256 3.48158 5.4753 4.22746 4.72941C4.97334 3.98354 5.92365 3.47558 6.95822 3.2698C7.99278 3.06401 9.06514 3.16963 10.0397 3.57329C11.0142 3.97696 11.8472 4.66055 12.4332 5.53761C13.0192 6.41467 13.332 7.44582 13.332 8.50065C13.332 9.91514 12.7701 11.2717 11.7699 12.2719C10.7697 13.2721 9.41319 13.834 7.9987 13.834Z" fill="#0C9D61"/>
</svg>
