<svg width="20" height="21" viewBox="0 0 20 21" fill="none" xmlns="http://www.w3.org/2000/svg">
<mask id="mask0_26898_61497" style="mask-type:alpha" maskUnits="userSpaceOnUse" x="0" y="0" width="20" height="21">
<rect y="0.5" width="20" height="20" fill="#D9D9D9"/>
</mask>
<g mask="url(#mask0_26898_61497)">
<path d="M12.4798 8.02018C12.7715 8.31185 13.0076 8.66254 13.1882 9.07227C13.3687 9.48199 13.4729 9.90907 13.5007 10.3535C13.5007 10.5618 13.4263 10.7389 13.2777 10.8848C13.129 11.0306 12.9533 11.1035 12.7507 11.1035C12.5365 11.1035 12.3545 11.0306 12.2046 10.8848C12.0547 10.7389 11.9798 10.5618 11.9798 10.3535C12.0076 10.0757 11.9763 9.81879 11.8861 9.58268C11.7958 9.34657 11.6673 9.14171 11.5007 8.9681C11.334 8.79449 11.1361 8.66602 10.9069 8.58268C10.6777 8.49935 10.4243 8.47157 10.1465 8.49935C9.93815 8.49935 9.76107 8.42504 9.61523 8.27643C9.4694 8.12768 9.39648 7.95199 9.39648 7.74935C9.39648 7.54102 9.4694 7.36393 9.61523 7.2181C9.76107 7.07227 9.93815 6.99935 10.1465 6.99935C10.5909 7.02713 11.0145 7.12782 11.4173 7.30143C11.8201 7.47504 12.1743 7.71463 12.4798 8.02018ZM10.0007 5.99935C9.76898 5.99935 9.54343 6.00664 9.32398 6.02122C9.10454 6.03581 8.8851 6.06254 8.66565 6.10143C8.45843 6.1306 8.26107 6.0931 8.07357 5.98893C7.88607 5.88477 7.76454 5.73199 7.70898 5.5306C7.65343 5.32921 7.67773 5.13824 7.7819 4.95768C7.88607 4.77713 8.04072 4.67122 8.24586 4.63997C8.54072 4.58789 8.83294 4.55143 9.12253 4.5306C9.41211 4.50977 9.70482 4.49935 10.0007 4.49935C11.8618 4.49935 13.5736 4.97504 15.1361 5.92643C16.6986 6.87782 17.8835 8.18768 18.6909 9.85602C18.7446 9.96546 18.7819 10.0724 18.8027 10.1768C18.8236 10.2813 18.834 10.3888 18.834 10.4993C18.834 10.6099 18.8236 10.7174 18.8027 10.8218C18.7819 10.9263 18.7507 11.0341 18.709 11.1452C18.4625 11.6705 18.1578 12.1629 17.795 12.6225C17.4321 13.0821 17.0354 13.5132 16.6048 13.916C16.452 14.0549 16.275 14.1174 16.0736 14.1035C15.8722 14.0896 15.702 13.9982 15.5632 13.8293C15.4243 13.6603 15.3652 13.4763 15.3861 13.2773C15.4069 13.0781 15.4937 12.9021 15.6465 12.7493C16.0076 12.4299 16.3295 12.0827 16.6123 11.7077C16.8952 11.3327 17.1427 10.9299 17.3548 10.4993C16.6743 9.09657 15.6708 7.99588 14.3444 7.19727C13.018 6.39865 11.5701 5.99935 10.0007 5.99935ZM10.0007 16.4993C8.18121 16.4993 6.5076 16.0167 4.97982 15.0514C3.45204 14.0862 2.25016 12.8036 1.37419 11.2037C1.30572 11.0953 1.26107 10.9818 1.24023 10.8633C1.2194 10.745 1.20898 10.6234 1.20898 10.4987C1.20898 10.3741 1.2194 10.2528 1.24023 10.1348C1.26107 10.0167 1.30621 9.90213 1.37565 9.79102C1.6951 9.16602 2.06843 8.58282 2.49565 8.04143C2.92301 7.50004 3.41079 7.00685 3.95898 6.56185L2.39648 4.99935C2.24371 4.84657 2.16732 4.67296 2.16732 4.47852C2.16732 4.28407 2.24371 4.11046 2.39648 3.95768C2.54926 3.8049 2.72635 3.72852 2.92773 3.72852C3.12912 3.72852 3.30621 3.8049 3.45898 3.95768L16.5423 17.041C16.6951 17.1938 16.7715 17.3674 16.7715 17.5618C16.7715 17.7563 16.6951 17.9299 16.5423 18.0827C16.3895 18.2355 16.2125 18.3118 16.0111 18.3118C15.8097 18.3118 15.6326 18.2355 15.4798 18.0827L13.2923 15.916C12.759 16.1105 12.218 16.2563 11.6694 16.3535C11.1208 16.4507 10.5645 16.4993 10.0007 16.4993ZM5.02148 7.64518C4.53537 8.03407 4.08398 8.46115 3.66732 8.92643C3.25065 9.39171 2.91037 9.91602 2.64648 10.4993C3.32704 11.9021 4.33051 13.0028 5.6569 13.8014C6.98329 14.6 8.43121 14.9993 10.0007 14.9993C10.3647 14.9993 10.7195 14.975 11.0652 14.9264C11.4111 14.8778 11.7576 14.8118 12.1048 14.7285L11.1673 13.791C10.9729 13.8605 10.7784 13.9125 10.584 13.9473C10.3895 13.982 10.1951 13.9993 10.0007 13.9993C9.02843 13.9993 8.20204 13.6591 7.52148 12.9785C6.84093 12.298 6.50065 11.4716 6.50065 10.4993C6.50065 10.3049 6.52496 10.1105 6.57357 9.91602C6.62218 9.72157 6.66732 9.52713 6.70898 9.33268L5.02148 7.64518Z" fill="#8E8E8E"/>
</g>
</svg>
