<svg width="326" height="39" viewBox="0 0 326 39" fill="none" xmlns="http://www.w3.org/2000/svg">
<path d="M8.42969 24.5H7.18555V15.8867H7.13086L4.72461 17.4863V16.2422L7.18555 14.6016H8.42969V24.5ZM11.0547 23.5977L14.4316 20.043C14.8783 19.5736 15.2178 19.1953 15.4502 18.9082C15.6872 18.6165 15.8649 18.3363 15.9834 18.0674C16.1064 17.7939 16.168 17.5091 16.168 17.2129C16.168 16.8848 16.0814 16.5931 15.9082 16.3379C15.735 16.0827 15.498 15.8844 15.1973 15.7432C14.901 15.6019 14.5684 15.5312 14.1992 15.5312C13.8118 15.5312 13.4723 15.6087 13.1807 15.7637C12.889 15.9186 12.6634 16.1374 12.5039 16.4199C12.349 16.7025 12.2715 17.026 12.2715 17.3906H11.1094C11.1048 16.8164 11.237 16.3083 11.5059 15.8662C11.7793 15.4242 12.1553 15.0801 12.6338 14.834C13.1123 14.5879 13.6478 14.4648 14.2402 14.4648C14.8281 14.4648 15.3545 14.5856 15.8193 14.8271C16.2887 15.0687 16.6556 15.3991 16.9199 15.8184C17.1842 16.2376 17.3164 16.7025 17.3164 17.2129C17.3164 17.5911 17.248 17.9535 17.1113 18.2998C16.9746 18.6416 16.7445 19.0221 16.4209 19.4414C16.1019 19.8561 15.6439 20.3711 15.0469 20.9863L12.7773 23.3242V23.4062H17.4941V24.5H11.0684L11.0547 23.5977ZM22.7031 24.6367C22.0514 24.6367 21.4681 24.5273 20.9531 24.3086C20.4427 24.0898 20.0371 23.7822 19.7363 23.3857C19.4401 22.9893 19.2806 22.5312 19.2578 22.0117H20.502C20.5247 22.3171 20.6341 22.5859 20.8301 22.8184C21.0306 23.0508 21.2926 23.2308 21.6162 23.3584C21.9398 23.4814 22.2975 23.543 22.6895 23.543C23.1178 23.543 23.5029 23.4701 23.8447 23.3242C24.1911 23.1738 24.46 22.9688 24.6514 22.709C24.8473 22.4447 24.9453 22.1439 24.9453 21.8066C24.9453 21.4421 24.8496 21.1208 24.6582 20.8428C24.4714 20.5648 24.1979 20.3483 23.8379 20.1934C23.4779 20.0384 23.0449 19.9609 22.5391 19.9609H21.7324V18.8809H22.5391C22.9355 18.8809 23.2887 18.8102 23.5986 18.6689C23.9085 18.5277 24.1478 18.3294 24.3164 18.0742C24.4896 17.819 24.5762 17.5228 24.5762 17.1855C24.5762 16.862 24.4987 16.5749 24.3438 16.3242C24.1934 16.0736 23.9792 15.8799 23.7012 15.7432C23.4232 15.6019 23.0996 15.5312 22.7305 15.5312C22.375 15.5312 22.0423 15.5951 21.7324 15.7227C21.4225 15.8503 21.1696 16.0326 20.9736 16.2695C20.7777 16.502 20.6706 16.7754 20.6523 17.0898H19.4629C19.4857 16.5794 19.6452 16.126 19.9414 15.7295C20.2376 15.3285 20.6318 15.0186 21.124 14.7998C21.6162 14.5765 22.1562 14.4648 22.7441 14.4648C23.3548 14.4648 23.888 14.5856 24.3438 14.8271C24.804 15.0641 25.1572 15.3854 25.4033 15.791C25.6494 16.1966 25.7702 16.6387 25.7656 17.1172C25.7702 17.6732 25.6221 18.1494 25.3213 18.5459C25.0205 18.9424 24.6081 19.2135 24.084 19.3594V19.4277C24.5078 19.4961 24.8747 19.6396 25.1846 19.8584C25.499 20.0726 25.7383 20.3483 25.9023 20.6855C26.071 21.0182 26.153 21.3919 26.1484 21.8066C26.153 22.3398 26.0049 22.8229 25.7041 23.2559C25.4033 23.6842 24.9886 24.0215 24.46 24.2676C23.9359 24.5137 23.3503 24.6367 22.7031 24.6367ZM27.6797 21.4648L32.1367 14.6016H33.6543V21.3965H35.0352V22.4766H33.6543V24.5H32.4785V22.4766H27.6797V21.4648ZM32.4785 21.3965V16.1602H32.3555L29.0059 21.3145V21.3965H32.4785Z" fill="black"/>
<mask id="mask0_26898_61404" style="mask-type:alpha" maskUnits="userSpaceOnUse" x="306" y="9" width="20" height="21">
<rect x="306" y="9.5" width="20" height="20" fill="#D9D9D9"/>
</mask>
<g mask="url(#mask0_26898_61404)">
<path d="M315.999 23C316.972 23 317.798 22.6597 318.479 21.9792C319.159 21.2986 319.499 20.4722 319.499 19.5C319.499 18.5278 319.159 17.7014 318.479 17.0208C317.798 16.3403 316.972 16 315.999 16C315.027 16 314.201 16.3403 313.52 17.0208C312.84 17.7014 312.499 18.5278 312.499 19.5C312.499 20.4722 312.84 21.2986 313.52 21.9792C314.201 22.6597 315.027 23 315.999 23ZM315.999 21.5C315.444 21.5 314.972 21.3056 314.583 20.9167C314.194 20.5278 313.999 20.0556 313.999 19.5C313.999 18.9444 314.194 18.4722 314.583 18.0833C314.972 17.6944 315.444 17.5 315.999 17.5C316.555 17.5 317.027 17.6944 317.416 18.0833C317.805 18.4722 317.999 18.9444 317.999 19.5C317.999 20.0556 317.805 20.5278 317.416 20.9167C317.027 21.3056 316.555 21.5 315.999 21.5ZM315.999 25.5C314.194 25.5 312.534 25.0174 311.02 24.0521C309.506 23.0868 308.305 21.8125 307.416 20.2292C307.347 20.1181 307.298 20.0016 307.27 19.8798C307.242 19.758 307.229 19.633 307.229 19.5048C307.229 19.3766 307.242 19.25 307.27 19.125C307.298 19 307.347 18.8819 307.416 18.7708C308.305 17.1875 309.506 15.9132 311.02 14.9479C312.534 13.9826 314.194 13.5 315.999 13.5C317.805 13.5 319.465 13.9826 320.979 14.9479C322.492 15.9132 323.694 17.1875 324.583 18.7708C324.652 18.8819 324.701 18.9984 324.729 19.1202C324.756 19.242 324.77 19.367 324.77 19.4952C324.77 19.6234 324.756 19.75 324.729 19.875C324.701 20 324.652 20.1181 324.583 20.2292C323.694 21.8125 322.492 23.0868 320.979 24.0521C319.465 25.0174 317.805 25.5 315.999 25.5ZM315.999 24C317.555 24 318.992 23.5972 320.312 22.7917C321.631 21.9861 322.645 20.8889 323.354 19.5C322.645 18.1111 321.631 17.0139 320.312 16.2083C318.992 15.4028 317.555 15 315.999 15C314.444 15 313.006 15.4028 311.687 16.2083C310.367 17.0139 309.354 18.1111 308.645 19.5C309.354 20.8889 310.367 21.9861 311.687 22.7917C313.006 23.5972 314.444 24 315.999 24Z" fill="#8E8E8E"/>
</g>
</svg>
