<svg xmlns="http://www.w3.org/2000/svg" width="20" height="21" viewBox="0 0 20 21" fill="none">
  <mask id="mask0_26898_61407" style="mask-type:alpha" maskUnits="userSpaceOnUse" x="0" y="0" width="20" height="21">
    <rect y="0.5" width="20" height="20" fill="#D9D9D9"/>
  </mask>
  <g mask="url(#mask0_26898_61407)">
    <path d="M9.99935 14C10.9716 14 11.798 13.6597 12.4785 12.9792C13.1591 12.2986 13.4993 11.4722 13.4993 10.5C13.4993 9.52778 13.1591 8.70139 12.4785 8.02083C11.798 7.34028 10.9716 7 9.99935 7C9.02713 7 8.20074 7.34028 7.52018 8.02083C6.83963 8.70139 6.49935 9.52778 6.49935 10.5C6.49935 11.4722 6.83963 12.2986 7.52018 12.9792C8.20074 13.6597 9.02713 14 9.99935 14ZM9.99935 12.5C9.44379 12.5 8.97157 12.3056 8.58268 11.9167C8.19379 11.5278 7.99935 11.0556 7.99935 10.5C7.99935 9.94444 8.19379 9.47222 8.58268 9.08333C8.97157 8.69444 9.44379 8.5 9.99935 8.5C10.5549 8.5 11.0271 8.69444 11.416 9.08333C11.8049 9.47222 11.9993 9.94444 11.9993 10.5C11.9993 11.0556 11.8049 11.5278 11.416 11.9167C11.0271 12.3056 10.5549 12.5 9.99935 12.5ZM9.99935 16.5C8.19379 16.5 6.53407 16.0174 5.02018 15.0521C3.50629 14.0868 2.3049 12.8125 1.41602 11.2292C1.34657 11.1181 1.29796 11.0016 1.27018 10.8798C1.2424 10.758 1.22852 10.633 1.22852 10.5048C1.22852 10.3766 1.2424 10.25 1.27018 10.125C1.29796 10 1.34657 9.88194 1.41602 9.77083C2.3049 8.1875 3.50629 6.91319 5.02018 5.94792C6.53407 4.98264 8.19379 4.5 9.99935 4.5C11.8049 4.5 13.4646 4.98264 14.9785 5.94792C16.4924 6.91319 17.6938 8.1875 18.5827 9.77083C18.6521 9.88194 18.7007 9.9984 18.7285 10.1202C18.7563 10.242 18.7702 10.367 18.7702 10.4952C18.7702 10.6234 18.7563 10.75 18.7285 10.875C18.7007 11 18.6521 11.1181 18.5827 11.2292C17.6938 12.8125 16.4924 14.0868 14.9785 15.0521C13.4646 16.0174 11.8049 16.5 9.99935 16.5ZM9.99935 15C11.5549 15 12.9924 14.5972 14.3118 13.7917C15.6313 12.9861 16.6452 11.8889 17.3535 10.5C16.6452 9.11111 15.6313 8.01389 14.3118 7.20833C12.9924 6.40278 11.5549 6 9.99935 6C8.44379 6 7.00629 6.40278 5.68685 7.20833C4.3674 8.01389 3.35352 9.11111 2.64518 10.5C3.35352 11.8889 4.3674 12.9861 5.68685 13.7917C7.00629 14.5972 8.44379 15 9.99935 15Z" fill="#8E8E8E"/>
  </g>
</svg>