<svg width="12" height="18" viewBox="0 0 12 18" fill="none" xmlns="http://www.w3.org/2000/svg">
<path d="M10.2899 11.29L5.99994 15.59L1.70994 11.29C1.52164 11.1017 1.26624 10.9959 0.999941 10.9959C0.73364 10.9959 0.478245 11.1017 0.289941 11.29C0.101638 11.4783 -0.00415039 11.7337 -0.00415039 12C-0.00415039 12.2663 0.101638 12.5217 0.289941 12.71L5.28994 17.71C5.3829 17.8037 5.49351 17.8781 5.61536 17.9289C5.73722 17.9797 5.86793 18.0058 5.99994 18.0058C6.13195 18.0058 6.26266 17.9797 6.38452 17.9289C6.50638 17.8781 6.61698 17.8037 6.70994 17.71L11.7099 12.71C11.8032 12.6168 11.8771 12.5061 11.9276 12.3842C11.9781 12.2624 12.004 12.1319 12.004 12C12.004 11.8681 11.9781 11.7376 11.9276 11.6158C11.8771 11.4939 11.8032 11.3832 11.7099 11.29C11.6167 11.1968 11.506 11.1228 11.3842 11.0723C11.2624 11.0219 11.1318 10.9959 10.9999 10.9959C10.8681 10.9959 10.7375 11.0219 10.6157 11.0723C10.4939 11.1228 10.3832 11.1968 10.2899 11.29ZM1.70994 6.71L5.99994 2.41L10.2899 6.71C10.3829 6.80373 10.4935 6.87812 10.6154 6.92889C10.7372 6.97966 10.8679 7.0058 10.9999 7.0058C11.132 7.0058 11.2627 6.97966 11.3845 6.92889C11.5064 6.87812 11.617 6.80373 11.7099 6.71C11.8037 6.61704 11.8781 6.50644 11.9288 6.38458C11.9796 6.26272 12.0057 6.13201 12.0057 6C12.0057 5.86799 11.9796 5.73728 11.9288 5.61542C11.8781 5.49356 11.8037 5.38296 11.7099 5.29L6.70994 0.29C6.61698 0.196272 6.50638 0.121877 6.38452 0.0711086C6.26266 0.0203399 6.13195 -0.00579834 5.99994 -0.00579834C5.86793 -0.00579834 5.73722 0.0203399 5.61536 0.0711086C5.49351 0.121877 5.3829 0.196272 5.28994 0.29L0.289941 5.29C0.101638 5.4783 -0.00415039 5.7337 -0.00415039 6C-0.00415039 6.2663 0.101638 6.5217 0.289941 6.71C0.478245 6.8983 0.73364 7.00409 0.999941 7.00409C1.26624 7.00409 1.52164 6.8983 1.70994 6.71Z" fill="black"/>
</svg>
