<svg width="24" height="24" viewBox="0 0 24 24" fill="none" xmlns="http://www.w3.org/2000/svg">
<path d="M8.5 6.5C8.5 5.09554 8.5 4.39331 8.83706 3.88886C8.98298 3.67048 9.17048 3.48298 9.38886 3.33706C9.89331 3 10.5955 3 12 3C13.4045 3 14.1067 3 14.6111 3.33706C14.8295 3.48298 15.017 3.67048 15.1629 3.88886C15.5 4.39331 15.5 5.09554 15.5 6.5" stroke="#B611F5" stroke-width="1.5" stroke-linecap="round" stroke-linejoin="round"/>
<path d="M22 14V13.5C22 10.2002 22 8.55025 20.9749 7.52513C19.9497 6.5 18.2998 6.5 15 6.5H9C5.70017 6.5 4.05025 6.5 3.02513 7.52513C2 8.55025 2 10.2002 2 13.5V14C2 17.2998 2 18.9497 3.02513 19.9749C4.05025 21 5.70017 21 9 21H15C18.2998 21 19.9497 21 20.9749 19.9749C22 18.9497 22 17.2998 22 14Z" stroke="#B611F5" stroke-width="1.5" stroke-linecap="round" stroke-linejoin="round"/>
<path d="M2 12.5H22" stroke="#B611F5" stroke-width="1.5" stroke-linecap="round" stroke-linejoin="round"/>
<path d="M10 12.5V13.5C10 13.965 10 14.1975 10.0511 14.3882C10.1898 14.9059 10.5941 15.3102 11.1118 15.4489C11.3025 15.5 11.535 15.5 12 15.5C12.465 15.5 12.6975 15.5 12.8882 15.4489C13.4059 15.3102 13.8102 14.9059 13.9489 14.3882C14 14.1975 14 13.965 14 13.5V12.5" stroke="#B611F5" stroke-width="1.5" stroke-linecap="round" stroke-linejoin="round"/>
</svg>
