<svg width="24" height="24" viewBox="0 0 24 24" fill="none" xmlns="http://www.w3.org/2000/svg">
<path d="M6.5 9H5.5M10.5 9H9.5M6.5 6H5.5M10.5 6H9.5" stroke="#B611F5" stroke-width="1.5" stroke-linecap="round"/>
<path d="M18.5 15H17.5M18.5 11H17.5" stroke="#B611F5" stroke-width="1.5" stroke-linecap="round"/>
<path d="M14 8V22H18C19.8856 22 20.8284 22 21.4142 21.4142C22 20.8284 22 19.8856 22 18V12C22 10.1144 22 9.17157 21.4142 8.58579C20.8284 8 19.8856 8 18 8H14ZM14 8C14 5.17157 14 3.75736 13.1213 2.87868C12.2426 2 10.8284 2 8 2C5.17157 2 3.75736 2 2.87868 2.87868C2 3.75736 2 5.17157 2 8V10" stroke="#B611F5" stroke-width="1.5" stroke-linecap="round" stroke-linejoin="round"/>
<path d="M8.02478 13.9545C8.02478 15.0583 7.12938 15.953 6.02484 15.953C4.92031 15.953 4.0249 15.0583 4.0249 13.9545C4.0249 12.8508 4.92031 11.9561 6.02484 11.9561C7.12938 11.9561 8.02478 12.8508 8.02478 13.9545Z" stroke="#B611F5" stroke-width="1.5" stroke-linecap="round"/>
<path d="M2.06982 20.2098C3.12817 18.5817 4.80886 17.9715 6.02491 17.9727C7.24097 17.974 8.8724 18.5817 9.93075 20.2098C9.99917 20.3151 10.018 20.4447 9.95628 20.5541C9.70877 20.9927 8.94028 21.863 8.38522 21.922C7.74746 21.9898 6.07914 21.9993 6.0262 21.9996C5.97322 21.9993 4.2534 21.9898 3.61535 21.922C3.06029 21.863 2.2918 20.9927 2.04429 20.5541C1.98254 20.4447 2.00139 20.3151 2.06982 20.2098Z" stroke="#B611F5" stroke-width="1.5" stroke-linecap="round"/>
</svg>
