<svg width="24" height="24" viewBox="0 0 24 24" fill="none" xmlns="http://www.w3.org/2000/svg">
<path d="M3.5 10V15C3.5 17.8284 3.5 19.2426 4.37868 20.1213C5.25736 21 6.67157 21 9.5 21H14.5C17.3284 21 18.7426 21 19.6213 20.1213C20.5 19.2426 20.5 17.8284 20.5 15V10" stroke="#B611F5" stroke-width="1.5" stroke-linecap="round" stroke-linejoin="round"/>
<path d="M8 18H16" stroke="#B611F5" stroke-width="1.5" stroke-linecap="round" stroke-linejoin="round"/>
<path d="M17 7.50147C17 8.88218 15.8807 9.99961 14.5 9.99961C13.1193 9.99961 12 8.88032 12 7.49961C12 8.88032 10.8807 9.99961 9.5 9.99961C8.11929 9.99961 7 8.88032 7 7.49961C7 8.88032 5.82654 9.99961 4.379 9.99961C3.59983 9.99961 2.90007 9.67531 2.41999 9.16051C1.59461 8.27543 2.12559 6.97366 2.81446 5.98806L3.202 5.45815C4.08384 4.25234 4.52476 3.64944 5.16491 3.32457C5.80507 2.99971 6.552 2.99981 8.04586 3.00001L15.9551 3.00107C17.4485 3.00126 18.1952 3.00136 18.8351 3.32622C19.475 3.65107 19.9158 4.25378 20.7974 5.45921L21.1855 5.98992C21.8744 6.97553 22.4054 8.2773 21.58 9.16237C21.0999 9.67717 20.4001 10.0015 19.621 10.0015C18.1734 10.0015 17 8.88218 17 7.50147Z" stroke="#B611F5" stroke-width="1.5" stroke-linecap="round" stroke-linejoin="round"/>
</svg>
