<svg width="20" height="21" viewBox="0 0 20 21" fill="none" xmlns="http://www.w3.org/2000/svg">
<mask id="mask0_8726_23708" style="mask-type:alpha" maskUnits="userSpaceOnUse" x="0" y="0" width="20" height="21">
<rect y="0.5" width="20" height="20" fill="#D9D9D9"/>
</mask>
<g mask="url(#mask0_8726_23708)">
<path d="M10.0003 18.8346C8.84755 18.8346 7.76421 18.6159 6.75033 18.1784C5.73644 17.7409 4.85449 17.1471 4.10449 16.3971C3.35449 15.6471 2.76074 14.7652 2.32324 13.7513C1.88574 12.7374 1.66699 11.6541 1.66699 10.5013C1.66699 9.34852 1.88574 8.26519 2.32324 7.2513C2.76074 6.23741 3.35449 5.35547 4.10449 4.60547C4.85449 3.85547 5.73644 3.26172 6.75033 2.82422C7.76421 2.38672 8.84755 2.16797 10.0003 2.16797C11.1531 2.16797 12.2364 2.38672 13.2503 2.82422C14.2642 3.26172 15.1462 3.85547 15.8962 4.60547C16.6462 5.35547 17.2399 6.23741 17.6774 7.2513C18.1149 8.26519 18.3337 9.34852 18.3337 10.5013C18.3337 11.6541 18.1149 12.7374 17.6774 13.7513C17.2399 14.7652 16.6462 15.6471 15.8962 16.3971C15.1462 17.1471 14.2642 17.7409 13.2503 18.1784C12.2364 18.6159 11.1531 18.8346 10.0003 18.8346ZM10.0003 17.168C10.7503 17.168 11.4725 17.0464 12.167 16.8034C12.8614 16.5603 13.5003 16.2096 14.0837 15.7513L4.75033 6.41797C4.29199 7.0013 3.9413 7.64019 3.69824 8.33464C3.45519 9.02908 3.33366 9.7513 3.33366 10.5013C3.33366 12.3624 3.97949 13.9388 5.27116 15.2305C6.56283 16.5221 8.13921 17.168 10.0003 17.168ZM15.2503 14.5846C15.7087 14.0013 16.0594 13.3624 16.3024 12.668C16.5455 11.9735 16.667 11.2513 16.667 10.5013C16.667 8.64019 16.0212 7.0638 14.7295 5.77214C13.4378 4.48047 11.8614 3.83464 10.0003 3.83464C9.25033 3.83464 8.5281 3.95616 7.83366 4.19922C7.13921 4.44227 6.50033 4.79297 5.91699 5.2513L15.2503 14.5846Z" fill="#727272"/>
</g>
</svg>
