<svg width="24" height="25" viewBox="0 0 24 25" fill="none" xmlns="http://www.w3.org/2000/svg">
<mask id="mask0_8025_1686" style="mask-type:alpha" maskUnits="userSpaceOnUse" x="0" y="0" width="24" height="25">
<rect y="0.5" width="24" height="24" fill="black"/>
</mask>
<g mask="url(#mask0_8025_1686)">
<path d="M12.5998 12.5008L8.6998 8.60078C8.51647 8.41745 8.4248 8.18411 8.4248 7.90078C8.4248 7.61745 8.51647 7.38411 8.6998 7.20078C8.88314 7.01745 9.11647 6.92578 9.3998 6.92578C9.68314 6.92578 9.91647 7.01745 10.0998 7.20078L14.6998 11.8008C14.7998 11.9008 14.8706 12.0091 14.9123 12.1258C14.954 12.2424 14.9748 12.3674 14.9748 12.5008C14.9748 12.6341 14.954 12.7591 14.9123 12.8758C14.8706 12.9924 14.7998 13.1008 14.6998 13.2008L10.0998 17.8008C9.91647 17.9841 9.68314 18.0758 9.3998 18.0758C9.11647 18.0758 8.88314 17.9841 8.6998 17.8008C8.51647 17.6174 8.4248 17.3841 8.4248 17.1008C8.4248 16.8174 8.51647 16.5841 8.6998 16.4008L12.5998 12.5008Z" fill="black"/>
</g>
</svg>
