<svg width="32" height="32" viewBox="0 0 32 32" fill="none" xmlns="http://www.w3.org/2000/svg">
<rect width="32" height="32" rx="16" fill="#10477A"/>
<mask id="mask0_7989_26596" style="mask-type:alpha" maskUnits="userSpaceOnUse" x="0" y="0" width="32" height="32">
<rect width="32" height="32" fill="black"/>
</mask>
<g mask="url(#mask0_7989_26596)">
<path d="M16.8001 15.9997L11.6001 10.7997C11.3556 10.5553 11.2334 10.2442 11.2334 9.86641C11.2334 9.48863 11.3556 9.17752 11.6001 8.93307C11.8445 8.68863 12.1556 8.56641 12.5334 8.56641C12.9112 8.56641 13.2223 8.68863 13.4667 8.93307L19.6001 15.0664C19.7334 15.1997 19.8278 15.3442 19.8834 15.4997C19.939 15.6553 19.9667 15.822 19.9667 15.9997C19.9667 16.1775 19.939 16.3442 19.8834 16.4997C19.8278 16.6553 19.7334 16.7997 19.6001 16.9331L13.4667 23.0664C13.2223 23.3109 12.9112 23.4331 12.5334 23.4331C12.1556 23.4331 11.8445 23.3109 11.6001 23.0664C11.3556 22.822 11.2334 22.5109 11.2334 22.1331C11.2334 21.7553 11.3556 21.4442 11.6001 21.1997L16.8001 15.9997Z" fill="white"/>
</g>
</svg>
