<svg width="32" height="32" viewBox="0 0 32 32" fill="none" xmlns="http://www.w3.org/2000/svg">
<mask id="mask0_8726_23541" style="mask-type:alpha" maskUnits="userSpaceOnUse" x="0" y="0" width="32" height="32">
<rect width="32" height="32" fill="#D9D9D9"/>
</mask>
<g mask="url(#mask0_8726_23541)">
<path d="M6.23284 28.7399C5.48444 28.7399 4.85098 28.4806 4.33247 27.9621C3.81395 27.4436 3.55469 26.8101 3.55469 26.0617V6.23284C3.55469 5.48444 3.81395 4.85098 4.33247 4.33247C4.85098 3.81395 5.48444 3.55469 6.23284 3.55469H26.0617C26.8101 3.55469 27.4436 3.81395 27.9621 4.33247C28.4806 4.85098 28.7399 5.48444 28.7399 6.23284V26.0617C28.7399 26.8101 28.4806 27.4436 27.9621 27.9621C27.4436 28.4806 26.8101 28.7399 26.0617 28.7399H6.23284ZM6.23284 26.5177H26.0617C26.1758 26.5177 26.2802 26.4701 26.3751 26.3751C26.4701 26.2802 26.5177 26.1758 26.5177 26.0617V6.23284C26.5177 6.11876 26.4701 6.01432 26.3751 5.9195C26.2802 5.82444 26.1758 5.77691 26.0617 5.77691H6.23284C6.11876 5.77691 6.01432 5.82444 5.9195 5.9195C5.82444 6.01432 5.77691 6.11876 5.77691 6.23284V26.0617C5.77691 26.1758 5.82444 26.2802 5.9195 26.3751C6.01432 26.4701 6.11876 26.5177 6.23284 26.5177ZM9.70876 23.1843H22.6999C22.9678 23.1843 23.1663 23.0627 23.2954 22.8195C23.4246 22.5765 23.4046 22.3411 23.2354 22.1132L19.7028 17.381C19.5641 17.2025 19.3856 17.1132 19.1673 17.1132C18.9488 17.1132 18.7702 17.2025 18.6317 17.381L15.0077 22.1017L12.5802 18.9906C12.4417 18.8215 12.2656 18.7369 12.0517 18.7369C11.8381 18.7369 11.662 18.8263 11.5232 19.0051L9.18728 22.1132C9.00876 22.3411 8.98407 22.5765 9.11321 22.8195C9.24234 23.0627 9.44086 23.1843 9.70876 23.1843Z" fill="#175C8E"/>
</g>
</svg>
