<svg width="24" height="24" viewBox="0 0 24 24" fill="none" xmlns="http://www.w3.org/2000/svg">
<g clip-path="url(#clip0_7960_30847)">
<path fill-rule="evenodd" clip-rule="evenodd" d="M0 13C0 12.1716 0.67157 11.5 1.5 11.5H21.5C22.3284 11.5 23 12.1716 23 13V18C23 21.0376 20.5376 23.5 17.5 23.5H5.5C2.46243 23.5 0 21.0376 0 18V13ZM1.5 12.5C1.22386 12.5 1 12.7239 1 13V18C1 20.4853 3.01472 22.5 5.5 22.5H17.5C19.9853 22.5 22 20.4853 22 18V13C22 12.7239 21.7761 12.5 21.5 12.5H1.5Z" fill="#4B4B4B" stroke="#4B4B4B" stroke-width="0.5"/>
<path fill-rule="evenodd" clip-rule="evenodd" d="M7.38984 0.798351C8.19319 0.568823 9.02923 1.03991 9.24907 1.84596L11.9828 11.8695C12.0238 12.0199 11.9924 12.1807 11.8978 12.3046C11.8032 12.4284 11.6562 12.5011 11.5004 12.5011H3.50038C3.26603 12.5011 3.06312 12.3383 3.01229 12.1096L1.21665 4.02916C1.04447 3.25435 1.50568 2.47952 2.26885 2.26147L7.38984 0.798351ZM8.2843 2.10907C8.21103 1.84039 7.93234 1.68336 7.66456 1.75987L2.54357 3.22301C2.28918 3.29569 2.13545 3.55397 2.19284 3.81224L3.90147 11.5011H10.8458L8.2843 2.10907Z" fill="#4B4B4B" stroke="#4B4B4B" stroke-width="0.5"/>
<path fill-rule="evenodd" clip-rule="evenodd" d="M17.7631 5.67386C17.6145 5.60452 17.4414 5.61244 17.2998 5.69506L16.5687 6.12149C16.1738 6.35187 15.6954 6.38954 15.2693 6.22383L15.1962 6.19543C14.811 6.04561 14.4207 6.40136 14.5342 6.79879L15.8772 11.4993H19.1229L20.5194 6.61169C20.5971 6.33964 20.3189 6.10232 20.0625 6.22197C19.706 6.38834 19.2942 6.38834 18.9377 6.22197L17.7631 5.67386ZM16.7959 4.83128C17.2208 4.58342 17.7402 4.55965 18.186 4.76768L19.3605 5.31579C19.449 5.35707 19.5512 5.35707 19.6397 5.31579C20.6729 4.83359 21.7942 5.79003 21.4809 6.88641L19.9809 12.1367C19.9195 12.3513 19.7233 12.4993 19.5001 12.4993H15.5001C15.2769 12.4993 15.0807 12.3513 15.0193 12.1367L13.5727 7.07351C13.2321 5.88122 14.403 4.81399 15.5587 5.26342L15.6317 5.29183C15.7737 5.34706 15.9332 5.3345 16.0649 5.25771L16.7959 4.83128Z" fill="#4B4B4B" stroke="#4B4B4B" stroke-width="0.5"/>
<path fill-rule="evenodd" clip-rule="evenodd" d="M15 2C15 1.17157 15.6716 0.5 16.5 0.5C17.3284 0.5 18 1.17157 18 2V5C18 5.27614 17.7761 5.5 17.5 5.5C17.2239 5.5 17 5.27614 17 5V2C17 1.72386 16.7761 1.5 16.5 1.5C16.2239 1.5 16 1.72386 16 2V3C16 3.27614 15.7761 3.5 15.5 3.5C15.2239 3.5 15 3.27614 15 3V2Z" fill="#4B4B4B" stroke="#4B4B4B" stroke-width="0.5"/>
<path fill-rule="evenodd" clip-rule="evenodd" d="M6.9852 3.37885C7.05217 3.64675 6.88929 3.91822 6.62139 3.98519L4.62139 4.48519C4.3535 4.55216 4.08203 4.38928 4.01505 4.12139C3.94808 3.85349 4.11095 3.58202 4.37885 3.51505L6.37885 3.01505C6.64675 2.94807 6.91822 3.11095 6.9852 3.37885Z" fill="#4B4B4B" stroke="#4B4B4B" stroke-width="0.5"/>
<path fill-rule="evenodd" clip-rule="evenodd" d="M11.5 14.5C10.9477 14.5 10.5 14.9477 10.5 15.5C10.5 15.7761 10.2761 16 10 16C9.7239 16 9.5 15.7761 9.5 15.5C9.5 14.3954 10.3954 13.5 11.5 13.5C12.6046 13.5 13.5 14.3954 13.5 15.5C13.5 16.4319 12.8626 17.215 12 17.437V19C12 19.2761 11.7761 19.5 11.5 19.5C11.2239 19.5 11 19.2761 11 19V17C11 16.7239 11.2239 16.5 11.5 16.5C12.0523 16.5 12.5 16.0523 12.5 15.5C12.5 14.9477 12.0523 14.5 11.5 14.5Z" fill="#4B4B4B" stroke="#4B4B4B" stroke-width="0.5"/>
<path fill-rule="evenodd" clip-rule="evenodd" d="M11.5 20C11.7761 20 12 20.2239 12 20.5V21C12 21.2761 11.7761 21.5 11.5 21.5C11.2239 21.5 11 21.2761 11 21V20.5C11 20.2239 11.2239 20 11.5 20Z" fill="#4B4B4B" stroke="#4B4B4B" stroke-width="0.5"/>
<path fill-rule="evenodd" clip-rule="evenodd" d="M3.5 13.5C3.77614 13.5 4 13.7239 4 14V19C4 19.2761 3.77614 19.5 3.5 19.5C3.22386 19.5 3 19.2761 3 19V14C3 13.7239 3.22386 13.5 3.5 13.5Z" fill="#4B4B4B" stroke="#4B4B4B" stroke-width="0.5"/>
<path fill-rule="evenodd" clip-rule="evenodd" d="M19.5 13.5C19.7761 13.5 20 13.7239 20 14V19C20 19.2761 19.7761 19.5 19.5 19.5C19.2239 19.5 19 19.2761 19 19V14C19 13.7239 19.2239 13.5 19.5 13.5Z" fill="#4B4B4B" stroke="#4B4B4B" stroke-width="0.5"/>
</g>
<defs>
<clipPath id="clip0_7960_30847">
<rect width="24" height="24" fill="white"/>
</clipPath>
</defs>
</svg>
