<svg width="20" height="20" viewBox="0 0 20 20" fill="none" xmlns="http://www.w3.org/2000/svg">
<mask id="mask0_8682_17311" style="mask-type:alpha" maskUnits="userSpaceOnUse" x="0" y="0" width="20" height="20">
<rect width="20" height="20" fill="#D9D9D9"/>
</mask>
<g mask="url(#mask0_8682_17311)">
<path d="M15.6424 14.793H12.4997C12.3226 14.793 12.1742 14.733 12.0545 14.6132C11.9346 14.4933 11.8747 14.3448 11.8747 14.1678C11.8747 13.9905 11.9346 13.8421 12.0545 13.7226C12.1742 13.6028 12.3226 13.543 12.4997 13.543H15.6424L14.5605 12.4532C14.4469 12.3293 14.3875 12.1821 14.3824 12.0117C14.3772 11.8413 14.4366 11.6941 14.5605 11.5703C14.6845 11.4464 14.8304 11.3844 14.9982 11.3844C15.166 11.3844 15.3129 11.4464 15.4388 11.5703L17.5093 13.6407C17.66 13.7914 17.7353 13.9671 17.7353 14.168C17.7353 14.3688 17.66 14.5446 17.5093 14.6953L15.4388 16.7657C15.3129 16.8896 15.166 16.9515 14.9982 16.9515C14.8304 16.9515 14.6845 16.8896 14.5605 16.7657C14.4366 16.6418 14.3772 16.4946 14.3824 16.3242C14.3875 16.1538 14.4469 16.0066 14.5605 15.8828L15.6424 14.793ZM4.91155 14.793L3.34967 16.3548C3.22856 16.476 3.09134 16.5057 2.93801 16.444C2.78467 16.3823 2.70801 16.2652 2.70801 16.0926V5.04943C2.70801 4.63512 2.85551 4.28047 3.15051 3.98547C3.44551 3.69047 3.80016 3.54297 4.21447 3.54297H14.1182C14.5325 3.54297 14.8872 3.69047 15.1822 3.98547C15.4772 4.28047 15.6247 4.63512 15.6247 5.04943V8.54297C15.6247 8.72005 15.5647 8.86852 15.4449 8.98839C15.325 9.10811 15.1765 9.16797 14.9995 9.16797C14.8222 9.16797 14.6738 9.10811 14.5543 8.98839C14.4345 8.86852 14.3747 8.72005 14.3747 8.54297V5.04943C14.3747 4.97457 14.3506 4.91311 14.3026 4.86505C14.2545 4.817 14.1931 4.79297 14.1182 4.79297H4.21447C4.13961 4.79297 4.07815 4.817 4.03009 4.86505C3.98204 4.91311 3.95801 4.97457 3.95801 5.04943V13.543H9.37468C9.55176 13.543 9.70023 13.6029 9.82009 13.7228C9.93981 13.8426 9.99968 13.9911 9.99968 14.1682C9.99968 14.3454 9.93981 14.4938 9.82009 14.6134C9.70023 14.7331 9.55176 14.793 9.37468 14.793H4.91155ZM6.50613 8.1263H11.8266C12.0036 8.1263 12.1521 8.06637 12.272 7.94651C12.3917 7.82665 12.4516 7.67818 12.4516 7.50109C12.4516 7.32387 12.3917 7.17547 12.272 7.05589C12.1521 6.93616 12.0036 6.8763 11.8266 6.8763H6.50613C6.32905 6.8763 6.18058 6.93623 6.06072 7.05609C5.94099 7.17596 5.88113 7.32443 5.88113 7.50151C5.88113 7.67873 5.94099 7.82714 6.06072 7.94672C6.18058 8.06644 6.32905 8.1263 6.50613 8.1263ZM6.50613 11.4596H9.32655C9.50363 11.4596 9.65211 11.3997 9.77197 11.2798C9.89169 11.16 9.95155 11.0115 9.95155 10.8344C9.95155 10.6572 9.89169 10.5088 9.77197 10.3892C9.65211 10.2695 9.50363 10.2096 9.32655 10.2096H6.50613C6.32905 10.2096 6.18058 10.2696 6.06072 10.3894C5.94099 10.5093 5.88113 10.6578 5.88113 10.8348C5.88113 11.0121 5.94099 11.1605 6.06072 11.2801C6.18058 11.3998 6.32905 11.4596 6.50613 11.4596Z" fill="#4B4B4B"/>
</g>
</svg>
