<svg width="24" height="24" viewBox="0 0 24 24" fill="none" xmlns="http://www.w3.org/2000/svg">
<mask id="mask0_7960_28712" style="mask-type:alpha" maskUnits="userSpaceOnUse" x="0" y="0" width="24" height="24">
<rect width="24" height="24" fill="#D9D9D9"/>
</mask>
<g mask="url(#mask0_7960_28712)">
<path d="M5.03049 19.9764C4.72844 20.0434 4.46837 19.9678 4.25027 19.7497C4.03217 19.5316 3.95662 19.2716 4.02362 18.9695L4.81856 15.1535L8.84651 19.1814L5.03049 19.9764ZM8.84651 19.1814L4.81856 15.1535L15.4805 4.49156C15.8082 4.16385 16.2139 4 16.6976 4C17.1813 4 17.587 4.16385 17.9147 4.49156L19.5084 6.08525C19.8361 6.41295 20 6.81866 20 7.30238C20 7.78609 19.8361 8.1918 19.5084 8.51951L8.84651 19.1814ZM16.4966 5.4932L6.77956 15.201L8.799 17.2204L18.5068 7.50337C18.5616 7.44857 18.589 7.38007 18.589 7.29786C18.589 7.2155 18.5616 7.14692 18.5068 7.09212L16.9079 5.4932C16.8531 5.43839 16.7845 5.41099 16.7021 5.41099C16.6199 5.41099 16.5514 5.43839 16.4966 5.4932Z" fill="#4B4B4B"/>
</g>
</svg>
