<svg width="24" height="24" viewBox="0 0 24 24" fill="none" xmlns="http://www.w3.org/2000/svg">
<mask id="mask0_8735_20968" style="mask-type:alpha" maskUnits="userSpaceOnUse" x="0" y="0" width="24" height="24">
<rect width="24" height="24" fill="#D9D9D9"/>
</mask>
<g mask="url(#mask0_8735_20968)">
<path d="M12 11.6631C10.9733 11.6631 10.0945 11.288 9.36347 10.5377C8.63227 9.78728 8.26667 8.88522 8.26667 7.83155C8.26667 6.77787 8.63227 5.87591 9.36347 5.12565C10.0945 4.37522 10.9733 4 12 4C13.0267 4 13.9055 4.37522 14.6365 5.12565C15.3677 5.87591 15.7333 6.77787 15.7333 7.83155C15.7333 8.88522 15.3677 9.78728 14.6365 10.5377C13.9055 11.288 13.0267 11.6631 12 11.6631ZM4 18.3368V17.5661C4 17.0301 4.14187 16.5336 4.4256 16.0768C4.70933 15.6199 5.08853 15.2687 5.5632 15.0231C6.61742 14.4927 7.68098 14.0949 8.75387 13.8296C9.82676 13.5643 10.9088 13.4316 12 13.4316C13.0912 13.4316 14.1732 13.5643 15.2461 13.8296C16.319 14.0949 17.3826 14.4927 18.4368 15.0231C18.9115 15.2687 19.2907 15.6199 19.5744 16.0768C19.8581 16.5336 20 17.0301 20 17.5661V18.3368C20 18.7984 19.8424 19.1911 19.5272 19.5148C19.212 19.8383 18.8294 20 18.3795 20H5.62053C5.17058 20 4.788 19.8383 4.4728 19.5148C4.1576 19.1911 4 18.7984 4 18.3368ZM5.6 18.3579H18.4V17.5661C18.4 17.3445 18.3374 17.1392 18.2123 16.9504C18.0871 16.7617 17.9172 16.6077 17.7027 16.4884C16.7836 16.0239 15.8465 15.6719 14.8915 15.4325C13.9363 15.1933 12.9724 15.0737 12 15.0737C11.0276 15.0737 10.0637 15.1933 9.10853 15.4325C8.15351 15.6719 7.21644 16.0239 6.29733 16.4884C6.08276 16.6077 5.91289 16.7617 5.78773 16.9504C5.66258 17.1392 5.6 17.3445 5.6 17.5661V18.3579ZM12 10.021C12.5867 10.021 13.0889 9.80662 13.5067 9.37785C13.9244 8.94908 14.1333 8.43365 14.1333 7.83155C14.1333 7.22945 13.9244 6.71401 13.5067 6.28524C13.0889 5.85648 12.5867 5.64209 12 5.64209C11.4133 5.64209 10.9111 5.85648 10.4933 6.28524C10.0756 6.71401 9.86667 7.22945 9.86667 7.83155C9.86667 8.43365 10.0756 8.94908 10.4933 9.37785C10.9111 9.80662 11.4133 10.021 12 10.021Z" fill="white"/>
</g>
</svg>
