<svg xmlns="http://www.w3.org/2000/svg" width="16" height="16" viewBox="0 0 16 16" fill="none">
  <path d="M5.75065 5.66634H2.75065C2.57384 5.66634 2.40427 5.5961 2.27925 5.47108C2.15422 5.34605 2.08398 5.17649 2.08398 4.99967V1.99967C2.08398 1.82286 2.15422 1.65329 2.27925 1.52827C2.40427 1.40325 2.57384 1.33301 2.75065 1.33301C2.92746 1.33301 3.09703 1.40325 3.22206 1.52827C3.34708 1.65329 3.41732 1.82286 3.41732 1.99967V4.33301H5.75065C5.92746 4.33301 6.09703 4.40325 6.22206 4.52827C6.34708 4.65329 6.41732 4.82286 6.41732 4.99967C6.41732 5.17649 6.34708 5.34605 6.22206 5.47108C6.09703 5.5961 5.92746 5.66634 5.75065 5.66634Z" fill="#4B4B4B"/>
  <path d="M13.9996 8.66641C13.8228 8.66641 13.6532 8.59617 13.5282 8.47115C13.4032 8.34612 13.3329 8.17655 13.3329 7.99974C13.3335 6.8261 12.9466 5.68511 12.2323 4.75381C11.5181 3.82252 10.5165 3.153 9.38283 2.84916C8.24921 2.54531 7.04699 2.62413 5.96273 3.07337C4.87847 3.52262 3.97281 4.31717 3.38628 5.33374C3.29769 5.48677 3.15195 5.59835 2.9811 5.64392C2.81026 5.68949 2.62831 5.66532 2.47528 5.57674C2.32225 5.48816 2.21067 5.34241 2.1651 5.17157C2.11953 5.00072 2.14369 4.81877 2.23228 4.66574C2.96578 3.39523 4.09807 2.40231 5.45349 1.841C6.8089 1.27969 8.31167 1.18139 9.72866 1.56133C11.1457 1.94128 12.3976 2.77824 13.2904 3.94236C14.1832 5.10648 14.6668 6.5327 14.6663 7.99974C14.6663 8.17655 14.596 8.34612 14.471 8.47115C14.346 8.59617 14.1764 8.66641 13.9996 8.66641ZM13.2496 14.6664C13.0728 14.6664 12.9032 14.5962 12.7782 14.4711C12.6532 14.3461 12.5829 14.1766 12.5829 13.9997V11.6664H10.2496C10.0728 11.6664 9.90323 11.5962 9.77821 11.4711C9.65318 11.3461 9.58294 11.1766 9.58294 10.9997C9.58294 10.8229 9.65318 10.6534 9.77821 10.5283C9.90323 10.4033 10.0728 10.3331 10.2496 10.3331H13.2496C13.4264 10.3331 13.596 10.4033 13.721 10.5283C13.846 10.6534 13.9163 10.8229 13.9163 10.9997V13.9997C13.9163 14.1766 13.846 14.3461 13.721 14.4711C13.596 14.5962 13.4264 14.6664 13.2496 14.6664Z" fill="#4B4B4B"/>
  <path d="M8.00065 14.6663C6.23308 14.6646 4.53842 13.9616 3.28856 12.7118C2.03869 11.4619 1.33575 9.76724 1.33398 7.99967C1.33398 7.82286 1.40422 7.65329 1.52925 7.52827C1.65427 7.40325 1.82384 7.33301 2.00065 7.33301C2.17746 7.33301 2.34703 7.40325 2.47206 7.52827C2.59708 7.65329 2.66732 7.82286 2.66732 7.99967C2.66681 9.17332 3.05369 10.3143 3.76792 11.2456C4.48215 12.1769 5.4838 12.8464 6.61743 13.1503C7.75105 13.4541 8.95327 13.3753 10.0375 12.926C11.1218 12.4768 12.0274 11.6822 12.614 10.6657C12.6578 10.5899 12.7162 10.5235 12.7857 10.4703C12.8552 10.4171 12.9346 10.3781 13.0192 10.3555C13.1038 10.3329 13.192 10.3273 13.2788 10.3388C13.3655 10.3503 13.4492 10.3788 13.525 10.4227C13.6008 10.4665 13.6671 10.5249 13.7204 10.5944C13.7736 10.6639 13.8126 10.7433 13.8352 10.8278C13.8577 10.9124 13.8634 11.0007 13.8519 11.0874C13.8404 11.1742 13.8118 11.2579 13.768 11.3337C13.1818 12.3447 12.3408 13.1845 11.3288 13.7693C10.3169 14.354 9.16938 14.6633 8.00065 14.6663Z" fill="#4B4B4B"/>
</svg>