<svg width="20" height="20" viewBox="0 0 20 20" fill="none" xmlns="http://www.w3.org/2000/svg">
<mask id="mask0_8682_17315" style="mask-type:alpha" maskUnits="userSpaceOnUse" x="0" y="0" width="20" height="20">
<rect width="20" height="20" fill="#D9D9D9"/>
</mask>
<g mask="url(#mask0_8682_17315)">
<path d="M3.58947 15.8346H16.4099C16.4847 15.8346 16.5462 15.8106 16.5943 15.7626C16.6423 15.7145 16.6663 15.653 16.6663 15.5782V14.1119C16.6663 14.0371 16.6423 13.9756 16.5943 13.9276C16.5462 13.8795 16.4847 13.8555 16.4099 13.8555H3.58947C3.51461 13.8555 3.45315 13.8795 3.40509 13.9276C3.35704 13.9756 3.33301 14.0371 3.33301 14.1119V15.5782C3.33301 15.653 3.35704 15.7145 3.40509 15.7626C3.45315 15.8106 3.51461 15.8346 3.58947 15.8346ZM8.19676 8.39068C8.19676 7.89707 8.37329 7.47457 8.72634 7.12318C9.0794 6.77165 9.50384 6.59589 9.99967 6.59589C10.1768 6.59589 10.3252 6.53595 10.4449 6.41609C10.5647 6.29623 10.6247 6.14776 10.6247 5.97068C10.6247 5.79346 10.5647 5.64498 10.4449 5.52526C10.3252 5.40568 10.1768 5.34589 9.99967 5.34589C9.16009 5.34589 8.44141 5.6429 7.84363 6.23693C7.24572 6.83096 6.94676 7.54887 6.94676 8.39068V10.1857C6.94676 10.3628 7.00669 10.5112 7.12655 10.6309C7.24641 10.7507 7.39495 10.8107 7.57217 10.8107C7.74926 10.8107 7.89766 10.7507 8.01738 10.6309C8.13697 10.5112 8.19676 10.3628 8.19676 10.1857V8.39068ZM5.76092 12.6055H14.2384V8.39068C14.2384 7.21651 13.825 6.21922 12.9982 5.3988C12.1713 4.57825 11.1713 4.16797 9.99822 4.16797C8.82502 4.16797 7.82551 4.57825 6.99967 5.3988C6.17384 6.21922 5.76092 7.21651 5.76092 8.39068V12.6055ZM3.58947 17.0846C3.17516 17.0846 2.82051 16.9371 2.52551 16.6421C2.23051 16.3471 2.08301 15.9925 2.08301 15.5782V14.1119C2.08301 13.6976 2.23051 13.343 2.52551 13.048C2.82051 12.753 3.17516 12.6055 3.58947 12.6055H4.51092V8.39068C4.51092 6.86623 5.04342 5.57297 6.10842 4.51089C7.17356 3.44894 8.47058 2.91797 9.99947 2.91797C11.5285 2.91797 12.8256 3.44894 13.8907 4.51089C14.9559 5.57297 15.4884 6.86623 15.4884 8.39068V12.6055H16.4099C16.8242 12.6055 17.1788 12.753 17.4738 13.048C17.7688 13.343 17.9163 13.6976 17.9163 14.1119V15.5782C17.9163 15.9925 17.7688 16.3471 17.4738 16.6421C17.1788 16.9371 16.8242 17.0846 16.4099 17.0846H3.58947Z" fill="#4B4B4B"/>
</g>
</svg>
