<svg xmlns="http://www.w3.org/2000/svg" width="24" height="24" viewBox="0 0 24 24" fill="none">
  <g clip-path="url(#clip0_16033_42498)">
    <path d="M15.5004 14.0004H14.7104L14.4304 13.7304C15.5285 12.4513 16.0883 10.7965 15.9922 9.11341C15.8962 7.43035 15.1517 5.84996 13.9153 4.70408C12.6788 3.55819 11.0464 2.93594 9.36094 2.96798C7.67545 3.00001 6.06792 3.68384 4.87588 4.87588C3.68384 6.06792 3.00001 7.67545 2.96798 9.36094C2.93594 11.0464 3.55819 12.6788 4.70408 13.9153C5.84996 15.1517 7.43035 15.8962 9.11341 15.9922C10.7965 16.0883 12.4513 15.5285 13.7304 14.4304L14.0004 14.7104V15.5004L18.2504 19.7504C18.4498 19.939 18.7149 20.0423 18.9893 20.0385C19.2637 20.0347 19.5258 19.924 19.7199 19.7299C19.914 19.5358 20.0247 19.2737 20.0285 18.9993C20.0323 18.7249 19.929 18.4598 19.7404 18.2604L15.5004 14.0004ZM9.50041 14.0004C8.6104 14.0004 7.74037 13.7365 7.00035 13.242C6.26032 12.7476 5.68355 12.0448 5.34295 11.2225C5.00236 10.4002 4.91324 9.49542 5.08688 8.6225C5.26051 7.74959 5.68909 6.94777 6.31843 6.31843C6.94777 5.68909 7.74959 5.26051 8.6225 5.08688C9.49542 4.91324 10.4002 5.00236 11.2225 5.34295C12.0448 5.68355 12.7476 6.26032 13.242 7.00035C13.7365 7.74037 14.0004 8.6104 14.0004 9.50041C14.0012 10.0916 13.8853 10.6771 13.6595 11.2234C13.4336 11.7697 13.1022 12.2661 12.6842 12.6842C12.2661 13.1022 11.7697 13.4336 11.2234 13.6595C10.6771 13.8853 10.0916 14.0012 9.50041 14.0004Z" fill="#4B4B4B"/>
  </g>
  <defs>
    <clipPath id="clip0_16033_42498">
      <rect width="24" height="24" fill="white"/>
    </clipPath>
  </defs>
</svg>