<svg width="19" height="20" viewBox="0 0 19 20" fill="none" xmlns="http://www.w3.org/2000/svg">
<path d="M9.50025 14.75C9.71292 14.75 9.891 14.6781 10.0345 14.5343C10.1782 14.3906 10.25 14.2125 10.25 14V9.75C10.25 9.5375 10.1781 9.35933 10.0343 9.2155C9.89042 9.07183 9.71225 9 9.49975 9C9.28708 9 9.109 9.07183 8.9655 9.2155C8.82183 9.35933 8.75 9.5375 8.75 9.75V14C8.75 14.2125 8.82192 14.3906 8.96575 14.5343C9.10958 14.6781 9.28775 14.75 9.50025 14.75ZM9.5 7.2885C9.72883 7.2885 9.92067 7.21108 10.0755 7.05625C10.2303 6.90142 10.3077 6.70958 10.3077 6.48075C10.3077 6.25192 10.2303 6.06008 10.0755 5.90525C9.92067 5.75058 9.72883 5.67325 9.5 5.67325C9.27117 5.67325 9.07933 5.75058 8.9245 5.90525C8.76967 6.06008 8.69225 6.25192 8.69225 6.48075C8.69225 6.70958 8.76967 6.90142 8.9245 7.05625C9.07933 7.21108 9.27117 7.2885 9.5 7.2885ZM9.50175 19.5C8.18775 19.5 6.95267 19.2507 5.7965 18.752C4.64033 18.2533 3.63467 17.5766 2.7795 16.7218C1.92433 15.8669 1.24725 14.8617 0.74825 13.706C0.249417 12.5503 0 11.3156 0 10.0017C0 8.68775 0.249333 7.45267 0.748 6.2965C1.24667 5.14033 1.92342 4.13467 2.77825 3.2795C3.63308 2.42433 4.63833 1.74725 5.794 1.24825C6.94967 0.749417 8.18442 0.5 9.49825 0.5C10.8123 0.5 12.0473 0.749333 13.2035 1.248C14.3597 1.74667 15.3653 2.42342 16.2205 3.27825C17.0757 4.13308 17.7528 5.13833 18.2518 6.294C18.7506 7.44967 19 8.68442 19 9.99825C19 11.3123 18.7507 12.5473 18.252 13.7035C17.7533 14.8597 17.0766 15.8653 16.2218 16.7205C15.3669 17.5757 14.3617 18.2528 13.206 18.7518C12.0503 19.2506 10.8156 19.5 9.50175 19.5ZM9.5 18C11.7333 18 13.625 17.225 15.175 15.675C16.725 14.125 17.5 12.2333 17.5 10C17.5 7.76667 16.725 5.875 15.175 4.325C13.625 2.775 11.7333 2 9.5 2C7.26667 2 5.375 2.775 3.825 4.325C2.275 5.875 1.5 7.76667 1.5 10C1.5 12.2333 2.275 14.125 3.825 15.675C5.375 17.225 7.26667 18 9.5 18Z" fill="#175C8E"/>
</svg>
