<svg width="20" height="20" viewBox="0 0 20 20" fill="none" xmlns="http://www.w3.org/2000/svg">
<path d="M10.0003 14.75C10.2129 14.75 10.391 14.6781 10.5345 14.5343C10.6782 14.3906 10.75 14.2125 10.75 14V9.75C10.75 9.5375 10.6781 9.35933 10.5343 9.2155C10.3904 9.07183 10.2122 9 9.99975 9C9.78708 9 9.609 9.07183 9.4655 9.2155C9.32183 9.35933 9.25 9.5375 9.25 9.75V14C9.25 14.2125 9.32192 14.3906 9.46575 14.5343C9.60958 14.6781 9.78775 14.75 10.0003 14.75ZM10 7.2885C10.2288 7.2885 10.4207 7.21108 10.5755 7.05625C10.7303 6.90142 10.8077 6.70958 10.8077 6.48075C10.8077 6.25192 10.7303 6.06008 10.5755 5.90525C10.4207 5.75058 10.2288 5.67325 10 5.67325C9.77117 5.67325 9.57933 5.75058 9.4245 5.90525C9.26967 6.06008 9.19225 6.25192 9.19225 6.48075C9.19225 6.70958 9.26967 6.90142 9.4245 7.05625C9.57933 7.21108 9.77117 7.2885 10 7.2885ZM10.0017 19.5C8.68775 19.5 7.45267 19.2507 6.2965 18.752C5.14033 18.2533 4.13467 17.5766 3.2795 16.7218C2.42433 15.8669 1.74725 14.8617 1.24825 13.706C0.749417 12.5503 0.5 11.3156 0.5 10.0017C0.5 8.68775 0.749333 7.45267 1.248 6.2965C1.74667 5.14033 2.42342 4.13467 3.27825 3.2795C4.13308 2.42433 5.13833 1.74725 6.294 1.24825C7.44967 0.749417 8.68442 0.5 9.99825 0.5C11.3123 0.5 12.5473 0.749333 13.7035 1.248C14.8597 1.74667 15.8653 2.42342 16.7205 3.27825C17.5757 4.13308 18.2528 5.13833 18.7518 6.294C19.2506 7.44967 19.5 8.68442 19.5 9.99825C19.5 11.3123 19.2507 12.5473 18.752 13.7035C18.2533 14.8597 17.5766 15.8653 16.7218 16.7205C15.8669 17.5757 14.8617 18.2528 13.706 18.7518C12.5503 19.2506 11.3156 19.5 10.0017 19.5ZM10 18C12.2333 18 14.125 17.225 15.675 15.675C17.225 14.125 18 12.2333 18 10C18 7.76667 17.225 5.875 15.675 4.325C14.125 2.775 12.2333 2 10 2C7.76667 2 5.875 2.775 4.325 4.325C2.775 5.875 2 7.76667 2 10C2 12.2333 2.775 14.125 4.325 15.675C5.875 17.225 7.76667 18 10 18Z" fill="#4B4B4B"/>
</svg>
