<svg width="36" height="28" viewBox="0 0 36 28" fill="none" xmlns="http://www.w3.org/2000/svg">
<path d="M34.8168 9.98379L33.1501 9.06712L18.1501 0.733789H17.9668C17.8646 0.690587 17.7586 0.657106 17.6501 0.633789H17.3335H17.0335C16.9196 0.657121 16.808 0.690588 16.7001 0.733789H16.5168L1.51679 9.06712C1.26029 9.21249 1.04695 9.42329 0.898513 9.67802C0.75008 9.93275 0.671875 10.2223 0.671875 10.5171C0.671875 10.8119 0.75008 11.1015 0.898513 11.3562C1.04695 11.611 1.26029 11.8218 1.51679 11.9671L5.66679 14.2671V22.1671C5.66679 23.4932 6.19357 24.765 7.13126 25.7027C8.06894 26.6403 9.34071 27.1671 10.6668 27.1671H24.0001C25.3262 27.1671 26.598 26.6403 27.5357 25.7027C28.4733 24.765 29.0001 23.4932 29.0001 22.1671V14.2671L32.3335 12.4005V17.1671C32.3335 17.6092 32.5091 18.0331 32.8216 18.3456C33.1342 18.6582 33.5581 18.8338 34.0001 18.8338C34.4422 18.8338 34.8661 18.6582 35.1786 18.3456C35.4912 18.0331 35.6668 17.6092 35.6668 17.1671V11.4338C35.6663 11.1385 35.5873 10.8486 35.438 10.5938C35.2886 10.339 35.0742 10.1285 34.8168 9.98379V9.98379ZM25.6668 22.1671C25.6668 22.6092 25.4912 23.0331 25.1786 23.3456C24.8661 23.6582 24.4422 23.8338 24.0001 23.8338H10.6668C10.2248 23.8338 9.80084 23.6582 9.48828 23.3456C9.17572 23.0331 9.00012 22.6092 9.00012 22.1671V16.1171L16.5168 20.2838L16.7668 20.3838H16.9168C17.0551 20.4012 17.1951 20.4012 17.3335 20.3838C17.4718 20.4012 17.6118 20.4012 17.7501 20.3838H17.9001C17.9886 20.3651 18.0732 20.3313 18.1501 20.2838L25.6668 16.1171V22.1671ZM17.3335 16.9338L5.76679 10.5005L17.3335 4.06712L28.9001 10.5005L17.3335 16.9338Z" fill="#175C8E"/>
</svg>
