<svg width="16" height="16" viewBox="0 0 16 16" fill="none" xmlns="http://www.w3.org/2000/svg">
<path d="M2.26323 15.0838C1.84897 15.0838 1.49434 14.9363 1.19934 14.6413C0.904336 14.3463 0.756836 13.9917 0.756836 13.5774V2.42362C0.756836 2.00935 0.904336 1.65472 1.19934 1.35972C1.49434 1.06471 1.84897 0.917199 2.26323 0.917199H8.88181C9.0589 0.917199 9.20733 0.977124 9.32711 1.09697C9.4469 1.21682 9.50679 1.36532 9.50679 1.54247C9.50679 1.71964 9.4469 1.86805 9.32711 1.9877C9.20733 2.10735 9.0589 2.16718 8.88181 2.16718H2.26323C2.18844 2.16718 2.127 2.19122 2.07892 2.2393C2.03084 2.28739 2.00679 2.34883 2.00679 2.42362V13.5774C2.00679 13.6522 2.03084 13.7136 2.07892 13.7617C2.127 13.8098 2.18844 13.8338 2.26323 13.8338H13.417C13.4918 13.8338 13.5533 13.8098 13.6013 13.7617C13.6494 13.7136 13.6735 13.6522 13.6735 13.5774V6.95882C13.6735 6.78175 13.7334 6.63332 13.8532 6.51353C13.9731 6.39374 14.1216 6.33384 14.2987 6.33384C14.4759 6.33384 14.6243 6.39374 14.7439 6.51353C14.8636 6.63332 14.9234 6.78175 14.9234 6.95882V13.5774C14.9234 13.9917 14.7759 14.3463 14.4809 14.6413C14.1859 14.9363 13.8313 15.0838 13.417 15.0838H2.26323ZM12.3273 3.5133H11.2856C11.1086 3.5133 10.9601 3.45339 10.8404 3.33355C10.7206 3.21371 10.6607 3.06521 10.6607 2.88805C10.6607 2.71089 10.7206 2.56248 10.8404 2.44282C10.9601 2.32317 11.1086 2.26335 11.2856 2.26335H12.3273V1.22166C12.3273 1.04457 12.3873 0.896137 12.5071 0.776346C12.6269 0.656568 12.7754 0.59668 12.9526 0.59668C13.1298 0.59668 13.2782 0.656568 13.3978 0.776346C13.5175 0.896137 13.5773 1.04457 13.5773 1.22166V2.26335H14.619C14.7961 2.26335 14.9445 2.32326 15.0643 2.4431C15.1841 2.56294 15.244 2.71144 15.244 2.8886C15.244 3.06576 15.1841 3.21417 15.0643 3.33383C14.9445 3.45348 14.7961 3.5133 14.619 3.5133H13.5773V4.55499C13.5773 4.73207 13.5174 4.88051 13.3975 5.0003C13.2777 5.12008 13.1292 5.17997 12.952 5.17997C12.7749 5.17997 12.6265 5.12008 12.5068 5.0003C12.3872 4.88051 12.3273 4.73207 12.3273 4.55499V3.5133ZM7.19911 11.3499L5.83373 9.59989C5.75575 9.5048 5.65666 9.45726 5.53646 9.45726C5.41627 9.45726 5.31718 9.50748 5.23919 9.60791L3.92511 11.3563C3.82468 11.4845 3.81145 11.6169 3.88544 11.7537C3.95943 11.8904 4.07041 11.9588 4.21838 11.9588H11.526C11.674 11.9588 11.7849 11.8904 11.8589 11.7537C11.9329 11.6169 11.9224 11.4845 11.8273 11.3563L9.84011 8.69445C9.76212 8.59402 9.6617 8.5438 9.53884 8.5438C9.41597 8.5438 9.31536 8.59471 9.23698 8.69651L7.19911 11.3499Z" fill="#4B4B4B"/>
</svg>
