<svg width="10" height="19" viewBox="0 0 10 19" fill="none" xmlns="http://www.w3.org/2000/svg">
<path d="M7.83079 9.24249L0.298092 16.7752C0.0993748 16.9739 0.0025835 17.2079 0.00771713 17.4771C0.0128508 17.7463 0.114776 17.9803 0.313493 18.179C0.512193 18.3777 0.746159 18.4771 1.01539 18.4771C1.28463 18.4771 1.51859 18.3777 1.71729 18.179L9.38844 10.5232C9.56923 10.3425 9.7032 10.1399 9.79037 9.91557C9.87755 9.6912 9.92114 9.46684 9.92114 9.24249C9.92114 9.01814 9.87755 8.79379 9.79037 8.56942C9.7032 8.34507 9.56923 8.14251 9.38844 7.96174L1.71729 0.290593C1.51859 0.0918767 1.28206 -0.00492401 1.00769 0.000192658C0.733342 0.00532599 0.496809 0.107251 0.298092 0.305968C0.0993748 0.504685 1.71661e-05 0.738651 1.71661e-05 1.00787C1.71661e-05 1.2771 0.0993748 1.51108 0.298092 1.70979L7.83079 9.24249Z" fill="#4B4B4B"/>
</svg>
