<svg width="44" height="44" viewBox="0 0 44 44" fill="none" xmlns="http://www.w3.org/2000/svg">
<circle cx="22" cy="22" r="22" fill="#EEEEEE"/>
<circle cx="22" cy="22" r="22" fill="#EEEEEE"/>
<circle cx="22.0004" cy="21.9984" r="17.6" fill="#F5F5F5"/>
<mask id="mask0_5748_22740" style="mask-type:alpha" maskUnits="userSpaceOnUse" x="4" y="4" width="36" height="36">
<circle cx="22.0004" cy="21.9984" r="17.6" fill="#FAFAFA"/>
</mask>
<g mask="url(#mask0_5748_22740)">
<line x1="10.6666" y1="4.39844" x2="10.6666" y2="39.5984" stroke="#CACACA" stroke-width="0.8"/>
<line x1="16.5338" y1="4.39844" x2="16.5338" y2="39.5984" stroke="#CACACA" stroke-width="0.8"/>
<line x1="28.2672" y1="4.39844" x2="28.2672" y2="39.5984" stroke="#CACACA" stroke-width="0.8"/>
<line x1="34.1334" y1="4.39844" x2="34.1334" y2="39.5984" stroke="#CACACA" stroke-width="0.8"/>
<line x1="22.4" y1="4.39844" x2="22.4" y2="39.5984" stroke="#CACACA" stroke-width="0.8"/>
<line x1="39.6006" y1="10.6656" x2="4.40059" y2="10.6656" stroke="#CACACA" stroke-width="0.8"/>
<line x1="39.6006" y1="16.5328" x2="4.40059" y2="16.5328" stroke="#CACACA" stroke-width="0.8"/>
<line x1="39.6006" y1="28.2633" x2="4.40059" y2="28.2633" stroke="#CACACA" stroke-width="0.8"/>
<line x1="39.6006" y1="34.1305" x2="4.40059" y2="34.1305" stroke="#CACACA" stroke-width="0.8"/>
<line x1="39.6006" y1="22.4" x2="4.40059" y2="22.4" stroke="#CACACA" stroke-width="0.8"/>
<path fill-rule="evenodd" clip-rule="evenodd" d="M23.8152 17.9992C20.9622 17.167 18.9218 14.865 19.0995 12.4861C19.2991 9.81434 22.2212 8.05737 25.6262 8.56182C28.2788 8.9548 30.4419 10.6042 31.174 12.5772C34.8547 14.393 37.0722 17.1319 36.2265 18.9999C35.2974 21.052 31.0233 21.2759 26.68 19.5002C25.6212 19.0672 24.656 18.5554 23.8152 17.9992Z" fill="#D68C8C"/>
<path fill-rule="evenodd" clip-rule="evenodd" d="M22.4511 16.0915C20.3859 15.1209 19.0264 13.4645 19.1511 11.795C19.3222 9.50493 22.2212 8.05737 25.6262 8.56182C28.4349 8.97792 30.7105 10.5922 31.3254 12.4302C34.4164 14.0303 36.1903 16.136 35.4426 17.5743C34.5366 19.317 30.2715 19.4198 25.9163 17.804C24.5988 17.3152 23.4239 16.7251 22.4511 16.0915Z" fill="white"/>
<path fill-rule="evenodd" clip-rule="evenodd" d="M30.9801 11.7994C30.9984 11.7928 31.0164 11.7861 31.0341 11.7795C30.1564 10.2218 28.0977 8.92796 25.6262 8.56182C23.1975 8.20201 21.0262 8.83532 19.9187 10.0591C20.3205 10.2348 20.7357 10.4044 21.1629 10.5666C23.9133 11.6108 26.5566 12.1188 28.5835 12.1253C29.6 12.1286 30.4069 12.0054 30.9801 11.7994ZM19.1511 11.795C19.175 11.4753 19.2521 11.172 19.3763 10.8882C19.8197 11.0837 20.2777 11.2716 20.7488 11.4504C24.5652 12.8994 28.2623 13.383 30.582 12.8972C30.2378 13.2127 29.9908 13.5783 29.8581 13.9916C29.3695 15.5135 30.5417 17.3358 32.7447 18.8987C30.9191 19.0975 28.4327 18.7376 25.9163 17.804C24.5988 17.3152 23.4239 16.7251 22.4511 16.0915C20.3859 15.1209 19.0264 13.4645 19.1511 11.795ZM32.3186 12.9887C34.7842 14.4964 36.106 16.2981 35.4426 17.5743C35.2054 18.0305 34.7381 18.3743 34.0992 18.6043C33.4553 18.2087 32.8891 17.7925 32.4132 17.3695C30.9566 16.0749 30.6029 14.9753 30.8269 14.2775C30.9762 13.8123 31.4426 13.3379 32.3186 12.9887Z" fill="#F7B1B1"/>
<path fill-rule="evenodd" clip-rule="evenodd" d="M15.0486 31.8211C11.0876 31.7215 7.67305 29.1773 7.09162 25.6616C6.43858 21.7128 9.60679 18.0338 14.168 17.4442C17.7214 16.985 21.0719 18.5362 22.6879 21.1111C28.0513 22.3148 31.843 25.4233 31.3892 28.4579C30.8907 31.7917 25.4573 33.7737 19.2534 32.885C17.7408 32.6684 16.3221 32.301 15.0486 31.8211Z" fill="#D68C8C"/>
<path fill-rule="evenodd" clip-rule="evenodd" d="M12.6389 29.5856C9.64678 28.9798 7.33069 27.1071 6.9227 24.6402C6.36295 21.2555 9.6068 18.0338 14.168 17.4442C17.9306 16.9579 21.4143 18.4146 22.8331 20.8394C27.3625 21.9593 30.3665 24.3224 29.8927 26.6963C29.3186 29.5728 23.8556 31.3759 17.6908 30.7236C15.8252 30.5262 14.1092 30.1266 12.6389 29.5856Z" fill="white"/>
<path fill-rule="evenodd" clip-rule="evenodd" d="M22.3185 20.4508C22.376 20.4061 22.4312 20.3612 22.484 20.3163C20.8959 18.2092 17.6515 16.994 14.168 17.4442C10.6975 17.8928 7.98959 19.8653 7.13961 22.2739C7.75148 22.3802 8.38001 22.471 9.02279 22.5446C12.9466 22.9936 16.5621 22.7054 19.2213 21.9156C20.5523 21.5202 21.5962 21.0134 22.3185 20.4508ZM6.9227 24.6402C6.84455 24.1676 6.84054 23.6983 6.90391 23.2388C7.54224 23.3501 8.19685 23.4448 8.86509 23.5213C14.2782 24.1408 19.2086 23.4079 22.0335 21.8045C21.6973 22.395 21.5035 23.0205 21.4733 23.6708C21.3621 26.0654 23.4939 28.2513 26.8664 29.6616C24.5807 30.6576 21.2529 31.1005 17.6908 30.7236C15.8252 30.5262 14.1092 30.1266 12.6389 29.5856C9.64678 28.9798 7.33069 27.1071 6.9227 24.6402ZM23.8466 21.1182C27.8024 22.3216 30.3302 24.5043 29.8927 26.6963C29.7126 27.5991 29.0509 28.3961 28.0371 29.0446C27.2113 28.7463 26.4567 28.4032 25.7872 28.0247C23.4763 26.718 22.4113 25.144 22.4784 23.6996C22.5186 22.8334 22.9692 21.9441 23.8466 21.1182Z" fill="#F7B1B1"/>
</g>
<circle cx="22" cy="22" r="22" fill="#EEEEEE"/>
<circle cx="22" cy="22" r="22" fill="#EEEEEE"/>
<circle cx="22.0004" cy="21.9984" r="17.6" fill="#F5F5F5"/>
<rect x="15.7305" y="11.5781" width="5.33827" height="8.81166" fill="#F7941E"/>
<rect x="15.7305" y="11.0273" width="5.33827" height="8.81166" fill="#FAB655"/>
<rect x="23.7363" y="11.5781" width="5.33827" height="8.81166" fill="#F7941E"/>
<rect x="23.042" y="11.0273" width="5.33827" height="8.81166" fill="#FAB655"/>
<path fill-rule="evenodd" clip-rule="evenodd" d="M17.4675 6.52105C17.8053 5.82255 18.3097 5.68332 18.7956 5.74118C19.2916 5.80024 19.7504 6.06595 19.9475 6.18005L19.955 6.18439L19.955 6.18431C20.6722 6.59966 21.2068 7.2225 21.5344 7.81123C21.6983 8.10586 21.8066 8.38515 21.8616 8.61824C21.91 8.82297 21.9116 8.96669 21.8946 9.05297C21.7206 9.24628 21.3082 9.4437 20.6759 9.4523C20.0193 9.46123 19.1624 9.26405 18.1913 8.69126L18.0976 8.94568L18.1605 8.67588C17.9094 8.57319 17.6104 8.27863 17.4386 7.87721C17.2731 7.49051 17.2293 7.01373 17.4675 6.52105ZM18.0152 9.21714C17.6274 9.05111 17.2323 8.63779 17.0064 8.10996C16.7709 7.55947 16.7153 6.87421 17.0395 6.20385C17.4867 5.279 18.1887 5.08877 18.8085 5.16257C19.3963 5.23256 19.9247 5.539 20.1266 5.65606L20.1415 5.6647L20.1415 5.66462C20.9518 6.13377 21.5587 6.83807 21.9358 7.5157C22.1242 7.8543 22.259 8.19305 22.3314 8.49985C22.402 8.79851 22.4218 9.10375 22.3384 9.34675L22.3238 9.38919L22.2984 9.42298C22.0233 9.78812 21.4441 10.0239 20.7174 10.0338C19.9795 10.0438 19.0484 9.82346 18.0152 9.21714Z" fill="black"/>
<path fill-rule="evenodd" clip-rule="evenodd" d="M27.0562 6.50005C26.7031 5.8115 26.1961 5.68561 25.7113 5.75651C25.2166 5.82887 24.7637 6.10689 24.5693 6.22624L24.5619 6.23079L24.3625 5.71594L24.3776 5.70667C24.5767 5.58426 25.0978 5.26387 25.6836 5.17819C26.3013 5.08785 27.0078 5.25901 27.4762 6.1723C27.8157 6.83433 27.7755 7.52115 27.5526 8.07751C27.3373 8.61485 26.9479 9.0405 26.5616 9.21436C25.545 9.84543 24.6214 10.0897 23.8849 10.0994C23.1584 10.109 22.5738 9.88891 22.2902 9.53087L22.2639 9.4976L22.2483 9.45534C22.1592 9.21425 22.1723 8.90835 22.236 8.60801C22.3015 8.29939 22.4285 7.95721 22.6091 7.61376C22.9706 6.92643 23.5612 6.20634 24.3604 5.71579L24.5598 6.23063C23.8518 6.66524 23.3311 7.30257 23.0168 7.9002C22.8596 8.19923 22.7576 8.48141 22.7079 8.71594C22.6642 8.9217 22.6659 9.06515 22.6846 9.15071C22.8628 9.33891 23.2793 9.52513 23.9115 9.51679C24.5681 9.50813 25.4205 9.28803 26.3786 8.68928L26.4856 8.95973L26.4113 8.673C26.6604 8.56344 26.9529 8.26058 27.1157 7.85445C27.2724 7.46316 27.3052 6.98564 27.0562 6.50005Z" fill="black"/>
<rect x="15.3486" y="9.72266" width="6.10134" height="1.85523" fill="#4590BB"/>
<rect x="23.3584" y="9.72266" width="6.10134" height="1.85523" fill="#175C8E"/>
<rect x="21.707" y="9.72266" width="6.10134" height="1.85523" fill="#4590BB"/>
<rect x="22.7686" y="9.72266" width="6.10134" height="1.85523" fill="#4590BB"/>
<rect x="21.0684" y="9.26172" width="2.66913" height="11.1305" fill="#4590BB"/>
<rect x="21.0684" y="9.26172" width="2.66913" height="10.5789" fill="#4590BB"/>
<rect x="21.0693" y="9.25781" width="2.31" height="10.5789" fill="#6DBBDD"/>
<path fill-rule="evenodd" clip-rule="evenodd" d="M16.7067 18.4448C17.9223 17.5246 17.6859 15.6335 16.2812 15.0409L14.6642 14.3587L14.4467 12.6196C14.2576 11.1068 12.5017 10.366 11.2861 11.2862L9.88869 12.3441L8.27358 11.6627C6.86883 11.07 5.34933 12.2203 5.53848 13.7332L5.75596 15.4726L4.3567 16.5319C3.1411 17.4521 3.37753 19.3432 4.78227 19.9358L6.39928 20.618L6.61671 22.357C6.80586 23.8699 8.56179 24.6107 9.77739 23.6904L11.1747 22.6326L12.7898 23.314C14.1946 23.9066 15.7141 22.7563 15.5249 21.2435L15.3075 19.5041L16.7067 18.4448Z" fill="#F5F51C"/>
<path fill-rule="evenodd" clip-rule="evenodd" d="M16.6648 15.2668C17.7202 16.0121 17.804 17.6299 16.7085 18.4592L15.3093 19.5185L15.5267 21.2579C15.7159 22.7707 14.1964 23.921 12.7916 23.3284L11.1765 22.647L9.77918 23.7049C8.83754 24.4177 7.57167 24.1338 6.961 23.2665C7.62633 23.7392 8.56866 23.7958 9.31002 23.2346L10.7074 22.1767L12.3228 22.8582C13.7276 23.4508 15.2471 22.3005 15.0579 20.7877L14.8404 19.048L16.2394 17.9889C17.1403 17.3069 17.2437 16.0915 16.6648 15.2668ZM14.63 14.0856L14.4485 12.634C14.3748 12.0441 14.0628 11.5716 13.6375 11.2691C13.815 11.5214 13.9371 11.823 13.9797 12.1638L14.1972 13.903L14.63 14.0856ZM3.93278 19.2681C4.13493 19.5563 4.42033 19.7968 4.78406 19.9502L5.96786 20.4496L5.9319 20.162L4.31525 19.48C4.17623 19.4214 4.04864 19.35 3.93278 19.2681Z" fill="#D6DD09"/>
<path d="M11.304 19.2659C11.2218 18.7327 11.5874 18.2338 12.1206 18.1516C12.6538 18.0695 13.1526 18.4351 13.2348 18.9682C13.317 19.5014 12.9514 20.0003 12.4182 20.0825C11.885 20.1647 11.3862 19.7991 11.304 19.2659Z" stroke="white" stroke-width="0.49514"/>
<path d="M7.45534 15.7307C7.37315 15.1975 7.73876 14.6987 8.27194 14.6165C8.80513 14.5343 9.30399 14.8999 9.38617 15.4331C9.46836 15.9663 9.10275 16.4651 8.56957 16.5473C8.03638 16.6295 7.53753 16.2639 7.45534 15.7307Z" stroke="white" stroke-width="0.49514"/>
<line x1="7.59753" y1="19.6263" x2="13.1215" y2="14.7833" stroke="white" stroke-width="0.49514"/>
<path fill-rule="evenodd" clip-rule="evenodd" d="M14.5225 13.2344L14.6641 14.3676L14.2308 14.2064L14.1156 13.2852L14.5225 13.2344Z" fill="#D6DD09"/>
<path fill-rule="evenodd" clip-rule="evenodd" d="M5.53079 20.263L6.39899 20.6292L6.36313 20.3425L5.49494 19.9762L5.53079 20.263Z" fill="#D6DD09"/>
<path d="M38.7401 18.1621C38.1586 21.0253 35.3662 22.875 32.503 22.2935C29.6398 21.712 27.7901 18.9196 28.3716 16.0564C28.9531 13.1933 31.7455 11.3436 34.6087 11.925C37.4718 12.5065 39.3215 15.2989 38.7401 18.1621Z" fill="#FFFF54" stroke="#FFC62B" stroke-width="0.836809"/>
<mask id="path-45-inside-1_5748_22740" fill="white">
<path fill-rule="evenodd" clip-rule="evenodd" d="M33.17 17.2246L33.4308 16.6949L33.8484 16.7797L33.8819 17.3691L33.17 17.2246ZM32.7276 17.1347L32.9884 16.605L32.227 16.4504L32.2605 17.0399L32.7276 17.1347ZM32.2717 17.2359L32.6408 17.3109L32.3137 17.9752L32.2717 17.2359ZM31.8292 17.1461L31.9311 18.9375C31.9381 19.0606 32.0402 19.1341 32.1591 19.1016C32.2615 19.0737 32.3431 18.9763 32.3592 18.8712L33.0833 17.4007L33.8931 17.5652L33.9822 19.1326C33.972 19.1813 33.9754 19.2334 33.9908 19.2814C33.9981 19.3751 34.061 19.4389 34.1439 19.4474C34.2241 19.4726 34.3076 19.4383 34.351 19.3542C34.3837 19.3161 34.4071 19.2696 34.4167 19.2209L35.1102 17.8124L36.4636 18.0872L36.5014 17.9011L35.197 17.6362L35.4578 17.1065L36.6161 17.3417L36.6539 17.1556L35.5445 16.9303L36.1719 15.6562C36.2263 15.5456 36.1919 15.3942 36.0951 15.3179C35.9982 15.2416 35.8756 15.2695 35.8211 15.3801L35.1021 16.8405L34.2797 16.6735L34.1873 15.0481C34.1814 14.9459 34.11 14.8779 34.0177 14.8764C33.9321 14.8415 33.8396 14.8762 33.7943 14.9683L33.0751 16.4289L32.2159 16.2544L32.128 14.7091C32.121 14.586 32.0189 14.5125 31.8999 14.545C31.781 14.5774 31.6903 14.7035 31.6973 14.8265L31.7734 16.1645L30.6867 15.9438L30.6489 16.1299L31.7845 16.3606L31.8181 16.95L30.5342 16.6893L30.4964 16.8754L31.8292 17.1461ZM34.7545 17.5463L35.0153 17.0167L34.2909 16.8695L34.3244 17.459L34.7545 17.5463ZM34.3355 17.6551L34.3734 18.3204L34.6678 17.7225L34.3355 17.6551ZM33.8008 15.9434L33.8373 16.5836L33.5176 16.5187L33.8008 15.9434Z"/>
</mask>
<path d="M33.4308 16.6949L33.5419 16.1482L33.1203 16.0626L32.9303 16.4484L33.4308 16.6949ZM33.17 17.2246L32.6695 16.9781L32.3499 17.6273L33.059 17.7713L33.17 17.2246ZM33.8484 16.7797L34.4054 16.748L34.3809 16.3186L33.9594 16.233L33.8484 16.7797ZM33.8819 17.3691L33.7709 17.9159L34.48 18.0599L34.4389 17.3375L33.8819 17.3691ZM32.9884 16.605L33.4889 16.8515L33.8085 16.2023L33.0994 16.0583L32.9884 16.605ZM32.7276 17.1347L32.6165 17.6814L33.0381 17.767L33.2281 17.3811L32.7276 17.1347ZM32.227 16.4504L32.338 15.9037L31.6289 15.7597L31.67 16.4821L32.227 16.4504ZM32.2605 17.0399L31.7036 17.0716L31.728 17.501L32.1495 17.5866L32.2605 17.0399ZM32.6408 17.3109L33.1413 17.5573L33.4609 16.9082L32.7518 16.7642L32.6408 17.3109ZM32.2717 17.2359L32.3827 16.6892L31.6736 16.5452L31.7147 17.2676L32.2717 17.2359ZM32.3137 17.9752L31.7568 18.0069L31.8772 20.1246L32.8142 18.2216L32.3137 17.9752ZM31.9311 18.9375L32.4881 18.9058L31.9311 18.9375ZM31.8292 17.1461L32.3862 17.1144L32.3618 16.685L31.9403 16.5994L31.8292 17.1461ZM32.1591 19.1016L32.3059 19.6398L32.3059 19.6398L32.1591 19.1016ZM32.3592 18.8712L31.8587 18.6248L31.8209 18.7017L31.8079 18.7863L32.3592 18.8712ZM33.0833 17.4007L33.1943 16.854L32.7728 16.7684L32.5828 17.1543L33.0833 17.4007ZM33.8931 17.5652L34.4501 17.5335L34.4256 17.1041L34.0041 17.0185L33.8931 17.5652ZM33.9822 19.1326L34.5282 19.2475L34.5434 19.1749L34.5392 19.1009L33.9822 19.1326ZM33.9908 19.2814L34.5469 19.2381L34.5419 19.1735L34.5222 19.1117L33.9908 19.2814ZM34.1439 19.4474L34.3114 18.9153L34.2572 18.8982L34.2007 18.8924L34.1439 19.4474ZM34.351 19.3542L33.9275 18.991L33.8851 19.0405L33.8553 19.0984L34.351 19.3542ZM34.4167 19.2209L33.9162 18.9745L33.8835 19.0408L33.8693 19.1133L34.4167 19.2209ZM35.1102 17.8124L35.2212 17.2657L34.7997 17.1801L34.6097 17.5659L35.1102 17.8124ZM36.4636 18.0872L36.3526 18.6339L36.8993 18.745L37.0103 18.1982L36.4636 18.0872ZM36.5014 17.9011L37.0481 18.0121L37.1591 17.4654L36.6124 17.3544L36.5014 17.9011ZM35.197 17.6362L34.6965 17.3898L34.3768 18.0389L35.0859 18.1829L35.197 17.6362ZM35.4578 17.1065L35.5688 16.5598L35.1473 16.4742L34.9573 16.8601L35.4578 17.1065ZM36.6161 17.3417L36.5051 17.8885L37.0518 17.9995L37.1628 17.4528L36.6161 17.3417ZM36.6539 17.1556L37.2006 17.2667L37.3116 16.72L36.7649 16.6089L36.6539 17.1556ZM35.5445 16.9303L35.044 16.6839L34.7244 17.3331L35.4335 17.4771L35.5445 16.9303ZM36.1719 15.6562L35.6714 15.4098L35.6714 15.4098L36.1719 15.6562ZM36.0951 15.3179L35.75 15.7562L36.0951 15.3179ZM35.8211 15.3801L35.3206 15.1336L35.8211 15.3801ZM35.1021 16.8405L34.991 17.3872L35.4125 17.4728L35.6025 17.0869L35.1021 16.8405ZM34.2797 16.6735L33.7227 16.7052L33.7472 17.1346L34.1687 17.2202L34.2797 16.6735ZM34.1873 15.0481L33.6303 15.0798L33.6303 15.0798L34.1873 15.0481ZM34.0177 14.8764L33.8072 15.393L33.9042 15.4325L34.0089 15.4342L34.0177 14.8764ZM33.7943 14.9683L34.2948 15.2147L34.2948 15.2147L33.7943 14.9683ZM33.0751 16.4289L32.9641 16.9756L33.3856 17.0612L33.5756 16.6753L33.0751 16.4289ZM32.2159 16.2544L31.6589 16.286L31.6833 16.7155L32.1048 16.8011L32.2159 16.2544ZM32.128 14.7091L31.571 14.7408L31.571 14.7408L32.128 14.7091ZM31.8999 14.545L32.0467 15.0832L32.0467 15.0832L31.8999 14.545ZM31.6973 14.8265L32.2543 14.7949L32.2543 14.7949L31.6973 14.8265ZM31.7734 16.1645L31.6624 16.7112L32.3715 16.8552L32.3304 16.1328L31.7734 16.1645ZM30.6867 15.9438L30.7977 15.3971L30.251 15.2861L30.14 15.8328L30.6867 15.9438ZM30.6489 16.1299L30.1022 16.0189L29.9911 16.5656L30.5378 16.6766L30.6489 16.1299ZM31.7845 16.3606L32.3415 16.3289L32.3171 15.8994L31.8956 15.8138L31.7845 16.3606ZM31.8181 16.95L31.707 17.4967L32.4161 17.6407L32.375 16.9183L31.8181 16.95ZM30.5342 16.6893L30.6452 16.1426L30.0985 16.0315L29.9875 16.5783L30.5342 16.6893ZM30.4964 16.8754L29.9497 16.7644L29.8386 17.3111L30.3853 17.4221L30.4964 16.8754ZM34.7545 17.5463L34.6435 18.0931L35.065 18.1787L35.255 17.7928L34.7545 17.5463ZM35.0153 17.0167L35.5158 17.2631L35.8354 16.6139L35.1263 16.4699L35.0153 17.0167ZM34.2909 16.8695L34.4019 16.3228L33.6928 16.1788L33.7339 16.9012L34.2909 16.8695ZM34.3244 17.459L33.7674 17.4907L33.7918 17.9201L34.2134 18.0057L34.3244 17.459ZM34.3355 17.6551L34.4466 17.1083L33.7375 16.9643L33.7786 17.6867L34.3355 17.6551ZM34.3734 18.3204L33.8164 18.3521L33.9369 20.4698L34.8739 18.5668L34.3734 18.3204ZM34.6678 17.7225L35.1683 17.9689L35.4879 17.3198L34.7788 17.1758L34.6678 17.7225ZM33.8373 16.5836L33.7262 17.1303L34.4353 17.2743L34.3942 16.552L33.8373 16.5836ZM33.8008 15.9434L34.3578 15.9117L34.2373 13.7939L33.3003 15.697L33.8008 15.9434ZM33.5176 16.5187L33.0171 16.2723L32.6975 16.9214L33.4065 17.0654L33.5176 16.5187ZM32.9303 16.4484L32.6695 16.9781L33.6705 17.471L33.9313 16.9413L32.9303 16.4484ZM33.9594 16.233L33.5419 16.1482L33.3198 17.2416L33.7374 17.3264L33.9594 16.233ZM34.4389 17.3375L34.4054 16.748L33.2914 16.8114L33.325 17.4008L34.4389 17.3375ZM33.059 17.7713L33.7709 17.9159L33.993 16.8224L33.281 16.6779L33.059 17.7713ZM32.4879 16.3586L32.2271 16.8883L33.2281 17.3811L33.4889 16.8515L32.4879 16.3586ZM32.116 16.9971L32.8773 17.1517L33.0994 16.0583L32.338 15.9037L32.116 16.9971ZM32.8175 17.0082L32.784 16.4187L31.67 16.4821L31.7036 17.0716L32.8175 17.0082ZM32.1495 17.5866L32.6165 17.6814L32.8386 16.588L32.3716 16.4932L32.1495 17.5866ZM32.7518 16.7642L32.3827 16.6892L32.1607 17.7826L32.5298 17.8576L32.7518 16.7642ZM32.1403 17.0645L31.8132 17.7288L32.8142 18.2216L33.1413 17.5573L32.1403 17.0645ZM32.8707 17.9435L32.8287 17.2042L31.7147 17.2676L31.7568 18.0069L32.8707 17.9435ZM32.4881 18.9058L32.3862 17.1144L31.2723 17.1777L31.3741 18.9692L32.4881 18.9058ZM32.0123 18.5634C32.0997 18.5396 32.2211 18.5474 32.329 18.6251C32.437 18.7028 32.483 18.8155 32.4881 18.9058L31.3741 18.9692C31.3863 19.1827 31.4868 19.3936 31.6773 19.5307C31.8677 19.6678 32.0997 19.6961 32.3059 19.6398L32.0123 18.5634ZM31.8079 18.7863C31.8169 18.7279 31.8411 18.6836 31.8684 18.6518C31.8958 18.62 31.9421 18.5826 32.0123 18.5634L32.3059 19.6398C32.6368 19.5496 32.8635 19.2622 32.9106 18.9562L31.8079 18.7863ZM32.5828 17.1543L31.8587 18.6248L32.8597 19.1177L33.5838 17.6472L32.5828 17.1543ZM34.0041 17.0185L33.1943 16.854L32.9723 17.9475L33.7821 18.1119L34.0041 17.0185ZM34.5392 19.1009L34.4501 17.5335L33.3361 17.5969L33.4253 19.1643L34.5392 19.1009ZM34.5222 19.1117C34.5342 19.1494 34.5391 19.1954 34.5282 19.2475L33.4363 19.0177C33.4049 19.1671 33.4166 19.3174 33.4593 19.4512L34.5222 19.1117ZM34.2007 18.8924C34.2893 18.9015 34.3781 18.9426 34.4454 19.0142C34.5124 19.0855 34.5415 19.1688 34.5469 19.2381L33.4346 19.3248C33.4614 19.669 33.7181 19.9647 34.0872 20.0024L34.2007 18.8924ZM33.8553 19.0984C33.8873 19.0364 33.9469 18.9705 34.0371 18.9309C34.1277 18.8912 34.2261 18.8884 34.3114 18.9153L33.9765 19.9796C34.3327 20.0916 34.6874 19.9189 34.8467 19.6101L33.8553 19.0984ZM33.8693 19.1133C33.8795 19.0613 33.9019 19.021 33.9275 18.991L34.7744 19.7174C34.8656 19.6112 34.9347 19.4779 34.9641 19.3286L33.8693 19.1133ZM34.6097 17.5659L33.9162 18.9745L34.9172 19.4674L35.6107 18.0588L34.6097 17.5659ZM36.5746 17.5405L35.2212 17.2657L34.9992 18.3591L36.3526 18.6339L36.5746 17.5405ZM35.9547 17.7901L35.9169 17.9762L37.0103 18.1982L37.0481 18.0121L35.9547 17.7901ZM35.0859 18.1829L36.3904 18.4478L36.6124 17.3544L35.308 17.0895L35.0859 18.1829ZM34.9573 16.8601L34.6965 17.3898L35.6975 17.8826L35.9583 17.3529L34.9573 16.8601ZM36.7271 16.795L35.5688 16.5598L35.3467 17.6532L36.5051 17.8885L36.7271 16.795ZM36.1072 17.0446L36.0694 17.2307L37.1628 17.4528L37.2006 17.2667L36.1072 17.0446ZM35.4335 17.4771L36.5429 17.7023L36.7649 16.6089L35.6555 16.3836L35.4335 17.4771ZM35.6714 15.4098L35.044 16.6839L36.045 17.1768L36.6724 15.9026L35.6714 15.4098ZM35.75 15.7562C35.6842 15.7044 35.6564 15.6427 35.6462 15.5976C35.6359 15.5525 35.6344 15.4849 35.6714 15.4098L36.6724 15.9026C36.8432 15.5557 36.744 15.1188 36.4402 14.8796L35.75 15.7562ZM36.3216 15.6265C36.2816 15.7077 36.1954 15.7935 36.0657 15.823C35.936 15.8524 35.8211 15.8122 35.75 15.7562L36.4402 14.8796C36.2722 14.7473 36.0476 14.6829 35.8187 14.7349C35.5899 14.7868 35.4151 14.9418 35.3206 15.1336L36.3216 15.6265ZM35.6025 17.0869L36.3216 15.6265L35.3206 15.1336L34.6016 16.5941L35.6025 17.0869ZM34.1687 17.2202L34.991 17.3872L35.2131 16.2938L34.3907 16.1268L34.1687 17.2202ZM33.6303 15.0798L33.7227 16.7052L34.8367 16.6418L34.7442 15.0165L33.6303 15.0798ZM34.0089 15.4342C33.9162 15.4327 33.8175 15.3957 33.7414 15.3199C33.6656 15.2445 33.6345 15.1535 33.6303 15.0798L34.7442 15.0165C34.7229 14.6407 34.4292 14.325 34.0266 14.3186L34.0089 15.4342ZM34.2948 15.2147C34.2621 15.281 34.1978 15.3528 34.0983 15.3926C33.9985 15.4326 33.8931 15.428 33.8072 15.393L34.2283 14.3598C33.8549 14.2076 33.4604 14.3835 33.2938 14.7218L34.2948 15.2147ZM33.5756 16.6753L34.2948 15.2147L33.2938 14.7218L32.5746 16.1824L33.5756 16.6753ZM32.1048 16.8011L32.9641 16.9756L33.1861 15.8821L32.3269 15.7076L32.1048 16.8011ZM31.571 14.7408L31.6589 16.286L32.7728 16.2227L32.6849 14.6774L31.571 14.7408ZM32.0467 15.0832C31.9594 15.107 31.838 15.0992 31.73 15.0215C31.6221 14.9438 31.5761 14.8311 31.571 14.7408L32.6849 14.6774C32.6728 14.4639 32.5723 14.253 32.3818 14.1159C32.1914 13.9788 31.9594 13.9505 31.7532 14.0068L32.0467 15.0832ZM32.2543 14.7949C32.259 14.8785 32.2312 14.9401 32.2042 14.9777C32.1772 15.0152 32.1276 15.0611 32.0467 15.0832L31.7532 14.0068C31.3801 14.1085 31.1184 14.4722 31.1403 14.8582L32.2543 14.7949ZM32.3304 16.1328L32.2543 14.7949L31.1403 14.8582L31.2164 16.1962L32.3304 16.1328ZM30.5756 16.4905L31.6624 16.7112L31.8844 15.6178L30.7977 15.3971L30.5756 16.4905ZM31.1956 16.2409L31.2334 16.0548L30.14 15.8328L30.1022 16.0189L31.1956 16.2409ZM31.8956 15.8138L30.7599 15.5832L30.5378 16.6766L31.6735 16.9073L31.8956 15.8138ZM32.375 16.9183L32.3415 16.3289L31.2276 16.3922L31.2611 16.9817L32.375 16.9183ZM30.4231 17.236L31.707 17.4967L31.9291 16.4033L30.6452 16.1426L30.4231 17.236ZM31.0431 16.9864L31.0809 16.8003L29.9875 16.5783L29.9497 16.7644L31.0431 16.9864ZM31.9403 16.5994L30.6074 16.3287L30.3853 17.4221L31.7182 17.6928L31.9403 16.5994ZM35.255 17.7928L35.5158 17.2631L34.5148 16.7702L34.254 17.2999L35.255 17.7928ZM35.1263 16.4699L34.4019 16.3228L34.1798 17.4162L34.9043 17.5634L35.1263 16.4699ZM33.7339 16.9012L33.7674 17.4907L34.8814 17.4273L34.8478 16.8379L33.7339 16.9012ZM34.2134 18.0057L34.6435 18.0931L34.8655 16.9996L34.4354 16.9123L34.2134 18.0057ZM33.7786 17.6867L33.8164 18.3521L34.9304 18.2887L34.8925 17.6234L33.7786 17.6867ZM34.8739 18.5668L35.1683 17.9689L34.1673 17.4761L33.8729 18.074L34.8739 18.5668ZM34.7788 17.1758L34.4466 17.1083L34.2245 18.2018L34.5567 18.2692L34.7788 17.1758ZM34.3942 16.552L34.3578 15.9117L33.2439 15.9751L33.2803 16.6153L34.3942 16.552ZM33.4065 17.0654L33.7262 17.1303L33.9483 16.0369L33.6286 15.972L33.4065 17.0654ZM33.3003 15.697L33.0171 16.2723L34.0181 16.7651L34.3013 16.1898L33.3003 15.697Z" fill="#FFC62B" mask="url(#path-45-inside-1_5748_22740)"/>
<rect width="0.171254" height="4.4526" rx="0.085627" transform="matrix(-0.785702 -0.618605 -0.441733 0.897146 36.2412 15.5)" fill="#CEBA1F"/>
<rect width="0.179324" height="3.50852" rx="0.0896618" transform="matrix(-0.785702 -0.618605 -0.441734 0.897146 33.7822 15.9922)" fill="#CEBA1F"/>
<rect width="0.179323" height="3.50852" rx="0.0896616" transform="matrix(0.964763 -0.26312 0.0567878 0.998386 34.0049 14.9531)" fill="#CEBA1F"/>
<rect width="0.179324" height="3.50852" rx="0.0896621" transform="matrix(0.964763 -0.263119 0.0567881 0.998386 31.9473 14.6445)" fill="#CEBA1F"/>
<path d="M30.6562 16.082L36.6235 17.2939L36.6121 17.3498L30.6449 16.138L30.6562 16.082Z" fill="#CEBA1F"/>
<path d="M30.5078 16.8281L36.475 18.04L36.4637 18.0959L30.4965 16.8841L30.5078 16.8281Z" fill="#CEBA1F"/>
<path d="M36.7939 19.8047C36.287 20.8667 34.9977 21.4786 33.8788 21.2514" stroke="white" stroke-width="0.390511" stroke-linecap="round"/>
<path d="M31.0339 22.0725C33.705 23.547 38.0186 22.3842 38.9599 18.3231" stroke="#CEA73D" stroke-width="0.278936" stroke-linecap="round"/>
<path fill-rule="evenodd" clip-rule="evenodd" d="M27.1823 23.5352H17.7404H17.4981V23.5451C16.6178 23.6178 15.8488 24.083 15.3665 24.7652L15.3398 24.7458L11.9287 29.4354L19.5746 34.9969L22.6437 30.7776L28.2329 30.7775V30.7569C28.5494 30.7558 28.8468 30.6732 29.1051 30.529L34.1809 28.4578C34.1939 28.4528 34.2069 28.4476 34.2199 28.4423C35.2103 28.0382 35.7417 27.0453 35.4068 26.2246C35.072 25.404 33.9976 25.0663 33.0072 25.4705L33.0071 25.4705L33.007 25.4702L28.7276 27.2164C28.6181 27.1848 28.5043 27.1633 28.3873 27.153C28.9694 26.8189 29.3614 26.1912 29.3614 25.472C29.3614 24.4023 28.4943 23.5352 27.4246 23.5352C27.3425 23.5352 27.2616 23.5403 27.1823 23.5502V23.5352Z" fill="#F6DCCD"/>
<path d="M28.4268 27.1445H21.6061" stroke="#FFBB94" stroke-width="0.337774" stroke-linecap="round"/>
<rect x="10.5898" y="27.9492" width="12.8389" height="5.76318" rx="2.70219" transform="rotate(36.485 10.5898 27.9492)" fill="#4590BB"/>
<mask id="path-58-inside-2_5748_22740" fill="white">
<path fill-rule="evenodd" clip-rule="evenodd" d="M27.7964 27.2193L28.5803 27.2271C28.8756 27.0241 29.118 26.7368 29.267 26.3818C29.5123 25.7973 29.4494 25.1605 29.1521 24.6526C29.2458 25.0402 29.2211 25.4602 29.0549 25.8561C28.8052 26.451 28.293 26.8559 27.7095 26.9927C27.7196 27.0283 27.7181 27.0674 27.7027 27.1041C27.6978 27.1158 27.6918 27.1266 27.6848 27.1365C27.7233 27.1628 27.7605 27.1904 27.7964 27.2193Z"/>
</mask>
<path fill-rule="evenodd" clip-rule="evenodd" d="M27.7964 27.2193L28.5803 27.2271C28.8756 27.0241 29.118 26.7368 29.267 26.3818C29.5123 25.7973 29.4494 25.1605 29.1521 24.6526C29.2458 25.0402 29.2211 25.4602 29.0549 25.8561C28.8052 26.451 28.293 26.8559 27.7095 26.9927C27.7196 27.0283 27.7181 27.0674 27.7027 27.1041C27.6978 27.1158 27.6918 27.1266 27.6848 27.1365C27.7233 27.1628 27.7605 27.1904 27.7964 27.2193Z" fill="#FFB489"/>
<path d="M28.5803 27.2271L28.5736 27.9026L28.7872 27.9048L28.9631 27.7837L28.5803 27.2271ZM27.7964 27.2193L27.3731 27.7457L27.5556 27.8925L27.7897 27.8948L27.7964 27.2193ZM29.267 26.3818L28.6441 26.1203L28.6441 26.1203L29.267 26.3818ZM29.1521 24.6526L29.7351 24.3113L28.4955 24.8114L29.1521 24.6526ZM29.0549 25.8561L29.6778 26.1176L29.6778 26.1176L29.0549 25.8561ZM27.7095 26.9927L27.5553 26.335L26.866 26.4965L27.0597 27.1775L27.7095 26.9927ZM27.7027 27.1041L27.0798 26.8427L27.7027 27.1041ZM27.6848 27.1365L27.1333 26.7463L26.7369 27.3067L27.3035 27.6941L27.6848 27.1365ZM28.5871 26.5516L27.8032 26.5438L27.7897 27.8948L28.5736 27.9026L28.5871 26.5516ZM28.6441 26.1203C28.5467 26.3524 28.3893 26.5386 28.1975 26.6705L28.9631 27.7837C29.3618 27.5095 29.6893 27.1211 29.8899 26.6433L28.6441 26.1203ZM28.569 24.9938C28.7636 25.3262 28.8037 25.7401 28.6441 26.1203L29.8899 26.6433C30.221 25.8545 30.1351 24.9949 29.7351 24.3113L28.569 24.9938ZM29.6778 26.1176C29.9017 25.5843 29.9352 25.0167 29.8087 24.4937L28.4955 24.8114C28.5565 25.0637 28.5406 25.336 28.432 25.5946L29.6778 26.1176ZM27.8636 27.6504C28.6488 27.4664 29.3408 26.9205 29.6778 26.1176L28.432 25.5946C28.2696 25.9816 27.9373 26.2454 27.5553 26.335L27.8636 27.6504ZM28.3256 27.3656C28.4025 27.1824 28.4098 26.9856 28.3593 26.8079L27.0597 27.1775C27.0294 27.0709 27.0338 26.9523 27.0798 26.8427L28.3256 27.3656ZM28.2363 27.5266C28.2715 27.4768 28.3016 27.4229 28.3256 27.3656L27.0798 26.8427C27.0941 26.8087 27.1121 26.7764 27.1333 26.7463L28.2363 27.5266ZM28.2198 26.6928C28.1703 26.6531 28.119 26.615 28.0661 26.5788L27.3035 27.6941C27.3275 27.7105 27.3507 27.7277 27.3731 27.7457L28.2198 26.6928Z" fill="#FFBB94" mask="url(#path-58-inside-2_5748_22740)"/>
<mask id="path-60-inside-3_5748_22740" fill="white">
<path fill-rule="evenodd" clip-rule="evenodd" d="M19.5573 34.9837C19.4712 34.8009 19.3641 34.6265 19.2363 34.4645L22.2187 30.3644L27.808 30.3643V30.3437C28.1276 30.3426 28.4276 30.2584 28.6876 30.1117L33.744 28.0484C33.7606 28.0421 33.7772 28.0355 33.7938 28.0287C34.7842 27.6246 35.3156 26.6317 34.9808 25.8111C34.9465 25.727 34.9044 25.6479 34.8554 25.5742C35.0929 25.7301 35.2804 25.9461 35.3895 26.2134C35.7243 27.0341 35.1929 28.027 34.2025 28.4311C34.1834 28.4389 34.1643 28.4464 34.1451 28.4537L29.0867 30.5178C28.8284 30.6619 28.531 30.7445 28.2145 30.7456V30.7662L22.625 30.7663L19.5573 34.9837Z"/>
</mask>
<path fill-rule="evenodd" clip-rule="evenodd" d="M19.5573 34.9837C19.4712 34.8009 19.3641 34.6265 19.2363 34.4645L22.2187 30.3644L27.808 30.3643V30.3437C28.1276 30.3426 28.4276 30.2584 28.6876 30.1117L33.744 28.0484C33.7606 28.0421 33.7772 28.0355 33.7938 28.0287C34.7842 27.6246 35.3156 26.6317 34.9808 25.8111C34.9465 25.727 34.9044 25.6479 34.8554 25.5742C35.0929 25.7301 35.2804 25.9461 35.3895 26.2134C35.7243 27.0341 35.1929 28.027 34.2025 28.4311C34.1834 28.4389 34.1643 28.4464 34.1451 28.4537L29.0867 30.5178C28.8284 30.6619 28.531 30.7445 28.2145 30.7456V30.7662L22.625 30.7663L19.5573 34.9837Z" fill="#FFB489"/>
<path d="M19.2363 34.4645L18.69 34.0671L18.389 34.4809L18.7059 34.8828L19.2363 34.4645ZM19.5573 34.9837L18.9461 35.2714L19.4322 36.3042L20.1036 35.3811L19.5573 34.9837ZM22.2187 30.3644L22.2187 29.6888L21.8747 29.6888L21.6724 29.967L22.2187 30.3644ZM27.808 30.3643L27.808 31.0399L28.4836 31.0399V30.3643H27.808ZM27.808 30.3437L27.8057 29.6681L27.1325 29.6705V30.3437H27.808ZM28.6876 30.1117L28.4324 29.4862L28.3928 29.5024L28.3556 29.5234L28.6876 30.1117ZM33.744 28.0484L33.5029 27.4174L33.4958 27.4201L33.4887 27.423L33.744 28.0484ZM33.7938 28.0287L33.5386 27.4033L33.5386 27.4033L33.7938 28.0287ZM34.9808 25.8111L35.6063 25.5558L35.6063 25.5558L34.9808 25.8111ZM34.8554 25.5742L35.226 25.0094L34.2928 25.9482L34.8554 25.5742ZM35.3895 26.2134L36.0149 25.9582L36.0149 25.9582L35.3895 26.2134ZM34.2025 28.4311L33.9473 27.8056L33.9473 27.8056L34.2025 28.4311ZM34.1451 28.4537L33.9062 27.8218L33.898 27.8249L33.8899 27.8282L34.1451 28.4537ZM29.0867 30.5178L28.8315 29.8923L28.7934 29.9078L28.7575 29.9279L29.0867 30.5178ZM28.2145 30.7456L28.2121 30.0701L27.5389 30.0724V30.7456H28.2145ZM28.2145 30.7662L28.2145 31.4418L28.89 31.4418V30.7662H28.2145ZM22.625 30.7663L22.625 30.0907L22.281 30.0907L22.0787 30.3689L22.625 30.7663ZM18.7059 34.8828C18.8014 35.0039 18.8816 35.1344 18.9461 35.2714L20.1685 34.696C20.0609 34.4673 19.9267 34.249 19.7668 34.0462L18.7059 34.8828ZM21.6724 29.967L18.69 34.0671L19.7826 34.8619L22.765 30.7618L21.6724 29.967ZM27.808 29.6888L22.2187 29.6888L22.2187 31.0399L27.808 31.0399L27.808 29.6888ZM27.1325 30.3437V30.3643H28.4836V30.3437H27.1325ZM28.3556 29.5234C28.1936 29.6148 28.0067 29.6674 27.8057 29.6681L27.8104 31.0192C28.2485 31.0177 28.6616 30.9021 29.0196 30.7L28.3556 29.5234ZM33.4887 27.423L28.4324 29.4862L28.9429 30.7372L33.9992 28.6739L33.4887 27.423ZM33.5386 27.4033C33.5267 27.4081 33.5148 27.4128 33.5029 27.4174L33.9851 28.6795C34.0064 28.6713 34.0278 28.6629 34.0491 28.6542L33.5386 27.4033ZM34.3553 26.0663C34.5064 26.4366 34.2988 27.0931 33.5386 27.4033L34.0491 28.6542C35.2697 28.1561 36.1249 26.8268 35.6063 25.5558L34.3553 26.0663ZM34.2928 25.9482C34.3172 25.9848 34.3381 26.0242 34.3553 26.0663L35.6063 25.5558C35.5548 25.4297 35.4916 25.311 35.418 25.2003L34.2928 25.9482ZM36.0149 25.9582C35.85 25.5539 35.5681 25.2339 35.226 25.0094L34.4847 26.139C34.6177 26.2262 34.7108 26.3383 34.764 26.4687L36.0149 25.9582ZM34.4578 29.0566C35.6784 28.5585 36.5336 27.2292 36.0149 25.9582L34.764 26.4687C34.9151 26.8389 34.7075 27.4954 33.9473 27.8056L34.4578 29.0566ZM34.384 29.0855C34.4087 29.0762 34.4332 29.0666 34.4578 29.0566L33.9473 27.8056C33.9336 27.8112 33.9199 27.8166 33.9062 27.8218L34.384 29.0855ZM29.3419 31.1432L34.4003 29.0791L33.8899 27.8282L28.8315 29.8923L29.3419 31.1432ZM28.2168 31.4211C28.6508 31.4196 29.0603 31.3062 29.4159 31.1077L28.7575 29.9279C28.5966 30.0177 28.4113 30.0694 28.2121 30.0701L28.2168 31.4211ZM28.89 30.7662V30.7456H27.5389V30.7662H28.89ZM22.625 31.4418L28.2145 31.4418L28.2145 30.0907L22.625 30.0907L22.625 31.4418ZM20.1036 35.3811L23.1713 31.1637L22.0787 30.3689L19.011 34.5863L20.1036 35.3811Z" fill="#FFBB94" mask="url(#path-60-inside-3_5748_22740)"/>
</svg>
