<svg width="20" height="20" viewBox="0 0 20 20" fill="none" xmlns="http://www.w3.org/2000/svg">
<mask id="mask0_505_1500" style="mask-type:alpha" maskUnits="userSpaceOnUse" x="0" y="0" width="20" height="20">
<rect width="20" height="20" fill="#D9D9D9"/>
</mask>
<g mask="url(#mask0_505_1500)">
<path d="M12.4798 7.52092C12.7715 7.81258 13.0076 8.16328 13.1882 8.573C13.3687 8.98272 13.4729 9.4098 13.5007 9.85425C13.5007 10.0626 13.4263 10.2397 13.2777 10.3855C13.129 10.5313 12.9533 10.6042 12.7507 10.6042C12.5365 10.6042 12.3545 10.5313 12.2046 10.3855C12.0547 10.2397 11.9798 10.0626 11.9798 9.85425C12.0076 9.57647 11.9763 9.31953 11.8861 9.08342C11.7958 8.8473 11.6673 8.64244 11.5007 8.46883C11.334 8.29522 11.1361 8.16675 10.9069 8.08342C10.6777 8.00008 10.4243 7.9723 10.1465 8.00008C9.93815 8.00008 9.76107 7.92578 9.61523 7.77716C9.4694 7.62841 9.39648 7.45272 9.39648 7.25008C9.39648 7.04175 9.4694 6.86466 9.61523 6.71883C9.76107 6.573 9.93815 6.50008 10.1465 6.50008C10.5909 6.52786 11.0145 6.62855 11.4173 6.80216C11.8201 6.97578 12.1743 7.21536 12.4798 7.52092ZM10.0007 5.50008C9.76898 5.50008 9.54343 5.50737 9.32398 5.52196C9.10454 5.53654 8.8851 5.56328 8.66565 5.60217C8.45843 5.63133 8.26107 5.59383 8.07357 5.48966C7.88607 5.3855 7.76454 5.23272 7.70898 5.03133C7.65343 4.82994 7.67773 4.63897 7.7819 4.45841C7.88607 4.27786 8.04072 4.17196 8.24586 4.14071C8.54072 4.08862 8.83294 4.05216 9.12253 4.03133C9.41211 4.0105 9.70482 4.00008 10.0007 4.00008C11.8618 4.00008 13.5736 4.47578 15.1361 5.42716C16.6986 6.37855 17.8835 7.68841 18.6909 9.35675C18.7446 9.46619 18.7819 9.57314 18.8027 9.67758C18.8236 9.78203 18.834 9.88953 18.834 10.0001C18.834 10.1106 18.8236 10.2181 18.8027 10.3226C18.7819 10.427 18.7507 10.5348 18.709 10.6459C18.4625 11.1712 18.1578 11.6636 17.795 12.1232C17.4321 12.5828 17.0354 13.014 16.6048 13.4167C16.452 13.5556 16.275 13.6181 16.0736 13.6042C15.8722 13.5904 15.702 13.499 15.5632 13.3301C15.4243 13.1611 15.3652 12.977 15.3861 12.778C15.4069 12.5788 15.4937 12.4029 15.6465 12.2501C16.0076 11.9306 16.3295 11.5834 16.6123 11.2084C16.8952 10.8334 17.1427 10.4306 17.3548 10.0001C16.6743 8.5973 15.6708 7.49661 14.3444 6.698C13.018 5.89939 11.5701 5.50008 10.0007 5.50008ZM10.0007 16.0001C8.18121 16.0001 6.5076 15.5174 4.97982 14.5522C3.45204 13.5869 2.25016 12.3043 1.37419 10.7045C1.30572 10.596 1.26107 10.4825 1.24023 10.364C1.2194 10.2457 1.20898 10.1242 1.20898 9.99946C1.20898 9.87487 1.2194 9.75355 1.24023 9.6355C1.26107 9.51744 1.30621 9.40286 1.37565 9.29175C1.6951 8.66675 2.06843 8.08355 2.49565 7.54217C2.92301 7.00078 3.41079 6.50758 3.95898 6.06258L2.39648 4.50008C2.24371 4.3473 2.16732 4.17369 2.16732 3.97925C2.16732 3.7848 2.24371 3.61119 2.39648 3.45841C2.54926 3.30564 2.72635 3.22925 2.92773 3.22925C3.12912 3.22925 3.30621 3.30564 3.45898 3.45841L16.5423 16.5417C16.6951 16.6945 16.7715 16.8681 16.7715 17.0626C16.7715 17.257 16.6951 17.4306 16.5423 17.5834C16.3895 17.7362 16.2125 17.8126 16.0111 17.8126C15.8097 17.8126 15.6326 17.7362 15.4798 17.5834L13.2923 15.4167C12.759 15.6112 12.218 15.757 11.6694 15.8542C11.1208 15.9515 10.5645 16.0001 10.0007 16.0001ZM5.02148 7.14591C4.53537 7.5348 4.08398 7.96189 3.66732 8.42717C3.25065 8.89244 2.91037 9.41675 2.64648 10.0001C3.32704 11.4029 4.33051 12.5036 5.6569 13.3022C6.98329 14.1008 8.43121 14.5001 10.0007 14.5001C10.3647 14.5001 10.7195 14.4758 11.0652 14.4272C11.4111 14.3786 11.7576 14.3126 12.1048 14.2292L11.1673 13.2917C10.9729 13.3612 10.7784 13.4133 10.584 13.448C10.3895 13.4827 10.1951 13.5001 10.0007 13.5001C9.02843 13.5001 8.20204 13.1598 7.52148 12.4792C6.84093 11.7987 6.50065 10.9723 6.50065 10.0001C6.50065 9.80564 6.52496 9.61119 6.57357 9.41675C6.62218 9.2223 6.66732 9.02786 6.70898 8.83342L5.02148 7.14591Z" fill="#8E8E8E"/>
<path d="M12.4798 7.52092C12.7715 7.81258 13.0076 8.16328 13.1882 8.573C13.3687 8.98272 13.4729 9.4098 13.5007 9.85425C13.5007 10.0626 13.4263 10.2397 13.2777 10.3855C13.129 10.5313 12.9533 10.6042 12.7507 10.6042C12.5365 10.6042 12.3545 10.5313 12.2046 10.3855C12.0547 10.2397 11.9798 10.0626 11.9798 9.85425C12.0076 9.57647 11.9763 9.31953 11.8861 9.08342C11.7958 8.8473 11.6673 8.64244 11.5007 8.46883C11.334 8.29522 11.1361 8.16675 10.9069 8.08342C10.6777 8.00008 10.4243 7.9723 10.1465 8.00008C9.93815 8.00008 9.76107 7.92578 9.61523 7.77716C9.4694 7.62841 9.39648 7.45272 9.39648 7.25008C9.39648 7.04175 9.4694 6.86466 9.61523 6.71883C9.76107 6.573 9.93815 6.50008 10.1465 6.50008C10.5909 6.52786 11.0145 6.62855 11.4173 6.80216C11.8201 6.97578 12.1743 7.21536 12.4798 7.52092ZM10.0007 5.50008C9.76898 5.50008 9.54343 5.50737 9.32398 5.52196C9.10454 5.53654 8.8851 5.56328 8.66565 5.60217C8.45843 5.63133 8.26107 5.59383 8.07357 5.48966C7.88607 5.3855 7.76454 5.23272 7.70898 5.03133C7.65343 4.82994 7.67773 4.63897 7.7819 4.45841C7.88607 4.27786 8.04072 4.17196 8.24586 4.14071C8.54072 4.08862 8.83294 4.05216 9.12253 4.03133C9.41211 4.0105 9.70482 4.00008 10.0007 4.00008C11.8618 4.00008 13.5736 4.47578 15.1361 5.42716C16.6986 6.37855 17.8835 7.68841 18.6909 9.35675C18.7446 9.46619 18.7819 9.57314 18.8027 9.67758C18.8236 9.78203 18.834 9.88953 18.834 10.0001C18.834 10.1106 18.8236 10.2181 18.8027 10.3226C18.7819 10.427 18.7507 10.5348 18.709 10.6459C18.4625 11.1712 18.1578 11.6636 17.795 12.1232C17.4321 12.5828 17.0354 13.014 16.6048 13.4167C16.452 13.5556 16.275 13.6181 16.0736 13.6042C15.8722 13.5904 15.702 13.499 15.5632 13.3301C15.4243 13.1611 15.3652 12.977 15.3861 12.778C15.4069 12.5788 15.4937 12.4029 15.6465 12.2501C16.0076 11.9306 16.3295 11.5834 16.6123 11.2084C16.8952 10.8334 17.1427 10.4306 17.3548 10.0001C16.6743 8.5973 15.6708 7.49661 14.3444 6.698C13.018 5.89939 11.5701 5.50008 10.0007 5.50008ZM10.0007 16.0001C8.18121 16.0001 6.5076 15.5174 4.97982 14.5522C3.45204 13.5869 2.25016 12.3043 1.37419 10.7045C1.30572 10.596 1.26107 10.4825 1.24023 10.364C1.2194 10.2457 1.20898 10.1242 1.20898 9.99946C1.20898 9.87487 1.2194 9.75355 1.24023 9.6355C1.26107 9.51744 1.30621 9.40286 1.37565 9.29175C1.6951 8.66675 2.06843 8.08355 2.49565 7.54217C2.92301 7.00078 3.41079 6.50758 3.95898 6.06258L2.39648 4.50008C2.24371 4.3473 2.16732 4.17369 2.16732 3.97925C2.16732 3.7848 2.24371 3.61119 2.39648 3.45841C2.54926 3.30564 2.72635 3.22925 2.92773 3.22925C3.12912 3.22925 3.30621 3.30564 3.45898 3.45841L16.5423 16.5417C16.6951 16.6945 16.7715 16.8681 16.7715 17.0626C16.7715 17.257 16.6951 17.4306 16.5423 17.5834C16.3895 17.7362 16.2125 17.8126 16.0111 17.8126C15.8097 17.8126 15.6326 17.7362 15.4798 17.5834L13.2923 15.4167C12.759 15.6112 12.218 15.757 11.6694 15.8542C11.1208 15.9515 10.5645 16.0001 10.0007 16.0001ZM5.02148 7.14591C4.53537 7.5348 4.08398 7.96189 3.66732 8.42717C3.25065 8.89244 2.91037 9.41675 2.64648 10.0001C3.32704 11.4029 4.33051 12.5036 5.6569 13.3022C6.98329 14.1008 8.43121 14.5001 10.0007 14.5001C10.3647 14.5001 10.7195 14.4758 11.0652 14.4272C11.4111 14.3786 11.7576 14.3126 12.1048 14.2292L11.1673 13.2917C10.9729 13.3612 10.7784 13.4133 10.584 13.448C10.3895 13.4827 10.1951 13.5001 10.0007 13.5001C9.02843 13.5001 8.20204 13.1598 7.52148 12.4792C6.84093 11.7987 6.50065 10.9723 6.50065 10.0001C6.50065 9.80564 6.52496 9.61119 6.57357 9.41675C6.62218 9.2223 6.66732 9.02786 6.70898 8.83342L5.02148 7.14591Z" fill="black" fill-opacity="0.2"/>
</g>
</svg>
