<svg xmlns="http://www.w3.org/2000/svg" width="16" height="16" viewBox="0 0 16 16" fill="none">
<path d="M9.81203 6.3587L6.95203 9.22536L5.85203 8.12536C5.79227 8.05558 5.71872 7.9989 5.63601 7.95888C5.5533 7.91887 5.46322 7.89638 5.3714 7.89283C5.27959 7.88929 5.18804 7.90476 5.10249 7.93827C5.01694 7.97179 4.93924 8.02263 4.87427 8.0876C4.8093 8.15257 4.75846 8.23027 4.72494 8.31582C4.69143 8.40137 4.67596 8.49292 4.6795 8.58473C4.68305 8.67655 4.70553 8.76664 4.74555 8.84935C4.78557 8.93205 4.84225 9.0056 4.91203 9.06536L6.4787 10.6387C6.54099 10.7005 6.61487 10.7494 6.6961 10.7825C6.77732 10.8157 6.8643 10.8325 6.95203 10.832C7.12693 10.8313 7.29453 10.7619 7.4187 10.6387L10.752 7.30536C10.8145 7.24339 10.8641 7.16966 10.898 7.08842C10.9318 7.00718 10.9492 6.92004 10.9492 6.83203C10.9492 6.74402 10.9318 6.65689 10.898 6.57565C10.8641 6.49441 10.8145 6.42067 10.752 6.3587C10.6271 6.23453 10.4582 6.16484 10.282 6.16484C10.1059 6.16484 9.93694 6.23453 9.81203 6.3587ZM7.9987 1.83203C6.68016 1.83203 5.39123 2.22302 4.2949 2.95557C3.19857 3.68811 2.34409 4.7293 1.8395 5.94747C1.33492 7.16565 1.2029 8.50609 1.46013 9.7993C1.71737 11.0925 2.35231 12.2804 3.28466 13.2127C4.21701 14.1451 5.40489 14.78 6.6981 15.0373C7.99131 15.2945 9.33175 15.1625 10.5499 14.6579C11.7681 14.1533 12.8093 13.2988 13.5418 12.2025C14.2744 11.1062 14.6654 9.81724 14.6654 8.4987C14.6654 7.62322 14.4929 6.75631 14.1579 5.94747C13.8229 5.13864 13.3318 4.40371 12.7127 3.78465C12.0937 3.1656 11.3588 2.67453 10.5499 2.3395C9.74109 2.00447 8.87418 1.83203 7.9987 1.83203ZM7.9987 13.832C6.94387 13.832 5.91272 13.5192 5.03566 12.9332C4.1586 12.3472 3.47501 11.5142 3.07134 10.5397C2.66768 9.56514 2.56206 8.49278 2.76785 7.45822C2.97363 6.42365 3.48158 5.47334 4.22746 4.72746C4.97334 3.98158 5.92365 3.47363 6.95822 3.26784C7.99278 3.06206 9.06514 3.16767 10.0397 3.57134C11.0142 3.97501 11.8472 4.65859 12.4332 5.53566C13.0192 6.41272 13.332 7.44386 13.332 8.4987C13.332 9.91319 12.7701 11.2697 11.7699 12.2699C10.7697 13.2701 9.41319 13.832 7.9987 13.832Z" fill="#0C9D61"/>
</svg>
