<svg width="24" height="24" viewBox="0 0 24 24" fill="none" xmlns="http://www.w3.org/2000/svg">
<mask id="mask0_1027_1903" style="mask-type:alpha" maskUnits="userSpaceOnUse" x="0" y="0" width="24" height="24">
<rect width="24" height="24" fill="#D9D9D9"/>
</mask>
<g mask="url(#mask0_1027_1903)">
<path d="M10.6 13.7463L8.277 11.423C8.1385 11.2847 7.96442 11.2138 7.75475 11.2105C7.54525 11.2073 7.368 11.2782 7.223 11.423C7.07817 11.568 7.00575 11.7437 7.00575 11.95C7.00575 12.1563 7.07817 12.332 7.223 12.477L9.96725 15.2213C10.1481 15.4019 10.359 15.4923 10.6 15.4923C10.841 15.4923 11.0519 15.4019 11.2327 15.2213L16.7962 9.65775C16.9346 9.51925 17.0054 9.34517 17.0087 9.1355C17.0119 8.926 16.9411 8.74875 16.7962 8.60375C16.6512 8.45892 16.4756 8.3865 16.2693 8.3865C16.0629 8.3865 15.8873 8.45892 15.7423 8.60375L10.6 13.7463ZM5.30775 20.5C4.80258 20.5 4.375 20.325 4.025 19.975C3.675 19.625 3.5 19.1974 3.5 18.6923V5.30775C3.5 4.80258 3.675 4.375 4.025 4.025C4.375 3.675 4.80258 3.5 5.30775 3.5H18.6923C19.1974 3.5 19.625 3.675 19.975 4.025C20.325 4.375 20.5 4.80258 20.5 5.30775V18.6923C20.5 19.1974 20.325 19.625 19.975 19.975C19.625 20.325 19.1974 20.5 18.6923 20.5H5.30775Z" fill="#175C8E"/>
</g>
</svg>
