<svg width="33" height="32" viewBox="0 0 33 32" fill="none" xmlns="http://www.w3.org/2000/svg">
<mask id="mask0_7110_11604" style="mask-type:alpha" maskUnits="userSpaceOnUse" x="0" y="0" width="33" height="32">
<rect x="0.5" width="32" height="32" fill="#D9D9D9"/>
</mask>
<g mask="url(#mask0_7110_11604)">
<path d="M16.4995 17.2514L12.1409 21.5794C11.9458 21.7727 11.744 21.8672 11.5355 21.8627C11.3269 21.8585 11.126 21.7598 10.9329 21.5667C10.7398 21.3736 10.6432 21.1706 10.6432 20.9577C10.6432 20.7448 10.7398 20.541 10.9329 20.3461L15.2482 16.0001L10.9202 11.6747C10.7269 11.4796 10.6324 11.2756 10.6369 11.0627C10.6411 10.8501 10.7398 10.6472 10.9329 10.4541C11.126 10.2607 11.329 10.1641 11.5419 10.1641C11.7548 10.1641 11.9586 10.2607 12.1535 10.4541L16.4995 14.7821L20.8249 10.4541C21.02 10.2607 21.2218 10.1641 21.4302 10.1641C21.6389 10.1641 21.8398 10.2607 22.0329 10.4541C22.2175 10.6385 22.3099 10.8393 22.3099 11.0564C22.3099 11.2735 22.2175 11.4796 22.0329 11.6747L17.7175 16.0001L22.0455 20.3587C22.2389 20.5538 22.3355 20.7556 22.3355 20.9641C22.3355 21.1727 22.2389 21.3736 22.0455 21.5667C21.8611 21.7514 21.6603 21.8437 21.4432 21.8437C21.2261 21.8437 21.02 21.7514 20.8249 21.5667L16.4995 17.2514Z" fill="#CACACA"/>
</g>
</svg>
