<svg width="24" height="24" viewBox="0 0 24 24" fill="none" xmlns="http://www.w3.org/2000/svg">
<mask id="mask0_6478_13917" style="mask-type:alpha" maskUnits="userSpaceOnUse" x="0" y="0" width="24" height="24">
<rect width="24" height="24" fill="#D9D9D9"/>
</mask>
<g mask="url(#mask0_6478_13917)">
<path d="M11.9808 19.0018C11.8294 19.0018 11.6791 18.9816 11.5297 18.9411C11.3804 18.9007 11.2436 18.8453 11.1193 18.7748C10.4103 18.3516 9.6695 18.0334 8.897 17.8201C8.12467 17.6066 7.32567 17.4998 6.5 17.4998C5.88983 17.4998 5.2905 17.5674 4.702 17.7026C4.1135 17.8379 3.54617 18.037 3 18.2998C2.64367 18.4638 2.30458 18.4394 1.98275 18.2266C1.66092 18.0139 1.5 17.7126 1.5 17.3228V6.48456C1.5 6.26906 1.55708 6.06997 1.67125 5.88731C1.78525 5.70464 1.94358 5.57164 2.14625 5.48831C2.82308 5.15881 3.5285 4.91172 4.2625 4.74706C4.9965 4.58222 5.74233 4.49981 6.5 4.49981C7.473 4.49981 8.42042 4.63764 9.34225 4.91331C10.2641 5.18897 11.15 5.57681 12 6.07681V17.5613C12.8437 17.028 13.7338 16.6344 14.6702 16.3806C15.6067 16.1267 16.55 15.9998 17.5 15.9998C18.0743 15.9998 18.6169 16.0402 19.1278 16.1211C19.6388 16.2017 20.1667 16.3292 20.7115 16.5036C20.782 16.5229 20.8477 16.5246 20.9088 16.5086C20.9696 16.4924 21 16.4395 21 16.3498V5.11906C21.173 5.17039 21.3419 5.22747 21.5068 5.29031C21.6714 5.35314 21.832 5.43197 21.9885 5.52681C22.159 5.61014 22.2868 5.73189 22.372 5.89206C22.4573 6.05239 22.5 6.22422 22.5 6.40756V17.3036C22.5 17.6934 22.3342 17.9931 22.0028 18.2026C21.6714 18.4122 21.3179 18.4382 20.9423 18.2806C20.4026 18.0241 19.8433 17.8298 19.2645 17.6978C18.6857 17.5658 18.0975 17.4998 17.5 17.4998C16.668 17.4998 15.8593 17.6066 15.074 17.8201C14.2888 18.0334 13.5417 18.3516 12.8328 18.7748C12.7084 18.8453 12.5732 18.9007 12.427 18.9411C12.2808 18.9816 12.1321 19.0018 11.9808 19.0018ZM14.7673 14.3076C14.6134 14.4447 14.4471 14.4723 14.2682 14.3903C14.0894 14.3081 14 14.1651 14 13.9613V6.19031C14 6.12997 14.0125 6.07064 14.0375 6.01231C14.0625 5.95397 14.0968 5.90306 14.1405 5.85956L18.2173 1.78256C18.3711 1.62872 18.54 1.59189 18.724 1.67206C18.908 1.75206 19 1.89914 19 2.11331V10.2941C19 10.3709 18.9849 10.4369 18.9548 10.4921C18.9246 10.5472 18.8878 10.5966 18.8443 10.6403L14.7673 14.3076ZM10.5 16.8363V6.98456C9.87317 6.67422 9.22383 6.43247 8.552 6.25931C7.88017 6.08631 7.19617 5.99981 6.5 5.99981C5.88333 5.99981 5.29775 6.05656 4.74325 6.17006C4.18875 6.28356 3.66858 6.44089 3.18275 6.64206C3.13142 6.66139 3.08817 6.68864 3.053 6.72381C3.01767 6.75914 3 6.80239 3 6.85356V16.3843C3 16.4741 3.03042 16.5271 3.09125 16.5431C3.15225 16.5591 3.218 16.5542 3.2885 16.5286C3.782 16.3504 4.29067 16.2177 4.8145 16.1306C5.33817 16.0434 5.9 15.9998 6.5 15.9998C7.2475 15.9998 7.96158 16.0771 8.64225 16.2316C9.32308 16.3861 9.94233 16.5876 10.5 16.8363Z" fill="#4B4B4B"/>
</g>
</svg>
