<svg width="22" height="18" viewBox="0 0 22 18" fill="none" xmlns="http://www.w3.org/2000/svg">
<path d="M10.9808 18.0018C10.8294 18.0018 10.6791 17.9816 10.5297 17.9411C10.3804 17.9007 10.2436 17.8453 10.1193 17.7748C9.41025 17.3516 8.6695 17.0334 7.897 16.8201C7.12467 16.6066 6.32567 16.4998 5.5 16.4998C4.88983 16.4998 4.2905 16.5674 3.702 16.7026C3.1135 16.8379 2.54617 17.037 2 17.2998C1.64367 17.4638 1.30458 17.4394 0.98275 17.2266C0.660917 17.0139 0.5 16.7126 0.5 16.3228V5.48456C0.5 5.26906 0.557083 5.06997 0.67125 4.88731C0.78525 4.70464 0.943583 4.57164 1.14625 4.48831C1.82308 4.15881 2.5285 3.91172 3.2625 3.74706C3.9965 3.58222 4.74233 3.49981 5.5 3.49981C6.473 3.49981 7.42042 3.63764 8.34225 3.91331C9.26408 4.18897 10.15 4.57681 11 5.07681V16.5613C11.8437 16.028 12.7338 15.6344 13.6702 15.3806C14.6067 15.1267 15.55 14.9998 16.5 14.9998C17.0743 14.9998 17.6169 15.0402 18.1278 15.1211C18.6388 15.2017 19.1667 15.3292 19.7115 15.5036C19.782 15.5229 19.8477 15.5246 19.9088 15.5086C19.9696 15.4924 20 15.4395 20 15.3498V4.11906C20.173 4.17039 20.3419 4.22747 20.5068 4.29031C20.6714 4.35314 20.832 4.43197 20.9885 4.52681C21.159 4.61014 21.2868 4.73189 21.372 4.89206C21.4573 5.05239 21.5 5.22422 21.5 5.40756V16.3036C21.5 16.6934 21.3342 16.9931 21.0028 17.2026C20.6714 17.4122 20.3179 17.4382 19.9423 17.2806C19.4026 17.0241 18.8433 16.8298 18.2645 16.6978C17.6857 16.5658 17.0975 16.4998 16.5 16.4998C15.668 16.4998 14.8593 16.6066 14.074 16.8201C13.2888 17.0334 12.5417 17.3516 11.8328 17.7748C11.7084 17.8453 11.5732 17.9007 11.427 17.9411C11.2808 17.9816 11.1321 18.0018 10.9808 18.0018ZM13.7673 13.3076C13.6134 13.4447 13.4471 13.4723 13.2682 13.3903C13.0894 13.3081 13 13.1651 13 12.9613V5.19031C13 5.12997 13.0125 5.07064 13.0375 5.01231C13.0625 4.95397 13.0968 4.90306 13.1405 4.85956L17.2173 0.782556C17.3711 0.628722 17.54 0.59189 17.724 0.672056C17.908 0.752056 18 0.899139 18 1.11331V9.29406C18 9.37089 17.9849 9.43689 17.9548 9.49206C17.9246 9.54722 17.8878 9.59664 17.8443 9.64031L13.7673 13.3076ZM9.5 15.8363V5.98456C8.87317 5.67422 8.22383 5.43247 7.552 5.25931C6.88017 5.08631 6.19617 4.99981 5.5 4.99981C4.88333 4.99981 4.29775 5.05656 3.74325 5.17006C3.18875 5.28356 2.66858 5.44089 2.18275 5.64206C2.13142 5.66139 2.08817 5.68864 2.053 5.72381C2.01767 5.75914 2 5.80239 2 5.85356V15.3843C2 15.4741 2.03042 15.5271 2.09125 15.5431C2.15225 15.5591 2.218 15.5542 2.2885 15.5286C2.782 15.3504 3.29067 15.2177 3.8145 15.1306C4.33817 15.0434 4.9 14.9998 5.5 14.9998C6.2475 14.9998 6.96158 15.0771 7.64225 15.2316C8.32308 15.3861 8.94233 15.5876 9.5 15.8363Z" fill="#4B4B4B"/>
</svg>
