<svg width="24" height="25" viewBox="0 0 24 25" fill="none" xmlns="http://www.w3.org/2000/svg">
<mask id="mask0_35948_11951" style="mask-type:alpha" maskUnits="userSpaceOnUse" x="0" y="0" width="24" height="25">
<rect y="0.5" width="24" height="24" fill="#D9D9D9"/>
</mask>
<g mask="url(#mask0_35948_11951)">
<path d="M5 21.5016C4.45 21.5016 3.97917 21.3057 3.5875 20.9141C3.19583 20.5224 3 20.0516 3 19.5016V5.50156C3 4.95156 3.19583 4.48073 3.5875 4.08906C3.97917 3.6974 4.45 3.50156 5 3.50156H11.525C11.8583 3.50156 12.1083 3.60573 12.275 3.81406C12.4417 4.0224 12.525 4.25156 12.525 4.50156C12.525 4.75156 12.4375 4.98073 12.2625 5.18906C12.0875 5.3974 11.8333 5.50156 11.5 5.50156H5V19.5016H19V12.9766C19 12.6432 19.1042 12.3932 19.3125 12.2266C19.5208 12.0599 19.75 11.9766 20 11.9766C20.25 11.9766 20.4792 12.0599 20.6875 12.2266C20.8958 12.3932 21 12.6432 21 12.9766V19.5016C21 20.0516 20.8042 20.5224 20.4125 20.9141C20.0208 21.3057 19.55 21.5016 19 21.5016H5ZM9 14.5016V12.0766C9 11.8099 9.05 11.5557 9.15 11.3141C9.25 11.0724 9.39167 10.8599 9.575 10.6766L18.175 2.07656C18.375 1.87656 18.6 1.72656 18.85 1.62656C19.1 1.52656 19.35 1.47656 19.6 1.47656C19.8667 1.47656 20.1208 1.52656 20.3625 1.62656C20.6042 1.72656 20.825 1.87656 21.025 2.07656L22.425 3.50156C22.6083 3.70156 22.75 3.9224 22.85 4.16406C22.95 4.40573 23 4.65156 23 4.90156C23 5.15156 22.9542 5.3974 22.8625 5.63906C22.7708 5.88073 22.625 6.10156 22.425 6.30156L13.825 14.9016C13.6417 15.0849 13.4292 15.2307 13.1875 15.3391C12.9458 15.4474 12.6917 15.5016 12.425 15.5016H10C9.71667 15.5016 9.47917 15.4057 9.2875 15.2141C9.09583 15.0224 9 14.7849 9 14.5016ZM11 13.5016H12.4L18.2 7.70156L17.5 7.00156L16.775 6.30156L11 12.0766V13.5016Z" fill="white"/>
</g>
</svg>
