<svg width="32" height="32" viewBox="0 0 32 32" fill="none" xmlns="http://www.w3.org/2000/svg">
<path d="M31.1661 3.84616V21.8269C31.1661 22.2435 31.0352 22.556 30.7734 22.7644C30.5117 22.9727 30.2259 23.0769 29.9161 23.0769C29.6063 23.0769 29.3205 22.9684 29.0587 22.7515C28.797 22.5347 28.6661 22.2179 28.6661 21.8012V3.84616C28.6661 3.71794 28.6127 3.6004 28.5059 3.49354C28.399 3.3867 28.2815 3.33329 28.1532 3.33329H10.1565C9.73981 3.33329 9.42731 3.20241 9.21898 2.94066C9.01067 2.67891 8.90652 2.39313 8.90652 2.08333C8.90652 1.77349 9.01067 1.4877 9.21898 1.22595C9.42731 0.964202 9.73981 0.833326 10.1565 0.833326H28.1532C28.9951 0.833326 29.7077 1.12499 30.2911 1.70833C30.8744 2.29166 31.1661 3.00427 31.1661 3.84616ZM5.84564 29.1666C5.00375 29.1666 4.29114 28.8749 3.70781 28.2916C3.12448 27.7082 2.83281 26.9956 2.83281 26.1537V4.34608L0.787935 2.30116C0.557157 2.07041 0.439102 1.78035 0.433768 1.43099C0.428407 1.08166 0.546463 0.786257 0.787935 0.544785C1.02938 0.30334 1.3221 0.182617 1.6661 0.182617C2.0101 0.182617 2.30282 0.30334 2.54427 0.544785L31.4546 29.4551C31.6854 29.6859 31.8034 29.9759 31.8087 30.3253C31.8141 30.6746 31.696 30.97 31.4546 31.2115C31.2131 31.4529 30.9204 31.5737 30.5764 31.5737C30.2324 31.5737 29.9397 31.4529 29.6982 31.2115L27.6533 29.1666L5.84564 29.1666ZM21.3777 22.9166H9.75593C9.45466 22.9166 9.23137 22.7798 9.08606 22.5063C8.94075 22.2328 8.96853 21.9679 9.16939 21.7115L11.7976 18.2147C11.9535 18.0139 12.1517 17.9135 12.3921 17.9135C12.6325 17.9135 12.8307 18.0085 12.9866 18.1987L15.7174 21.6987L17.6694 19.2082L5.33277 6.87166V26.1537C5.33277 26.282 5.38618 26.3995 5.49302 26.5064C5.59988 26.6132 5.71742 26.6666 5.84564 26.6666H25.1277L21.3777 22.9166Z" fill="#8E8E8E"/>
<path d="M31.1661 3.84616V21.8269C31.1661 22.2435 31.0352 22.556 30.7734 22.7644C30.5117 22.9727 30.2259 23.0769 29.9161 23.0769C29.6063 23.0769 29.3205 22.9684 29.0587 22.7515C28.797 22.5347 28.6661 22.2179 28.6661 21.8012V3.84616C28.6661 3.71794 28.6127 3.6004 28.5059 3.49354C28.399 3.3867 28.2815 3.33329 28.1532 3.33329H10.1565C9.73981 3.33329 9.42731 3.20241 9.21898 2.94066C9.01067 2.67891 8.90652 2.39313 8.90652 2.08333C8.90652 1.77349 9.01067 1.4877 9.21898 1.22595C9.42731 0.964202 9.73981 0.833326 10.1565 0.833326H28.1532C28.9951 0.833326 29.7077 1.12499 30.2911 1.70833C30.8744 2.29166 31.1661 3.00427 31.1661 3.84616ZM5.84564 29.1666C5.00375 29.1666 4.29114 28.8749 3.70781 28.2916C3.12448 27.7082 2.83281 26.9956 2.83281 26.1537V4.34608L0.787935 2.30116C0.557157 2.07041 0.439102 1.78035 0.433768 1.43099C0.428407 1.08166 0.546463 0.786257 0.787935 0.544785C1.02938 0.30334 1.3221 0.182617 1.6661 0.182617C2.0101 0.182617 2.30282 0.30334 2.54427 0.544785L31.4546 29.4551C31.6854 29.6859 31.8034 29.9759 31.8087 30.3253C31.8141 30.6746 31.696 30.97 31.4546 31.2115C31.2131 31.4529 30.9204 31.5737 30.5764 31.5737C30.2324 31.5737 29.9397 31.4529 29.6982 31.2115L27.6533 29.1666L5.84564 29.1666ZM21.3777 22.9166H9.75593C9.45466 22.9166 9.23137 22.7798 9.08606 22.5063C8.94075 22.2328 8.96853 21.9679 9.16939 21.7115L11.7976 18.2147C11.9535 18.0139 12.1517 17.9135 12.3921 17.9135C12.6325 17.9135 12.8307 18.0085 12.9866 18.1987L15.7174 21.6987L17.6694 19.2082L5.33277 6.87166V26.1537C5.33277 26.282 5.38618 26.3995 5.49302 26.5064C5.59988 26.6132 5.71742 26.6666 5.84564 26.6666H25.1277L21.3777 22.9166Z" fill="black" fill-opacity="0.2"/>
</svg>
