<svg width="11" height="12" viewBox="0 0 7 8" fill="none" xmlns="http://www.w3.org/2000/svg">
<g clip-path="url(#clip0_1011_2290)">
<path d="M4.98489 1.32247C4.71664 1.10185 4.40253 0.943894 4.06546 0.860132C3.72839 0.77637 3.37688 0.768912 3.03656 0.838302C2.58342 0.929834 2.16768 1.15391 1.84209 1.48209C1.5165 1.81028 1.29574 2.22778 1.20781 2.68164C1.1436 3.02193 1.15527 3.3722 1.24198 3.70747C1.3287 4.04273 1.48832 4.35473 1.70948 4.62122C1.91472 4.85282 2.03236 5.14899 2.04198 5.4583V6.3333C2.04198 6.56537 2.13416 6.78793 2.29826 6.95202C2.46235 7.11612 2.68491 7.2083 2.91698 7.2083H4.08364C4.31571 7.2083 4.53827 7.11612 4.70236 6.95202C4.86645 6.78793 4.95864 6.56537 4.95864 6.3333V5.51372C4.96843 5.17223 5.09389 4.84418 5.31448 4.5833C5.70097 4.1052 5.88316 3.49387 5.82144 2.88219C5.75973 2.27051 5.4591 1.7079 4.98489 1.31664V1.32247ZM4.37531 6.3333C4.37531 6.41066 4.34458 6.48484 4.28988 6.53954C4.23518 6.59424 4.161 6.62497 4.08364 6.62497H2.91698C2.83962 6.62497 2.76543 6.59424 2.71074 6.53954C2.65604 6.48484 2.62531 6.41066 2.62531 6.3333V6.04164H4.37531V6.3333ZM4.86239 4.22164C4.56912 4.56948 4.39802 5.0039 4.37531 5.4583H3.79198V4.5833C3.79198 4.50595 3.76125 4.43176 3.70655 4.37706C3.65185 4.32236 3.57766 4.29164 3.50031 4.29164C3.42295 4.29164 3.34877 4.32236 3.29407 4.37706C3.23937 4.43176 3.20864 4.50595 3.20864 4.5833V5.4583H2.62531C2.61761 5.0115 2.45233 4.58177 2.15864 4.24497C1.96487 4.0128 1.83457 3.73438 1.78044 3.43686C1.72631 3.13934 1.75021 2.83287 1.84979 2.54733C1.94938 2.26179 2.12126 2.00694 2.34867 1.80761C2.57608 1.60828 2.85127 1.47128 3.14739 1.40997C3.40189 1.35757 3.66486 1.3625 3.91721 1.4244C4.16956 1.4863 4.40496 1.60361 4.60632 1.76783C4.80768 1.93205 4.96995 2.13904 5.08134 2.37379C5.19273 2.60853 5.25045 2.86514 5.25031 3.12497C5.25247 3.52451 5.11529 3.91231 4.86239 4.22164Z" fill="#6DBBDD"/>
</g>
<defs>
<clipPath id="clip0_1011_2290">
<rect width="7" height="7" fill="white" transform="translate(0 0.5)"/>
</clipPath>
</defs>
</svg>
