<svg width="21" height="20" viewBox="0 0 21 20" fill="none" xmlns="http://www.w3.org/2000/svg">
<path d="M7.99907 9.79206C7.79298 9.79206 7.59152 9.85318 7.42016 9.96767C7.24881 10.0822 7.11525 10.2449 7.03638 10.4353C6.95752 10.6257 6.93688 10.8352 6.97709 11.0373C7.01729 11.2395 7.11653 11.4251 7.26226 11.5709C7.40799 11.7166 7.59365 11.8158 7.79578 11.856C7.99791 11.8962 8.20742 11.8756 8.39782 11.7967C8.58822 11.7179 8.75096 11.5843 8.86546 11.413C8.97995 11.2416 9.04107 11.0402 9.04107 10.8341C9.04107 10.5577 8.93128 10.2927 8.73587 10.0973C8.54046 9.90184 8.27542 9.79206 7.99907 9.79206ZM12.9991 9.79206C12.793 9.79206 12.5915 9.85318 12.4202 9.96767C12.2488 10.0822 12.1153 10.2449 12.0364 10.4353C11.9575 10.6257 11.9369 10.8352 11.9771 11.0373C12.0173 11.2395 12.1165 11.4251 12.2623 11.5709C12.408 11.7166 12.5937 11.8158 12.7958 11.856C12.9979 11.8962 13.2074 11.8756 13.3978 11.7967C13.5882 11.7179 13.751 11.5843 13.8655 11.413C13.98 11.2416 14.0411 11.0402 14.0411 10.8341C14.0411 10.5581 13.9316 10.2933 13.7366 10.098C13.5416 9.90261 13.2771 9.79259 13.0011 9.79206H12.9991ZM10.5001 1.66406C8.85136 1.66406 7.23968 2.15296 5.86883 3.06893C4.49798 3.9849 3.42954 5.28681 2.79861 6.81001C2.16767 8.33322 2.00259 10.0093 2.32424 11.6263C2.64589 13.2434 3.43981 14.7287 4.60562 15.8945C5.77143 17.0603 7.25677 17.8542 8.87379 18.1759C10.4908 18.4975 12.1669 18.3325 13.6901 17.7015C15.2133 17.0706 16.5152 16.0021 17.4312 14.6313C18.3472 13.2604 18.8361 11.6488 18.8361 10.0001C18.8353 7.78946 17.9568 5.66963 16.3936 4.1065C14.8305 2.54337 12.7107 1.66486 10.5001 1.66406ZM10.5001 16.6691C8.73207 16.6667 7.03717 15.9633 5.787 14.7131C4.53684 13.463 3.83345 11.7681 3.83107 10.0001C3.83235 9.76049 3.84637 9.52115 3.87307 9.28306C5.84221 8.40471 7.39749 6.8018 8.21607 4.80706C8.98386 5.89685 10.0024 6.78605 11.1859 7.39971C12.3693 8.01336 13.683 8.33348 15.0161 8.33306C15.6477 8.33379 16.2773 8.26096 16.8921 8.11606C17.1871 9.11044 17.2457 10.16 17.0633 11.181C16.8809 12.2021 16.4625 13.1664 15.8415 13.9972C15.2205 14.8279 14.4139 15.5021 13.4862 15.966C12.5585 16.4299 11.5353 16.6706 10.4981 16.6691H10.5001Z" fill="#A1A1A1"/>
</svg>
