<svg width="21" height="17" viewBox="0 0 21 17" fill="none" xmlns="http://www.w3.org/2000/svg">
<path d="M20.4909 6.19008L19.4909 5.64008L10.4909 0.640078H10.3809C10.3195 0.614157 10.2559 0.594068 10.1909 0.580078H10.0009H9.82085C9.75253 0.594077 9.6856 0.614157 9.62085 0.640078H9.51085L0.510854 5.64008C0.356957 5.7273 0.228948 5.85378 0.139889 6.00662C0.0508294 6.15946 0.00390625 6.33318 0.00390625 6.51008C0.00390625 6.68697 0.0508294 6.8607 0.139889 7.01354C0.228948 7.16638 0.356957 7.29286 0.510854 7.38008L3.00085 8.76008V13.5001C3.00085 14.2957 3.31693 15.0588 3.87953 15.6214C4.44214 16.184 5.2052 16.5001 6.00085 16.5001H14.0009C14.7965 16.5001 15.5596 16.184 16.1222 15.6214C16.6848 15.0588 17.0009 14.2957 17.0009 13.5001V8.76008L19.0009 7.64008V10.5001C19.0009 10.7653 19.1062 11.0196 19.2937 11.2072C19.4813 11.3947 19.7356 11.5001 20.0009 11.5001C20.2661 11.5001 20.5204 11.3947 20.708 11.2072C20.8955 11.0196 21.0009 10.7653 21.0009 10.5001V7.06008C21.0005 6.88288 20.9532 6.70895 20.8636 6.55608C20.7739 6.40321 20.6453 6.2769 20.4909 6.19008ZM15.0009 13.5001C15.0009 13.7653 14.8955 14.0196 14.708 14.2072C14.5204 14.3947 14.2661 14.5001 14.0009 14.5001H6.00085C5.73564 14.5001 5.48128 14.3947 5.29375 14.2072C5.10621 14.0196 5.00085 13.7653 5.00085 13.5001V9.87008L9.51085 12.3701L9.66085 12.4301H9.75085C9.83386 12.4405 9.91785 12.4405 10.0009 12.4301C10.0839 12.4405 10.1678 12.4405 10.2509 12.4301H10.3409C10.3939 12.4189 10.4447 12.3986 10.4909 12.3701L15.0009 9.87008V13.5001ZM10.0009 10.3601L3.06085 6.50008L10.0009 2.64008L16.9409 6.50008L10.0009 10.3601Z" fill="#4B4B4B"/>
</svg>
