<svg width="20" height="20" viewBox="0 0 20 20" fill="none" xmlns="http://www.w3.org/2000/svg">
<rect x="3.41504" y="3.41406" width="13.17" height="13.17" rx="1" fill="#373A40"/>
<path d="M7.11765 12.8824H7.63709L11.8521 8.66732L11.3327 8.14788L7.11765 12.3629V12.8824ZM6.87224 13.5C6.76675 13.5 6.67836 13.4643 6.60706 13.3929C6.53569 13.3216 6.5 13.2332 6.5 13.1278V12.4144C6.5 12.314 6.51928 12.2183 6.55785 12.1273C6.59635 12.0363 6.6494 11.957 6.717 11.8894L11.9314 6.67737C11.9936 6.62082 12.0624 6.57714 12.1376 6.54632C12.2129 6.51544 12.2918 6.5 12.3743 6.5C12.4569 6.5 12.5368 6.51465 12.6142 6.54396C12.6916 6.57326 12.7601 6.61986 12.8198 6.68375L13.3226 7.1929C13.3865 7.25253 13.4321 7.32116 13.4592 7.39878C13.4864 7.4764 13.5 7.55401 13.5 7.63163C13.5 7.71447 13.4859 7.79349 13.4576 7.86871C13.4293 7.94399 13.3843 8.01276 13.3226 8.075L8.11062 13.283C8.04302 13.3506 7.96372 13.4036 7.87272 13.4421C7.78172 13.4807 7.68602 13.5 7.58562 13.5H6.87224ZM11.5879 8.41213L11.3327 8.14788L11.8521 8.66732L11.5879 8.41213Z" fill="#B8C0D4"/>
</svg>
