<svg width="20" height="20" viewBox="0 0 20 20" fill="none" xmlns="http://www.w3.org/2000/svg">
<mask id="mask0_4990_8862" style="mask-type:alpha" maskUnits="userSpaceOnUse" x="0" y="0" width="20" height="20">
<path d="M0 0H20V20H0V0Z" fill="#D9D9D9"/>
</mask>
<g mask="url(#mask0_4990_8862)">
<path d="M9.99935 10.7446L12.3391 13.0843C12.4546 13.1996 12.5787 13.2559 12.7116 13.2533C12.8447 13.2507 12.9689 13.1916 13.0843 13.0762C13.1996 12.9608 13.2573 12.8366 13.2573 12.7037C13.2573 12.5707 13.1996 12.4464 13.0843 12.331L10.7446 9.99935L13.0843 7.65956C13.1996 7.54414 13.2573 7.41997 13.2573 7.28706C13.2573 7.154 13.1996 7.02977 13.0843 6.91435C12.9689 6.79907 12.8447 6.74143 12.7116 6.74143C12.5787 6.74143 12.4546 6.79907 12.3391 6.91435L9.99935 9.25414L7.65956 6.91435C7.54414 6.79907 7.42129 6.74143 7.29102 6.74143C7.16074 6.74143 7.03789 6.79907 6.92247 6.91435C6.80706 7.02977 6.74935 7.154 6.74935 7.28706C6.74935 7.41997 6.80706 7.54414 6.92247 7.65956L9.25414 9.99935L6.91435 12.3391C6.79907 12.4546 6.74275 12.5774 6.74539 12.7077C6.74803 12.838 6.80706 12.9608 6.92247 13.0762C7.03789 13.1916 7.16206 13.2493 7.29497 13.2493C7.42803 13.2493 7.55227 13.1916 7.66768 13.0762L9.99935 10.7446ZM4.75581 16.5827C4.3765 16.5827 4.05838 16.4542 3.80143 16.1973C3.54449 15.9403 3.41602 15.6222 3.41602 15.2429V4.75581C3.41602 4.3765 3.54449 4.05838 3.80143 3.80143C4.05838 3.54449 4.3765 3.41602 4.75581 3.41602H15.2429C15.6222 3.41602 15.9403 3.54449 16.1973 3.80143C16.4542 4.05838 16.5827 4.3765 16.5827 4.75581V15.2429C16.5827 15.6222 16.4542 15.9403 16.1973 16.1973C15.9403 16.4542 15.6222 16.5827 15.2429 16.5827H4.75581Z" fill="black" fill-opacity="0.7" style="mix-blend-mode:multiply"/>
</g>
</svg>
