<svg width="14" height="14" viewBox="0 0 14 14" fill="none" xmlns="http://www.w3.org/2000/svg">
<path d="M6.99935 7.74456L9.33914 10.0843C9.45456 10.1996 9.57872 10.2559 9.71164 10.2533C9.8447 10.2507 9.96893 10.1916 10.0843 10.0762C10.1996 9.96081 10.2573 9.83664 10.2573 9.70372C10.2573 9.57067 10.1996 9.44643 10.0843 9.33102L7.74456 6.99935L10.0843 4.65956C10.1996 4.54414 10.2573 4.41997 10.2573 4.28706C10.2573 4.154 10.1996 4.02977 10.0843 3.91435C9.96893 3.79907 9.8447 3.74143 9.71164 3.74143C9.57872 3.74143 9.45456 3.79907 9.33914 3.91435L6.99935 6.25414L4.65956 3.91435C4.54414 3.79907 4.42129 3.74143 4.29102 3.74143C4.16074 3.74143 4.03789 3.79907 3.92247 3.91435C3.80706 4.02977 3.74935 4.154 3.74935 4.28706C3.74935 4.41997 3.80706 4.54414 3.92247 4.65956L6.25414 6.99935L3.91435 9.33914C3.79907 9.45456 3.74275 9.5774 3.74539 9.70768C3.74803 9.83796 3.80706 9.96081 3.92247 10.0762C4.03789 10.1916 4.16206 10.2493 4.29497 10.2493C4.42803 10.2493 4.55227 10.1916 4.66768 10.0762L6.99935 7.74456ZM1.75581 13.5827C1.3765 13.5827 1.05838 13.4542 0.801432 13.1973C0.544488 12.9403 0.416016 12.6222 0.416016 12.2429V1.75581C0.416016 1.3765 0.544488 1.05838 0.801432 0.801432C1.05838 0.544488 1.3765 0.416016 1.75581 0.416016H12.2429C12.6222 0.416016 12.9403 0.544488 13.1973 0.801432C13.4542 1.05838 13.5827 1.3765 13.5827 1.75581V12.2429C13.5827 12.6222 13.4542 12.9403 13.1973 13.1973C12.9403 13.4542 12.6222 13.5827 12.2429 13.5827H1.75581Z" fill="black" fill-opacity="0.7" style="mix-blend-mode:multiply"/>
</svg>
