<svg width="14" height="14" viewBox="0 0 14 14" fill="none" xmlns="http://www.w3.org/2000/svg">
<rect x="0.415039" y="0.414062" width="13.17" height="13.17" rx="1" fill="#373A40"/>
<path d="M4.11765 9.88235H4.63709L8.85212 5.66732L8.33268 5.14788L4.11765 9.36291V9.88235ZM3.87224 10.5C3.76675 10.5 3.67836 10.4643 3.60706 10.3929C3.53569 10.3216 3.5 10.2332 3.5 10.1278V9.41438C3.5 9.31398 3.51928 9.21828 3.55785 9.12728C3.59635 9.03628 3.6494 8.95698 3.717 8.88938L8.93138 3.67737C8.99363 3.62082 9.06236 3.57714 9.13757 3.54632C9.21286 3.51544 9.29178 3.5 9.37434 3.5C9.4569 3.5 9.53685 3.51465 9.61419 3.54396C9.6916 3.57326 9.76013 3.61986 9.81976 3.68375L10.3226 4.1929C10.3865 4.25253 10.4321 4.32116 10.4592 4.39878C10.4864 4.4764 10.5 4.55401 10.5 4.63163C10.5 4.71447 10.4859 4.79349 10.4576 4.86871C10.4293 4.94399 10.3843 5.01275 10.3226 5.075L5.11062 10.283C5.04302 10.3506 4.96372 10.4036 4.87272 10.4421C4.78172 10.4807 4.68602 10.5 4.58562 10.5H3.87224ZM8.58787 5.41213L8.33268 5.14788L8.85212 5.66732L8.58787 5.41213Z" fill="#B8C0D4"/>
</svg>
