<svg width="14" height="14" viewBox="0 0 14 14" fill="none" xmlns="http://www.w3.org/2000/svg">
<path d="M6.99935 7.74505L9.33914 10.0848C9.45456 10.2001 9.57872 10.2564 9.71164 10.2538C9.8447 10.2512 9.96893 10.1921 10.0843 10.0767C10.1996 9.9613 10.2573 9.83713 10.2573 9.70421C10.2573 9.57116 10.1996 9.44692 10.0843 9.3315L7.74456 6.99984L10.0843 4.66005C10.1996 4.54463 10.2573 4.42046 10.2573 4.28755C10.2573 4.15449 10.1996 4.03025 10.0843 3.91484C9.96893 3.79956 9.8447 3.74192 9.71164 3.74192C9.57872 3.74192 9.45456 3.79956 9.33914 3.91484L6.99935 6.25463L4.65956 3.91484C4.54414 3.79956 4.42129 3.74192 4.29102 3.74192C4.16074 3.74192 4.03789 3.79956 3.92247 3.91484C3.80706 4.03025 3.74935 4.15449 3.74935 4.28755C3.74935 4.42046 3.80706 4.54463 3.92247 4.66005L6.25414 6.99984L3.91435 9.33963C3.79907 9.45505 3.74275 9.57789 3.74539 9.70817C3.74803 9.83845 3.80706 9.9613 3.92247 10.0767C4.03789 10.1921 4.16206 10.2498 4.29497 10.2498C4.42803 10.2498 4.55227 10.1921 4.66768 10.0767L6.99935 7.74505ZM1.75581 13.5832C1.3765 13.5832 1.05838 13.4547 0.801432 13.1978C0.544488 12.9408 0.416016 12.6227 0.416016 12.2434V1.7563C0.416016 1.37699 0.544488 1.05887 0.801432 0.801921C1.05838 0.544976 1.3765 0.416504 1.75581 0.416504H12.2429C12.6222 0.416504 12.9403 0.544976 13.1973 0.801921C13.4542 1.05887 13.5827 1.37699 13.5827 1.7563V12.2434C13.5827 12.6227 13.4542 12.9408 13.1973 13.1978C12.9403 13.4547 12.6222 13.5832 12.2429 13.5832H1.75581Z" fill="black" fill-opacity="0.7" style="mix-blend-mode:multiply"/>
</svg>