<svg width="20" height="20" viewBox="0 0 20 20" fill="none" xmlns="http://www.w3.org/2000/svg">
<path d="M14.999 6.66689H14.166V5.00089C14.1491 3.90704 13.7027 2.86373 12.9231 2.09619C12.1436 1.32865 11.0935 0.898437 9.99953 0.898438C8.90555 0.898438 7.85546 1.32865 7.07593 2.09619C6.2964 2.86373 5.84998 3.90704 5.83303 5.00089V6.66689H4.99903C4.55732 6.66821 4.13408 6.84426 3.82174 7.1566C3.5094 7.46894 3.33335 7.89218 3.33203 8.33389V16.6669C3.33335 17.1086 3.5094 17.5318 3.82174 17.8442C4.13408 18.1565 4.55732 18.3326 4.99903 18.3339H14.999C15.4407 18.3326 15.864 18.1565 16.1763 17.8442C16.4887 17.5318 16.6647 17.1086 16.666 16.6669V8.33389C16.6647 7.89218 16.4887 7.46894 16.1763 7.1566C15.864 6.84426 15.4407 6.66821 14.999 6.66689ZM9.99903 14.1669C9.66933 14.1669 9.34703 14.0691 9.0729 13.8859C8.79876 13.7028 8.5851 13.4424 8.45892 13.1378C8.33275 12.8332 8.29974 12.498 8.36406 12.1747C8.42838 11.8513 8.58715 11.5543 8.82028 11.3211C9.05342 11.088 9.35045 10.9292 9.67382 10.8649C9.99718 10.8006 10.3324 10.8336 10.637 10.9598C10.9416 11.086 11.2019 11.2996 11.3851 11.5738C11.5683 11.8479 11.666 12.1702 11.666 12.4999C11.6647 12.9416 11.4887 13.3648 11.1763 13.6772C10.864 13.9895 10.4407 14.1656 9.99903 14.1669ZM7.49903 6.66689V5.00089C7.49903 4.33785 7.76242 3.70196 8.23126 3.23312C8.70011 2.76428 9.33599 2.50089 9.99903 2.50089C10.6621 2.50089 11.298 2.76428 11.7668 3.23312C12.2356 3.70196 12.499 4.33785 12.499 5.00089V6.66689H7.49903Z" fill="#A1A1A1"/>
</svg>
