<svg width="14" height="15" viewBox="0 0 14 15" fill="none" xmlns="http://www.w3.org/2000/svg">
<path d="M7.00005 8.90005L2.10005 13.8C1.91672 13.9834 1.68338 14.075 1.40005 14.075C1.11672 14.075 0.883382 13.9834 0.700049 13.8C0.516715 13.6167 0.425049 13.3834 0.425049 13.1C0.425049 12.8167 0.516715 12.5834 0.700049 12.4L5.60005 7.50005L0.700049 2.60005C0.516715 2.41672 0.425049 2.18338 0.425049 1.90005C0.425049 1.61672 0.516715 1.38338 0.700049 1.20005C0.883382 1.01672 1.11672 0.925049 1.40005 0.925049C1.68338 0.925049 1.91672 1.01672 2.10005 1.20005L7.00005 6.10005L11.9 1.20005C12.0834 1.01672 12.3167 0.925049 12.6 0.925049C12.8834 0.925049 13.1167 1.01672 13.3 1.20005C13.4834 1.38338 13.575 1.61672 13.575 1.90005C13.575 2.18338 13.4834 2.41672 13.3 2.60005L8.40005 7.50005L13.3 12.4C13.4834 12.5834 13.575 12.8167 13.575 13.1C13.575 13.3834 13.4834 13.6167 13.3 13.8C13.1167 13.9834 12.8834 14.075 12.6 14.075C12.3167 14.075 12.0834 13.9834 11.9 13.8L7.00005 8.90005Z" fill="#8E8E8E"/>
<path d="M7.00005 8.90005L2.10005 13.8C1.91672 13.9834 1.68338 14.075 1.40005 14.075C1.11672 14.075 0.883382 13.9834 0.700049 13.8C0.516715 13.6167 0.425049 13.3834 0.425049 13.1C0.425049 12.8167 0.516715 12.5834 0.700049 12.4L5.60005 7.50005L0.700049 2.60005C0.516715 2.41672 0.425049 2.18338 0.425049 1.90005C0.425049 1.61672 0.516715 1.38338 0.700049 1.20005C0.883382 1.01672 1.11672 0.925049 1.40005 0.925049C1.68338 0.925049 1.91672 1.01672 2.10005 1.20005L7.00005 6.10005L11.9 1.20005C12.0834 1.01672 12.3167 0.925049 12.6 0.925049C12.8834 0.925049 13.1167 1.01672 13.3 1.20005C13.4834 1.38338 13.575 1.61672 13.575 1.90005C13.575 2.18338 13.4834 2.41672 13.3 2.60005L8.40005 7.50005L13.3 12.4C13.4834 12.5834 13.575 12.8167 13.575 13.1C13.575 13.3834 13.4834 13.6167 13.3 13.8C13.1167 13.9834 12.8834 14.075 12.6 14.075C12.3167 14.075 12.0834 13.9834 11.9 13.8L7.00005 8.90005Z" fill="black" fill-opacity="0.2"/>
</svg>
