<svg width="48" height="48" viewBox="0 0 48 48" fill="none" xmlns="http://www.w3.org/2000/svg">
<path d="M41.7456 33.7699L37.8375 29.8825V27.8143H35.7582L31.157 23.2375V10.7326C31.157 9.45594 31.4041 8.18885 31.8982 6.93132C32.3924 5.67383 33.0373 4.54719 33.833 3.5514C34.6288 2.55561 35.5336 1.74813 36.5476 1.12898C37.5615 0.50979 38.5882 0.200195 39.6279 0.200195C40.2183 0.200195 40.7188 0.417221 41.1295 0.851271C41.5402 1.28536 41.7456 1.8024 41.7456 2.40241V33.7699ZM47.0976 47.2513C46.7126 47.6343 46.2538 47.8258 45.7211 47.8258C45.1885 47.8258 44.7296 47.6343 44.3446 47.2513L41.1296 44.1107H41.7456V44.264C41.7456 44.8129 41.5627 45.2693 41.1969 45.6332C40.8311 45.997 40.3723 46.1789 39.8204 46.1789C39.2685 46.1789 38.8097 45.997 38.4439 45.6332C38.0781 45.2693 37.8952 44.8129 37.8952 44.264V40.8936L0.777509 3.97267C0.39247 3.58968 0.199951 3.1237 0.199951 2.57476C0.199951 2.02581 0.39247 1.55983 0.777509 1.17684C1.16255 0.79384 1.62138 0.602342 2.154 0.602342C2.68663 0.602342 3.14546 0.79384 3.5305 1.17684L47.0976 44.5703C47.4827 44.9533 47.6752 45.4002 47.6752 45.9109C47.6752 46.4215 47.4827 46.8683 47.0976 47.2513ZM25.1889 17.2244L21.3386 13.4711V2.11516C21.3386 1.56621 21.5215 1.10981 21.8872 0.745965C22.253 0.382119 22.7119 0.200195 23.2637 0.200195C23.8156 0.200195 24.2744 0.382119 24.6402 0.745965C25.006 1.10981 25.1889 1.56621 25.1889 2.11516V17.2244ZM18.0657 10.2156L14.2153 6.38561V2.11516C14.2153 1.56621 14.3982 1.10981 14.764 0.745965C15.1298 0.382119 15.5886 0.200195 16.1405 0.200195C16.6924 0.200195 17.1513 0.382119 17.517 0.745965C17.8828 1.10981 18.0657 1.56621 18.0657 2.11516V10.2156ZM10.9425 3.13012L7.99692 0.200195C8.83118 0.200195 9.53069 0.481065 10.0954 1.04281C10.6601 1.60451 10.9425 2.30028 10.9425 3.13012ZM16.1405 46.1598C15.5886 46.1598 15.1298 45.9779 14.764 45.614C14.3982 45.2502 14.2153 44.7938 14.2153 44.2448V25.0567C12.226 24.5971 10.5414 23.5694 9.16168 21.9736C7.78197 20.3777 7.09212 18.4819 7.09212 16.2861V4.77702L10.9425 8.60695V16.2861H14.2153V11.8624L18.0657 15.6924V16.2861H18.6625L23.668 21.265C23.0263 22.2225 22.2209 23.03 21.2519 23.6874C20.2829 24.3449 19.2208 24.8013 18.0657 25.0567V44.2448C18.0657 44.7938 17.8828 45.2502 17.517 45.614C17.1513 45.9779 16.6924 46.1598 16.1405 46.1598Z" fill="white"/>
</svg>
