<svg width="336" height="207" viewBox="0 0 336 207" fill="none" xmlns="http://www.w3.org/2000/svg">
<rect x="0.5" y="0.5" width="335" height="206" rx="7.5" fill="#FAFAFA"/>
<rect x="0.5" y="0.5" width="335" height="206" rx="7.5" stroke="#CACACA"/>
<g opacity="0.56">
<mask id="mask0_206_855" style="mask-type:alpha" maskUnits="userSpaceOnUse" x="140" y="62" width="57" height="57">
<rect x="140.5" y="62.5" width="56" height="56" fill="#D9D9D9"/>
</mask>
<g mask="url(#mask0_206_855)">
<path d="M186.642 115.175L182.908 111.5H149.833C148.55 111.5 147.451 111.043 146.537 110.129C145.624 109.215 145.167 108.117 145.167 106.833V78.8332C145.167 77.5499 145.624 76.4513 146.537 75.5374C147.451 74.6235 148.55 74.1666 149.833 74.1666H152.225V80.8166L143.708 72.2999C143.242 71.8332 143.008 71.2791 143.008 70.6374C143.008 69.9957 143.242 69.4416 143.708 68.9749C144.175 68.5082 144.729 68.2749 145.371 68.2749C146.012 68.2749 146.567 68.5082 147.033 68.9749L189.967 111.908C190.433 112.375 190.667 112.919 190.667 113.542C190.667 114.164 190.433 114.708 189.967 115.175C189.5 115.642 188.946 115.875 188.304 115.875C187.662 115.875 187.108 115.642 186.642 115.175ZM190.375 103.625C189.947 103.819 189.519 103.878 189.092 103.8C188.664 103.722 188.256 103.489 187.867 103.1L178.942 94.1749C179.136 92.5416 178.971 90.9568 178.446 89.4207C177.921 87.8846 177.075 86.5332 175.908 85.3666C174.781 84.2388 173.449 83.4124 171.912 82.8874C170.376 82.3624 168.792 82.1971 167.158 82.3916L159.575 74.8666C159.342 74.6332 159.176 74.3805 159.079 74.1082C158.982 73.836 158.933 73.5443 158.933 73.2332C158.933 72.9221 158.982 72.6402 159.079 72.3874C159.176 72.1346 159.322 71.8916 159.517 71.6582L160.1 71.0166C160.528 70.5499 161.043 70.1805 161.646 69.9082C162.249 69.636 162.881 69.4999 163.542 69.4999H173.458C174.119 69.4999 174.751 69.636 175.354 69.9082C175.957 70.1805 176.472 70.5499 176.9 71.0166L179.817 74.1666H187.167C188.45 74.1666 189.549 74.6235 190.462 75.5374C191.376 76.4513 191.833 77.5499 191.833 78.8332V101.467C191.833 102.011 191.697 102.458 191.425 102.808C191.153 103.158 190.803 103.43 190.375 103.625ZM168.5 103.333C169.394 103.333 170.26 103.236 171.096 103.042C171.932 102.847 172.739 102.536 173.517 102.108L159.225 87.8166C158.797 88.5943 158.486 89.4013 158.292 90.2374C158.097 91.0735 158 91.9388 158 92.8332C158 95.7499 159.021 98.2291 161.062 100.271C163.104 102.312 165.583 103.333 168.5 103.333ZM168.5 98.6666C166.867 98.6666 165.486 98.1027 164.358 96.9749C163.231 95.8471 162.667 94.4666 162.667 92.8332C162.667 92.0555 162.812 91.3068 163.104 90.5874C163.396 89.868 163.814 89.236 164.358 88.6916L172.642 96.9749C172.097 97.5193 171.465 97.9374 170.746 98.2291C170.026 98.5207 169.278 98.6666 168.5 98.6666Z" fill="#8E8E8E"/>
<path d="M186.642 115.175L182.908 111.5H149.833C148.55 111.5 147.451 111.043 146.537 110.129C145.624 109.215 145.167 108.117 145.167 106.833V78.8332C145.167 77.5499 145.624 76.4513 146.537 75.5374C147.451 74.6235 148.55 74.1666 149.833 74.1666H152.225V80.8166L143.708 72.2999C143.242 71.8332 143.008 71.2791 143.008 70.6374C143.008 69.9957 143.242 69.4416 143.708 68.9749C144.175 68.5082 144.729 68.2749 145.371 68.2749C146.012 68.2749 146.567 68.5082 147.033 68.9749L189.967 111.908C190.433 112.375 190.667 112.919 190.667 113.542C190.667 114.164 190.433 114.708 189.967 115.175C189.5 115.642 188.946 115.875 188.304 115.875C187.662 115.875 187.108 115.642 186.642 115.175ZM190.375 103.625C189.947 103.819 189.519 103.878 189.092 103.8C188.664 103.722 188.256 103.489 187.867 103.1L178.942 94.1749C179.136 92.5416 178.971 90.9568 178.446 89.4207C177.921 87.8846 177.075 86.5332 175.908 85.3666C174.781 84.2388 173.449 83.4124 171.912 82.8874C170.376 82.3624 168.792 82.1971 167.158 82.3916L159.575 74.8666C159.342 74.6332 159.176 74.3805 159.079 74.1082C158.982 73.836 158.933 73.5443 158.933 73.2332C158.933 72.9221 158.982 72.6402 159.079 72.3874C159.176 72.1346 159.322 71.8916 159.517 71.6582L160.1 71.0166C160.528 70.5499 161.043 70.1805 161.646 69.9082C162.249 69.636 162.881 69.4999 163.542 69.4999H173.458C174.119 69.4999 174.751 69.636 175.354 69.9082C175.957 70.1805 176.472 70.5499 176.9 71.0166L179.817 74.1666H187.167C188.45 74.1666 189.549 74.6235 190.462 75.5374C191.376 76.4513 191.833 77.5499 191.833 78.8332V101.467C191.833 102.011 191.697 102.458 191.425 102.808C191.153 103.158 190.803 103.43 190.375 103.625ZM168.5 103.333C169.394 103.333 170.26 103.236 171.096 103.042C171.932 102.847 172.739 102.536 173.517 102.108L159.225 87.8166C158.797 88.5943 158.486 89.4013 158.292 90.2374C158.097 91.0735 158 91.9388 158 92.8332C158 95.7499 159.021 98.2291 161.062 100.271C163.104 102.312 165.583 103.333 168.5 103.333ZM168.5 98.6666C166.867 98.6666 165.486 98.1027 164.358 96.9749C163.231 95.8471 162.667 94.4666 162.667 92.8332C162.667 92.0555 162.812 91.3068 163.104 90.5874C163.396 89.868 163.814 89.236 164.358 88.6916L172.642 96.9749C172.097 97.5193 171.465 97.9374 170.746 98.2291C170.026 98.5207 169.278 98.6666 168.5 98.6666Z" fill="black" fill-opacity="0.2"/>
</g>
</g>
<path d="M144.266 132.391C144.25 134.875 145.688 137.406 147.781 138.422L146.859 139.609C145.336 138.82 144.156 137.25 143.547 135.375C142.914 137.375 141.688 139.047 140.094 139.875L139.172 138.672C141.328 137.641 142.781 134.953 142.781 132.391V130H144.266V132.391ZM150.312 128.828V134.406H152.562V135.672H150.312V142.828H148.828V128.828H150.312ZM158.422 131.75C158.422 133.562 159.766 135.266 161.922 135.953L161.156 137.109C159.547 136.578 158.328 135.477 157.703 134.078C157.07 135.602 155.828 136.805 154.156 137.391L153.391 136.219C155.562 135.484 156.906 133.672 156.922 131.75V131.141H153.781V129.938H161.5V131.141H158.422V131.75ZM164.844 128.844V139.062H163.359V128.844H164.844ZM165.266 141.328V142.531H155.688V138.094H157.188V141.328H165.266ZM173.953 137.031V138.656H176.141V137.031H177.516V142.656H172.562V137.031H173.953ZM173.953 141.5H176.141V139.781H173.953V141.5ZM181.578 138.078C181.578 139.547 182.391 141.031 184.125 141.641L183.359 142.766C182.094 142.281 181.273 141.367 180.844 140.25C180.375 141.344 179.547 142.266 178.344 142.766L177.594 141.641C179.281 140.953 180.109 139.469 180.109 138.078V136.938H181.578V138.078ZM174.844 129.422C176.688 129.422 178.109 130.469 178.422 132.031H181.156V128.828H182.641V136.25H181.156V133.25H178.438C178.133 134.859 176.703 135.906 174.844 135.906C172.703 135.906 171.172 134.594 171.172 132.656C171.172 130.75 172.703 129.422 174.844 129.422ZM174.844 130.656C173.516 130.656 172.594 131.469 172.594 132.656C172.594 133.859 173.516 134.688 174.844 134.703C176.141 134.688 177.062 133.859 177.062 132.656C177.062 131.469 176.141 130.656 174.844 130.656ZM191.172 129.125C194.25 129.125 196.172 130.125 196.172 131.812C196.172 133.469 194.25 134.453 191.172 134.453C188.109 134.453 186.172 133.469 186.172 131.812C186.172 130.125 188.109 129.125 191.172 129.125ZM191.172 130.297C189.016 130.297 187.688 130.844 187.703 131.812C187.688 132.75 189.016 133.281 191.172 133.297C193.312 133.281 194.641 132.75 194.641 131.812C194.641 130.844 193.312 130.297 191.172 130.297ZM196 137.984V142.656H186.328V137.984H196ZM187.797 139.172V141.453H194.562V139.172H187.797ZM197.562 135.531V136.734H184.797V135.531H197.562Z" fill="#8E8E8E"/>
<path d="M144.266 132.391C144.25 134.875 145.688 137.406 147.781 138.422L146.859 139.609C145.336 138.82 144.156 137.25 143.547 135.375C142.914 137.375 141.688 139.047 140.094 139.875L139.172 138.672C141.328 137.641 142.781 134.953 142.781 132.391V130H144.266V132.391ZM150.312 128.828V134.406H152.562V135.672H150.312V142.828H148.828V128.828H150.312ZM158.422 131.75C158.422 133.562 159.766 135.266 161.922 135.953L161.156 137.109C159.547 136.578 158.328 135.477 157.703 134.078C157.07 135.602 155.828 136.805 154.156 137.391L153.391 136.219C155.562 135.484 156.906 133.672 156.922 131.75V131.141H153.781V129.938H161.5V131.141H158.422V131.75ZM164.844 128.844V139.062H163.359V128.844H164.844ZM165.266 141.328V142.531H155.688V138.094H157.188V141.328H165.266ZM173.953 137.031V138.656H176.141V137.031H177.516V142.656H172.562V137.031H173.953ZM173.953 141.5H176.141V139.781H173.953V141.5ZM181.578 138.078C181.578 139.547 182.391 141.031 184.125 141.641L183.359 142.766C182.094 142.281 181.273 141.367 180.844 140.25C180.375 141.344 179.547 142.266 178.344 142.766L177.594 141.641C179.281 140.953 180.109 139.469 180.109 138.078V136.938H181.578V138.078ZM174.844 129.422C176.688 129.422 178.109 130.469 178.422 132.031H181.156V128.828H182.641V136.25H181.156V133.25H178.438C178.133 134.859 176.703 135.906 174.844 135.906C172.703 135.906 171.172 134.594 171.172 132.656C171.172 130.75 172.703 129.422 174.844 129.422ZM174.844 130.656C173.516 130.656 172.594 131.469 172.594 132.656C172.594 133.859 173.516 134.688 174.844 134.703C176.141 134.688 177.062 133.859 177.062 132.656C177.062 131.469 176.141 130.656 174.844 130.656ZM191.172 129.125C194.25 129.125 196.172 130.125 196.172 131.812C196.172 133.469 194.25 134.453 191.172 134.453C188.109 134.453 186.172 133.469 186.172 131.812C186.172 130.125 188.109 129.125 191.172 129.125ZM191.172 130.297C189.016 130.297 187.688 130.844 187.703 131.812C187.688 132.75 189.016 133.281 191.172 133.297C193.312 133.281 194.641 132.75 194.641 131.812C194.641 130.844 193.312 130.297 191.172 130.297ZM196 137.984V142.656H186.328V137.984H196ZM187.797 139.172V141.453H194.562V139.172H187.797ZM197.562 135.531V136.734H184.797V135.531H197.562Z" fill="black" fill-opacity="0.2"/>
</svg>
