<svg width="336" height="207" viewBox="0 0 336 207" fill="none" xmlns="http://www.w3.org/2000/svg">
<rect x="0.5" y="0.5" width="335" height="206" rx="7.5" fill="#FAFAFA"/>
<rect x="0.5" y="0.5" width="335" height="206" rx="7.5" stroke="#CACACA"/>
<g opacity="0.56">
<mask id="mask0_1394_608" style="mask-type:alpha" maskUnits="userSpaceOnUse" x="140" y="59" width="57" height="56">
<rect x="140.5" y="59" width="56" height="56" fill="#D9D9D9"/>
</mask>
<g mask="url(#mask0_1394_608)">
<path d="M186.642 111.675L182.908 108H149.833C148.55 108 147.451 107.543 146.537 106.629C145.624 105.715 145.167 104.617 145.167 103.333V75.3332C145.167 74.0499 145.624 72.9513 146.537 72.0374C147.451 71.1235 148.55 70.6666 149.833 70.6666H152.225V77.3166L143.708 68.7999C143.242 68.3332 143.008 67.7791 143.008 67.1374C143.008 66.4957 143.242 65.9416 143.708 65.4749C144.175 65.0082 144.729 64.7749 145.371 64.7749C146.012 64.7749 146.567 65.0082 147.033 65.4749L189.967 108.408C190.433 108.875 190.667 109.419 190.667 110.042C190.667 110.664 190.433 111.208 189.967 111.675C189.5 112.142 188.946 112.375 188.304 112.375C187.662 112.375 187.108 112.142 186.642 111.675ZM190.375 100.125C189.947 100.319 189.519 100.378 189.092 100.3C188.664 100.222 188.256 99.9888 187.867 99.5999L178.942 90.6749C179.136 89.0416 178.971 87.4568 178.446 85.9207C177.921 84.3846 177.075 83.0332 175.908 81.8666C174.781 80.7388 173.449 79.9124 171.912 79.3874C170.376 78.8624 168.792 78.6971 167.158 78.8916L159.575 71.3666C159.342 71.1332 159.176 70.8805 159.079 70.6082C158.982 70.336 158.933 70.0443 158.933 69.7332C158.933 69.4221 158.982 69.1402 159.079 68.8874C159.176 68.6346 159.322 68.3916 159.517 68.1582L160.1 67.5166C160.528 67.0499 161.043 66.6805 161.646 66.4082C162.249 66.136 162.881 65.9999 163.542 65.9999H173.458C174.119 65.9999 174.751 66.136 175.354 66.4082C175.957 66.6805 176.472 67.0499 176.9 67.5166L179.817 70.6666H187.167C188.45 70.6666 189.549 71.1235 190.462 72.0374C191.376 72.9513 191.833 74.0499 191.833 75.3332V97.9666C191.833 98.511 191.697 98.9582 191.425 99.3082C191.153 99.6582 190.803 99.9305 190.375 100.125ZM168.5 99.8332C169.394 99.8332 170.26 99.736 171.096 99.5416C171.932 99.3471 172.739 99.036 173.517 98.6082L159.225 84.3166C158.797 85.0943 158.486 85.9013 158.292 86.7374C158.097 87.5735 158 88.4388 158 89.3332C158 92.2499 159.021 94.7291 161.062 96.7707C163.104 98.8124 165.583 99.8332 168.5 99.8332ZM168.5 95.1666C166.867 95.1666 165.486 94.6027 164.358 93.4749C163.231 92.3471 162.667 90.9666 162.667 89.3332C162.667 88.5555 162.812 87.8068 163.104 87.0874C163.396 86.368 163.814 85.736 164.358 85.1916L172.642 93.4749C172.097 94.0193 171.465 94.4374 170.746 94.7291C170.026 95.0207 169.278 95.1666 168.5 95.1666Z" fill="#8E8E8E"/>
<path d="M186.642 111.675L182.908 108H149.833C148.55 108 147.451 107.543 146.537 106.629C145.624 105.715 145.167 104.617 145.167 103.333V75.3332C145.167 74.0499 145.624 72.9513 146.537 72.0374C147.451 71.1235 148.55 70.6666 149.833 70.6666H152.225V77.3166L143.708 68.7999C143.242 68.3332 143.008 67.7791 143.008 67.1374C143.008 66.4957 143.242 65.9416 143.708 65.4749C144.175 65.0082 144.729 64.7749 145.371 64.7749C146.012 64.7749 146.567 65.0082 147.033 65.4749L189.967 108.408C190.433 108.875 190.667 109.419 190.667 110.042C190.667 110.664 190.433 111.208 189.967 111.675C189.5 112.142 188.946 112.375 188.304 112.375C187.662 112.375 187.108 112.142 186.642 111.675ZM190.375 100.125C189.947 100.319 189.519 100.378 189.092 100.3C188.664 100.222 188.256 99.9888 187.867 99.5999L178.942 90.6749C179.136 89.0416 178.971 87.4568 178.446 85.9207C177.921 84.3846 177.075 83.0332 175.908 81.8666C174.781 80.7388 173.449 79.9124 171.912 79.3874C170.376 78.8624 168.792 78.6971 167.158 78.8916L159.575 71.3666C159.342 71.1332 159.176 70.8805 159.079 70.6082C158.982 70.336 158.933 70.0443 158.933 69.7332C158.933 69.4221 158.982 69.1402 159.079 68.8874C159.176 68.6346 159.322 68.3916 159.517 68.1582L160.1 67.5166C160.528 67.0499 161.043 66.6805 161.646 66.4082C162.249 66.136 162.881 65.9999 163.542 65.9999H173.458C174.119 65.9999 174.751 66.136 175.354 66.4082C175.957 66.6805 176.472 67.0499 176.9 67.5166L179.817 70.6666H187.167C188.45 70.6666 189.549 71.1235 190.462 72.0374C191.376 72.9513 191.833 74.0499 191.833 75.3332V97.9666C191.833 98.511 191.697 98.9582 191.425 99.3082C191.153 99.6582 190.803 99.9305 190.375 100.125ZM168.5 99.8332C169.394 99.8332 170.26 99.736 171.096 99.5416C171.932 99.3471 172.739 99.036 173.517 98.6082L159.225 84.3166C158.797 85.0943 158.486 85.9013 158.292 86.7374C158.097 87.5735 158 88.4388 158 89.3332C158 92.2499 159.021 94.7291 161.062 96.7707C163.104 98.8124 165.583 99.8332 168.5 99.8332ZM168.5 95.1666C166.867 95.1666 165.486 94.6027 164.358 93.4749C163.231 92.3471 162.667 90.9666 162.667 89.3332C162.667 88.5555 162.812 87.8068 163.104 87.0874C163.396 86.368 163.814 85.736 164.358 85.1916L172.642 93.4749C172.097 94.0193 171.465 94.4374 170.746 94.7291C170.026 95.0207 169.278 95.1666 168.5 95.1666Z" fill="black" fill-opacity="0.2"/>
</g>
</g>
<path d="M144.266 132.891C144.25 135.375 145.688 137.906 147.781 138.922L146.859 140.109C145.336 139.32 144.156 137.75 143.547 135.875C142.914 137.875 141.688 139.547 140.094 140.375L139.172 139.172C141.328 138.141 142.781 135.453 142.781 132.891V130.5H144.266V132.891ZM150.312 129.328V134.906H152.562V136.172H150.312V143.328H148.828V129.328H150.312ZM158.422 132.25C158.422 134.062 159.766 135.766 161.922 136.453L161.156 137.609C159.547 137.078 158.328 135.977 157.703 134.578C157.07 136.102 155.828 137.305 154.156 137.891L153.391 136.719C155.562 135.984 156.906 134.172 156.922 132.25V131.641H153.781V130.438H161.5V131.641H158.422V132.25ZM164.844 129.344V139.562H163.359V129.344H164.844ZM165.266 141.828V143.031H155.688V138.594H157.188V141.828H165.266ZM173.953 137.531V139.156H176.141V137.531H177.516V143.156H172.562V137.531H173.953ZM173.953 142H176.141V140.281H173.953V142ZM181.578 138.578C181.578 140.047 182.391 141.531 184.125 142.141L183.359 143.266C182.094 142.781 181.273 141.867 180.844 140.75C180.375 141.844 179.547 142.766 178.344 143.266L177.594 142.141C179.281 141.453 180.109 139.969 180.109 138.578V137.438H181.578V138.578ZM174.844 129.922C176.688 129.922 178.109 130.969 178.422 132.531H181.156V129.328H182.641V136.75H181.156V133.75H178.438C178.133 135.359 176.703 136.406 174.844 136.406C172.703 136.406 171.172 135.094 171.172 133.156C171.172 131.25 172.703 129.922 174.844 129.922ZM174.844 131.156C173.516 131.156 172.594 131.969 172.594 133.156C172.594 134.359 173.516 135.188 174.844 135.203C176.141 135.188 177.062 134.359 177.062 133.156C177.062 131.969 176.141 131.156 174.844 131.156ZM191.172 129.625C194.25 129.625 196.172 130.625 196.172 132.312C196.172 133.969 194.25 134.953 191.172 134.953C188.109 134.953 186.172 133.969 186.172 132.312C186.172 130.625 188.109 129.625 191.172 129.625ZM191.172 130.797C189.016 130.797 187.688 131.344 187.703 132.312C187.688 133.25 189.016 133.781 191.172 133.797C193.312 133.781 194.641 133.25 194.641 132.312C194.641 131.344 193.312 130.797 191.172 130.797ZM196 138.484V143.156H186.328V138.484H196ZM187.797 139.672V141.953H194.562V139.672H187.797ZM197.562 136.031V137.234H184.797V136.031H197.562Z" fill="#8E8E8E"/>
<path d="M144.266 132.891C144.25 135.375 145.688 137.906 147.781 138.922L146.859 140.109C145.336 139.32 144.156 137.75 143.547 135.875C142.914 137.875 141.688 139.547 140.094 140.375L139.172 139.172C141.328 138.141 142.781 135.453 142.781 132.891V130.5H144.266V132.891ZM150.312 129.328V134.906H152.562V136.172H150.312V143.328H148.828V129.328H150.312ZM158.422 132.25C158.422 134.062 159.766 135.766 161.922 136.453L161.156 137.609C159.547 137.078 158.328 135.977 157.703 134.578C157.07 136.102 155.828 137.305 154.156 137.891L153.391 136.719C155.562 135.984 156.906 134.172 156.922 132.25V131.641H153.781V130.438H161.5V131.641H158.422V132.25ZM164.844 129.344V139.562H163.359V129.344H164.844ZM165.266 141.828V143.031H155.688V138.594H157.188V141.828H165.266ZM173.953 137.531V139.156H176.141V137.531H177.516V143.156H172.562V137.531H173.953ZM173.953 142H176.141V140.281H173.953V142ZM181.578 138.578C181.578 140.047 182.391 141.531 184.125 142.141L183.359 143.266C182.094 142.781 181.273 141.867 180.844 140.75C180.375 141.844 179.547 142.766 178.344 143.266L177.594 142.141C179.281 141.453 180.109 139.969 180.109 138.578V137.438H181.578V138.578ZM174.844 129.922C176.688 129.922 178.109 130.969 178.422 132.531H181.156V129.328H182.641V136.75H181.156V133.75H178.438C178.133 135.359 176.703 136.406 174.844 136.406C172.703 136.406 171.172 135.094 171.172 133.156C171.172 131.25 172.703 129.922 174.844 129.922ZM174.844 131.156C173.516 131.156 172.594 131.969 172.594 133.156C172.594 134.359 173.516 135.188 174.844 135.203C176.141 135.188 177.062 134.359 177.062 133.156C177.062 131.969 176.141 131.156 174.844 131.156ZM191.172 129.625C194.25 129.625 196.172 130.625 196.172 132.312C196.172 133.969 194.25 134.953 191.172 134.953C188.109 134.953 186.172 133.969 186.172 132.312C186.172 130.625 188.109 129.625 191.172 129.625ZM191.172 130.797C189.016 130.797 187.688 131.344 187.703 132.312C187.688 133.25 189.016 133.781 191.172 133.797C193.312 133.781 194.641 133.25 194.641 132.312C194.641 131.344 193.312 130.797 191.172 130.797ZM196 138.484V143.156H186.328V138.484H196ZM187.797 139.672V141.953H194.562V139.672H187.797ZM197.562 136.031V137.234H184.797V136.031H197.562Z" fill="black" fill-opacity="0.2"/>
</svg>
