<svg width="200" height="130" viewBox="0 0 200 130" fill="none" xmlns="http://www.w3.org/2000/svg">
<rect x="0.5" y="0.5" width="199" height="129" rx="7.5" fill="#FAFAFA"/>
<rect x="0.5" y="0.5" width="199" height="129" rx="7.5" stroke="#CACACA"/>
<mask id="mask0_6822_3610" style="mask-type:alpha" maskUnits="userSpaceOnUse" x="83" y="34" width="35" height="35">
<rect x="83.5" y="34.5" width="34" height="34" fill="#D9D9D9"/>
</mask>
<g mask="url(#mask0_6822_3610)">
<path d="M111.515 66.4813L109.248 64.2501H89.1667C88.3875 64.2501 87.7205 63.9727 87.1657 63.4178C86.6108 62.8629 86.3334 62.1959 86.3334 61.4168V44.4168C86.3334 43.6376 86.6108 42.9706 87.1657 42.4157C87.7205 41.8609 88.3875 41.5834 89.1667 41.5834H90.6188V45.6209L85.4479 40.4501C85.1646 40.1668 85.0229 39.8303 85.0229 39.4407C85.0229 39.0511 85.1646 38.7147 85.4479 38.4313C85.7313 38.148 86.0677 38.0063 86.4573 38.0063C86.8469 38.0063 87.1834 38.148 87.4667 38.4313L113.533 64.498C113.817 64.7813 113.958 65.1119 113.958 65.4897C113.958 65.8675 113.817 66.198 113.533 66.4813C113.25 66.7647 112.914 66.9063 112.524 66.9063C112.134 66.9063 111.798 66.7647 111.515 66.4813ZM113.781 59.4688C113.522 59.5869 113.262 59.6223 113.002 59.5751C112.742 59.5279 112.494 59.3862 112.258 59.1501L106.84 53.7313C106.958 52.7397 106.857 51.7775 106.539 50.8449C106.22 49.9123 105.706 49.0918 104.998 48.3834C104.313 47.6987 103.505 47.197 102.572 46.8782C101.639 46.5595 100.677 46.4591 99.6855 46.5772L95.0813 42.0084C94.9396 41.8668 94.8393 41.7133 94.7802 41.548C94.7212 41.3827 94.6917 41.2057 94.6917 41.0168C94.6917 40.8279 94.7212 40.6567 94.7802 40.5032C94.8393 40.3498 94.9278 40.2022 95.0459 40.0605L95.4 39.6709C95.6598 39.3876 95.9726 39.1633 96.3386 38.998C96.7045 38.8327 97.0882 38.7501 97.4896 38.7501H103.51C103.912 38.7501 104.296 38.8327 104.661 38.998C105.027 39.1633 105.34 39.3876 105.6 39.6709L107.371 41.5834H111.833C112.613 41.5834 113.28 41.8609 113.834 42.4157C114.389 42.9706 114.667 43.6376 114.667 44.4168V58.1584C114.667 58.489 114.584 58.7605 114.419 58.973C114.254 59.1855 114.041 59.3508 113.781 59.4688ZM100.5 59.2918C101.043 59.2918 101.568 59.2327 102.076 59.1147C102.584 58.9966 103.074 58.8077 103.546 58.548L94.8688 49.8709C94.6091 50.3432 94.4202 50.8331 94.3021 51.3407C94.1841 51.8484 94.125 52.3737 94.125 52.9168C94.125 54.6876 94.7448 56.1928 95.9844 57.4324C97.224 58.672 98.7292 59.2918 100.5 59.2918ZM100.5 56.4584C99.5084 56.4584 98.6702 56.1161 97.9854 55.4313C97.3007 54.7466 96.9584 53.9084 96.9584 52.9168C96.9584 52.4445 97.0469 51.99 97.224 51.5532C97.4011 51.1164 97.6549 50.7327 97.9854 50.4022L103.015 55.4313C102.684 55.7619 102.3 56.0157 101.864 56.1928C101.427 56.3699 100.972 56.4584 100.5 56.4584Z" fill="#8E8E8E"/>
<path d="M111.515 66.4813L109.248 64.2501H89.1667C88.3875 64.2501 87.7205 63.9727 87.1657 63.4178C86.6108 62.8629 86.3334 62.1959 86.3334 61.4168V44.4168C86.3334 43.6376 86.6108 42.9706 87.1657 42.4157C87.7205 41.8609 88.3875 41.5834 89.1667 41.5834H90.6188V45.6209L85.4479 40.4501C85.1646 40.1668 85.0229 39.8303 85.0229 39.4407C85.0229 39.0511 85.1646 38.7147 85.4479 38.4313C85.7313 38.148 86.0677 38.0063 86.4573 38.0063C86.8469 38.0063 87.1834 38.148 87.4667 38.4313L113.533 64.498C113.817 64.7813 113.958 65.1119 113.958 65.4897C113.958 65.8675 113.817 66.198 113.533 66.4813C113.25 66.7647 112.914 66.9063 112.524 66.9063C112.134 66.9063 111.798 66.7647 111.515 66.4813ZM113.781 59.4688C113.522 59.5869 113.262 59.6223 113.002 59.5751C112.742 59.5279 112.494 59.3862 112.258 59.1501L106.84 53.7313C106.958 52.7397 106.857 51.7775 106.539 50.8449C106.22 49.9123 105.706 49.0918 104.998 48.3834C104.313 47.6987 103.505 47.197 102.572 46.8782C101.639 46.5595 100.677 46.4591 99.6855 46.5772L95.0813 42.0084C94.9396 41.8668 94.8393 41.7133 94.7802 41.548C94.7212 41.3827 94.6917 41.2057 94.6917 41.0168C94.6917 40.8279 94.7212 40.6567 94.7802 40.5032C94.8393 40.3498 94.9278 40.2022 95.0459 40.0605L95.4 39.6709C95.6598 39.3876 95.9726 39.1633 96.3386 38.998C96.7045 38.8327 97.0882 38.7501 97.4896 38.7501H103.51C103.912 38.7501 104.296 38.8327 104.661 38.998C105.027 39.1633 105.34 39.3876 105.6 39.6709L107.371 41.5834H111.833C112.613 41.5834 113.28 41.8609 113.834 42.4157C114.389 42.9706 114.667 43.6376 114.667 44.4168V58.1584C114.667 58.489 114.584 58.7605 114.419 58.973C114.254 59.1855 114.041 59.3508 113.781 59.4688ZM100.5 59.2918C101.043 59.2918 101.568 59.2327 102.076 59.1147C102.584 58.9966 103.074 58.8077 103.546 58.548L94.8688 49.8709C94.6091 50.3432 94.4202 50.8331 94.3021 51.3407C94.1841 51.8484 94.125 52.3737 94.125 52.9168C94.125 54.6876 94.7448 56.1928 95.9844 57.4324C97.224 58.672 98.7292 59.2918 100.5 59.2918ZM100.5 56.4584C99.5084 56.4584 98.6702 56.1161 97.9854 55.4313C97.3007 54.7466 96.9584 53.9084 96.9584 52.9168C96.9584 52.4445 97.0469 51.99 97.224 51.5532C97.4011 51.1164 97.6549 50.7327 97.9854 50.4022L103.015 55.4313C102.684 55.7619 102.3 56.0157 101.864 56.1928C101.427 56.3699 100.972 56.4584 100.5 56.4584Z" fill="black" fill-opacity="0.2"/>
</g>
<path d="M82.166 83.832C82.166 85.6719 83.3848 87.5586 84.8613 88.2852L84.2988 89.0234C83.1504 88.4199 82.1895 87.1895 81.7324 85.7422C81.2637 87.2832 80.2793 88.5957 79.1074 89.2227L78.5215 88.4844C80.0449 87.7344 81.252 85.7305 81.2637 83.832V81.9336H82.166V83.832ZM86.7363 81.0312V85.2617H88.4824V86.0586H86.7363V91.4492H85.8223V81.0312H86.7363ZM92.7949 83.2695C92.7949 84.6758 93.9082 85.9414 95.4668 86.4336L94.998 87.1719C93.7852 86.7617 92.8184 85.9062 92.3496 84.8047C91.8926 85.9941 90.9141 86.9316 89.6777 87.3828L89.1973 86.6445C90.7559 86.0938 91.8691 84.7461 91.8691 83.2695V82.6602H89.4316V81.9102H95.1973V82.6602H92.7949V83.2695ZM97.6465 81.043V88.6836H96.7324V81.043H97.6465ZM97.9746 90.4531V91.2266H90.9199V87.957H91.834V90.4531H97.9746ZM104.502 87.1484V88.4492H106.4V87.1484H107.256V91.3086H103.635V87.1484H104.502ZM104.502 90.582H106.4V89.1523H104.502V90.582ZM110.232 87.9688C110.221 89.0703 110.877 90.2188 112.154 90.6875L111.674 91.3906C110.713 91.0039 110.08 90.2715 109.764 89.3984C109.43 90.2539 108.797 90.9922 107.877 91.3906L107.396 90.6875C108.65 90.1719 109.318 89.0234 109.318 87.9688V87.0781H110.232V87.9688ZM105.299 81.5C106.693 81.5 107.76 82.291 107.959 83.4922H110.139V81.0312H111.064V86.5508H110.139V84.2539H107.971C107.783 85.4844 106.711 86.293 105.299 86.293C103.717 86.293 102.592 85.3203 102.592 83.8906C102.592 82.4727 103.717 81.5 105.299 81.5ZM105.299 82.2734C104.232 82.2734 103.471 82.9414 103.471 83.8906C103.471 84.8516 104.232 85.5312 105.299 85.5312C106.354 85.5312 107.104 84.8516 107.104 83.8906C107.104 82.9414 106.354 82.2734 105.299 82.2734ZM117.545 81.2656C119.807 81.2656 121.225 81.9922 121.225 83.2461C121.225 84.4766 119.807 85.1914 117.545 85.1914C115.283 85.1914 113.854 84.4766 113.854 83.2461C113.854 81.9922 115.283 81.2656 117.545 81.2656ZM117.545 82.0039C115.857 82.0039 114.791 82.4727 114.803 83.2461C114.791 84.0078 115.857 84.4531 117.545 84.4648C119.209 84.4531 120.287 84.0078 120.287 83.2461C120.287 82.4727 119.209 82.0039 117.545 82.0039ZM121.131 87.8867V91.3086H113.959V87.8867H121.131ZM114.873 88.625V90.5586H120.229V88.625H114.873ZM122.291 86.0938V86.8555H112.799V86.0938H122.291Z" fill="#8E8E8E"/>
<path d="M82.166 83.832C82.166 85.6719 83.3848 87.5586 84.8613 88.2852L84.2988 89.0234C83.1504 88.4199 82.1895 87.1895 81.7324 85.7422C81.2637 87.2832 80.2793 88.5957 79.1074 89.2227L78.5215 88.4844C80.0449 87.7344 81.252 85.7305 81.2637 83.832V81.9336H82.166V83.832ZM86.7363 81.0312V85.2617H88.4824V86.0586H86.7363V91.4492H85.8223V81.0312H86.7363ZM92.7949 83.2695C92.7949 84.6758 93.9082 85.9414 95.4668 86.4336L94.998 87.1719C93.7852 86.7617 92.8184 85.9062 92.3496 84.8047C91.8926 85.9941 90.9141 86.9316 89.6777 87.3828L89.1973 86.6445C90.7559 86.0938 91.8691 84.7461 91.8691 83.2695V82.6602H89.4316V81.9102H95.1973V82.6602H92.7949V83.2695ZM97.6465 81.043V88.6836H96.7324V81.043H97.6465ZM97.9746 90.4531V91.2266H90.9199V87.957H91.834V90.4531H97.9746ZM104.502 87.1484V88.4492H106.4V87.1484H107.256V91.3086H103.635V87.1484H104.502ZM104.502 90.582H106.4V89.1523H104.502V90.582ZM110.232 87.9688C110.221 89.0703 110.877 90.2188 112.154 90.6875L111.674 91.3906C110.713 91.0039 110.08 90.2715 109.764 89.3984C109.43 90.2539 108.797 90.9922 107.877 91.3906L107.396 90.6875C108.65 90.1719 109.318 89.0234 109.318 87.9688V87.0781H110.232V87.9688ZM105.299 81.5C106.693 81.5 107.76 82.291 107.959 83.4922H110.139V81.0312H111.064V86.5508H110.139V84.2539H107.971C107.783 85.4844 106.711 86.293 105.299 86.293C103.717 86.293 102.592 85.3203 102.592 83.8906C102.592 82.4727 103.717 81.5 105.299 81.5ZM105.299 82.2734C104.232 82.2734 103.471 82.9414 103.471 83.8906C103.471 84.8516 104.232 85.5312 105.299 85.5312C106.354 85.5312 107.104 84.8516 107.104 83.8906C107.104 82.9414 106.354 82.2734 105.299 82.2734ZM117.545 81.2656C119.807 81.2656 121.225 81.9922 121.225 83.2461C121.225 84.4766 119.807 85.1914 117.545 85.1914C115.283 85.1914 113.854 84.4766 113.854 83.2461C113.854 81.9922 115.283 81.2656 117.545 81.2656ZM117.545 82.0039C115.857 82.0039 114.791 82.4727 114.803 83.2461C114.791 84.0078 115.857 84.4531 117.545 84.4648C119.209 84.4531 120.287 84.0078 120.287 83.2461C120.287 82.4727 119.209 82.0039 117.545 82.0039ZM121.131 87.8867V91.3086H113.959V87.8867H121.131ZM114.873 88.625V90.5586H120.229V88.625H114.873ZM122.291 86.0938V86.8555H112.799V86.0938H122.291Z" fill="black" fill-opacity="0.2"/>
</svg>
