<svg width="45" height="62" viewBox="0 0 45 62" fill="none" xmlns="http://www.w3.org/2000/svg">
<mask id="mask0_6787_3611" style="mask-type:alpha" maskUnits="userSpaceOnUse" x="5" y="0" width="35" height="35">
<rect x="5.5" y="0.5" width="34" height="34" fill="#D9D9D9"/>
</mask>
<g mask="url(#mask0_6787_3611)">
<path d="M33.5146 32.4813L31.248 30.2501H11.1667C10.3875 30.2501 9.72052 29.9727 9.16566 29.4178C8.6108 28.8629 8.33337 28.1959 8.33337 27.4168V10.4168C8.33337 9.6376 8.6108 8.97058 9.16566 8.41572C9.72052 7.86086 10.3875 7.58343 11.1667 7.58343H12.6188V11.6209L7.44795 6.4501C7.16462 6.16676 7.02295 5.83031 7.02295 5.44072C7.02295 5.05114 7.16462 4.71468 7.44795 4.43135C7.73128 4.14801 8.06774 4.00635 8.45732 4.00635C8.84691 4.00635 9.18337 4.14801 9.4667 4.43135L35.5334 30.498C35.8167 30.7813 35.9584 31.1119 35.9584 31.4897C35.9584 31.8675 35.8167 32.198 35.5334 32.4813C35.25 32.7647 34.9136 32.9063 34.524 32.9063C34.1344 32.9063 33.7979 32.7647 33.5146 32.4813ZM35.7813 25.4688C35.5216 25.5869 35.2618 25.6223 35.0021 25.5751C34.7424 25.5279 34.4945 25.3862 34.2584 25.1501L28.8396 19.7313C28.9577 18.7397 28.8573 17.7775 28.5386 16.8449C28.2198 15.9123 27.7063 15.0918 26.9979 14.3834C26.3132 13.6987 25.5045 13.197 24.5719 12.8782C23.6393 12.5595 22.6771 12.4591 21.6855 12.5772L17.0813 8.00843C16.9396 7.86676 16.8393 7.71329 16.7802 7.54801C16.7212 7.38274 16.6917 7.20565 16.6917 7.01676C16.6917 6.82788 16.7212 6.65669 16.7802 6.50322C16.8393 6.34975 16.9278 6.20218 17.0459 6.06051L17.4 5.67093C17.6598 5.3876 17.9726 5.16329 18.3386 4.99801C18.7045 4.83274 19.0882 4.7501 19.4896 4.7501H25.5105C25.9118 4.7501 26.2955 4.83274 26.6615 4.99801C27.0275 5.16329 27.3403 5.3876 27.6 5.67093L29.3709 7.58343H33.8334C34.6125 7.58343 35.2795 7.86086 35.8344 8.41572C36.3893 8.97058 36.6667 9.6376 36.6667 10.4168V24.1584C36.6667 24.489 36.5841 24.7605 36.4188 24.973C36.2535 25.1855 36.041 25.3508 35.7813 25.4688ZM22.5 25.2918C23.0431 25.2918 23.5684 25.2327 24.0761 25.1147C24.5837 24.9966 25.0736 24.8077 25.5459 24.548L16.8688 15.8709C16.6091 16.3432 16.4202 16.8331 16.3021 17.3407C16.1841 17.8484 16.125 18.3737 16.125 18.9168C16.125 20.6876 16.7448 22.1928 17.9844 23.4324C19.224 24.672 20.7292 25.2918 22.5 25.2918ZM22.5 22.4584C21.5084 22.4584 20.6702 22.1161 19.9854 21.4313C19.3007 20.7466 18.9584 19.9084 18.9584 18.9168C18.9584 18.4445 19.0469 17.99 19.224 17.5532C19.4011 17.1164 19.6549 16.7327 19.9854 16.4022L25.0146 21.4313C24.6841 21.7619 24.3004 22.0157 23.8636 22.1928C23.4268 22.3699 22.9723 22.4584 22.5 22.4584Z" fill="#8E8E8E"/>
<path d="M33.5146 32.4813L31.248 30.2501H11.1667C10.3875 30.2501 9.72052 29.9727 9.16566 29.4178C8.6108 28.8629 8.33337 28.1959 8.33337 27.4168V10.4168C8.33337 9.6376 8.6108 8.97058 9.16566 8.41572C9.72052 7.86086 10.3875 7.58343 11.1667 7.58343H12.6188V11.6209L7.44795 6.4501C7.16462 6.16676 7.02295 5.83031 7.02295 5.44072C7.02295 5.05114 7.16462 4.71468 7.44795 4.43135C7.73128 4.14801 8.06774 4.00635 8.45732 4.00635C8.84691 4.00635 9.18337 4.14801 9.4667 4.43135L35.5334 30.498C35.8167 30.7813 35.9584 31.1119 35.9584 31.4897C35.9584 31.8675 35.8167 32.198 35.5334 32.4813C35.25 32.7647 34.9136 32.9063 34.524 32.9063C34.1344 32.9063 33.7979 32.7647 33.5146 32.4813ZM35.7813 25.4688C35.5216 25.5869 35.2618 25.6223 35.0021 25.5751C34.7424 25.5279 34.4945 25.3862 34.2584 25.1501L28.8396 19.7313C28.9577 18.7397 28.8573 17.7775 28.5386 16.8449C28.2198 15.9123 27.7063 15.0918 26.9979 14.3834C26.3132 13.6987 25.5045 13.197 24.5719 12.8782C23.6393 12.5595 22.6771 12.4591 21.6855 12.5772L17.0813 8.00843C16.9396 7.86676 16.8393 7.71329 16.7802 7.54801C16.7212 7.38274 16.6917 7.20565 16.6917 7.01676C16.6917 6.82788 16.7212 6.65669 16.7802 6.50322C16.8393 6.34975 16.9278 6.20218 17.0459 6.06051L17.4 5.67093C17.6598 5.3876 17.9726 5.16329 18.3386 4.99801C18.7045 4.83274 19.0882 4.7501 19.4896 4.7501H25.5105C25.9118 4.7501 26.2955 4.83274 26.6615 4.99801C27.0275 5.16329 27.3403 5.3876 27.6 5.67093L29.3709 7.58343H33.8334C34.6125 7.58343 35.2795 7.86086 35.8344 8.41572C36.3893 8.97058 36.6667 9.6376 36.6667 10.4168V24.1584C36.6667 24.489 36.5841 24.7605 36.4188 24.973C36.2535 25.1855 36.041 25.3508 35.7813 25.4688ZM22.5 25.2918C23.0431 25.2918 23.5684 25.2327 24.0761 25.1147C24.5837 24.9966 25.0736 24.8077 25.5459 24.548L16.8688 15.8709C16.6091 16.3432 16.4202 16.8331 16.3021 17.3407C16.1841 17.8484 16.125 18.3737 16.125 18.9168C16.125 20.6876 16.7448 22.1928 17.9844 23.4324C19.224 24.672 20.7292 25.2918 22.5 25.2918ZM22.5 22.4584C21.5084 22.4584 20.6702 22.1161 19.9854 21.4313C19.3007 20.7466 18.9584 19.9084 18.9584 18.9168C18.9584 18.4445 19.0469 17.99 19.224 17.5532C19.4011 17.1164 19.6549 16.7327 19.9854 16.4022L25.0146 21.4313C24.6841 21.7619 24.3004 22.0157 23.8636 22.1928C23.4268 22.3699 22.9723 22.4584 22.5 22.4584Z" fill="black" fill-opacity="0.2"/>
</g>
<path d="M4.16602 49.832C4.16602 51.6719 5.38477 53.5586 6.86133 54.2852L6.29883 55.0234C5.15039 54.4199 4.18945 53.1895 3.73242 51.7422C3.26367 53.2832 2.2793 54.5957 1.10742 55.2227L0.521484 54.4844C2.04492 53.7344 3.25195 51.7305 3.26367 49.832V47.9336H4.16602V49.832ZM8.73633 47.0312V51.2617H10.4824V52.0586H8.73633V57.4492H7.82227V47.0312H8.73633ZM14.7949 49.2695C14.7949 50.6758 15.9082 51.9414 17.4668 52.4336L16.998 53.1719C15.7852 52.7617 14.8184 51.9062 14.3496 50.8047C13.8926 51.9941 12.9141 52.9316 11.6777 53.3828L11.1973 52.6445C12.7559 52.0938 13.8691 50.7461 13.8691 49.2695V48.6602H11.4316V47.9102H17.1973V48.6602H14.7949V49.2695ZM19.6465 47.043V54.6836H18.7324V47.043H19.6465ZM19.9746 56.4531V57.2266H12.9199V53.957H13.834V56.4531H19.9746ZM26.502 53.1484V54.4492H28.4004V53.1484H29.2559V57.3086H25.6348V53.1484H26.502ZM26.502 56.582H28.4004V55.1523H26.502V56.582ZM32.2324 53.9688C32.2207 55.0703 32.877 56.2188 34.1543 56.6875L33.6738 57.3906C32.7129 57.0039 32.0801 56.2715 31.7637 55.3984C31.4297 56.2539 30.7969 56.9922 29.877 57.3906L29.3965 56.6875C30.6504 56.1719 31.3184 55.0234 31.3184 53.9688V53.0781H32.2324V53.9688ZM27.2988 47.5C28.6934 47.5 29.7598 48.291 29.959 49.4922H32.1387V47.0312H33.0645V52.5508H32.1387V50.2539H29.9707C29.7832 51.4844 28.7109 52.293 27.2988 52.293C25.7168 52.293 24.5918 51.3203 24.5918 49.8906C24.5918 48.4727 25.7168 47.5 27.2988 47.5ZM27.2988 48.2734C26.2324 48.2734 25.4707 48.9414 25.4707 49.8906C25.4707 50.8516 26.2324 51.5312 27.2988 51.5312C28.3535 51.5312 29.1035 50.8516 29.1035 49.8906C29.1035 48.9414 28.3535 48.2734 27.2988 48.2734ZM39.5449 47.2656C41.8066 47.2656 43.2246 47.9922 43.2246 49.2461C43.2246 50.4766 41.8066 51.1914 39.5449 51.1914C37.2832 51.1914 35.8535 50.4766 35.8535 49.2461C35.8535 47.9922 37.2832 47.2656 39.5449 47.2656ZM39.5449 48.0039C37.8574 48.0039 36.791 48.4727 36.8027 49.2461C36.791 50.0078 37.8574 50.4531 39.5449 50.4648C41.209 50.4531 42.2871 50.0078 42.2871 49.2461C42.2871 48.4727 41.209 48.0039 39.5449 48.0039ZM43.1309 53.8867V57.3086H35.959V53.8867H43.1309ZM36.873 54.625V56.5586H42.2285V54.625H36.873ZM44.291 52.0938V52.8555H34.7988V52.0938H44.291Z" fill="#8E8E8E"/>
<path d="M4.16602 49.832C4.16602 51.6719 5.38477 53.5586 6.86133 54.2852L6.29883 55.0234C5.15039 54.4199 4.18945 53.1895 3.73242 51.7422C3.26367 53.2832 2.2793 54.5957 1.10742 55.2227L0.521484 54.4844C2.04492 53.7344 3.25195 51.7305 3.26367 49.832V47.9336H4.16602V49.832ZM8.73633 47.0312V51.2617H10.4824V52.0586H8.73633V57.4492H7.82227V47.0312H8.73633ZM14.7949 49.2695C14.7949 50.6758 15.9082 51.9414 17.4668 52.4336L16.998 53.1719C15.7852 52.7617 14.8184 51.9062 14.3496 50.8047C13.8926 51.9941 12.9141 52.9316 11.6777 53.3828L11.1973 52.6445C12.7559 52.0938 13.8691 50.7461 13.8691 49.2695V48.6602H11.4316V47.9102H17.1973V48.6602H14.7949V49.2695ZM19.6465 47.043V54.6836H18.7324V47.043H19.6465ZM19.9746 56.4531V57.2266H12.9199V53.957H13.834V56.4531H19.9746ZM26.502 53.1484V54.4492H28.4004V53.1484H29.2559V57.3086H25.6348V53.1484H26.502ZM26.502 56.582H28.4004V55.1523H26.502V56.582ZM32.2324 53.9688C32.2207 55.0703 32.877 56.2188 34.1543 56.6875L33.6738 57.3906C32.7129 57.0039 32.0801 56.2715 31.7637 55.3984C31.4297 56.2539 30.7969 56.9922 29.877 57.3906L29.3965 56.6875C30.6504 56.1719 31.3184 55.0234 31.3184 53.9688V53.0781H32.2324V53.9688ZM27.2988 47.5C28.6934 47.5 29.7598 48.291 29.959 49.4922H32.1387V47.0312H33.0645V52.5508H32.1387V50.2539H29.9707C29.7832 51.4844 28.7109 52.293 27.2988 52.293C25.7168 52.293 24.5918 51.3203 24.5918 49.8906C24.5918 48.4727 25.7168 47.5 27.2988 47.5ZM27.2988 48.2734C26.2324 48.2734 25.4707 48.9414 25.4707 49.8906C25.4707 50.8516 26.2324 51.5312 27.2988 51.5312C28.3535 51.5312 29.1035 50.8516 29.1035 49.8906C29.1035 48.9414 28.3535 48.2734 27.2988 48.2734ZM39.5449 47.2656C41.8066 47.2656 43.2246 47.9922 43.2246 49.2461C43.2246 50.4766 41.8066 51.1914 39.5449 51.1914C37.2832 51.1914 35.8535 50.4766 35.8535 49.2461C35.8535 47.9922 37.2832 47.2656 39.5449 47.2656ZM39.5449 48.0039C37.8574 48.0039 36.791 48.4727 36.8027 49.2461C36.791 50.0078 37.8574 50.4531 39.5449 50.4648C41.209 50.4531 42.2871 50.0078 42.2871 49.2461C42.2871 48.4727 41.209 48.0039 39.5449 48.0039ZM43.1309 53.8867V57.3086H35.959V53.8867H43.1309ZM36.873 54.625V56.5586H42.2285V54.625H36.873ZM44.291 52.0938V52.8555H34.7988V52.0938H44.291Z" fill="black" fill-opacity="0.2"/>
</svg>
