<svg width="35" height="34" viewBox="0 0 35 34" fill="none" xmlns="http://www.w3.org/2000/svg">
<mask id="mask0_1866_729" style="mask-type:alpha" maskUnits="userSpaceOnUse" x="0" y="0" width="35" height="34">
<rect x="0.5" width="34" height="34" fill="#D9D9D9"/>
</mask>
<g mask="url(#mask0_1866_729)">
<path d="M28.5146 31.9812L26.248 29.75H6.1667C5.38753 29.75 4.72052 29.4725 4.16566 28.9177C3.6108 28.3628 3.33337 27.6958 3.33337 26.9166V9.91664C3.33337 9.13748 3.6108 8.47046 4.16566 7.9156C4.72052 7.36074 5.38753 7.08331 6.1667 7.08331H7.61878V11.1208L2.44795 5.94998C2.16462 5.66664 2.02295 5.33018 2.02295 4.9406C2.02295 4.55102 2.16462 4.21456 2.44795 3.93123C2.73128 3.64789 3.06774 3.50623 3.45732 3.50623C3.84691 3.50623 4.18337 3.64789 4.4667 3.93123L30.5334 29.9979C30.8167 30.2812 30.9584 30.6118 30.9584 30.9896C30.9584 31.3673 30.8167 31.6979 30.5334 31.9812C30.25 32.2646 29.9136 32.4062 29.524 32.4062C29.1344 32.4062 28.7979 32.2646 28.5146 31.9812ZM30.7813 24.9687C30.5216 25.0868 30.2618 25.1222 30.0021 25.075C29.7424 25.0278 29.4945 24.8861 29.2584 24.65L23.8396 19.2312C23.9577 18.2396 23.8573 17.2774 23.5386 16.3448C23.2198 15.4121 22.7063 14.5916 21.9979 13.8833C21.3132 13.1986 20.5045 12.6969 19.5719 12.3781C18.6393 12.0594 17.6771 11.959 16.6855 12.0771L12.0813 7.50831C11.9396 7.36664 11.8393 7.21317 11.7802 7.04789C11.7212 6.88261 11.6917 6.70553 11.6917 6.51664C11.6917 6.32775 11.7212 6.15657 11.7802 6.0031C11.8393 5.84963 11.9278 5.70206 12.0459 5.56039L12.4 5.17081C12.6598 4.88748 12.9726 4.66317 13.3386 4.49789C13.7045 4.33261 14.0882 4.24998 14.4896 4.24998H20.5105C20.9118 4.24998 21.2955 4.33261 21.6615 4.49789C22.0275 4.66317 22.3403 4.88748 22.6 5.17081L24.3709 7.08331H28.8334C29.6125 7.08331 30.2795 7.36074 30.8344 7.9156C31.3893 8.47046 31.6667 9.13748 31.6667 9.91664V23.6583C31.6667 23.9889 31.5841 24.2604 31.4188 24.4729C31.2535 24.6854 31.041 24.8507 30.7813 24.9687ZM17.5 24.7916C18.0431 24.7916 18.5684 24.7326 19.0761 24.6146C19.5837 24.4965 20.0736 24.3076 20.5459 24.0479L11.8688 15.3708C11.6091 15.843 11.4202 16.333 11.3021 16.8406C11.1841 17.3482 11.125 17.8736 11.125 18.4166C11.125 20.1875 11.7448 21.6927 12.9844 22.9323C14.224 24.1719 15.7292 24.7916 17.5 24.7916ZM17.5 21.9583C16.5084 21.9583 15.6702 21.6159 14.9854 20.9312C14.3007 20.2465 13.9584 19.4083 13.9584 18.4166C13.9584 17.9444 14.0469 17.4899 14.224 17.0531C14.4011 16.6163 14.6549 16.2326 14.9854 15.9021L20.0146 20.9312C19.6841 21.2618 19.3004 21.5156 18.8636 21.6927C18.4268 21.8698 17.9723 21.9583 17.5 21.9583Z" fill="#8E8E8E"/>
</g>
</svg>
