<svg width="52" height="47" viewBox="0 0 52 47" fill="none" xmlns="http://www.w3.org/2000/svg">
<path d="M5.67413 46.7238C5.26697 46.6368 4.84487 46.5716 4.44178 46.452C0.592716 45.365 -1.17031 41.0048 0.835658 37.4761C2.76698 34.0792 4.73765 30.7013 6.69069 27.3153C11.326 19.2859 15.9596 11.2547 20.5913 3.22176C21.6404 1.40102 23.1605 0.262383 25.2656 0.042264C27.9189 -0.229488 29.9642 0.811321 31.3147 3.10491C33.1374 6.19472 34.9072 9.31579 36.7001 12.4233C41.4096 20.5885 46.1219 28.7515 50.8369 36.9122C51.3728 37.8118 51.7653 38.7896 52 39.8104V41.3349C51.9661 41.445 51.9226 41.5523 51.8982 41.6651C51.3485 44.1109 49.9085 45.7414 47.4913 46.4738C47.1072 46.5893 46.7041 46.6422 46.3105 46.7238H5.67413ZM25.9659 43.6489H27.0313C33.212 43.6489 39.3919 43.6489 45.5709 43.6489C46.7489 43.6489 47.7424 43.2915 48.4088 42.2793C49.1824 41.1039 49.063 39.9381 48.3735 38.7465C44.0992 31.363 39.8353 23.975 35.5818 16.5824C33.3243 12.6701 31.0681 8.75553 28.8133 4.83868C28.3858 4.09408 27.8483 3.49487 27.015 3.20817C25.499 2.68505 24.0712 3.28834 23.1768 4.83868C18.4238 13.0818 13.6736 21.3213 8.92602 29.5572C7.13721 32.6516 5.35021 35.7445 3.56502 38.8362C3.15786 39.5305 2.92984 40.2561 3.08457 41.0659C3.39401 42.6815 4.61008 43.6475 6.35953 43.6475C12.895 43.6503 19.4304 43.6507 25.9659 43.6489Z" fill="#E4E4E4"/>
<path d="M27.48 30.4351H24.4941V15.2441H27.48V30.4351Z" fill="#E4E4E4"/>
<path d="M25.9811 37.5699C25.5777 37.5699 25.1835 37.45 24.8484 37.2253C24.5132 37.0006 24.2523 36.6813 24.0987 36.3079C23.9451 35.9346 23.9058 35.5239 23.9856 35.1281C24.0655 34.7323 24.261 34.3692 24.5474 34.0848C24.8337 33.8005 25.198 33.6076 25.594 33.5308C25.99 33.4541 26.3998 33.4968 26.7715 33.6535C27.1432 33.8103 27.46 34.0741 27.6817 34.4114C27.9035 34.7487 28.0201 35.1443 28.0169 35.5481C28.0126 36.0858 27.7962 36.6 27.4149 36.9787C27.0336 37.3575 26.5182 37.5699 25.9811 37.5699Z" fill="#E4E4E4"/>
</svg>
