<svg width="200" height="200" viewBox="0 0 40 40" fill="none" xmlns="http://www.w3.org/2000/svg">
<path d="M17.1493 6.43319L3.03264 29.9999C2.74158 30.5039 2.58758 31.0753 2.58595 31.6574C2.58432 32.2394 2.73512 32.8117 3.02335 33.3174C3.31157 33.8231 3.72718 34.2444 4.22882 34.5396C4.73045 34.8348 5.30063 34.9935 5.88264 34.9999H34.116C34.698 34.9935 35.2682 34.8348 35.7698 34.5396C36.2714 34.2444 36.687 33.8231 36.9753 33.3174C37.2635 32.8117 37.4143 32.2394 37.4127 31.6574C37.411 31.0753 37.257 30.5039 36.966 29.9999L22.8493 6.43319C22.5522 5.94336 22.1338 5.53839 21.6346 5.25733C21.1354 4.97627 20.5722 4.82861 19.9993 4.82861C19.4264 4.82861 18.8632 4.97627 18.364 5.25733C17.8648 5.53839 17.4464 5.94336 17.1493 6.43319V6.43319Z" stroke="#858585" stroke-width="2" stroke-linecap="round" stroke-linejoin="round"/>
<path d="M20 15V21.6667" stroke="#858585" stroke-width="2" stroke-linecap="round" stroke-linejoin="round"/>
<path d="M20 28.3335H20.0167" stroke="#858585" stroke-width="2" stroke-linecap="round" stroke-linejoin="round"/>
</svg>
