<svg width="16" height="16" viewBox="0 0 16 16" fill="none" xmlns="http://www.w3.org/2000/svg">
<path d="M8 7.69238C7.0375 7.69238 6.21358 7.34972 5.52825 6.66438C4.84275 5.97888 4.5 5.15488 4.5 4.19238C4.5 3.22988 4.84275 2.40597 5.52825 1.72063C6.21358 1.03513 7.0375 0.692383 8 0.692383C8.9625 0.692383 9.78642 1.03513 10.4718 1.72063C11.1573 2.40597 11.5 3.22988 11.5 4.19238C11.5 5.15488 11.1573 5.97888 10.4718 6.66438C9.78642 7.34972 8.9625 7.69238 8 7.69238ZM0.5 13.7886V13.0846C0.5 12.595 0.633 12.1415 0.899 11.7241C1.165 11.3068 1.5205 10.986 1.9655 10.7616C2.95383 10.2771 3.95092 9.91372 4.95675 9.67138C5.96258 9.42905 6.977 9.30788 8 9.30788C9.023 9.30788 10.0374 9.42905 11.0433 9.67138C12.0491 9.91372 13.0462 10.2771 14.0345 10.7616C14.4795 10.986 14.835 11.3068 15.101 11.7241C15.367 12.1415 15.5 12.595 15.5 13.0846V13.7886C15.5 14.2103 15.3523 14.569 15.0568 14.8646C14.7613 15.1601 14.4026 15.3079 13.9808 15.3079H2.01925C1.59742 15.3079 1.23875 15.1601 0.94325 14.8646C0.64775 14.569 0.5 14.2103 0.5 13.7886ZM2 13.8079H14V13.0846C14 12.8821 13.9413 12.6946 13.824 12.5221C13.7067 12.3498 13.5474 12.2091 13.3462 12.1001C12.4846 11.6758 11.6061 11.3543 10.7107 11.1356C9.81525 10.9171 8.91167 10.8079 8 10.8079C7.08833 10.8079 6.18475 10.9171 5.28925 11.1356C4.39392 11.3543 3.51542 11.6758 2.65375 12.1001C2.45258 12.2091 2.29333 12.3498 2.176 12.5221C2.05867 12.6946 2 12.8821 2 13.0846V13.8079ZM8 6.19238C8.55 6.19238 9.02083 5.99655 9.4125 5.60488C9.80417 5.21322 10 4.74238 10 4.19238C10 3.64238 9.80417 3.17155 9.4125 2.77988C9.02083 2.38822 8.55 2.19238 8 2.19238C7.45 2.19238 6.97917 2.38822 6.5875 2.77988C6.19583 3.17155 6 3.64238 6 4.19238C6 4.74238 6.19583 5.21322 6.5875 5.60488C6.97917 5.99655 7.45 6.19238 8 6.19238Z" fill="#4B4B4B"/>
</svg>
