<svg width="34" height="34" viewBox="0 0 34 34" fill="none" xmlns="http://www.w3.org/2000/svg">
<path d="M15.8154 22.483C15.7437 22.5622 15.6769 22.6457 15.6154 22.733C15.5523 22.8259 15.5019 22.9268 15.4654 23.033C15.4173 23.1275 15.3836 23.2286 15.3654 23.333C15.3572 23.444 15.3572 23.5554 15.3654 23.6663C15.3597 23.885 15.4054 24.1019 15.4987 24.2997C15.5736 24.5065 15.693 24.6943 15.8485 24.8499C16.004 25.0054 16.1919 25.1248 16.3987 25.1997C16.5982 25.2879 16.8139 25.3334 17.032 25.3334C17.2502 25.3334 17.4659 25.2879 17.6654 25.1997C17.8722 25.1248 18.06 25.0054 18.2156 24.8499C18.3711 24.6943 18.4905 24.5065 18.5654 24.2997C18.6394 24.097 18.6733 23.8819 18.6654 23.6663C18.6666 23.447 18.6246 23.2296 18.5417 23.0265C18.4587 22.8234 18.3365 22.6387 18.182 22.483C18.0271 22.3268 17.8428 22.2028 17.6397 22.1182C17.4366 22.0336 17.2187 21.99 16.9987 21.99C16.7787 21.99 16.5608 22.0336 16.3577 22.1182C16.1546 22.2028 15.9703 22.3268 15.8154 22.483ZM16.9987 0.333008C13.7024 0.333008 10.48 1.31049 7.7392 3.14185C4.99838 4.9732 2.86217 7.57618 1.60071 10.6216C0.339253 13.6671 0.00919708 17.0182 0.652284 20.2512C1.29537 23.4842 2.88272 26.4539 5.21359 28.7848C7.54447 31.1157 10.5142 32.703 13.7472 33.3461C16.9802 33.9892 20.3313 33.6591 23.3768 32.3977C26.4222 31.1362 29.0252 29 30.8565 26.2592C32.6879 23.5184 33.6654 20.296 33.6654 16.9997C33.6654 14.811 33.2343 12.6437 32.3967 10.6216C31.5591 8.59952 30.3315 6.7622 28.7838 5.21456C27.2362 3.66692 25.3989 2.43926 23.3768 1.60168C21.3547 0.764104 19.1874 0.333008 16.9987 0.333008V0.333008ZM16.9987 30.333C14.3616 30.333 11.7838 29.551 9.5911 28.0859C7.39845 26.6209 5.68948 24.5385 4.68031 22.1021C3.67114 19.6658 3.4071 16.9849 3.92157 14.3985C4.43604 11.8121 5.70591 9.43628 7.57061 7.57158C9.43531 5.70688 11.8111 4.43701 14.3975 3.92254C16.9839 3.40807 19.6648 3.67211 22.1012 4.68128C24.5375 5.69045 26.6199 7.39942 28.085 9.59207C29.55 11.7847 30.332 14.3626 30.332 16.9997C30.332 20.5359 28.9273 23.9273 26.4268 26.4278C23.9263 28.9283 20.5349 30.333 16.9987 30.333V30.333ZM16.9987 8.66634C16.1205 8.66578 15.2576 8.89654 14.4969 9.33541C13.7362 9.77428 13.1045 10.4058 12.6654 11.1663C12.5448 11.356 12.4638 11.5682 12.4273 11.79C12.3908 12.0118 12.3996 12.2387 12.4531 12.457C12.5066 12.6753 12.6037 12.8806 12.7385 13.0604C12.8734 13.2402 13.0432 13.3909 13.2378 13.5034C13.4324 13.6159 13.6478 13.6879 13.8709 13.715C14.0941 13.7421 14.3204 13.7238 14.5363 13.6611C14.7521 13.5985 14.9531 13.4929 15.1271 13.3505C15.3011 13.2082 15.4445 13.0322 15.5487 12.833C15.6955 12.5787 15.907 12.3676 16.1616 12.2213C16.4162 12.075 16.705 11.9985 16.9987 11.9997C17.4407 11.9997 17.8647 12.1753 18.1772 12.4878C18.4898 12.8004 18.6654 13.2243 18.6654 13.6663C18.6654 14.1084 18.4898 14.5323 18.1772 14.8449C17.8647 15.1574 17.4407 15.333 16.9987 15.333C16.5567 15.333 16.1328 15.5086 15.8202 15.8212C15.5076 16.1337 15.332 16.5576 15.332 16.9997V18.6663C15.332 19.1084 15.5076 19.5323 15.8202 19.8449C16.1328 20.1574 16.5567 20.333 16.9987 20.333C17.4407 20.333 17.8647 20.1574 18.1772 19.8449C18.4898 19.5323 18.6654 19.1084 18.6654 18.6663V18.3663C19.7677 17.9664 20.6943 17.1917 21.2833 16.1778C21.8723 15.1639 22.0863 13.9752 21.8877 12.8195C21.6891 11.6638 21.0907 10.6147 20.197 9.85553C19.3033 9.09636 18.1713 8.67544 16.9987 8.66634V8.66634Z" fill="#727272"/>
</svg>
