<svg width="20" height="20" viewBox="0 0 20 20" fill="none" xmlns="http://www.w3.org/2000/svg">
<mask id="mask0_829_2015" style="mask-type:alpha" maskUnits="userSpaceOnUse" x="0" y="0" width="20" height="20">
<rect width="20" height="20" fill="#D9D9D9"/>
</mask>
<g mask="url(#mask0_829_2015)">
<path d="M9.0776 17.9168C8.79344 17.9168 8.54802 17.8225 8.34135 17.6339C8.13455 17.4454 8.00871 17.2134 7.96385 16.9377L7.76031 15.3783C7.53712 15.3036 7.30823 15.1989 7.07364 15.0643C6.8392 14.9296 6.62955 14.7854 6.44469 14.6316L5.00073 15.2454C4.73892 15.3608 4.47587 15.372 4.21156 15.2789C3.94712 15.186 3.7417 15.0172 3.59531 14.7727L2.65614 13.1443C2.50976 12.8997 2.4676 12.6409 2.52969 12.3679C2.59163 12.095 2.73371 11.8698 2.95594 11.6925L4.20427 10.755C4.1851 10.6311 4.17149 10.5066 4.16344 10.3816C4.15538 10.2566 4.15135 10.1321 4.15135 10.0081C4.15135 9.88961 4.15538 9.76919 4.16344 9.64683C4.17149 9.52447 4.1851 9.39065 4.20427 9.24537L2.95594 8.30787C2.73371 8.13051 2.59295 7.90398 2.53364 7.62829C2.47434 7.35273 2.51788 7.09259 2.66427 6.84787L3.59531 5.2437C3.7417 5.0044 3.94712 4.83697 4.21156 4.74141C4.47587 4.64572 4.73892 4.65558 5.00073 4.771L6.43656 5.37683C6.63753 5.21766 6.85205 5.07211 7.0801 4.94016C7.30816 4.80822 7.53226 4.70218 7.75239 4.62204L7.96385 3.06266C8.00871 2.78697 8.13455 2.55489 8.34135 2.36641C8.54802 2.1778 8.79344 2.0835 9.0776 2.0835H10.9239C11.208 2.0835 11.4534 2.1778 11.6601 2.36641C11.8669 2.55489 11.9927 2.78697 12.0376 3.06266L12.2411 4.62995C12.4911 4.72079 12.7173 4.82683 12.9197 4.94808C13.1222 5.06933 13.3266 5.21225 13.5328 5.37683L15.0089 4.771C15.2705 4.65558 15.5336 4.64572 15.798 4.74141C16.0625 4.83697 16.2678 5.0044 16.4141 5.2437L17.3453 6.856C17.4917 7.10058 17.5339 7.3594 17.4718 7.63245C17.4098 7.90537 17.2677 8.13051 17.0455 8.30787L15.7651 9.26933C15.795 9.40391 15.8113 9.52975 15.8141 9.64683C15.8167 9.76377 15.818 9.88155 15.818 10.0002C15.818 10.1134 15.8153 10.2285 15.8099 10.3456C15.8046 10.4625 15.7855 10.5963 15.7524 10.747L17.0086 11.6925C17.2309 11.8698 17.3743 12.095 17.4391 12.3679C17.5036 12.6409 17.4627 12.8997 17.3164 13.1443L16.3724 14.7645C16.2261 15.0093 16.0195 15.1781 15.7524 15.271C15.4853 15.3639 15.2209 15.3527 14.9591 15.2372L13.5328 14.6235C13.3266 14.7881 13.1161 14.9336 12.9014 15.0602C12.6866 15.1868 12.4666 15.2902 12.2411 15.3704L12.0376 16.9377C11.9927 17.2134 11.8669 17.4454 11.6601 17.6339C11.4534 17.8225 11.208 17.9168 10.9239 17.9168H9.0776ZM9.16739 16.6668H10.8053L11.1049 14.4345C11.5302 14.3234 11.9188 14.1656 12.2707 13.961C12.6228 13.7563 12.9623 13.4931 13.2893 13.1716L15.3597 14.0418L16.1803 12.6252L14.3726 11.2631C14.442 11.0472 14.4893 10.8356 14.5143 10.6283C14.5394 10.4211 14.552 10.2117 14.552 10.0002C14.552 9.78322 14.5394 9.57384 14.5143 9.37204C14.4893 9.17009 14.442 8.96384 14.3726 8.75329L16.1961 7.37516L15.3757 5.9585L13.2811 6.84141C13.0023 6.54336 12.6682 6.28002 12.2789 6.05141C11.8894 5.8228 11.4955 5.66093 11.097 5.56579L10.8341 3.3335H9.18031L8.90448 5.55787C8.47934 5.65829 8.08677 5.81211 7.72677 6.01933C7.36663 6.22669 7.02309 6.49377 6.69614 6.82058L4.62573 5.9585L3.80531 7.37516L5.60489 8.71641C5.53545 8.91419 5.48684 9.11988 5.45906 9.3335C5.43128 9.54711 5.41739 9.77197 5.41739 10.0081C5.41739 10.225 5.43128 10.4377 5.45906 10.646C5.48684 10.8543 5.53281 11.06 5.59698 11.2631L3.80531 12.6252L4.62573 14.0418L6.68823 13.1668C7.00448 13.4916 7.3426 13.7576 7.7026 13.965C8.06274 14.1722 8.46073 14.3313 8.89656 14.4425L9.16739 16.6668ZM10.0103 12.5002C10.7036 12.5002 11.2936 12.2568 11.7803 11.7702C12.267 11.2835 12.5103 10.6935 12.5103 10.0002C12.5103 9.30683 12.267 8.71683 11.7803 8.23016C11.2936 7.7435 10.7036 7.50016 10.0103 7.50016C9.30837 7.50016 8.71621 7.7435 8.23385 8.23016C7.75149 8.71683 7.51031 9.30683 7.51031 10.0002C7.51031 10.6935 7.75149 11.2835 8.23385 11.7702C8.71621 12.2568 9.30837 12.5002 10.0103 12.5002Z" fill="#8E8E8E"/>
<path d="M9.0776 17.9168C8.79344 17.9168 8.54802 17.8225 8.34135 17.6339C8.13455 17.4454 8.00871 17.2134 7.96385 16.9377L7.76031 15.3783C7.53712 15.3036 7.30823 15.1989 7.07364 15.0643C6.8392 14.9296 6.62955 14.7854 6.44469 14.6316L5.00073 15.2454C4.73892 15.3608 4.47587 15.372 4.21156 15.2789C3.94712 15.186 3.7417 15.0172 3.59531 14.7727L2.65614 13.1443C2.50976 12.8997 2.4676 12.6409 2.52969 12.3679C2.59163 12.095 2.73371 11.8698 2.95594 11.6925L4.20427 10.755C4.1851 10.6311 4.17149 10.5066 4.16344 10.3816C4.15538 10.2566 4.15135 10.1321 4.15135 10.0081C4.15135 9.88961 4.15538 9.76919 4.16344 9.64683C4.17149 9.52447 4.1851 9.39065 4.20427 9.24537L2.95594 8.30787C2.73371 8.13051 2.59295 7.90398 2.53364 7.62829C2.47434 7.35273 2.51788 7.09259 2.66427 6.84787L3.59531 5.2437C3.7417 5.0044 3.94712 4.83697 4.21156 4.74141C4.47587 4.64572 4.73892 4.65558 5.00073 4.771L6.43656 5.37683C6.63753 5.21766 6.85205 5.07211 7.0801 4.94016C7.30816 4.80822 7.53226 4.70218 7.75239 4.62204L7.96385 3.06266C8.00871 2.78697 8.13455 2.55489 8.34135 2.36641C8.54802 2.1778 8.79344 2.0835 9.0776 2.0835H10.9239C11.208 2.0835 11.4534 2.1778 11.6601 2.36641C11.8669 2.55489 11.9927 2.78697 12.0376 3.06266L12.2411 4.62995C12.4911 4.72079 12.7173 4.82683 12.9197 4.94808C13.1222 5.06933 13.3266 5.21225 13.5328 5.37683L15.0089 4.771C15.2705 4.65558 15.5336 4.64572 15.798 4.74141C16.0625 4.83697 16.2678 5.0044 16.4141 5.2437L17.3453 6.856C17.4917 7.10058 17.5339 7.3594 17.4718 7.63245C17.4098 7.90537 17.2677 8.13051 17.0455 8.30787L15.7651 9.26933C15.795 9.40391 15.8113 9.52975 15.8141 9.64683C15.8167 9.76377 15.818 9.88155 15.818 10.0002C15.818 10.1134 15.8153 10.2285 15.8099 10.3456C15.8046 10.4625 15.7855 10.5963 15.7524 10.747L17.0086 11.6925C17.2309 11.8698 17.3743 12.095 17.4391 12.3679C17.5036 12.6409 17.4627 12.8997 17.3164 13.1443L16.3724 14.7645C16.2261 15.0093 16.0195 15.1781 15.7524 15.271C15.4853 15.3639 15.2209 15.3527 14.9591 15.2372L13.5328 14.6235C13.3266 14.7881 13.1161 14.9336 12.9014 15.0602C12.6866 15.1868 12.4666 15.2902 12.2411 15.3704L12.0376 16.9377C11.9927 17.2134 11.8669 17.4454 11.6601 17.6339C11.4534 17.8225 11.208 17.9168 10.9239 17.9168H9.0776ZM9.16739 16.6668H10.8053L11.1049 14.4345C11.5302 14.3234 11.9188 14.1656 12.2707 13.961C12.6228 13.7563 12.9623 13.4931 13.2893 13.1716L15.3597 14.0418L16.1803 12.6252L14.3726 11.2631C14.442 11.0472 14.4893 10.8356 14.5143 10.6283C14.5394 10.4211 14.552 10.2117 14.552 10.0002C14.552 9.78322 14.5394 9.57384 14.5143 9.37204C14.4893 9.17009 14.442 8.96384 14.3726 8.75329L16.1961 7.37516L15.3757 5.9585L13.2811 6.84141C13.0023 6.54336 12.6682 6.28002 12.2789 6.05141C11.8894 5.8228 11.4955 5.66093 11.097 5.56579L10.8341 3.3335H9.18031L8.90448 5.55787C8.47934 5.65829 8.08677 5.81211 7.72677 6.01933C7.36663 6.22669 7.02309 6.49377 6.69614 6.82058L4.62573 5.9585L3.80531 7.37516L5.60489 8.71641C5.53545 8.91419 5.48684 9.11988 5.45906 9.3335C5.43128 9.54711 5.41739 9.77197 5.41739 10.0081C5.41739 10.225 5.43128 10.4377 5.45906 10.646C5.48684 10.8543 5.53281 11.06 5.59698 11.2631L3.80531 12.6252L4.62573 14.0418L6.68823 13.1668C7.00448 13.4916 7.3426 13.7576 7.7026 13.965C8.06274 14.1722 8.46073 14.3313 8.89656 14.4425L9.16739 16.6668ZM10.0103 12.5002C10.7036 12.5002 11.2936 12.2568 11.7803 11.7702C12.267 11.2835 12.5103 10.6935 12.5103 10.0002C12.5103 9.30683 12.267 8.71683 11.7803 8.23016C11.2936 7.7435 10.7036 7.50016 10.0103 7.50016C9.30837 7.50016 8.71621 7.7435 8.23385 8.23016C7.75149 8.71683 7.51031 9.30683 7.51031 10.0002C7.51031 10.6935 7.75149 11.2835 8.23385 11.7702C8.71621 12.2568 9.30837 12.5002 10.0103 12.5002Z" fill="black" fill-opacity="0.2"/>
</g>
</svg>
