<svg width="20" height="20" viewBox="0 0 20 20" fill="none" xmlns="http://www.w3.org/2000/svg">
<mask id="mask0_505_1313" style="mask-type:alpha" maskUnits="userSpaceOnUse" x="0" y="0" width="20" height="20">
<rect width="20" height="20" fill="#D9D9D9"/>
</mask>
<g mask="url(#mask0_505_1313)">
<path d="M9.99935 13.5C10.9716 13.5 11.798 13.1597 12.4785 12.4792C13.1591 11.7986 13.4993 10.9722 13.4993 10C13.4993 9.02778 13.1591 8.20139 12.4785 7.52083C11.798 6.84028 10.9716 6.5 9.99935 6.5C9.02713 6.5 8.20074 6.84028 7.52018 7.52083C6.83963 8.20139 6.49935 9.02778 6.49935 10C6.49935 10.9722 6.83963 11.7986 7.52018 12.4792C8.20074 13.1597 9.02713 13.5 9.99935 13.5ZM9.99935 12C9.44379 12 8.97157 11.8056 8.58268 11.4167C8.19379 11.0278 7.99935 10.5556 7.99935 10C7.99935 9.44444 8.19379 8.97222 8.58268 8.58333C8.97157 8.19444 9.44379 8 9.99935 8C10.5549 8 11.0271 8.19444 11.416 8.58333C11.8049 8.97222 11.9993 9.44444 11.9993 10C11.9993 10.5556 11.8049 11.0278 11.416 11.4167C11.0271 11.8056 10.5549 12 9.99935 12ZM9.99935 16C8.19379 16 6.53407 15.5174 5.02018 14.5521C3.50629 13.5868 2.3049 12.3125 1.41602 10.7292C1.34657 10.6181 1.29796 10.5016 1.27018 10.3798C1.2424 10.258 1.22852 10.133 1.22852 10.0048C1.22852 9.8766 1.2424 9.75 1.27018 9.625C1.29796 9.5 1.34657 9.38194 1.41602 9.27083C2.3049 7.6875 3.50629 6.41319 5.02018 5.44792C6.53407 4.48264 8.19379 4 9.99935 4C11.8049 4 13.4646 4.48264 14.9785 5.44792C16.4924 6.41319 17.6938 7.6875 18.5827 9.27083C18.6521 9.38194 18.7007 9.4984 18.7285 9.62021C18.7563 9.74201 18.7702 9.86701 18.7702 9.99521C18.7702 10.1234 18.7563 10.25 18.7285 10.375C18.7007 10.5 18.6521 10.6181 18.5827 10.7292C17.6938 12.3125 16.4924 13.5868 14.9785 14.5521C13.4646 15.5174 11.8049 16 9.99935 16ZM9.99935 14.5C11.5549 14.5 12.9924 14.0972 14.3118 13.2917C15.6313 12.4861 16.6452 11.3889 17.3535 10C16.6452 8.61111 15.6313 7.51389 14.3118 6.70833C12.9924 5.90278 11.5549 5.5 9.99935 5.5C8.44379 5.5 7.00629 5.90278 5.68685 6.70833C4.3674 7.51389 3.35352 8.61111 2.64518 10C3.35352 11.3889 4.3674 12.4861 5.68685 13.2917C7.00629 14.0972 8.44379 14.5 9.99935 14.5Z" fill="#8E8E8E"/>
<path d="M9.99935 13.5C10.9716 13.5 11.798 13.1597 12.4785 12.4792C13.1591 11.7986 13.4993 10.9722 13.4993 10C13.4993 9.02778 13.1591 8.20139 12.4785 7.52083C11.798 6.84028 10.9716 6.5 9.99935 6.5C9.02713 6.5 8.20074 6.84028 7.52018 7.52083C6.83963 8.20139 6.49935 9.02778 6.49935 10C6.49935 10.9722 6.83963 11.7986 7.52018 12.4792C8.20074 13.1597 9.02713 13.5 9.99935 13.5ZM9.99935 12C9.44379 12 8.97157 11.8056 8.58268 11.4167C8.19379 11.0278 7.99935 10.5556 7.99935 10C7.99935 9.44444 8.19379 8.97222 8.58268 8.58333C8.97157 8.19444 9.44379 8 9.99935 8C10.5549 8 11.0271 8.19444 11.416 8.58333C11.8049 8.97222 11.9993 9.44444 11.9993 10C11.9993 10.5556 11.8049 11.0278 11.416 11.4167C11.0271 11.8056 10.5549 12 9.99935 12ZM9.99935 16C8.19379 16 6.53407 15.5174 5.02018 14.5521C3.50629 13.5868 2.3049 12.3125 1.41602 10.7292C1.34657 10.6181 1.29796 10.5016 1.27018 10.3798C1.2424 10.258 1.22852 10.133 1.22852 10.0048C1.22852 9.8766 1.2424 9.75 1.27018 9.625C1.29796 9.5 1.34657 9.38194 1.41602 9.27083C2.3049 7.6875 3.50629 6.41319 5.02018 5.44792C6.53407 4.48264 8.19379 4 9.99935 4C11.8049 4 13.4646 4.48264 14.9785 5.44792C16.4924 6.41319 17.6938 7.6875 18.5827 9.27083C18.6521 9.38194 18.7007 9.4984 18.7285 9.62021C18.7563 9.74201 18.7702 9.86701 18.7702 9.99521C18.7702 10.1234 18.7563 10.25 18.7285 10.375C18.7007 10.5 18.6521 10.6181 18.5827 10.7292C17.6938 12.3125 16.4924 13.5868 14.9785 14.5521C13.4646 15.5174 11.8049 16 9.99935 16ZM9.99935 14.5C11.5549 14.5 12.9924 14.0972 14.3118 13.2917C15.6313 12.4861 16.6452 11.3889 17.3535 10C16.6452 8.61111 15.6313 7.51389 14.3118 6.70833C12.9924 5.90278 11.5549 5.5 9.99935 5.5C8.44379 5.5 7.00629 5.90278 5.68685 6.70833C4.3674 7.51389 3.35352 8.61111 2.64518 10C3.35352 11.3889 4.3674 12.4861 5.68685 13.2917C7.00629 14.0972 8.44379 14.5 9.99935 14.5Z" fill="black" fill-opacity="0.2"/>
</g>
</svg>
