<svg width="17" height="16" viewBox="0 0 17 16" fill="none" xmlns="http://www.w3.org/2000/svg">
<mask id="mask0_18099_24844" style="mask-type:alpha" maskUnits="userSpaceOnUse" x="0" y="0" width="17" height="16">
<rect x="0.125" y="16" width="16" height="16" transform="rotate(-90 0.125 16)" fill="#D9D9D9"/>
</mask>
<g mask="url(#mask0_18099_24844)">
<path d="M8.12455 9.87596L13.1464 4.85416C13.2788 4.72169 13.4348 4.65716 13.6143 4.66058C13.7938 4.664 13.9498 4.73195 14.0822 4.86443C14.2147 4.9969 14.281 5.15288 14.281 5.33236C14.281 5.51185 14.2147 5.66783 14.0822 5.8003L8.97839 10.9144C8.85788 11.0349 8.72284 11.1242 8.57327 11.1823C8.42369 11.2405 8.27412 11.2695 8.12455 11.2695C7.97499 11.2695 7.82541 11.2405 7.67584 11.1823C7.52627 11.1242 7.39123 11.0349 7.27072 10.9144L2.15662 5.8003C2.02414 5.66783 1.95961 5.51014 1.96302 5.32723C1.96644 5.14433 2.03439 4.98664 2.16687 4.85416C2.29935 4.72169 2.45532 4.65545 2.6348 4.65545C2.81429 4.65545 2.97028 4.72169 3.10275 4.85416L8.12455 9.87596Z" fill="#CACACA"/>
</g>
</svg>
