<svg width="17" height="16" viewBox="0 0 17 16" fill="none" xmlns="http://www.w3.org/2000/svg">
<mask id="mask0_18099_24877" style="mask-type:alpha" maskUnits="userSpaceOnUse" x="0" y="0" width="17" height="16">
<rect x="16.125" width="16" height="16" transform="rotate(90 16.125 0)" fill="#D9D9D9"/>
</mask>
<g mask="url(#mask0_18099_24877)">
<path d="M8.12545 6.12404L3.10365 11.1458C2.97117 11.2783 2.81519 11.3428 2.6357 11.3394C2.45622 11.336 2.30024 11.268 2.16776 11.1356C2.03529 11.0031 1.96905 10.8471 1.96905 10.6676C1.96905 10.4881 2.03529 10.3322 2.16776 10.1997L7.27161 5.0856C7.39212 4.96508 7.52716 4.87576 7.67673 4.81765C7.82631 4.75953 7.97588 4.73047 8.12545 4.73047C8.27501 4.73047 8.42459 4.75953 8.57416 4.81765C8.72373 4.87576 8.85877 4.96508 8.97928 5.0856L14.0934 10.1997C14.2259 10.3322 14.2904 10.4899 14.287 10.6728C14.2836 10.8557 14.2156 11.0134 14.0831 11.1458C13.9507 11.2783 13.7947 11.3446 13.6152 11.3446C13.4357 11.3446 13.2797 11.2783 13.1472 11.1458L8.12545 6.12404Z" fill="#6DBBDD"/>
</g>
</svg>
