<svg width="30" height="33" viewBox="0 0 30 33" fill="none" xmlns="http://www.w3.org/2000/svg">
<path d="M3.8469 32.8334C3.00496 32.8334 2.29232 32.5417 1.70898 31.9584C1.12565 31.375 0.833984 30.6624 0.833984 29.8204V7.51294C0.833984 6.671 1.12565 5.95836 1.70898 5.37503C2.29232 4.79169 3.00496 4.50003 3.8469 4.50003H6.1544V2.25628C6.1544 1.891 6.27676 1.586 6.52148 1.34128C6.76621 1.09683 7.07121 0.974609 7.43648 0.974609C7.80204 0.974609 8.10704 1.09683 8.35149 1.34128C8.59621 1.586 8.71857 1.891 8.71857 2.25628V4.50003H21.3469V2.22461C21.3469 1.86989 21.4665 1.5728 21.7057 1.33336C21.9451 1.09419 22.2422 0.974609 22.5969 0.974609C22.9516 0.974609 23.2486 1.09419 23.4877 1.33336C23.7272 1.5728 23.8469 1.86989 23.8469 2.22461V4.50003H26.1544C26.9963 4.50003 27.709 4.79169 28.2923 5.37503C28.8757 5.95836 29.1673 6.671 29.1673 7.51294V29.8204C29.1673 30.6624 28.8757 31.375 28.2923 31.9584C27.709 32.5417 26.9963 32.8334 26.1544 32.8334H3.8469ZM3.8469 30.3334H26.1544C26.2827 30.3334 26.4002 30.2799 26.5069 30.1729C26.6138 30.0663 26.6673 29.9488 26.6673 29.8204V14.1796H3.33398V29.8204C3.33398 29.9488 3.38746 30.0663 3.4944 30.1729C3.60107 30.2799 3.71857 30.3334 3.8469 30.3334ZM3.33398 11.6796H26.6673V7.51294C26.6673 7.38461 26.6138 7.26711 26.5069 7.16044C26.4002 7.0535 26.2827 7.00003 26.1544 7.00003H3.8469C3.71857 7.00003 3.60107 7.0535 3.4944 7.16044C3.38746 7.26711 3.33398 7.38461 3.33398 7.51294V11.6796ZM8.33398 19.9167C7.97926 19.9167 7.68232 19.797 7.44315 19.5575C7.20371 19.3184 7.08398 19.0214 7.08398 18.6667C7.08398 18.312 7.20371 18.015 7.44315 17.7759C7.68232 17.5364 7.97926 17.4167 8.33398 17.4167H21.6673C22.022 17.4167 22.319 17.5364 22.5582 17.7759C22.7976 18.015 22.9173 18.312 22.9173 18.6667C22.9173 19.0214 22.7976 19.3184 22.5582 19.5575C22.319 19.797 22.022 19.9167 21.6673 19.9167H8.33398ZM8.33398 26.5834C7.97926 26.5834 7.68232 26.4636 7.44315 26.2242C7.20371 25.985 7.08398 25.6881 7.08398 25.3334C7.08398 24.9786 7.20371 24.6817 7.44315 24.4425C7.68232 24.2031 7.97926 24.0834 8.33398 24.0834H16.6673C17.022 24.0834 17.319 24.2031 17.5582 24.4425C17.7976 24.6817 17.9173 24.9786 17.9173 25.3334C17.9173 25.6881 17.7976 25.985 17.5582 26.2242C17.319 26.4636 17.022 26.5834 16.6673 26.5834H8.33398Z" fill="#175C8E"/>
</svg>