<svg width="40" height="40" viewBox="0 0 40 40" fill="none" xmlns="http://www.w3.org/2000/svg">
<mask id="mask0_688_3474" style="mask-type:alpha" maskUnits="userSpaceOnUse" x="0" y="0" width="40" height="40">
<rect width="40" height="40" fill="#D9D9D9"/>
</mask>
<g mask="url(#mask0_688_3474)">
<path d="M8.8469 35.8334C8.00496 35.8334 7.29232 35.5417 6.70898 34.9584C6.12565 34.375 5.83398 33.6624 5.83398 32.8204V10.5129C5.83398 9.671 6.12565 8.95836 6.70898 8.37503C7.29232 7.79169 8.00496 7.50003 8.8469 7.50003H11.1544V5.25628C11.1544 4.891 11.2768 4.586 11.5215 4.34128C11.7662 4.09683 12.0712 3.97461 12.4365 3.97461C12.802 3.97461 13.107 4.09683 13.3515 4.34128C13.5962 4.586 13.7186 4.891 13.7186 5.25628V7.50003H26.3469V5.22461C26.3469 4.86989 26.4665 4.5728 26.7057 4.33336C26.9451 4.09419 27.2422 3.97461 27.5969 3.97461C27.9516 3.97461 28.2486 4.09419 28.4877 4.33336C28.7272 4.5728 28.8469 4.86989 28.8469 5.22461V7.50003H31.1544C31.9963 7.50003 32.709 7.79169 33.2923 8.37503C33.8757 8.95836 34.1673 9.671 34.1673 10.5129V32.8204C34.1673 33.6624 33.8757 34.375 33.2923 34.9584C32.709 35.5417 31.9963 35.8334 31.1544 35.8334H8.8469ZM8.8469 33.3334H31.1544C31.2827 33.3334 31.4002 33.2799 31.5069 33.1729C31.6138 33.0663 31.6673 32.9488 31.6673 32.8204V17.1796H8.33398V32.8204C8.33398 32.9488 8.38746 33.0663 8.4944 33.1729C8.60107 33.2799 8.71857 33.3334 8.8469 33.3334ZM8.33398 14.6796H31.6673V10.5129C31.6673 10.3846 31.6138 10.2671 31.5069 10.1604C31.4002 10.0535 31.2827 10 31.1544 10H8.8469C8.71857 10 8.60107 10.0535 8.4944 10.1604C8.38746 10.2671 8.33398 10.3846 8.33398 10.5129V14.6796ZM13.334 22.9167C12.9793 22.9167 12.6823 22.797 12.4432 22.5575C12.2037 22.3184 12.084 22.0214 12.084 21.6667C12.084 21.312 12.2037 21.015 12.4432 20.7759C12.6823 20.5364 12.9793 20.4167 13.334 20.4167H26.6673C27.022 20.4167 27.319 20.5364 27.5582 20.7759C27.7976 21.015 27.9173 21.312 27.9173 21.6667C27.9173 22.0214 27.7976 22.3184 27.5582 22.5575C27.319 22.797 27.022 22.9167 26.6673 22.9167H13.334ZM13.334 29.5834C12.9793 29.5834 12.6823 29.4636 12.4432 29.2242C12.2037 28.985 12.084 28.6881 12.084 28.3334C12.084 27.9786 12.2037 27.6817 12.4432 27.4425C12.6823 27.2031 12.9793 27.0834 13.334 27.0834H21.6673C22.022 27.0834 22.319 27.2031 22.5582 27.4425C22.7976 27.6817 22.9173 27.9786 22.9173 28.3334C22.9173 28.6881 22.7976 28.985 22.5582 29.2242C22.319 29.4636 22.022 29.5834 21.6673 29.5834H13.334Z" fill="#175C8E"/>
</g>
</svg>

