<svg xmlns="http://www.w3.org/2000/svg" width="20" height="20" viewBox="0 0 20 20" fill="none">
  <mask id="mask0_19257_24005" style="mask-type:alpha" maskUnits="userSpaceOnUse" x="0" y="0" width="20" height="20">
    <rect width="20" height="20" transform="matrix(1 0 0 -1 0 20)" fill="#D9D9D9"/>
  </mask>
  <g mask="url(#mask0_19257_24005)">
    <path d="M10.0002 9.21885L7.27603 6.51385C7.15409 6.39302 7.02798 6.33399 6.8977 6.33677C6.76728 6.33941 6.64173 6.40108 6.52103 6.52177C6.40034 6.64247 6.33999 6.76934 6.33999 6.9024C6.33999 7.03545 6.40034 7.16288 6.52103 7.28469L9.21811 10.0009L6.51311 12.7043C6.39228 12.8262 6.33325 12.9537 6.33603 13.0868C6.33867 13.2197 6.40034 13.3465 6.52103 13.4672C6.64173 13.588 6.7686 13.6484 6.90166 13.6484C7.03471 13.6484 7.16214 13.588 7.28395 13.4672L10.0002 10.7622L12.7035 13.4672C12.8255 13.588 12.9516 13.6484 13.0819 13.6484C13.2123 13.6484 13.3378 13.588 13.4585 13.4672C13.5739 13.3519 13.6317 13.2264 13.6317 13.0907C13.6317 12.955 13.5739 12.8262 13.4585 12.7043L10.7614 10.0009L13.4664 7.27677C13.5873 7.15483 13.6477 7.02871 13.6477 6.89844C13.6477 6.76802 13.5873 6.64247 13.4664 6.52177C13.3512 6.40635 13.2257 6.34865 13.09 6.34865C12.9543 6.34865 12.8255 6.40635 12.7035 6.52177L10.0002 9.21885Z" fill="white"/>
  </g>
</svg>