<svg width="10" height="12" viewBox="0 0 10 12" fill="none" xmlns="http://www.w3.org/2000/svg">
<path d="M1.8718 11.6665C1.54039 11.6665 1.25668 11.5485 1.02068 11.3125C0.784672 11.0765 0.666667 10.7928 0.666667 10.4614V1.99987H0.5C0.358333 1.99987 0.239583 1.95193 0.14375 1.85606C0.0479167 1.76019 0 1.64139 0 1.49966C0 1.35793 0.0479167 1.23921 0.14375 1.14349C0.239583 1.04776 0.358333 0.999889 0.5 0.999889H2.99998C2.99998 0.836645 3.05746 0.697545 3.17242 0.58259C3.28737 0.467634 3.42647 0.410156 3.58972 0.410156H6.41025C6.57349 0.410156 6.71259 0.467634 6.82755 0.58259C6.94251 0.697545 6.99998 0.836645 6.99998 0.999889H9.49997C9.64163 0.999889 9.76038 1.04783 9.85622 1.14371C9.95205 1.23958 9.99997 1.35838 9.99997 1.50011C9.99997 1.64184 9.95205 1.76057 9.85622 1.85629C9.76038 1.95201 9.64163 1.99987 9.49997 1.99987H9.3333V10.4614C9.3333 10.7928 9.21529 11.0765 8.97928 11.3125C8.74328 11.5485 8.45958 11.6665 8.12817 11.6665H1.8718ZM8.33332 1.99987H1.66665V10.4614C1.66665 10.5212 1.68588 10.5704 1.72435 10.6088C1.76282 10.6473 1.81197 10.6665 1.8718 10.6665H8.12817C8.188 10.6665 8.23715 10.6473 8.27562 10.6088C8.31408 10.5704 8.33332 10.5212 8.33332 10.4614V1.99987ZM3.76945 9.33321C3.91117 9.33321 4.02989 9.28529 4.12562 9.18946C4.22135 9.09362 4.26922 8.97488 4.26922 8.83322V3.83319C4.26922 3.69153 4.22128 3.57279 4.1254 3.47696C4.02952 3.38112 3.91072 3.33321 3.769 3.33321C3.62727 3.33321 3.50854 3.38112 3.41282 3.47696C3.31709 3.57279 3.26923 3.69153 3.26923 3.83319V8.83322C3.26923 8.97488 3.31717 9.09362 3.41305 9.18946C3.50892 9.28529 3.62772 9.33321 3.76945 9.33321ZM6.23097 9.33321C6.3727 9.33321 6.49143 9.28529 6.58715 9.18946C6.68287 9.09362 6.73073 8.97488 6.73073 8.83322V3.83319C6.73073 3.69153 6.68279 3.57279 6.58692 3.47696C6.49105 3.38112 6.37225 3.33321 6.23052 3.33321C6.08879 3.33321 5.97007 3.38112 5.87435 3.47696C5.77862 3.57279 5.73075 3.69153 5.73075 3.83319V8.83322C5.73075 8.97488 5.77869 9.09362 5.87457 9.18946C5.97044 9.28529 6.08924 9.33321 6.23097 9.33321Z" fill="black"/>
</svg>
