<svg width="16" height="18" viewBox="0 0 16 18" fill="none" xmlns="http://www.w3.org/2000/svg">
<path d="M3.30775 17.5002C2.81058 17.5002 2.385 17.3232 2.031 16.9692C1.677 16.6152 1.5 16.1896 1.5 15.6925V3.00022H1.25C1.0375 3.00022 0.859417 2.92831 0.71575 2.78447C0.571917 2.64064 0.5 2.46247 0.5 2.24997C0.5 2.03731 0.571917 1.85922 0.71575 1.71572C0.859417 1.57206 1.0375 1.50022 1.25 1.50022H5C5 1.25539 5.08625 1.04672 5.25875 0.874223C5.43108 0.70189 5.63967 0.615723 5.8845 0.615723H10.1155C10.3603 0.615723 10.5689 0.70189 10.7413 0.874223C10.9138 1.04672 11 1.25539 11 1.50022H14.75C14.9625 1.50022 15.1406 1.57214 15.2843 1.71597C15.4281 1.85981 15.5 2.03797 15.5 2.25047C15.5 2.46314 15.4281 2.64122 15.2843 2.78472C15.1406 2.92839 14.9625 3.00022 14.75 3.00022H14.5V15.6925C14.5 16.1896 14.323 16.6152 13.969 16.9692C13.615 17.3232 13.1894 17.5002 12.6923 17.5002H3.30775ZM13 3.00022H3V15.6925C3 15.7823 3.02883 15.8561 3.0865 15.9137C3.14417 15.9714 3.21792 16.0002 3.30775 16.0002H12.6923C12.7821 16.0002 12.8558 15.9714 12.9135 15.9137C12.9712 15.8561 13 15.7823 13 15.6925V3.00022ZM6.15425 14.0002C6.36675 14.0002 6.54483 13.9284 6.6885 13.7847C6.832 13.6409 6.90375 13.4627 6.90375 13.2502V5.75022C6.90375 5.53772 6.83183 5.35956 6.688 5.21572C6.54433 5.07206 6.36617 5.00022 6.1535 5.00022C5.941 5.00022 5.76292 5.07206 5.61925 5.21572C5.47575 5.35956 5.404 5.53772 5.404 5.75022V13.2502C5.404 13.4627 5.47583 13.6409 5.6195 13.7847C5.76333 13.9284 5.94158 14.0002 6.15425 14.0002ZM9.8465 14.0002C10.059 14.0002 10.2371 13.9284 10.3807 13.7847C10.5243 13.6409 10.596 13.4627 10.596 13.2502V5.75022C10.596 5.53772 10.5242 5.35956 10.3805 5.21572C10.2367 5.07206 10.0584 5.00022 9.84575 5.00022C9.63325 5.00022 9.45517 5.07206 9.3115 5.21572C9.168 5.35956 9.09625 5.53772 9.09625 5.75022V13.2502C9.09625 13.4627 9.16817 13.6409 9.312 13.7847C9.45567 13.9284 9.63383 14.0002 9.8465 14.0002Z" fill="#4B4B4B"/>
</svg>
