<svg width="20" height="20" viewBox="0 0 20 20" fill="none" xmlns="http://www.w3.org/2000/svg">
<mask id="mask0_1815_2552" style="mask-type:alpha" maskUnits="userSpaceOnUse" x="0" y="0" width="20" height="20">
<rect width="20" height="20" fill="#D9D9D9"/>
</mask>
<g mask="url(#mask0_1815_2552)">
<path d="M6.75581 16.5831C6.38734 16.5831 6.07192 16.4519 5.80956 16.1896C5.5472 15.9272 5.41602 15.6118 5.41602 15.2433V5.49978H4.95768C4.80421 5.49978 4.6756 5.44825 4.57185 5.3452C4.46796 5.24214 4.41602 5.1145 4.41602 4.96228C4.41602 4.80992 4.46796 4.68089 4.57185 4.5752C4.6756 4.46936 4.80421 4.41645 4.95768 4.41645H7.99935V4.16645C7.99935 3.98603 8.06324 3.83193 8.19102 3.70415C8.31865 3.57651 8.47268 3.5127 8.6531 3.5127H11.3456C11.526 3.5127 11.68 3.57651 11.8077 3.70415C11.9355 3.83193 11.9993 3.98603 11.9993 4.16645V4.41645H15.041C15.1945 4.41645 15.3231 4.46797 15.4268 4.57103C15.5307 4.67408 15.5827 4.80172 15.5827 4.95395C15.5827 5.10631 15.5307 5.23533 15.4268 5.34103C15.3231 5.44686 15.1945 5.49978 15.041 5.49978H14.5827V15.2344C14.5827 15.613 14.4515 15.9324 14.1891 16.1927C13.9268 16.453 13.6114 16.5831 13.2429 16.5831H6.75581ZM13.4993 5.49978H6.49935V15.2433C6.49935 15.3182 6.52338 15.3796 6.57143 15.4277C6.61949 15.4758 6.68095 15.4998 6.75581 15.4998H13.2429C13.3178 15.4998 13.3792 15.4758 13.4273 15.4277C13.4753 15.3796 13.4993 15.3182 13.4993 15.2433V5.49978ZM8.87352 13.9998C9.02574 13.9998 9.15477 13.9479 9.2606 13.8442C9.36629 13.7403 9.41914 13.6116 9.41914 13.4581V7.54145C9.41914 7.38797 9.36768 7.25929 9.26477 7.1554C9.16171 7.05165 9.034 6.99978 8.88164 6.99978C8.72942 6.99978 8.60039 7.05165 8.49456 7.1554C8.38886 7.25929 8.33602 7.38797 8.33602 7.54145V13.4581C8.33602 13.6116 8.38747 13.7403 8.49039 13.8442C8.59345 13.9479 8.72115 13.9998 8.87352 13.9998ZM11.1171 13.9998C11.2693 13.9998 11.3983 13.9479 11.5041 13.8442C11.6098 13.7403 11.6627 13.6116 11.6627 13.4581V7.54145C11.6627 7.38797 11.6112 7.25929 11.5083 7.1554C11.4053 7.05165 11.2775 6.99978 11.1252 6.99978C10.973 6.99978 10.8439 7.05165 10.7381 7.1554C10.6324 7.25929 10.5796 7.38797 10.5796 7.54145V13.4581C10.5796 13.6116 10.631 13.7403 10.7339 13.8442C10.837 13.9479 10.9647 13.9998 11.1171 13.9998Z" fill="#727272"/>
</g>
</svg>
