<svg width="12" height="7" viewBox="0 0 12 7" fill="none" xmlns="http://www.w3.org/2000/svg">
<path d="M6.00024 0.338375C6.12074 0.338375 6.23291 0.357625 6.33674 0.396124C6.44058 0.434458 6.53933 0.500457 6.63299 0.594124L11.1272 5.08837C11.2656 5.22687 11.3364 5.40087 11.3397 5.61037C11.3429 5.82004 11.2721 5.99729 11.1272 6.14212C10.9822 6.28696 10.8066 6.35937 10.6002 6.35937C10.3939 6.35937 10.2182 6.28696 10.0732 6.14212L6.00024 2.06912L1.92724 6.14212C1.78874 6.28062 1.61466 6.35146 1.40499 6.35462C1.19549 6.35779 1.01824 6.28696 0.873241 6.14212C0.728408 5.99729 0.655992 5.82171 0.655992 5.61537C0.655992 5.40887 0.728408 5.23321 0.873242 5.08837L5.36749 0.594124C5.46116 0.500457 5.55991 0.434458 5.66374 0.396124C5.76758 0.357625 5.87974 0.338375 6.00024 0.338375Z" fill="#4B4B4B"/>
</svg>
