<svg width="40" height="40" viewBox="0 0 40 40" fill="none" xmlns="http://www.w3.org/2000/svg">
<path d="M14.5173 12.8502L18.334 9.01682V25.0002C18.334 25.4422 18.5096 25.8661 18.8221 26.1787C19.1347 26.4912 19.5586 26.6668 20.0007 26.6668C20.4427 26.6668 20.8666 26.4912 21.1792 26.1787C21.4917 25.8661 21.6673 25.4422 21.6673 25.0002V9.01682L25.484 12.8502C25.6389 13.0064 25.8233 13.1304 26.0264 13.215C26.2295 13.2996 26.4473 13.3432 26.6673 13.3432C26.8873 13.3432 27.1052 13.2996 27.3083 13.215C27.5114 13.1304 27.6957 13.0064 27.8507 12.8502C28.0069 12.6952 28.1309 12.5109 28.2155 12.3078C28.3001 12.1047 28.3436 11.8868 28.3436 11.6668C28.3436 11.4468 28.3001 11.229 28.2155 11.0259C28.1309 10.8228 28.0069 10.6384 27.8507 10.4835L21.184 3.81682C21.0255 3.66509 20.8386 3.54614 20.634 3.46682C20.2282 3.30012 19.7731 3.30012 19.3673 3.46682C19.1627 3.54614 18.9758 3.66509 18.8173 3.81682L12.1507 10.4835C11.9953 10.6389 11.872 10.8234 11.7879 11.0264C11.7038 11.2294 11.6605 11.4471 11.6605 11.6668C11.6605 11.8866 11.7038 12.1042 11.7879 12.3072C11.872 12.5103 11.9953 12.6948 12.1507 12.8502C12.306 13.0056 12.4905 13.1288 12.6936 13.2129C12.8966 13.297 13.1142 13.3403 13.334 13.3403C13.5538 13.3403 13.7714 13.297 13.9744 13.2129C14.1774 13.1288 14.3619 13.0056 14.5173 12.8502ZM35.0007 20.0002C34.5586 20.0002 34.1347 20.1757 33.8221 20.4883C33.5096 20.8009 33.334 21.2248 33.334 21.6668V31.6668C33.334 32.1088 33.1584 32.5328 32.8458 32.8453C32.5333 33.1579 32.1093 33.3335 31.6673 33.3335H8.33398C7.89196 33.3335 7.46803 33.1579 7.15547 32.8453C6.84291 32.5328 6.66732 32.1088 6.66732 31.6668V21.6668C6.66732 21.2248 6.49172 20.8009 6.17916 20.4883C5.8666 20.1757 5.44268 20.0002 5.00065 20.0002C4.55862 20.0002 4.1347 20.1757 3.82214 20.4883C3.50958 20.8009 3.33398 21.2248 3.33398 21.6668V31.6668C3.33398 32.9929 3.86077 34.2647 4.79845 35.2024C5.73613 36.14 7.0079 36.6668 8.33398 36.6668H31.6673C32.9934 36.6668 34.2652 36.14 35.2029 35.2024C36.1405 34.2647 36.6673 32.9929 36.6673 31.6668V21.6668C36.6673 21.2248 36.4917 20.8009 36.1792 20.4883C35.8666 20.1757 35.4427 20.0002 35.0007 20.0002Z" fill="#727272"/>
</svg>
