<svg width="18" height="15" viewBox="0 0 18 15" fill="none" xmlns="http://www.w3.org/2000/svg">
<path d="M1.33175 14.9999C1.18023 14.9999 1.04738 14.9655 0.933213 14.8968C0.819185 14.828 0.730435 14.7374 0.666963 14.6249C0.597518 14.5138 0.566268 14.3888 0.573213 14.2499C0.580157 14.111 0.618351 13.9791 0.687796 13.8541L8.35446 1.06242C8.42391 0.937419 8.51787 0.847141 8.63634 0.791585C8.75467 0.73603 8.8762 0.708252 9.00092 0.708252C9.1255 0.708252 9.24682 0.73603 9.36488 0.791585C9.48293 0.847141 9.57668 0.937419 9.64613 1.06242L17.3128 13.8541C17.3822 13.9791 17.4204 14.111 17.4274 14.2499C17.4343 14.3888 17.4031 14.5138 17.3336 14.6249C17.2642 14.736 17.1739 14.8263 17.0628 14.8958C16.9517 14.9652 16.8204 14.9999 16.6688 14.9999H1.33175ZM2.64613 13.4999H15.3545L9.0003 2.91659L2.64613 13.4999ZM8.99592 12.4999C9.20717 12.4999 9.38571 12.4285 9.53155 12.2855C9.67738 12.1426 9.7503 11.9655 9.7503 11.7543C9.7503 11.543 9.67884 11.3645 9.53592 11.2187C9.393 11.0728 9.21592 10.9999 9.00467 10.9999C8.79342 10.9999 8.61488 11.0714 8.46905 11.2143C8.32321 11.3572 8.2503 11.5343 8.2503 11.7455C8.2503 11.9568 8.32175 12.1353 8.46467 12.2812C8.60759 12.427 8.78467 12.4999 8.99592 12.4999ZM8.99592 9.99992C9.20717 9.99992 9.38571 9.92804 9.53155 9.78429C9.67738 9.64054 9.7503 9.46242 9.7503 9.24992V6.74992C9.7503 6.53742 9.67884 6.35929 9.53592 6.21554C9.393 6.07179 9.21592 5.99992 9.00467 5.99992C8.79342 5.99992 8.61488 6.07179 8.46905 6.21554C8.32321 6.35929 8.2503 6.53742 8.2503 6.74992V9.24992C8.2503 9.46242 8.32175 9.64054 8.46467 9.78429C8.60759 9.92804 8.78467 9.99992 8.99592 9.99992Z" fill="#F7941E"/>
</svg>
