<svg width="11" height="20" viewBox="0 0 11 20" fill="none" xmlns="http://www.w3.org/2000/svg">
<path d="M2.18459 9.99994L9.71729 17.5326C9.91601 17.7314 10.0128 17.9653 10.0077 18.2346C10.0025 18.5038 9.90061 18.7377 9.70189 18.9365C9.50319 19.1352 9.26922 19.2345 8.99999 19.2345C8.73075 19.2345 8.49679 19.1352 8.29809 18.9365L0.626939 11.2807C0.446155 11.0999 0.31218 10.8974 0.225014 10.673C0.13783 10.4486 0.0942383 10.2243 0.0942383 9.99994C0.0942383 9.77559 0.13783 9.55123 0.225014 9.32687C0.31218 9.10252 0.446155 8.89996 0.626939 8.71919L8.29809 1.04804C8.49679 0.849323 8.73332 0.752522 9.00769 0.757639C9.28204 0.762772 9.51857 0.864698 9.71729 1.06341C9.91601 1.26213 10.0154 1.4961 10.0154 1.76531C10.0154 2.03455 9.91601 2.26852 9.71729 2.46724L2.18459 9.99994Z" fill="white"/>
</svg>
