<svg width="32" height="32" viewBox="0 0 32 32" fill="none" xmlns="http://www.w3.org/2000/svg">
<mask id="mask0_5102_18338" style="mask-type:alpha" maskUnits="userSpaceOnUse" x="0" y="0" width="32" height="32">
<rect width="32" height="32" fill="black"/>
</mask>
<g mask="url(#mask0_5102_18338)">
<path d="M25.5897 27.6929L16.0514 18.1542L12.405 21.8006C12.5915 22.1339 12.7244 22.4874 12.8037 22.8609C12.8832 23.2345 12.923 23.6143 12.923 24.0006C12.923 25.3403 12.4461 26.4872 11.4924 27.4412C10.5386 28.3952 9.39202 28.8722 8.05269 28.8722C6.71335 28.8722 5.56635 28.3953 4.61169 27.4416C3.65702 26.4878 3.17969 25.3412 3.17969 24.0019C3.17969 22.6626 3.65669 21.5156 4.61069 20.5609C5.56469 19.6062 6.71158 19.1289 8.05135 19.1289C8.43758 19.1289 8.81747 19.1686 9.19102 19.2479C9.56458 19.3275 9.91802 19.4605 10.2514 19.6469L13.8974 16.0006L10.2514 12.3542C9.91802 12.5407 9.56458 12.6737 9.19102 12.7532C8.81747 12.8326 8.43758 12.8722 8.05135 12.8722C6.71158 12.8722 5.56469 12.3954 4.61069 11.4416C3.65669 10.4878 3.17969 9.34124 3.17969 8.00191C3.17969 6.66257 3.65658 5.51557 4.61035 4.56091C5.56413 3.60624 6.71069 3.12891 8.05002 3.12891C9.38935 3.12891 10.5364 3.60591 11.491 4.55991C12.4457 5.51391 12.923 6.6608 12.923 8.00057C12.923 8.3868 12.8832 8.76668 12.8037 9.14024C12.7244 9.5138 12.5915 9.86724 12.405 10.2006L28.8204 26.6159V27.6929H25.5897ZM19.7437 14.4622L17.5897 12.3082L25.5897 4.30824H28.8204V5.38524L19.7437 14.4622ZM8.05135 10.8722C8.84113 10.8722 9.51724 10.5911 10.0797 10.0289C10.6419 9.46646 10.923 8.79035 10.923 8.00057C10.923 7.2108 10.6419 6.53469 10.0797 5.97224C9.51724 5.41002 8.84113 5.12891 8.05135 5.12891C7.26158 5.12891 6.58547 5.41002 6.02302 5.97224C5.46058 6.53469 5.17935 7.2108 5.17935 8.00057C5.17935 8.79035 5.46058 9.46646 6.02302 10.0289C6.58547 10.5911 7.26158 10.8722 8.05135 10.8722ZM16.0514 16.3339C16.1402 16.3339 16.218 16.3006 16.2847 16.2339C16.3514 16.1672 16.3847 16.0895 16.3847 16.0006C16.3847 15.9117 16.3514 15.8339 16.2847 15.7672C16.218 15.7006 16.1402 15.6672 16.0514 15.6672C15.9625 15.6672 15.8847 15.7006 15.818 15.7672C15.7514 15.8339 15.718 15.9117 15.718 16.0006C15.718 16.0895 15.7514 16.1672 15.818 16.2339C15.8847 16.3006 15.9625 16.3339 16.0514 16.3339ZM8.05135 26.8722C8.84113 26.8722 9.51724 26.5911 10.0797 26.0289C10.6419 25.4665 10.923 24.7903 10.923 24.0006C10.923 23.2108 10.6419 22.5347 10.0797 21.9722C9.51724 21.41 8.84113 21.1289 8.05135 21.1289C7.26158 21.1289 6.58547 21.41 6.02302 21.9722C5.46058 22.5347 5.17935 23.2108 5.17935 24.0006C5.17935 24.7903 5.46058 25.4665 6.02302 26.0289C6.58547 26.5911 7.26158 26.8722 8.05135 26.8722Z" fill="#1C1B1F"/>
</g>
</svg>
