<svg width="32" height="32" viewBox="0 0 32 32" fill="none" xmlns="http://www.w3.org/2000/svg">
<mask id="mask0_9667_21420" style="mask-type:alpha" maskUnits="userSpaceOnUse" x="0" y="0" width="32" height="32">
<rect width="32" height="32" fill="black"/>
</mask>
<g mask="url(#mask0_9667_21420)">
<path d="M9.53119 20.0259C10.2287 20.0259 10.8583 19.8216 11.4199 19.4129C11.9814 19.0045 12.3775 18.4695 12.6082 17.8079L13.0699 16.3643C13.4339 15.2721 13.3385 14.2674 12.7839 13.3503C12.2292 12.4332 11.4391 11.9746 10.4135 11.9746H5.68786L6.32119 17.1953C6.4323 17.9986 6.79086 18.6712 7.39686 19.2129C8.00263 19.7549 8.71408 20.0259 9.53119 20.0259ZM22.4699 20.0259C23.287 20.0259 23.9984 19.7549 24.6042 19.2129C25.2102 18.6712 25.5687 17.9986 25.6799 17.1953L26.3132 11.9746H21.6209C20.5953 11.9746 19.8031 12.4366 19.2442 13.3606C18.6851 14.2844 18.5876 15.2925 18.9519 16.3849L19.3929 17.8079C19.6235 18.4695 20.0196 19.0045 20.5812 19.4129C21.1427 19.8216 21.7723 20.0259 22.4699 20.0259ZM9.53119 22.0259C8.21852 22.0259 7.06775 21.5917 6.07886 20.7233C5.08997 19.8548 4.51519 18.7599 4.35452 17.4386L3.66719 11.9746H2.43652V9.97461H10.4135C11.2886 9.97461 12.0954 10.1986 12.8339 10.6466C13.5723 11.0944 14.1621 11.7081 14.6032 12.4876H17.4312C17.8723 11.7081 18.4621 11.0944 19.2005 10.6466C19.939 10.1986 20.7457 9.97461 21.6209 9.97461H29.5645V11.9746H28.3339L27.6465 17.4386C27.4859 18.7599 26.9111 19.8548 25.9222 20.7233C24.9333 21.5917 23.7825 22.0259 22.4699 22.0259C21.3314 22.0259 20.31 21.7012 19.4055 21.0516C18.5013 20.4021 17.8663 19.5414 17.5005 18.4696L17.0389 17.0463C16.986 16.8652 16.9373 16.6763 16.8929 16.4796C16.8484 16.2832 16.804 15.9952 16.7595 15.6156H15.2415C15.1971 15.9507 15.1526 16.2187 15.1082 16.4196C15.0637 16.6203 15.0151 16.8113 14.9622 16.9926L14.5005 18.4363C14.1432 19.5081 13.5103 20.3743 12.6019 21.0349C11.6932 21.6956 10.6696 22.0259 9.53119 22.0259Z" fill="#1C1B1F"/>
</g>
</svg>
