<svg width="20" height="23" viewBox="0 0 20 23" fill="none" xmlns="http://www.w3.org/2000/svg">
<path d="M0.667969 17.1678C0.669489 17.6572 0.77413 18.1408 0.975069 18.5871C1.17601 19.0333 1.46873 19.4322 1.83417 19.7578V21.834C1.83528 22.1429 1.9585 22.4389 2.17696 22.6574C2.39543 22.8759 2.69141 22.9991 3.00037 23.0002H4.16797C4.47692 22.9991 4.77291 22.8759 4.99137 22.6574C5.20984 22.4389 5.33306 22.1429 5.33417 21.834V20.6678H14.668V21.834C14.6691 22.1429 14.7923 22.4389 15.0108 22.6574C15.2292 22.8759 15.5252 22.9991 15.8342 23.0002H17.0004C17.3096 22.9994 17.6059 22.8764 17.8247 22.6579C18.0434 22.4394 18.1669 22.1432 18.168 21.834V19.7578C18.5334 19.4322 18.8261 19.0333 19.0271 18.5871C19.228 18.1408 19.3326 17.6572 19.3342 17.1678V5.50018C19.3342 1.41778 15.158 0.833984 10.0018 0.833984C4.84557 0.833984 0.667969 1.41778 0.667969 5.50018V17.1678ZM4.75177 18.334C4.40565 18.334 4.06731 18.2313 3.77952 18.0391C3.49173 17.8468 3.26743 17.5735 3.13498 17.2537C3.00253 16.9339 2.96787 16.582 3.03539 16.2426C3.10292 15.9031 3.26959 15.5913 3.51433 15.3465C3.75907 15.1018 4.07089 14.9351 4.41036 14.8676C4.74983 14.8001 5.10169 14.8347 5.42146 14.9672C5.74123 15.0996 6.01455 15.3239 6.20684 15.6117C6.39913 15.8995 6.50177 16.2379 6.50177 16.584C6.50214 16.8139 6.45712 17.0416 6.36931 17.2541C6.28149 17.4666 6.1526 17.6597 5.99003 17.8222C5.82745 17.9848 5.63439 18.1137 5.4219 18.2015C5.20941 18.2893 4.98168 18.3344 4.75177 18.334ZM15.2518 18.334C14.9057 18.334 14.5673 18.2313 14.2795 18.0391C13.9917 17.8468 13.7674 17.5735 13.635 17.2537C13.5025 16.9339 13.4679 16.582 13.5354 16.2426C13.6029 15.9031 13.7696 15.5913 14.0143 15.3465C14.2591 15.1018 14.5709 14.9351 14.9104 14.8676C15.2498 14.8001 15.6017 14.8347 15.9215 14.9672C16.2412 15.0996 16.5145 15.3239 16.7068 15.6117C16.8991 15.8995 17.0018 16.2379 17.0018 16.584C17.0021 16.8139 16.9571 17.0416 16.8693 17.2541C16.7815 17.4666 16.6526 17.6597 16.49 17.8222C16.3274 17.9848 16.1344 18.1137 15.9219 18.2015C15.7094 18.2893 15.4817 18.3344 15.2518 18.334ZM17.0018 11.334H3.00177V5.50018H17.0018V11.334Z" fill="black"/>
</svg>
