<svg width="18" height="18" viewBox="0 0 18 18" fill="none" xmlns="http://www.w3.org/2000/svg">
<path d="M10.9604 3.16406H7.04025C6.93217 3.16406 6.84424 3.24292 6.84424 3.33984V4.92188H11.1564V3.33984C11.1564 3.24292 11.0685 3.16406 10.9604 3.16406Z" fill="#B611F5"/>
<path d="M6.84424 5.97656H11.1564V7.03125H6.84424V5.97656Z" fill="#B611F5"/>
<path d="M12.528 0H5.47175C4.28289 0 3.31567 0.86741 3.31567 1.93359V9.31641C3.31567 10.3826 4.28289 11.25 5.47175 11.25H8.41186V16.9453H6.25578C5.93104 16.9453 5.66776 17.1814 5.66776 17.4727C5.66776 17.7639 5.93104 18 6.25578 18H11.744C12.0687 18 12.332 17.7639 12.332 17.4727C12.332 17.1814 12.0687 16.9453 11.744 16.9453H9.58791V11.25H12.528C13.7169 11.25 14.6841 10.3826 14.6841 9.31641V1.93359C14.6841 0.86741 13.7169 0 12.528 0ZM12.332 7.55859C12.332 7.84983 12.0687 8.08594 11.744 8.08594H11.548V8.61328C11.548 8.90452 11.2847 9.14062 10.96 9.14062C10.6352 9.14062 10.3719 8.90452 10.3719 8.61328V8.08594H7.62783V8.61328C7.62783 8.90452 7.36456 9.14062 7.03981 9.14062C6.71507 9.14062 6.45179 8.90452 6.45179 8.61328V8.08594H6.25578C5.93104 8.08594 5.66776 7.84983 5.66776 7.55859V3.33984C5.66776 2.66136 6.28326 2.10938 7.03981 2.10938H10.96C11.7165 2.10938 12.332 2.66136 12.332 3.33984V7.55859Z" fill="#B611F5"/>
</svg>
