<svg width="32" height="32" viewBox="0 0 32 32" fill="none" xmlns="http://www.w3.org/2000/svg">
<g clip-path="url(#clip0_6952_14348)">
<path d="M5.33203 21.3352C5.33377 21.8945 5.45336 22.4472 5.683 22.9572C5.91265 23.4672 6.24719 23.9231 6.66483 24.2952V26.668C6.6661 27.0211 6.80692 27.3593 7.0566 27.609C7.30627 27.8587 7.64454 27.9995 7.99763 28.0008H9.33203C9.68512 27.9995 10.0234 27.8587 10.2731 27.609C10.5227 27.3593 10.6636 27.0211 10.6648 26.668V25.3352H21.332V26.668C21.3333 27.0211 21.4741 27.3593 21.7238 27.609C21.9735 27.8587 22.3117 27.9995 22.6648 28.0008H23.9976C24.351 27.9999 24.6897 27.8593 24.9397 27.6096C25.1897 27.3598 25.3308 27.0213 25.332 26.668V24.2952C25.7497 23.9231 26.0842 23.4672 26.3139 22.9572C26.5435 22.4472 26.6631 21.8945 26.6648 21.3352V8.00077C26.6648 3.33517 21.892 2.66797 15.9992 2.66797C10.1064 2.66797 5.33203 3.33517 5.33203 8.00077V21.3352ZM9.99923 22.668C9.60367 22.668 9.21699 22.5507 8.88809 22.3309C8.55919 22.1111 8.30285 21.7988 8.15147 21.4333C8.0001 21.0679 7.96049 20.6658 8.03766 20.2778C8.11483 19.8898 8.30531 19.5335 8.58502 19.2538C8.86472 18.9741 9.22109 18.7836 9.60905 18.7064C9.99701 18.6292 10.3991 18.6688 10.7646 18.8202C11.1301 18.9716 11.4424 19.2279 11.6622 19.5568C11.8819 19.8857 11.9992 20.2724 11.9992 20.668C11.9997 20.9307 11.9482 21.191 11.8478 21.4338C11.7475 21.6767 11.6002 21.8973 11.4144 22.0831C11.2286 22.2689 11.0079 22.4162 10.7651 22.5166C10.5223 22.6169 10.262 22.6684 9.99923 22.668ZM21.9992 22.668C21.6037 22.668 21.217 22.5507 20.8881 22.3309C20.5592 22.1111 20.3028 21.7988 20.1515 21.4333C20.0001 21.0679 19.9605 20.6658 20.0377 20.2778C20.1148 19.8898 20.3053 19.5335 20.585 19.2538C20.8647 18.9741 21.2211 18.7836 21.6091 18.7064C21.997 18.6292 22.3991 18.6688 22.7646 18.8202C23.1301 18.9716 23.4424 19.2279 23.6622 19.5568C23.8819 19.8857 23.9992 20.2724 23.9992 20.668C23.9997 20.9307 23.9482 21.191 23.8478 21.4338C23.7475 21.6767 23.6002 21.8973 23.4144 22.0831C23.2286 22.2689 23.0079 22.4162 22.7651 22.5166C22.5223 22.6169 22.262 22.6684 21.9992 22.668ZM23.9992 14.668H7.99923V8.00077H23.9992V14.668Z" fill="black"/>
</g>
<defs>
<clipPath id="clip0_6952_14348">
<rect width="32" height="32" fill="white"/>
</clipPath>
</defs>
</svg>
