<svg width="32" height="32" viewBox="0 0 32 32" fill="none" xmlns="http://www.w3.org/2000/svg">
<rect width="32" height="32" rx="16" fill="#EEEEEE"/>
<mask id="mask0_6801_36181" style="mask-type:alpha" maskUnits="userSpaceOnUse" x="0" y="0" width="32" height="32">
<rect width="32" height="32" fill="#D9D9D9"/>
</mask>
<g mask="url(#mask0_6801_36181)">
<path d="M15.9984 19.5693C15.8377 19.5693 15.6882 19.5437 15.5497 19.4923C15.4113 19.441 15.2796 19.353 15.1547 19.2283L9.16238 13.236C8.97793 13.0513 8.88349 12.8192 8.87904 12.5397C8.87482 12.2603 8.96926 12.024 9.16238 11.8307C9.35571 11.6376 9.58993 11.541 9.86504 11.541C10.1402 11.541 10.3744 11.6376 10.5677 11.8307L15.9984 17.2617L21.429 11.8307C21.6137 11.6462 21.8458 11.5518 22.1254 11.5473C22.4047 11.5431 22.641 11.6376 22.8344 11.8307C23.0275 12.024 23.124 12.2582 23.124 12.5333C23.124 12.8085 23.0275 13.0427 22.8344 13.236L16.842 19.2283C16.7172 19.353 16.5855 19.441 16.447 19.4923C16.3086 19.5437 16.159 19.5693 15.9984 19.5693Z" fill="#727272"/>
</g>
</svg>
