<svg width="24" height="24" viewBox="0 0 24 24" fill="none" xmlns="http://www.w3.org/2000/svg">
<mask id="mask0_7345_8065" style="mask-type:alpha" maskUnits="userSpaceOnUse" x="0" y="0" width="24" height="24">
<rect width="24" height="24" fill="#D9D9D9"/>
</mask>
<g mask="url(#mask0_7345_8065)">
<path d="M10.8008 11.9998L14.7008 15.8998C14.8841 16.0831 14.9758 16.3165 14.9758 16.5998C14.9758 16.8831 14.8841 17.1165 14.7008 17.2998C14.5174 17.4831 14.2841 17.5748 14.0008 17.5748C13.7174 17.5748 13.4841 17.4831 13.3008 17.2998L8.70078 12.6998C8.60078 12.5998 8.52995 12.4915 8.48828 12.3748C8.44661 12.2581 8.42578 12.1331 8.42578 11.9998C8.42578 11.8665 8.44661 11.7415 8.48828 11.6248C8.52995 11.5081 8.60078 11.3998 8.70078 11.2998L13.3008 6.6998C13.4841 6.51647 13.7174 6.4248 14.0008 6.4248C14.2841 6.4248 14.5174 6.51647 14.7008 6.6998C14.8841 6.88314 14.9758 7.11647 14.9758 7.3998C14.9758 7.68314 14.8841 7.91647 14.7008 8.0998L10.8008 11.9998Z" fill="#4B4B4B"/>
</g>
</svg>
