<svg width="24" height="24" viewBox="0 0 24 24" fill="none" xmlns="http://www.w3.org/2000/svg">
<mask id="mask0_7345_8069" style="mask-type:alpha" maskUnits="userSpaceOnUse" x="0" y="0" width="24" height="24">
<rect x="24" y="24" width="24" height="24" transform="rotate(180 24 24)" fill="#D9D9D9"/>
</mask>
<g mask="url(#mask0_7345_8069)">
<path d="M13.1992 12.0002L9.29922 8.10019C9.11589 7.91686 9.02422 7.68353 9.02422 7.4002C9.02422 7.11686 9.11589 6.88353 9.29922 6.7002C9.48255 6.51686 9.71589 6.42519 9.99922 6.42519C10.2826 6.42519 10.5159 6.51686 10.6992 6.7002L15.2992 11.3002C15.3992 11.4002 15.4701 11.5085 15.5117 11.6252C15.5534 11.7419 15.5742 11.8669 15.5742 12.0002C15.5742 12.1335 15.5534 12.2585 15.5117 12.3752C15.4701 12.4919 15.3992 12.6002 15.2992 12.7002L10.6992 17.3002C10.5159 17.4835 10.2826 17.5752 9.99922 17.5752C9.71589 17.5752 9.48255 17.4835 9.29922 17.3002C9.11589 17.1169 9.02422 16.8835 9.02422 16.6002C9.02422 16.3169 9.11589 16.0835 9.29922 15.9002L13.1992 12.0002Z" fill="#4B4B4B"/>
</g>
</svg>
