<svg width="16" height="9" viewBox="0 0 16 9" fill="none" xmlns="http://www.w3.org/2000/svg">
<path d="M7.99837 8.56935C7.83771 8.56935 7.68815 8.54368 7.54971 8.49235C7.41126 8.44102 7.2796 8.35302 7.15471 8.22835L1.16238 2.23602C0.977931 2.05135 0.883486 1.81924 0.879042 1.53968C0.87482 1.26035 0.969264 1.02402 1.16238 0.830682C1.35571 0.637571 1.58993 0.541016 1.86504 0.541016C2.14015 0.541016 2.37437 0.637571 2.56771 0.830682L7.99837 6.26168L13.429 0.830682C13.6137 0.646238 13.8458 0.551793 14.1254 0.547349C14.4047 0.543127 14.641 0.637571 14.8344 0.830682C15.0275 1.02402 15.124 1.25824 15.124 1.53335C15.124 1.80846 15.0275 2.04268 14.8344 2.23602L8.84204 8.22835C8.71715 8.35302 8.58548 8.44102 8.44704 8.49235C8.3086 8.54368 8.15904 8.56935 7.99837 8.56935Z" fill="#4B4B4B"/>
</svg>
