<svg width="32" height="32" viewBox="0 0 32 32" fill="none" xmlns="http://www.w3.org/2000/svg">
<rect x="31.5" y="31.5" width="31" height="31" rx="15.5" transform="rotate(-180 31.5 31.5)" fill="#FAFAFA"/>
<rect x="31.5" y="31.5" width="31" height="31" rx="15.5" transform="rotate(-180 31.5 31.5)" stroke="#E1E1E1"/>
<mask id="mask0_19647_22927" style="mask-type:alpha" maskUnits="userSpaceOnUse" x="6" y="6" width="20" height="20">
<rect x="26" y="26" width="20" height="20" transform="rotate(-180 26 26)" fill="#D9D9D9"/>
</mask>
<g mask="url(#mask0_19647_22927)">
<path d="M18.3548 12.6666L23.5007 12.6666C23.7368 12.6666 23.9347 12.7464 24.0944 12.9062C24.2541 13.0659 24.334 13.2638 24.334 13.4999C24.334 13.736 24.2541 13.9339 24.0944 14.0937C23.9347 14.2534 23.7368 14.3332 23.5007 14.3332L18.3548 14.3332L19.9173 15.8957C20.0701 16.0485 20.1465 16.2395 20.1465 16.4687C20.1465 16.6978 20.0701 16.8957 19.9173 17.0624C19.7507 17.2291 19.5527 17.3124 19.3236 17.3124C19.0944 17.3124 18.8965 17.2291 18.7298 17.0624L15.7507 14.0832C15.6673 13.9999 15.6083 13.9096 15.5736 13.8124C15.5388 13.7152 15.5215 13.611 15.5215 13.4999C15.5215 13.3888 15.5388 13.2846 15.5736 13.1874C15.6083 13.0902 15.6673 12.9999 15.7507 12.9166L18.7507 9.91657C18.9173 9.74991 19.1118 9.67005 19.334 9.67699C19.5562 9.68393 19.7507 9.77074 19.9173 9.93741C20.0701 10.1041 20.15 10.2985 20.1569 10.5207C20.1638 10.743 20.084 10.9374 19.9173 11.1041L18.3548 12.6666ZM13.6465 17.6666L12.084 16.1041C11.9312 15.9513 11.8548 15.7603 11.8548 15.5312C11.8548 15.302 11.9312 15.1041 12.084 14.9374C12.2507 14.7707 12.4486 14.6874 12.6777 14.6874C12.9069 14.6874 13.1048 14.7707 13.2715 14.9374L16.2507 17.9166C16.334 17.9999 16.393 18.0902 16.4277 18.1874C16.4625 18.2846 16.4798 18.3888 16.4798 18.4999C16.4798 18.611 16.4625 18.7152 16.4277 18.8124C16.393 18.9096 16.334 18.9999 16.2507 19.0832L13.2507 22.0832C13.084 22.2499 12.8895 22.3298 12.6673 22.3228C12.4451 22.3159 12.2507 22.2291 12.084 22.0624C11.9312 21.8957 11.8513 21.7013 11.8444 21.4791C11.8375 21.2569 11.9173 21.0624 12.084 20.8957L13.6465 19.3332L8.50065 19.3332C8.26454 19.3332 8.06662 19.2534 7.9069 19.0937C7.74718 18.9339 7.66732 18.736 7.66732 18.4999C7.66732 18.2638 7.74718 18.0659 7.9069 17.9062C8.06662 17.7464 8.26454 17.6666 8.50065 17.6666L13.6465 17.6666Z" fill="#175C8E"/>
</g>
</svg>
