<svg width="41" height="40" viewBox="0 0 41 40" fill="none" xmlns="http://www.w3.org/2000/svg">
<rect x="40" y="39.5" width="39" height="39" rx="15.5" transform="rotate(-180 40 39.5)" fill="#FAFAFA"/>
<rect x="40" y="39.5" width="39" height="39" rx="15.5" transform="rotate(-180 40 39.5)" stroke="#E1E1E1"/>
<mask id="mask0_6558_36457" style="mask-type:alpha" maskUnits="userSpaceOnUse" x="4" y="4" width="33" height="32">
<rect x="36.5" y="36" width="32" height="32" transform="rotate(-180 36.5 36)" fill="#D9D9D9"/>
</mask>
<g mask="url(#mask0_6558_36457)">
<path d="M24.2654 14.6665L32.4987 14.6665C32.8765 14.6665 33.1931 14.7943 33.4487 15.0499C33.7043 15.3054 33.832 15.6221 33.832 15.9999C33.832 16.3776 33.7043 16.6943 33.4487 16.9499C33.1931 17.2054 32.8765 17.3332 32.4987 17.3332L24.2654 17.3332L26.7654 19.8332C27.0098 20.0776 27.132 20.3832 27.132 20.7499C27.132 21.1165 27.0098 21.4332 26.7654 21.6999C26.4987 21.9665 26.182 22.0999 25.8154 22.0999C25.4487 22.0999 25.132 21.9665 24.8654 21.6999L20.0987 16.9332C19.9654 16.7999 19.8709 16.6554 19.8154 16.4999C19.7598 16.3443 19.732 16.1776 19.732 15.9999C19.732 15.8221 19.7598 15.6554 19.8154 15.4999C19.8709 15.3443 19.9654 15.1999 20.0987 15.0665L24.8987 10.2665C25.1654 9.99985 25.4765 9.87208 25.832 9.88319C26.1876 9.8943 26.4987 10.0332 26.7654 10.2999C27.0098 10.5665 27.1376 10.8776 27.1487 11.2332C27.1598 11.5887 27.032 11.8999 26.7654 12.1665L24.2654 14.6665ZM16.732 22.6665L14.232 20.1665C13.9876 19.9221 13.8654 19.6165 13.8654 19.2499C13.8654 18.8832 13.9876 18.5665 14.232 18.2999C14.4987 18.0332 14.8154 17.8999 15.182 17.8999C15.5487 17.8999 15.8654 18.0332 16.132 18.2999L20.8987 23.0665C21.032 23.1999 21.1265 23.3443 21.182 23.4999C21.2376 23.6554 21.2654 23.8221 21.2654 23.9999C21.2654 24.1776 21.2376 24.3443 21.182 24.4999C21.1265 24.6554 21.032 24.7999 20.8987 24.9332L16.0987 29.7332C15.832 29.9999 15.5209 30.1276 15.1654 30.1165C14.8098 30.1054 14.4987 29.9665 14.232 29.6999C13.9876 29.4332 13.8598 29.1221 13.8487 28.7665C13.8376 28.411 13.9654 28.0999 14.232 27.8332L16.732 25.3332L8.4987 25.3332C8.12092 25.3332 7.80425 25.2054 7.5487 24.9499C7.29314 24.6943 7.16536 24.3776 7.16536 23.9999C7.16536 23.6221 7.29314 23.3054 7.5487 23.0499C7.80425 22.7943 8.12092 22.6665 8.4987 22.6665L16.732 22.6665Z" fill="#175C8E"/>
</g>
</svg>
