<svg width="16" height="16" viewBox="0 0 20 19" fill="none" xmlns="http://www.w3.org/2000/svg">
<path d="M10.0003 14.25C10.2129 14.25 10.391 14.1781 10.5345 14.0343C10.6782 13.8906 10.75 13.7125 10.75 13.5V9.25C10.75 9.0375 10.6781 8.85933 10.5343 8.7155C10.3904 8.57183 10.2122 8.5 9.99975 8.5C9.78708 8.5 9.609 8.57183 9.4655 8.7155C9.32183 8.85933 9.25 9.0375 9.25 9.25V13.5C9.25 13.7125 9.32192 13.8906 9.46575 14.0343C9.60958 14.1781 9.78775 14.25 10.0003 14.25ZM10 6.7885C10.2288 6.7885 10.4207 6.71108 10.5755 6.55625C10.7303 6.40142 10.8077 6.20958 10.8077 5.98075C10.8077 5.75192 10.7303 5.56008 10.5755 5.40525C10.4207 5.25058 10.2288 5.17325 10 5.17325C9.77117 5.17325 9.57933 5.25058 9.4245 5.40525C9.26967 5.56008 9.19225 5.75192 9.19225 5.98075C9.19225 6.20958 9.26967 6.40142 9.4245 6.55625C9.57933 6.71108 9.77117 6.7885 10 6.7885ZM10.0017 19C8.68775 19 7.45267 18.7507 6.2965 18.252C5.14033 17.7533 4.13467 17.0766 3.2795 16.2218C2.42433 15.3669 1.74725 14.3617 1.24825 13.206C0.749417 12.0503 0.5 10.8156 0.5 9.50175C0.5 8.18775 0.749333 6.95267 1.248 5.7965C1.74667 4.64033 2.42342 3.63467 3.27825 2.7795C4.13308 1.92433 5.13833 1.24725 6.294 0.74825C7.44967 0.249417 8.68442 0 9.99825 0C11.3123 0 12.5473 0.249333 13.7035 0.748C14.8597 1.24667 15.8653 1.92342 16.7205 2.77825C17.5757 3.63308 18.2528 4.63833 18.7518 5.794C19.2506 6.94967 19.5 8.18442 19.5 9.49825C19.5 10.8123 19.2507 12.0473 18.752 13.2035C18.2533 14.3597 17.5766 15.3653 16.7218 16.2205C15.8669 17.0757 14.8617 17.7528 13.706 18.2518C12.5503 18.7506 11.3156 19 10.0017 19ZM10 17.5C12.2333 17.5 14.125 16.725 15.675 15.175C17.225 13.625 18 11.7333 18 9.5C18 7.26667 17.225 5.375 15.675 3.825C14.125 2.275 12.2333 1.5 10 1.5C7.76667 1.5 5.875 2.275 4.325 3.825C2.775 5.375 2 7.26667 2 9.5C2 11.7333 2.775 13.625 4.325 15.175C5.875 16.725 7.76667 17.5 10 17.5Z" fill="#727272"/>
</svg>
