<svg width="46" height="37" viewBox="0 0 46 37" fill="none" xmlns="http://www.w3.org/2000/svg">
<path d="M34.1348 19.158C31.7528 20.445 28.6431 21.7292 24.7925 22.9322C20.9419 24.1325 17.6596 24.8424 14.9775 25.135C16.9957 27.4543 19.9381 28.9174 23.2177 28.9174C23.4568 28.9174 23.6931 28.9065 23.9294 28.8903C24.8377 28.8496 27.5224 28.7358 30.3294 28.7358C32.2149 28.7358 34.1534 28.7873 35.6459 28.9417C35.6459 28.9417 32.5282 26.1998 33.848 20.6211C33.9755 20.1442 34.0711 19.6565 34.1375 19.1553" fill="#D370F9"/>
<path d="M12.298 16.1992C7.86315 18.5971 5.95379 21.0003 6.51942 22.8888C7.08506 24.7773 9.98496 25.6795 14.9775 25.1376C13.2513 23.1543 12.1997 20.5424 12.1997 17.6813C12.1997 17.18 12.2342 16.6869 12.298 16.2019V16.1992Z" fill="#B611F5"/>
<path d="M39.916 12.469C39.3504 10.5805 36.4505 9.67824 31.458 10.2201C33.1841 12.2034 34.2357 14.8153 34.2357 17.6765C34.2357 18.1777 34.2012 18.6708 34.1375 19.1558C38.5723 16.758 40.4817 14.3547 39.916 12.4662V12.469Z" fill="#B611F5"/>
<path d="M31.458 10.2228C29.4398 7.90352 26.4974 6.44043 23.2177 6.44043C17.6251 6.44043 13.0097 10.6915 12.3006 16.1998C12.2369 16.6848 12.2024 17.1779 12.2024 17.6792C12.2024 20.5403 13.2513 23.1522 14.9801 25.1355C17.6623 24.8429 20.9446 24.133 24.7952 22.9327C28.6458 21.7325 31.7554 20.4455 34.1375 19.1585C34.2012 18.6735 34.2358 18.1804 34.2358 17.6792C34.2358 14.818 33.1868 12.2061 31.458 10.2228ZM16.5655 13.1327C16.053 13.1327 15.6361 12.7073 15.6361 12.1844C15.6361 11.6615 16.053 11.2361 16.5655 11.2361C17.078 11.2361 17.495 11.6615 17.495 12.1844C17.495 12.7073 17.078 13.1327 16.5655 13.1327ZM20.0921 13.1327C19.5796 13.1327 19.1627 12.7073 19.1627 12.1844C19.1627 11.6615 19.5796 11.2361 20.0921 11.2361C20.6047 11.2361 21.0216 11.6615 21.0216 12.1844C21.0216 12.7073 20.6047 13.1327 20.0921 13.1327Z" fill="#1D1D1B"/>
</svg>
