<svg width="24" height="24" viewBox="0 0 24 24" fill="none" xmlns="http://www.w3.org/2000/svg">
<path d="M19.9472 8.50469L20.7644 7.6875L18.4375 5.40375V1.94719H17.3316V5.85094L19.9472 8.50469ZM2.52406 23.75C2.25844 23.75 2.03583 23.6601 1.85625 23.4803C1.67646 23.3007 1.58656 23.0781 1.58656 22.8125V20.3463C1.1299 20.029 0.75125 19.5806 0.450625 19.0012C0.150208 18.4219 0 17.8414 0 17.2597V5.625C0 4.02729 0.815313 2.89875 2.44594 2.23937C4.07656 1.57979 6.8574 1.25 10.7884 1.25C10.5978 1.53688 10.4296 1.83458 10.2838 2.14313C10.1379 2.45167 10.0121 2.7725 9.90625 3.10563C7.51688 3.14729 5.72198 3.29635 4.52156 3.55281C3.32135 3.80927 2.55458 4.19552 2.22125 4.71156H9.57687C9.53854 5.02406 9.51937 5.33656 9.51937 5.64906C9.51937 5.96156 9.5426 6.27406 9.58906 6.58656H1.875V11.25H11.9303C12.2684 11.6298 12.6382 11.9792 13.0397 12.2981C13.4411 12.6171 13.8806 12.8927 14.3581 13.125H1.875V16.875C1.875 17.5625 2.11979 18.151 2.60938 18.6406C3.09896 19.1302 3.6875 19.375 4.375 19.375H14.375C15.0625 19.375 15.651 19.1302 16.1406 18.6406C16.6302 18.151 16.875 17.5625 16.875 16.875V13.9206C17.1875 13.9671 17.5 13.9903 17.8125 13.9903C18.125 13.9903 18.4375 13.9711 18.75 13.9328V17.2597C18.75 17.8414 18.5998 18.4219 18.2994 19.0012C17.9988 19.5806 17.6201 20.029 17.1634 20.3463V22.8125C17.1634 23.0781 17.0735 23.3007 16.8937 23.4803C16.7142 23.6601 16.4916 23.75 16.2259 23.75H15.4566C15.1911 23.75 14.9685 23.6601 14.7888 23.4803C14.6092 23.3007 14.5194 23.0781 14.5194 22.8125V21.25H4.23063V22.8125C4.23063 23.0781 4.14083 23.3007 3.96125 23.4803C3.78146 23.6601 3.55885 23.75 3.29344 23.75H2.52406ZM17.8797 11.25C16.322 11.25 14.9959 10.7027 13.9016 9.60813C12.807 8.51354 12.2597 7.18437 12.2597 5.62062C12.2597 4.07542 12.8039 2.7524 13.8922 1.65156C14.9807 0.55052 16.3131 0 17.8894 0C19.4471 0 20.7732 0.547291 21.8678 1.64187C22.9624 2.73646 23.5097 4.06417 23.5097 5.625C23.5097 7.18583 22.9607 8.51354 21.8628 9.60813C20.7649 10.7027 19.4372 11.25 17.8797 11.25ZM6.15969 17.4069C6.47635 17.0885 6.63469 16.702 6.63469 16.2472C6.63469 15.7924 6.47542 15.4068 6.15687 15.0903C5.83854 14.7736 5.45198 14.6153 4.99719 14.6153C4.5424 14.6153 4.15677 14.7746 3.84031 15.0931C3.52365 15.4115 3.36531 15.798 3.36531 16.2528C3.36531 16.7076 3.52458 17.0932 3.84312 17.4097C4.16146 17.7264 4.54802 17.8847 5.00281 17.8847C5.4576 17.8847 5.84323 17.7254 6.15969 17.4069ZM14.9097 17.4069C15.2264 17.0885 15.3847 16.702 15.3847 16.2472C15.3847 15.7924 15.2254 15.4068 14.9069 15.0903C14.5885 14.7736 14.202 14.6153 13.7472 14.6153C13.2924 14.6153 12.9068 14.7746 12.5903 15.0931C12.2736 15.4115 12.1153 15.798 12.1153 16.2528C12.1153 16.7076 12.2746 17.0932 12.5931 17.4097C12.9115 17.7264 13.298 17.8847 13.7528 17.8847C14.2076 17.8847 14.5932 17.7254 14.9097 17.4069Z" fill="#B611F5"/>
</svg>
