<svg width="24" height="24" viewBox="0 0 24 24" fill="none" xmlns="http://www.w3.org/2000/svg">
<path d="M10.5 8.75V6.75C10.5 5.106 10.5 4.284 10.046 3.731C9.96295 3.62982 9.87018 3.53705 9.769 3.454C9.216 3 8.394 3 6.75 3C5.106 3 4.284 3 3.731 3.454C3.62982 3.53705 3.53705 3.62982 3.454 3.731C3 4.284 3 5.106 3 6.75V8.75C3 10.394 3 11.216 3.454 11.769C3.53733 11.8703 3.62967 11.9627 3.731 12.046C4.284 12.5 5.106 12.5 6.75 12.5C8.394 12.5 9.216 12.5 9.769 12.046C9.87033 11.9627 9.96267 11.8703 10.046 11.769C10.5 11.216 10.5 10.394 10.5 8.75ZM7.75 15.5H5.75C5.052 15.5 4.703 15.5 4.42 15.586C4.10517 15.6813 3.81872 15.8529 3.58602 16.0854C3.35333 16.3179 3.18158 16.6042 3.086 16.919C3 17.203 3 17.552 3 18.25C3 18.948 3 19.297 3.086 19.58C3.18135 19.8948 3.35288 20.1813 3.5854 20.414C3.81792 20.6467 4.10424 20.8184 4.419 20.914C4.703 21 5.052 21 5.75 21H7.75C8.448 21 8.797 21 9.08 20.914C9.39483 20.8187 9.68128 20.6471 9.91398 20.4146C10.1467 20.1821 10.3184 19.8958 10.414 19.581C10.5 19.297 10.5 18.948 10.5 18.25C10.5 17.552 10.5 17.203 10.414 16.92C10.3187 16.6052 10.1471 16.3187 9.9146 16.086C9.68208 15.8533 9.39576 15.6816 9.081 15.586C8.797 15.5 8.448 15.5 7.75 15.5ZM21 17.25V15.25C21 13.606 21 12.784 20.546 12.231C20.463 12.1298 20.3702 12.037 20.269 11.954C19.716 11.5 18.894 11.5 17.25 11.5C15.606 11.5 14.784 11.5 14.231 11.954C14.1298 12.037 14.037 12.1298 13.954 12.231C13.5 12.784 13.5 13.606 13.5 15.25V17.25C13.5 18.894 13.5 19.716 13.954 20.269C14.0373 20.3703 14.1297 20.4627 14.231 20.546C14.784 21 15.606 21 17.25 21C18.894 21 19.716 21 20.269 20.546C20.3703 20.4627 20.4627 20.3703 20.546 20.269C21 19.716 21 18.894 21 17.25ZM18.25 3H16.25C15.552 3 15.203 3 14.92 3.086C14.6052 3.18135 14.3187 3.35288 14.086 3.5854C13.8533 3.81792 13.6816 4.10424 13.586 4.419C13.5 4.703 13.5 5.052 13.5 5.75C13.5 6.448 13.5 6.797 13.586 7.08C13.6813 7.39483 13.8529 7.68128 14.0854 7.91398C14.3179 8.14667 14.6042 8.31842 14.919 8.414C15.203 8.5 15.552 8.5 16.25 8.5H18.25C18.948 8.5 19.297 8.5 19.58 8.414C19.8948 8.31865 20.1813 8.14712 20.414 7.9146C20.6467 7.68208 20.8184 7.39576 20.914 7.081C21 6.797 21 6.448 21 5.75C21 5.052 21 4.703 20.914 4.42C20.8187 4.10517 20.6471 3.81872 20.4146 3.58602C20.1821 3.35333 19.8958 3.18158 19.581 3.086C19.297 3 18.948 3 18.25 3Z" stroke="#1F1F1F" stroke-width="1.5" stroke-linejoin="round"/>
</svg>
