<svg width="24" height="24" viewBox="0 0 24 24" fill="none" xmlns="http://www.w3.org/2000/svg">
<path d="M7.99597 15H11.425M7.99597 11H15.996M14.496 2H9.49597C9.09815 2 8.71662 2.15804 8.43531 2.43934C8.15401 2.72064 7.99597 3.10218 7.99597 3.5C7.99597 3.89782 8.15401 4.27936 8.43531 4.56066C8.71662 4.84196 9.09815 5 9.49597 5H14.496C14.8938 5 15.2753 4.84196 15.5566 4.56066C15.8379 4.27936 15.996 3.89782 15.996 3.5C15.996 3.10218 15.8379 2.72064 15.5566 2.43934C15.2753 2.15804 14.8938 2 14.496 2Z" stroke="#1F1F1F" stroke-width="1.5" stroke-linecap="round" stroke-linejoin="round"/>
<path d="M15.996 3.5C17.55 3.547 18.476 3.72 19.117 4.362C19.997 5.24 19.997 6.655 19.997 9.482V16C19.997 18.828 19.997 20.242 19.117 21.121C18.239 22 16.824 22 13.997 22H9.99697C7.16697 22 5.75297 22 4.87497 21.121C3.99697 20.242 3.99597 18.828 3.99597 16V9.483C3.99597 6.655 3.99597 5.24 4.87497 4.362C5.51597 3.72 6.44297 3.547 7.99597 3.5" stroke="#1F1F1F" stroke-width="1.5" stroke-linecap="round" stroke-linejoin="round"/>
</svg>
