<svg width="24" height="24" viewBox="0 0 24 24" fill="none" xmlns="http://www.w3.org/2000/svg">
<path d="M6.375 8.25V3.75C6.375 3.45163 6.49353 3.16548 6.7045 2.9545C6.91548 2.74352 7.20163 2.625 7.5 2.625C7.79837 2.625 8.08452 2.74352 8.2955 2.9545C8.50647 3.16548 8.625 3.45163 8.625 3.75V8.25C8.625 8.54836 8.50647 8.83451 8.2955 9.04549C8.08452 9.25647 7.79837 9.375 7.5 9.375C7.20163 9.375 6.91548 9.25647 6.7045 9.04549C6.49353 8.83451 6.375 8.54836 6.375 8.25ZM20.625 3.75V21C20.625 21.2984 20.5065 21.5845 20.2955 21.7955C20.0845 22.0065 19.7984 22.125 19.5 22.125C19.2016 22.125 18.9155 22.0065 18.7045 21.7955C18.4935 21.5845 18.375 21.2984 18.375 21V16.875H14.25C13.9516 16.875 13.6655 16.7565 13.4545 16.5455C13.2435 16.3345 13.125 16.0484 13.125 15.75C13.1601 13.9238 13.3905 12.1066 13.8122 10.3294C14.7581 6.41437 16.5712 3.78093 19.0566 2.71875C19.2275 2.64544 19.4139 2.61565 19.5991 2.63204C19.7844 2.64843 19.9627 2.71048 20.1181 2.81265C20.2735 2.91482 20.4011 3.05391 20.4896 3.21749C20.578 3.38107 20.6246 3.56403 20.625 3.75ZM18.375 5.89875C17.1187 7.21875 16.4062 9.1875 16.0097 10.8169C15.7129 12.0684 15.5179 13.342 15.4266 14.625H18.375V5.89875ZM12 3.65625C11.9751 3.35788 11.8328 3.08161 11.6042 2.88821C11.3756 2.69481 11.0796 2.60013 10.7812 2.625C10.4829 2.64986 10.2066 2.79223 10.0132 3.02079C9.81982 3.24935 9.72514 3.54538 9.75 3.84375L10.125 8.29312C10.125 8.98931 9.84844 9.65699 9.35616 10.1493C8.86387 10.6416 8.19619 10.9181 7.5 10.9181C6.80381 10.9181 6.13613 10.6416 5.64384 10.1493C5.15156 9.65699 4.875 8.98931 4.875 8.29312L5.25 3.84375C5.26231 3.69601 5.2454 3.54729 5.20024 3.40609C5.15508 3.26489 5.08255 3.13396 4.98679 3.02079C4.89103 2.90762 4.77391 2.81442 4.64213 2.74651C4.51035 2.6786 4.36649 2.63731 4.21875 2.625C4.07101 2.61268 3.9223 2.62959 3.78109 2.67476C3.63989 2.71992 3.50897 2.79245 3.3958 2.88821C3.28262 2.98397 3.18942 3.10108 3.12151 3.23286C3.0536 3.36464 3.01231 3.50851 3 3.65625L2.625 8.15625C2.625 8.18812 2.625 8.21906 2.625 8.25C2.6268 9.34678 2.99769 10.411 3.67794 11.2714C4.35819 12.1317 5.30821 12.7381 6.375 12.9928V21C6.375 21.2984 6.49353 21.5845 6.7045 21.7955C6.91548 22.0065 7.20163 22.125 7.5 22.125C7.79837 22.125 8.08452 22.0065 8.2955 21.7955C8.50647 21.5845 8.625 21.2984 8.625 21V12.9928C9.69179 12.7381 10.6418 12.1317 11.3221 11.2714C12.0023 10.411 12.3732 9.34678 12.375 8.25C12.375 8.21906 12.375 8.18812 12.375 8.15625L12 3.65625Z" fill="#B611F5"/>
</svg>
