<svg width="24" height="24" viewBox="0 0 24 24" fill="none" xmlns="http://www.w3.org/2000/svg">
<path d="M22 10.5001L12.883 2.8221C12.636 2.61408 12.3234 2.5 12.0005 2.5C11.6776 2.5 11.365 2.61408 11.118 2.8221L2 10.5001" stroke="#980AC9" stroke-width="1.5" stroke-linecap="round" stroke-linejoin="round"/>
<path d="M20.5 9.5V16C20.5 18.346 20.5 19.518 19.88 20.326C19.7203 20.5341 19.5341 20.7203 19.326 20.88C18.518 21.5 17.346 21.5 15 21.5V17C15 15.586 15 14.879 14.56 14.44C14.122 14 13.415 14 12 14C10.585 14 9.879 14 9.44 14.44C9 14.878 9 15.585 9 17V21.5C6.654 21.5 5.482 21.5 4.674 20.88C4.46591 20.7203 4.27966 20.5341 4.12 20.326C3.5 19.518 3.5 18.346 3.5 16V9.5" stroke="#980AC9" stroke-width="1.5" stroke-linecap="round" stroke-linejoin="round"/>
</svg>
