<svg width="63" height="21" viewBox="0 0 63 21" fill="none" xmlns="http://www.w3.org/2000/svg">
<path d="M45.7286 20.4939V0.388672H49.1998L59.4746 15.7453H59.5857V0.388672H62.5848V20.4939H59.1969L48.8666 5.02621H48.7277V20.4939H45.7286Z" fill="#333333"/>
<path d="M38.8972 20.4939V0.388672H41.8964V20.4939H38.8972Z" fill="#333333"/>
<path d="M25.577 20.8828C19.6204 20.8828 15.1078 16.3841 15.1078 10.4414C15.1078 4.49869 19.6204 0 25.577 0C31.5475 0 36.0462 4.49869 36.0462 10.4414C36.0462 16.3841 31.5475 20.8828 25.577 20.8828ZM25.577 18.0225C29.9369 18.0364 33.0054 14.8846 33.0193 10.4414C33.0054 5.99825 29.9369 2.84639 25.577 2.86028C21.2311 2.84639 18.1625 5.99825 18.1625 10.4414C18.1625 14.8846 21.2311 18.0364 25.577 18.0225Z" fill="#333333"/>
<path d="M0.00115967 20.4939V0.388672H3.00029V9.21944H3.11137L10.9424 0.388672H14.8024L6.16603 9.94145L15.1079 20.4939H11.1646L3.13914 10.8578H3.00029V20.4939H0.00115967Z" fill="#333333"/>
</svg>
