<svg width="24" height="24" viewBox="0 0 24 24" fill="none" xmlns="http://www.w3.org/2000/svg">
<path d="M13.9959 12H3.99591" stroke="#B611F5" stroke-width="1.5" stroke-linecap="round" stroke-linejoin="round"/>
<path d="M9.01935 18C9.06591 19.0934 9.20432 19.7902 9.61568 20.3263C9.77528 20.5343 9.96146 20.7205 10.1695 20.8801C10.9774 21.5 12.1502 21.5 14.4957 21.5C16.8413 21.5 18.0141 21.5 18.822 20.8801C19.03 20.7205 19.2162 20.5343 19.3758 20.3263C19.9957 19.5184 19.9957 18.3456 19.9957 16V8C19.9957 5.65442 19.9957 4.48164 19.3758 3.67372C19.2162 3.46572 19.03 3.27954 18.822 3.11994C18.0141 2.5 16.8413 2.5 14.4957 2.5C12.1502 2.5 10.9774 2.5 10.1695 3.11994C9.96146 3.27954 9.77528 3.46572 9.61568 3.67372C9.20432 4.20981 9.06591 4.90656 9.01935 6" stroke="#B611F5" stroke-width="1.5" stroke-linecap="round" stroke-linejoin="round"/>
<path d="M11.4959 15.5C11.4959 15.5 14.9959 12.9223 14.9959 12C14.9959 11.0777 11.4959 8.5 11.4959 8.5" stroke="#B611F5" stroke-width="1.5" stroke-linecap="round" stroke-linejoin="round"/>
</svg>
