<svg width="24" height="24" viewBox="0 0 24 24" fill="none" xmlns="http://www.w3.org/2000/svg">
<path d="M15.4988 18.5C15.4988 18.9596 15.4083 19.4148 15.2324 19.8394C15.0565 20.264 14.7987 20.6499 14.4737 20.9749C14.1487 21.2999 13.7628 21.5577 13.3382 21.7336C12.9136 21.9095 12.4584 22 11.9988 22C11.5392 22 11.0841 21.9095 10.6594 21.7336C10.2348 21.5577 9.84894 21.2999 9.52393 20.9749C9.19893 20.6499 8.94112 20.264 8.76523 19.8394C8.58934 19.4148 8.49881 18.9596 8.49881 18.5M18.9988 11.5V12.756C18.999 13.5516 19.3152 14.3145 19.8778 14.877L20.4808 15.48C20.7277 15.7275 20.8958 16.0426 20.9638 16.3856C21.0319 16.7285 20.9968 17.0839 20.8631 17.4069C20.7294 17.73 20.503 18.0062 20.2125 18.2007C19.922 18.3952 19.5804 18.4994 19.2308 18.5H4.76681C4.41698 18.4999 4.07505 18.396 3.78425 18.2015C3.49344 18.0071 3.26682 17.7308 3.13303 17.4075C2.99924 17.0843 2.96429 16.7287 3.0326 16.3856C3.10092 16.0425 3.26942 15.7273 3.51681 15.48L4.11881 14.877C4.39758 14.5986 4.61878 14.268 4.76978 13.904C4.92077 13.5401 4.99859 13.15 4.99881 12.756V10C4.99881 8.14348 5.73631 6.36301 7.04906 5.05025C8.36181 3.7375 10.1423 3 11.9988 3" stroke="#1F1F1F" stroke-width="1.5" stroke-linecap="round" stroke-linejoin="round"/>
<path d="M17.4986 9C18.4268 9 19.317 8.63125 19.9734 7.97487C20.6298 7.3185 20.9986 6.42826 20.9986 5.5C20.9986 4.57174 20.6298 3.6815 19.9734 3.02513C19.317 2.36875 18.4268 2 17.4986 2C16.5703 2 15.6801 2.36875 15.0237 3.02513C14.3673 3.6815 13.9986 4.57174 13.9986 5.5C13.9986 6.42826 14.3673 7.3185 15.0237 7.97487C15.6801 8.63125 16.5703 9 17.4986 9Z" stroke="#980AC9" stroke-width="1.5" stroke-linecap="round" stroke-linejoin="round"/>
</svg>
