<svg width="40" height="40" viewBox="0 0 40 40" fill="none" xmlns="http://www.w3.org/2000/svg">
<path d="M10.1683 3.75H10.3317C11.44 3.75 12.395 3.75 13.16 3.85333C13.9783 3.96333 14.765 4.21167 15.4017 4.84833C16.0383 5.485 16.2867 6.27167 16.3967 7.09C16.5 7.855 16.5 8.81 16.5 9.91833V10.0817C16.5 11.19 16.5 12.145 16.3967 12.91C16.2867 13.7283 16.0383 14.515 15.4017 15.1517C14.765 15.7883 13.9783 16.0367 13.16 16.1467C12.395 16.25 11.44 16.25 10.3317 16.25H10.1683C9.06 16.25 8.105 16.25 7.34 16.1467C6.52167 16.0367 5.735 15.7883 5.09833 15.1517C4.46167 14.515 4.21333 13.7283 4.10333 12.91C4 12.145 4 11.19 4 10.0817V9.91833C4 8.81 4 7.855 4.10333 7.09C4.21333 6.27167 4.46167 5.485 5.09833 4.84833C5.735 4.21167 6.52167 3.96333 7.34 3.85333C8.105 3.75 9.06 3.75 10.1683 3.75ZM10.1683 23.75H10.3383C11.4433 23.75 12.3967 23.75 13.16 23.8533C13.9783 23.9633 14.765 24.2117 15.4017 24.8483C16.0383 25.485 16.2867 26.27 16.3967 27.09C16.5 27.855 16.5 28.81 16.5 29.9167V30.0833C16.5 31.19 16.5 32.145 16.3967 32.91C16.2867 33.7283 16.0383 34.515 15.4017 35.1517C14.765 35.7883 13.9783 36.0367 13.16 36.1467C12.3967 36.25 11.4433 36.25 10.3383 36.25H10.1617C9.05667 36.25 8.10333 36.25 7.34 36.1467C6.52167 36.0367 5.735 35.7883 5.09833 35.1517C4.46167 34.515 4.21333 33.7283 4.10333 32.91C4 32.145 4 31.19 4 30.0817V29.9183C4 28.81 4 27.855 4.10333 27.09C4.21333 26.27 4.46167 25.485 5.09833 24.8483C5.735 24.2117 6.52167 23.9633 7.34 23.8533C8.10333 23.75 9.05667 23.75 10.1617 23.75H10.1683ZM30.1683 3.75H30.3317C31.44 3.75 32.395 3.75 33.16 3.85333C33.9783 3.96333 34.765 4.21167 35.4017 4.84833C36.0383 5.485 36.2867 6.27167 36.3967 7.09C36.5 7.85333 36.5 8.80667 36.5 9.91167V10.0883C36.5 11.1933 36.5 12.1467 36.3967 12.91C36.2867 13.7283 36.0383 14.515 35.4017 15.1517C34.765 15.7883 33.9783 16.0367 33.16 16.1467C32.395 16.25 31.44 16.25 30.3333 16.25H30.1667C29.06 16.25 28.105 16.25 27.34 16.1467C26.52 16.0367 25.735 15.7883 25.0983 15.1517C24.4617 14.515 24.2133 13.7283 24.1033 12.91C24 12.1467 24 11.1933 24 10.0883V9.91167C24 8.80667 24 7.85333 24.1033 7.09C24.2133 6.27167 24.4617 5.485 25.0983 4.84833C25.735 4.21167 26.52 3.96333 27.34 3.85333C28.105 3.75 29.06 3.75 30.1683 3.75ZM6.86667 26.6167C6.77167 26.7117 6.65333 26.8817 6.58 27.4233C6.50333 28.0017 6.5 28.7867 6.5 30C6.5 31.2133 6.50333 31.9983 6.58 32.5767C6.65333 33.1183 6.77167 33.2883 6.86667 33.3833C6.96167 33.4783 7.13167 33.5967 7.67333 33.67C8.25167 33.7467 9.03667 33.75 10.25 33.75C11.4633 33.75 12.2483 33.7467 12.8267 33.67C13.3683 33.5967 13.5383 33.4783 13.6333 33.3833C13.7283 33.2883 13.8467 33.1183 13.92 32.5767C13.9967 31.9983 14 31.2133 14 30C14 28.7867 13.9967 28.0017 13.92 27.4233C13.8467 26.8817 13.7283 26.7117 13.6333 26.6167C13.5383 26.5217 13.3683 26.4033 12.8267 26.33C12.2483 26.2533 11.4633 26.25 10.25 26.25C9.03667 26.25 8.25167 26.2533 7.67333 26.33C7.13167 26.4033 6.96167 26.5217 6.86667 26.6167ZM27.6733 6.33C27.1317 6.40333 26.9617 6.52167 26.8667 6.61667C26.7717 6.71167 26.6533 6.88167 26.58 7.42333C26.5033 8.00167 26.5 8.78667 26.5 10C26.5 11.2133 26.5033 11.9983 26.58 12.5767C26.6533 13.1183 26.7717 13.2883 26.8667 13.3833C26.9617 13.4783 27.1317 13.5967 27.6733 13.67C28.2517 13.7467 29.0367 13.75 30.25 13.75C31.4633 13.75 32.2483 13.7467 32.8267 13.67C33.3683 13.5967 33.5383 13.4783 33.6333 13.3833C33.7283 13.2883 33.8467 13.1183 33.92 12.5767C33.9967 11.9983 34 11.2133 34 10C34 8.78667 33.9967 8.00167 33.92 7.42333C33.8467 6.88167 33.7283 6.71167 33.6333 6.61667C33.5383 6.52167 33.3683 6.40333 32.8267 6.33C32.2483 6.25333 31.4633 6.25 30.25 6.25C29.0367 6.25 28.2517 6.25333 27.6733 6.33ZM6.86667 6.61667C6.77167 6.71167 6.65333 6.88167 6.58 7.42333C6.50333 8.00167 6.5 8.78667 6.5 10C6.5 11.2133 6.50333 11.9983 6.58 12.5767C6.65333 13.1183 6.77167 13.2883 6.86667 13.3833C6.96167 13.4783 7.13167 13.5967 7.67333 13.67C8.25167 13.7467 9.03667 13.75 10.25 13.75C11.4633 13.75 12.2483 13.7467 12.8267 13.67C13.3683 13.5967 13.5383 13.4783 13.6333 13.3833C13.7283 13.2883 13.8467 13.1183 13.92 12.5767C13.9967 11.9983 14 11.2133 14 10C14 8.78667 13.9967 8.00167 13.92 7.42333C13.8467 6.88167 13.7283 6.71167 13.6333 6.61667C13.5383 6.52167 13.3683 6.40333 12.8267 6.33C12.2483 6.25333 11.4633 6.25 10.25 6.25C9.03667 6.25 8.25167 6.25333 7.67333 6.33C7.13167 6.40333 6.96167 6.52167 6.86667 6.61667ZM25.1683 18.75H35.25C35.94 18.75 36.5 19.31 36.5 20C36.5 20.69 35.94 21.25 35.25 21.25H25.25C24.0367 21.25 23.2517 21.2533 22.6733 21.33C22.1317 21.4033 21.9617 21.5217 21.8667 21.6167C21.7717 21.7117 21.6533 21.8817 21.58 22.4233C21.5033 23.0017 21.5 23.7867 21.5 25C21.5 25.69 20.94 26.25 20.25 26.25C19.56 26.25 19 25.69 19 25V24.9117C19 23.8067 19 22.8533 19.1033 22.09C19.2133 21.27 19.4617 20.485 20.0983 19.8483C20.735 19.2117 21.52 18.9633 22.34 18.8533C23.1033 18.75 24.0567 18.75 25.1617 18.75H25.1683ZM30.25 26.25C29.56 26.25 29 25.69 29 25C29 24.31 29.56 23.75 30.25 23.75H30.3383C31.4433 23.75 32.3967 23.75 33.16 23.8533C33.98 23.9633 34.765 24.2117 35.4017 24.85C36.0383 25.4883 36.2867 26.2733 36.3967 27.0933C36.5 27.8583 36.5 28.8117 36.5 29.92V30.095C36.5 31.2017 36.5 32.1567 36.3967 32.92C36.2867 33.74 36.0383 34.5267 35.4017 35.165C34.4833 36.085 33.23 36.2117 31.955 36.25C31.265 36.27 30.6883 35.7283 30.6667 35.0383C30.6467 34.3483 31.1883 33.7717 31.8783 33.75C33.1917 33.7117 33.4833 33.5483 33.6333 33.3983C33.7283 33.3017 33.8467 33.1317 33.92 32.5883C33.9967 32.0083 34 31.2233 34 30.0067C34 28.7917 33.9967 28.005 33.92 27.4267C33.8467 26.8833 33.7283 26.7117 33.6333 26.6167C33.5383 26.5217 33.3683 26.4033 32.8267 26.33C32.2483 26.2533 31.4633 26.25 30.25 26.25ZM26.5 25V27.5C26.5 28.4517 26.7333 28.5483 26.7633 28.5617L26.765 28.5633C26.85 28.61 27.0183 28.6683 27.3483 28.7067C27.6767 28.7433 28.0717 28.75 28.5833 28.75C30.1933 28.75 31.5 30.0567 31.5 31.6667C31.5 32.3567 30.94 32.9167 30.25 32.9167C29.56 32.9167 29 32.3567 29 31.6667C29 31.4367 28.8133 31.25 28.5833 31.25C28.0817 31.25 27.5533 31.245 27.0667 31.19C26.5817 31.135 26.0417 31.0217 25.5467 30.745C24.4 30.105 24 28.9183 24 27.5V25C24 24.31 24.56 23.75 25.25 23.75C25.94 23.75 26.5 24.31 26.5 25ZM4 20C4 19.31 4.56 18.75 5.25 18.75H15.25C15.94 18.75 16.5 19.31 16.5 20C16.5 20.69 15.94 21.25 15.25 21.25H5.25C4.56 21.25 4 20.69 4 20ZM21.5 5V13.3333C21.5 14.0233 20.94 14.5833 20.25 14.5833C19.56 14.5833 19 14.0233 19 13.3333V5C19 4.31 19.56 3.75 20.25 3.75C20.94 3.75 21.5 4.31 21.5 5ZM21.5 29.615V34.23C21.5 34.9217 20.94 35.48 20.25 35.48C19.56 35.48 19 34.9217 19 34.23V29.615C19 28.925 19.56 28.365 20.25 28.365C20.94 28.365 21.5 28.925 21.5 29.615ZM25.25 33.75H26.9167C27.6067 33.75 28.1667 34.31 28.1667 35C28.1667 35.69 27.6067 36.25 26.9167 36.25H25.25C24.56 36.25 24 35.69 24 35C24 34.31 24.56 33.75 25.25 33.75Z" fill="#B611F5"/>
</svg>
