<svg width="26" height="24" viewBox="0 0 26 24" fill="none" xmlns="http://www.w3.org/2000/svg">
<path d="M22.3333 23.3333C21.5009 23.3333 20.7594 23.0833 20.109 22.5833C19.4586 22.0833 19.0299 21.4444 18.823 20.6667H11.6667C10.2856 20.6667 9.10689 20.1787 8.13067 19.2027C7.15467 18.2264 6.66667 17.0478 6.66667 15.6667C6.66667 14.2856 7.15467 13.1069 8.13067 12.1307C9.10689 11.1547 10.2856 10.6667 11.6667 10.6667H14.3333C15.1607 10.6667 15.8676 10.3736 16.454 9.78733C17.0402 9.20089 17.3333 8.494 17.3333 7.66667C17.3333 6.83933 17.0402 6.13244 16.454 5.546C15.8676 4.95978 15.1607 4.66667 14.3333 4.66667H7.177C6.95633 5.44444 6.52422 6.08333 5.88067 6.58333C5.23711 7.08333 4.49911 7.33333 3.66667 7.33333C2.64956 7.33333 1.78422 6.97644 1.07067 6.26267C0.356889 5.54911 0 4.68378 0 3.66667C0 2.64956 0.356889 1.78422 1.07067 1.07067C1.78422 0.356889 2.64956 0 3.66667 0C4.49911 0 5.23711 0.25 5.88067 0.75C6.52422 1.25 6.95633 1.88889 7.177 2.66667H14.3333C15.7144 2.66667 16.8931 3.15467 17.8693 4.13067C18.8453 5.10689 19.3333 6.28556 19.3333 7.66667C19.3333 9.04778 18.8453 10.2264 17.8693 11.2027C16.8931 12.1787 15.7144 12.6667 14.3333 12.6667H11.6667C10.8393 12.6667 10.1324 12.9598 9.546 13.546C8.95978 14.1324 8.66667 14.8393 8.66667 15.6667C8.66667 16.494 8.95978 17.2009 9.546 17.7873C10.1324 18.3736 10.8393 18.6667 11.6667 18.6667H18.823C19.0437 17.8889 19.4758 17.25 20.1193 16.75C20.7629 16.25 21.5009 16 22.3333 16C23.3504 16 24.2158 16.3569 24.9293 17.0707C25.6431 17.7842 26 18.6496 26 19.6667C26 20.6838 25.6431 21.5491 24.9293 22.2627C24.2158 22.9764 23.3504 23.3333 22.3333 23.3333ZM4.84733 4.84733C5.17133 4.52355 5.33333 4.13 5.33333 3.66667C5.33333 3.20333 5.17133 2.80978 4.84733 2.486C4.52356 2.162 4.13 2 3.66667 2C3.20333 2 2.80978 2.162 2.486 2.486C2.162 2.80978 2 3.20333 2 3.66667C2 4.13 2.162 4.52355 2.486 4.84733C2.80978 5.17133 3.20333 5.33333 3.66667 5.33333C4.13 5.33333 4.52356 5.17133 4.84733 4.84733Z" fill="#B611F5"/>
</svg>
