<svg width="24" height="24" viewBox="0 0 24 24" fill="none" xmlns="http://www.w3.org/2000/svg">
<path d="M15.5 12C15.5 13.933 13.933 15.5 12 15.5C10.067 15.5 8.5 13.933 8.5 12C8.5 10.067 10.067 8.5 12 8.5C13.933 8.5 15.5 10.067 15.5 12Z" stroke="#B611F5" stroke-width="1.5"/>
<path d="M21.011 14.0968C21.5329 13.9561 21.7939 13.8857 21.8969 13.7511C22 13.6166 22 13.4001 22 12.9672V11.0335C22 10.6006 22 10.3841 21.8969 10.2496C21.7938 10.115 21.5329 10.0446 21.011 9.90389C19.0606 9.3779 17.8399 7.33882 18.3433 5.40118C18.4817 4.8683 18.5509 4.60187 18.4848 4.4456C18.4187 4.28933 18.2291 4.18165 17.8497 3.96627L16.125 2.98704C15.7528 2.7757 15.5667 2.67003 15.3997 2.69253C15.2326 2.71503 15.0442 2.90304 14.6672 3.27904C13.208 4.73479 10.7936 4.73473 9.33434 3.27895C8.95743 2.90294 8.76898 2.71494 8.60193 2.69243C8.43489 2.66993 8.24877 2.7756 7.87653 2.98694L6.15184 3.96618C5.77253 4.18154 5.58287 4.28922 5.51678 4.44546C5.45068 4.60171 5.51987 4.86818 5.65825 5.40111C6.16137 7.33881 4.93972 9.37794 2.98902 9.90391C2.46712 10.0446 2.20617 10.115 2.10308 10.2495C2 10.3841 2 10.6006 2 11.0335V12.9672C2 13.4001 2 13.6166 2.10308 13.7511C2.20615 13.8857 2.46711 13.9561 2.98902 14.0968C4.9394 14.6228 6.16008 16.6619 5.65672 18.5995C5.51829 19.1324 5.44907 19.3988 5.51516 19.5551C5.58126 19.7114 5.77092 19.8191 6.15025 20.0344L7.87495 21.0137C8.24721 21.225 8.43334 21.3307 8.6004 21.3082C8.76746 21.2857 8.95588 21.0976 9.33271 20.7216C10.7927 19.2647 13.2088 19.2646 14.6689 20.7215C15.0457 21.0976 15.2341 21.2856 15.4012 21.3081C15.5682 21.3306 15.7544 21.2249 16.1266 21.0136L17.8513 20.0343C18.2307 19.819 18.4204 19.7113 18.4864 19.555C18.5525 19.3987 18.4833 19.1323 18.3448 18.5994C17.8412 16.6619 19.0609 14.6229 21.011 14.0968Z" stroke="#B611F5" stroke-width="1.5" stroke-linecap="round"/>
</svg>
