<svg width="95" height="75" viewBox="0 0 95 75" fill="none" xmlns="http://www.w3.org/2000/svg">
<path d="M70.4959 38.8336C65.5764 41.4424 59.1543 44.0456 51.2019 46.4841C43.2496 48.9171 36.471 50.356 30.9318 50.9492C35.0999 55.6504 41.1765 58.6161 47.9497 58.6161C48.4433 58.6161 48.9314 58.5942 49.4195 58.5612C51.2952 58.4788 56.8399 58.2482 62.6368 58.2482C66.5307 58.2482 70.5343 58.3525 73.6165 58.6656C73.6165 58.6656 67.1779 53.1076 69.9036 41.7993C70.1668 40.8327 70.3643 39.8442 70.5014 38.8281" fill="#D370F9"/>
<path d="M25.3981 32.8379C16.2392 37.6984 12.2959 42.5699 13.4641 46.3979C14.6323 50.2259 20.6212 52.0547 30.9318 50.9563C27.367 46.9361 25.1951 41.6417 25.1951 35.8421C25.1951 34.826 25.2664 33.8265 25.3981 32.8434V32.8379Z" fill="#B611F5"/>
<path d="M82.4353 25.2744C81.2672 21.4464 75.2782 19.6175 64.9677 20.7159C68.5325 24.7361 70.7043 30.0305 70.7043 35.8302C70.7043 36.8462 70.633 37.8458 70.5014 38.8288C79.6602 33.9683 83.6035 29.0969 82.4353 25.2689V25.2744Z" fill="#B611F5"/>
<path d="M64.9702 20.7216C60.8021 16.0204 54.7254 13.0547 47.9522 13.0547C36.4022 13.0547 26.8704 21.6718 25.406 32.8372C25.2744 33.8203 25.2031 34.8198 25.2031 35.8359C25.2031 41.6355 27.3694 46.9299 30.9398 50.9501C36.479 50.357 43.2576 48.918 51.2099 46.4851C59.1623 44.0521 65.5844 41.4433 70.5039 38.8346C70.6355 37.8515 70.7068 36.8519 70.7068 35.8359C70.7068 30.0362 68.5405 24.7419 64.9702 20.7216ZM35 28C32 28 32 27 32 27C32 27 32 26 35 26C38 26 38 27 38 27C38 27 38.5 28 35 28ZM45 28C42 28 42 27 42 27C42 27 42 25.9453 45 26C48 26.0547 48 27 48 27C48 27 47.9525 28 45 28Z" fill="#1D1D1B"/>
</svg>
