<svg width="98" height="75" viewBox="0 0 98 75" fill="none" xmlns="http://www.w3.org/2000/svg">
<path d="M73.4959 38.8336C68.5764 41.4424 62.1543 44.0456 54.2019 46.4841C46.2496 48.9171 39.471 50.356 33.9318 50.9492C38.0999 55.6504 44.1765 58.6161 50.9497 58.6161C51.4433 58.6161 51.9314 58.5942 52.4195 58.5612C54.2952 58.4788 59.8399 58.2482 65.6368 58.2482C69.5307 58.2482 73.5343 58.3525 76.6165 58.6656C76.6165 58.6656 70.1779 53.1076 72.9036 41.7993C73.1668 40.8327 73.3643 39.8442 73.5014 38.8281" fill="#D370F9"/>
<path d="M28.3981 32.8379C19.2392 37.6984 15.2959 42.5699 16.4641 46.3979C17.6323 50.2259 23.6212 52.0547 33.9318 50.9563C30.367 46.9361 28.1951 41.6417 28.1951 35.8421C28.1951 34.826 28.2664 33.8265 28.3981 32.8434V32.8379Z" fill="#B611F5"/>
<path d="M85.4353 25.2744C84.2672 21.4464 78.2782 19.6175 67.9677 20.7159C71.5325 24.7361 73.7043 30.0305 73.7043 35.8302C73.7043 36.8462 73.633 37.8458 73.5014 38.8288C82.6602 33.9683 86.6035 29.0969 85.4353 25.2689V25.2744Z" fill="#B611F5"/>
<path d="M67.9702 20.7216C63.8021 16.0204 57.7254 13.0547 50.9522 13.0547C39.4022 13.0547 29.8704 21.6718 28.406 32.8372C28.2744 33.8203 28.2031 34.8198 28.2031 35.8359C28.2031 41.6355 30.3694 46.9299 33.9398 50.9501C39.479 50.357 46.2576 48.918 54.2099 46.4851C62.1623 44.0521 68.5844 41.4433 73.5039 38.8346C73.6355 37.8515 73.7068 36.8519 73.7068 35.8359C73.7068 30.0362 71.5405 24.7419 67.9702 20.7216ZM38 28C35 28 35 27 35 27C35 27 35 26 38 26C41 26 41 27 41 27C41 27 41.5 28 38 28ZM48 28C45 28 45 27 45 27C45 27 45 25.9453 48 26C51 26.0547 51 27 51 27C51 27 50.9525 28 48 28Z" fill="#1D1D1B"/>
<path fill-rule="evenodd" clip-rule="evenodd" d="M12.5272 4.29366C12.5297 4.56969 12.6417 4.83342 12.8387 5.02684C13.0356 5.22025 13.3014 5.3275 13.5774 5.32499L18.3504 5.28168L12.8915 10.8405C12.7474 10.9874 12.6499 11.1737 12.6116 11.376C12.5733 11.5782 12.5958 11.7872 12.6763 11.9767C12.7568 12.1661 12.8916 12.3274 13.0638 12.4402C13.2359 12.553 13.4377 12.6123 13.6435 12.6105L20.929 12.5443C21.205 12.5418 21.4687 12.4298 21.6621 12.2328C21.8556 12.0359 21.9628 11.7701 21.9603 11.4941C21.9578 11.2181 21.8457 10.9543 21.6488 10.7609C21.4518 10.5675 21.1861 10.4603 20.9101 10.4628L16.1371 10.5061L21.5959 4.94725C21.7401 4.80037 21.8375 4.61404 21.8758 4.41182C21.9141 4.20959 21.8916 4.00054 21.8111 3.81111C21.7307 3.62167 21.5958 3.46035 21.4237 3.34754C21.2515 3.23473 21.0498 3.17549 20.844 3.17731L13.5585 3.24343C13.2825 3.24594 13.0187 3.35799 12.8253 3.55495C12.6319 3.75191 12.5247 4.01763 12.5272 4.29366ZM4.25758 10.6139C3.98155 10.6164 3.71583 10.5092 3.51887 10.3158C3.32192 10.1223 3.20986 9.85861 3.20736 9.58258C3.20485 9.30654 3.3121 9.04082 3.50552 8.84387C3.69893 8.64691 3.96266 8.53485 4.23869 8.53235L9.4426 8.48512C9.64841 8.4833 9.85015 8.54253 10.0223 8.65535C10.1945 8.76816 10.3293 8.92948 10.4098 9.11892C10.4903 9.30835 10.5128 9.5174 10.4745 9.71962C10.4361 9.92185 10.3387 10.1082 10.1946 10.2551L6.79836 13.7135L9.48982 13.689C9.76585 13.6865 10.0316 13.7938 10.2285 13.9872C10.4255 14.1806 10.5375 14.4443 10.54 14.7204C10.5425 14.9964 10.4353 15.2621 10.2419 15.4591C10.0485 15.656 9.78474 15.7681 9.5087 15.7706L4.3048 15.8178C4.09898 15.8196 3.89725 15.7604 3.7251 15.6476C3.55294 15.5348 3.4181 15.3735 3.33762 15.184C3.25714 14.9946 3.23463 14.7855 3.27294 14.5833C3.31125 14.3811 3.40866 14.1948 3.55285 14.0479L6.94904 10.5895L4.25758 10.6139ZM12.6499 17.8238C12.3739 17.8263 12.1082 17.7191 11.9112 17.5257C11.7143 17.3322 11.6022 17.0685 11.5997 16.7925C11.5972 16.5164 11.7045 16.2507 11.8979 16.0538C12.0913 15.8568 12.355 15.7448 12.631 15.7422L16.7942 15.7045C17 15.7026 17.2017 15.7619 17.3739 15.8747C17.546 15.9875 17.6809 16.1488 17.7613 16.3383C17.8418 16.5277 17.8643 16.7367 17.826 16.939C17.7877 17.1412 17.6903 17.3275 17.5461 17.4744L15.1813 19.8826L16.8319 19.8676C17.108 19.8651 17.3737 19.9723 17.5707 20.1657C17.7676 20.3592 17.8797 20.6229 17.8822 20.8989C17.8847 21.175 17.7774 21.4407 17.584 21.6376C17.3906 21.8346 17.1269 21.9466 16.8508 21.9492L12.6877 21.9869C12.4819 21.9888 12.2802 21.9295 12.108 21.8167C11.9359 21.7039 11.801 21.5426 11.7205 21.3531C11.64 21.1637 11.6175 20.9547 11.6559 20.7524C11.6942 20.5502 11.7916 20.3639 11.9358 20.217L14.3006 17.8088L12.6499 17.8238Z" fill="black"/>
</svg>
