<svg width="16" height="16" viewBox="0 0 16 16" fill="none" xmlns="http://www.w3.org/2000/svg">
<path d="M11.3327 8.00033C11.3327 9.84126 9.84033 11.3337 7.99939 11.3337C6.15843 11.3337 4.66605 9.84126 4.66605 8.00033C4.66605 6.15938 6.15843 4.66699 7.99939 4.66699C9.84033 4.66699 11.3327 6.15938 11.3327 8.00033Z" stroke="#980AC9" stroke-width="1.5" stroke-linecap="round" stroke-linejoin="round"/>
<path d="M8.08313 2.16667H7.9998M8.0828 13.8333H7.99947M13.8333 8.08333V8M2.16667 8.08333V8M12.1835 3.93399L12.1245 3.87506M3.93367 12.1833L3.87475 12.1244M12.0658 12.1837L12.1247 12.1248M3.81619 3.93413L3.87511 3.87521M8.16647 2.16667C8.16647 2.25871 8.09187 2.33333 7.9998 2.33333C7.90773 2.33333 7.83313 2.25871 7.83313 2.16667C7.83313 2.07462 7.90773 2 7.9998 2C8.09187 2 8.16647 2.07462 8.16647 2.16667ZM8.16613 13.8333C8.16613 13.9254 8.09153 14 7.99947 14C7.9074 14 7.8328 13.9254 7.8328 13.8333C7.8328 13.7413 7.9074 13.6667 7.99947 13.6667C8.09153 13.6667 8.16613 13.7413 8.16613 13.8333ZM13.8333 8.16667C13.7413 8.16667 13.6667 8.09207 13.6667 8C13.6667 7.90793 13.7413 7.83333 13.8333 7.83333C13.9254 7.83333 14 7.90793 14 8C14 8.09207 13.9254 8.16667 13.8333 8.16667ZM2.16667 8.16667C2.07462 8.16667 2 8.09207 2 8C2 7.90793 2.07462 7.83333 2.16667 7.83333C2.25871 7.83333 2.33333 7.90793 2.33333 8C2.33333 8.09207 2.25871 8.16667 2.16667 8.16667ZM12.2424 3.99291C12.1773 4.058 12.0718 4.058 12.0067 3.99291C11.9416 3.92783 11.9416 3.8223 12.0067 3.75721C12.0718 3.69213 12.1773 3.69213 12.2424 3.75721C12.3075 3.8223 12.3075 3.92783 12.2424 3.99291ZM3.9926 12.2423C3.92751 12.3073 3.82198 12.3073 3.75689 12.2423C3.69181 12.1772 3.69181 12.0717 3.75689 12.0066C3.82198 11.9415 3.92751 11.9415 3.9926 12.0066C4.05769 12.0717 4.05769 12.1772 3.9926 12.2423ZM12.0069 12.2427C11.9417 12.1775 11.9417 12.072 12.0069 12.0069C12.0719 11.9419 12.1775 11.9419 12.2425 12.0069C12.3076 12.072 12.3076 12.1775 12.2425 12.2427C12.1775 12.3077 12.0719 12.3077 12.0069 12.2427ZM3.75727 3.99306C3.69218 3.92797 3.69218 3.82245 3.75727 3.75736C3.82235 3.69227 3.92788 3.69227 3.99297 3.75736C4.05805 3.82245 4.05805 3.92797 3.99297 3.99306C3.92788 4.05815 3.82235 4.05815 3.75727 3.99306Z" stroke="#980AC9" stroke-width="1.5" stroke-linecap="round" stroke-linejoin="round"/>
</svg>
