<svg width="24" height="24" viewBox="0 0 24 24" fill="none" xmlns="http://www.w3.org/2000/svg">
<path d="M17 8.5C17 7.17392 16.4732 5.90215 15.5355 4.96447C14.5979 4.02678 13.3261 3.5 12 3.5C10.6739 3.5 9.40215 4.02678 8.46447 4.96447C7.52678 5.90215 7 7.17392 7 8.5C7 9.82608 7.52678 11.0979 8.46447 12.0355C9.40215 12.9732 10.6739 13.5 12 13.5C13.3261 13.5 14.5979 12.9732 15.5355 12.0355C16.4732 11.0979 17 9.82608 17 8.5Z" stroke="#1F1F1F" stroke-width="1.5" stroke-linecap="round" stroke-linejoin="round"/>
<path d="M19 20.5C19 19.5807 18.8189 18.6705 18.4672 17.8212C18.1154 16.9719 17.5998 16.2003 16.9497 15.5503C16.2997 14.9002 15.5281 14.3846 14.6788 14.0328C13.8295 13.6811 12.9193 13.5 12 13.5C11.0807 13.5 10.1705 13.6811 9.32122 14.0328C8.47194 14.3846 7.70026 14.9002 7.05025 15.5503C6.40024 16.2003 5.88463 16.9719 5.53284 17.8212C5.18106 18.6705 5 19.5807 5 20.5" stroke="#1F1F1F" stroke-width="1.5" stroke-linecap="round" stroke-linejoin="round"/>
</svg>
