<svg width="24" height="24" viewBox="0 0 24 24" fill="none" xmlns="http://www.w3.org/2000/svg">
  <path d="M14.9611 18.4771L7.42839 10.9444C7.24762 10.7636 7.11364 10.5611 7.02647 10.3367C6.93929 10.1123 6.8957 9.88797 6.8957 9.66362C6.8957 9.43927 6.93929 9.21491 7.02647 8.99055C7.11364 8.76619 7.24762 8.56363 7.42839 8.38286L14.9611 0.711718C15.1598 0.512998 15.3964 0.413197 15.6707 0.418318C15.9451 0.423445 16.1816 0.525375 16.3804 0.724089C16.5791 0.922809 16.6784 1.15678 16.6784 1.426C16.6784 1.69523 16.5791 1.9292 16.3804 2.12792L8.98604 9.66362L16.3804 17.0579C16.5791 17.2567 16.6759 17.4907 16.6707 17.7599C16.6656 18.0291 16.5637 18.2631 16.3649 18.4618C16.1662 18.6605 15.9323 18.7599 15.663 18.7599C15.3938 18.7599 15.1598 18.6605 14.9611 18.4618V18.4771Z" fill="black"/>
</svg>
