<svg width="24" height="24" viewBox="0 0 24 24" fill="none" xmlns="http://www.w3.org/2000/svg">
<path opacity="0.3" fill-rule="evenodd" clip-rule="evenodd" d="M5.553 5.658C5.80219 5.15979 6.18517 4.7408 6.65904 4.44797C7.13291 4.15513 7.67895 4.00002 8.236 4H15.764C16.3211 4.00002 16.8671 4.15513 17.341 4.44797C17.8148 4.7408 18.1978 5.15979 18.447 5.658L19.833 8.429C20.077 8.329 20.317 8.221 20.553 8.105C20.7904 7.98645 21.0651 7.96705 21.3168 8.05106C21.5685 8.13508 21.7764 8.31563 21.895 8.553C22.0136 8.79037 22.033 9.06511 21.9489 9.31678C21.8649 9.56846 21.6844 9.77645 21.447 9.895C21.207 10.0017 20.9653 10.1057 20.722 10.207L21.683 12.13C21.892 12.547 22 13.007 22 13.473V16C22 16.4221 21.9109 16.8394 21.7386 17.2247C21.5663 17.61 21.3146 17.9546 21 18.236V19.5C21 19.8978 20.842 20.2794 20.5607 20.5607C20.2794 20.842 19.8978 21 19.5 21C19.1022 21 18.7206 20.842 18.4393 20.5607C18.158 20.2794 18 19.8978 18 19.5V19H6V19.5C6 19.8978 5.84196 20.2794 5.56066 20.5607C5.27936 20.842 4.89782 21 4.5 21C4.10218 21 3.72064 20.842 3.43934 20.5607C3.15804 20.2794 3 19.8978 3 19.5V18.236C2.386 17.686 2 16.888 2 16V13.472C2 13.006 2.109 12.547 2.317 12.131L3.27 10.223C3.02867 10.1217 2.79033 10.0127 2.555 9.896C2.31883 9.77591 2.13931 9.56782 2.05513 9.3166C1.97096 9.06538 1.98887 8.79114 2.105 8.553C2.16366 8.43543 2.24491 8.33057 2.34412 8.24442C2.44332 8.15826 2.55853 8.0925 2.68316 8.0509C2.80779 8.00929 2.9394 7.99266 3.07046 8.00194C3.20153 8.01122 3.32948 8.04624 3.447 8.105C3.68367 8.22167 3.92367 8.32967 4.167 8.429L5.553 5.658Z" fill="#B611F5"/>
<path fill-rule="evenodd" clip-rule="evenodd" d="M7.342 6.553C7.42499 6.38692 7.55258 6.24722 7.71047 6.14955C7.86837 6.05188 8.05034 6.0001 8.236 6H15.764C16.143 6 16.489 6.214 16.658 6.553L17.928 9.091C16.38 9.555 14.294 10 12 10C9.706 10 7.62 9.555 6.073 9.09L7.342 6.553ZM16.5 16C16.8978 16 17.2794 15.842 17.5607 15.5607C17.842 15.2794 18 14.8978 18 14.5C18 14.1022 17.842 13.7206 17.5607 13.4393C17.2794 13.158 16.8978 13 16.5 13C16.1022 13 15.7206 13.158 15.4393 13.4393C15.158 13.7206 15 14.1022 15 14.5C15 14.8978 15.158 15.2794 15.4393 15.5607C15.7206 15.842 16.1022 16 16.5 16ZM9 14.5C9 14.8978 8.84196 15.2794 8.56066 15.5607C8.27936 15.842 7.89782 16 7.5 16C7.10218 16 6.72064 15.842 6.43934 15.5607C6.15804 15.2794 6 14.8978 6 14.5C6 14.1022 6.15804 13.7206 6.43934 13.4393C6.72064 13.158 7.10218 13 7.5 13C7.89782 13 8.27936 13.158 8.56066 13.4393C8.84196 13.7206 9 14.1022 9 14.5Z" fill="#B611F5"/>
</svg>
