<svg width="15" height="12.8" viewBox="0 0 15 12.8" fill="none" xmlns="http://www.w3.org/2000/svg">
  <path d="M12.2115 12.7563C11.4308 12.7563 10.7708 12.4867 10.2317 11.9477C9.69264 11.4085 9.42312 10.7486 9.42312 9.96792C9.42312 9.18708 9.69264 8.52715 10.2317 7.98813C10.7708 7.44896 11.4308 7.17938 12.2115 7.17938C12.9923 7.17938 13.6522 7.44896 14.1913 7.98813C14.7304 8.52715 15 9.18708 15 9.96792C15 10.7486 14.7304 11.4085 14.1913 11.9477C13.6522 12.4867 12.9923 12.7563 12.2115 12.7563ZM12.2106 11.5063C12.6353 11.5063 12.9981 11.3562 13.299 11.056C13.5997 10.7558 13.75 10.3933 13.75 9.96875C13.75 9.54403 13.5999 9.18125 13.2996 8.88042C12.9994 8.57972 12.637 8.42938 12.2123 8.42938C11.7876 8.42938 11.4249 8.57951 11.1242 8.87979C10.8235 9.17993 10.6731 9.54236 10.6731 9.96708C10.6731 10.3918 10.8232 10.7545 11.1233 11.0552C11.4236 11.3559 11.786 11.5063 12.2106 11.5063ZM6.97125 10.5929H1.875C1.69792 10.5929 1.54951 10.533 1.42979 10.4131C1.30993 10.2933 1.25 10.1447 1.25 9.9675C1.25 9.79042 1.30993 9.64201 1.42979 9.52229C1.54951 9.40271 1.69792 9.34292 1.875 9.34292H6.97125C7.14833 9.34292 7.29674 9.40285 7.41646 9.52271C7.53632 9.64257 7.59625 9.79104 7.59625 9.96813C7.59625 10.1453 7.53632 10.2938 7.41646 10.4133C7.29674 10.5331 7.14833 10.5929 6.97125 10.5929ZM2.78854 5.57688C2.00771 5.57688 1.34778 5.30729 0.80875 4.76812C0.269583 4.2291 0 3.56917 0 2.78833C0 2.00764 0.269583 1.34771 0.80875 0.808542C1.34778 0.269514 2.00771 0 2.78854 0C3.56924 0 4.22917 0.269514 4.76833 0.808542C5.30736 1.34771 5.57688 2.00764 5.57688 2.78833C5.57688 3.56917 5.30736 4.2291 4.76833 4.76812C4.22917 5.30729 3.56924 5.57688 2.78854 5.57688ZM2.78771 4.32688C3.21243 4.32688 3.57514 4.17674 3.87583 3.87646C4.17653 3.57632 4.32688 3.21389 4.32688 2.78917C4.32688 2.36444 4.17681 2.00174 3.87667 1.70104C3.57639 1.40035 3.21396 1.25 2.78937 1.25C2.36465 1.25 2.00187 1.40007 1.70104 1.70021C1.40035 2.00049 1.25 2.36292 1.25 2.7875C1.25 3.21222 1.40014 3.575 1.70042 3.87583C2.00056 4.17653 2.36299 4.32688 2.78771 4.32688ZM13.125 3.41333H8.02875C7.85167 3.41333 7.70326 3.3534 7.58354 3.23354C7.46368 3.11368 7.40375 2.96521 7.40375 2.78813C7.40375 2.6109 7.46368 2.4625 7.58354 2.34292C7.70326 2.22319 7.85167 2.16333 8.02875 2.16333H13.125C13.3021 2.16333 13.4505 2.22326 13.5702 2.34313C13.6901 2.46299 13.75 2.61153 13.75 2.78875C13.75 2.96583 13.6901 3.11424 13.5702 3.23396C13.4505 3.35354 13.3021 3.41333 13.125 3.41333Z" fill="currentColor"/>
</svg>
