<svg width="15" height="15" viewBox="0 0 15 15" fill="none" xmlns="http://www.w3.org/2000/svg">
<path d="M1.5064 14.4871C1.09213 14.4871 0.7375 14.3396 0.4425 14.0446C0.1475 13.7496 0 13.395 0 12.9807V1.82694C0 1.41267 0.1475 1.05804 0.4425 0.763041C0.7375 0.468027 1.09213 0.32052 1.5064 0.32052H8.12498C8.30206 0.32052 8.45049 0.380444 8.57027 0.500291C8.69006 0.620138 8.74996 0.768638 8.74996 0.94579C8.74996 1.12296 8.69006 1.27137 8.57027 1.39102C8.45049 1.51067 8.30206 1.5705 8.12498 1.5705H1.5064C1.4316 1.5705 1.37017 1.59454 1.32208 1.64262C1.274 1.69071 1.24996 1.75215 1.24996 1.82694V12.9807C1.24996 13.0555 1.274 13.117 1.32208 13.165C1.37017 13.2131 1.4316 13.2372 1.5064 13.2372H12.6602C12.735 13.2372 12.7964 13.2131 12.8445 13.165C12.8926 13.117 12.9166 13.0555 12.9166 12.9807V6.36214C12.9166 6.18508 12.9765 6.03664 13.0964 5.91685C13.2162 5.79706 13.3647 5.73716 13.5419 5.73716C13.719 5.73716 13.8675 5.79706 13.9871 5.91685C14.1068 6.03664 14.1666 6.18508 14.1666 6.36214V12.9807C14.1666 13.395 14.0191 13.7496 13.7241 14.0446C13.4291 14.3396 13.0745 14.4871 12.6602 14.4871H1.5064ZM11.5705 2.91662H10.5288C10.3517 2.91662 10.2033 2.85671 10.0835 2.73687C9.96373 2.61703 9.90383 2.46853 9.90383 2.29137C9.90383 2.11421 9.96373 1.9658 10.0835 1.84615C10.2033 1.72649 10.3517 1.66667 10.5288 1.66667H11.5705V0.624978C11.5705 0.447895 11.6304 0.299457 11.7503 0.179666C11.8701 0.0598881 12.0186 0 12.1958 0C12.3729 0 12.5213 0.0598881 12.641 0.179666C12.7606 0.299457 12.8205 0.447895 12.8205 0.624978V1.66667H13.8621C14.0392 1.66667 14.1877 1.72658 14.3075 1.84642C14.4272 1.96626 14.4871 2.11476 14.4871 2.29192C14.4871 2.46908 14.4272 2.61749 14.3075 2.73715C14.1877 2.8568 14.0392 2.91662 13.8621 2.91662H12.8205V3.95831C12.8205 4.13539 12.7605 4.28383 12.6407 4.40362C12.5209 4.5234 12.3724 4.58329 12.1952 4.58329C12.018 4.58329 11.8696 4.5234 11.75 4.40362C11.6303 4.28383 11.5705 4.13539 11.5705 3.95831V2.91662ZM6.44227 10.7532L5.0769 9.00321C4.99891 8.90812 4.89982 8.86058 4.77962 8.86058C4.65943 8.86058 4.56034 8.9108 4.48235 9.01123L3.16827 10.7596C3.06784 10.8878 3.05462 11.0203 3.1286 11.157C3.20259 11.2938 3.31357 11.3621 3.46154 11.3621H10.7692C10.9171 11.3621 11.0281 11.2938 11.1021 11.157C11.1761 11.0203 11.1655 10.8878 11.0704 10.7596L9.08327 8.09777C9.00529 7.99734 8.90486 7.94712 8.782 7.94712C8.65914 7.94712 8.55852 7.99803 8.48015 8.09983L6.44227 10.7532Z" fill="#44025E"/>
</svg>
