<svg width="16" height="16" viewBox="0 0 16 16" fill="none" xmlns="http://www.w3.org/2000/svg">
<path d="M1.66371 16C1.20618 16 0.814516 15.8371 0.48871 15.5113C0.162903 15.1855 0 14.7938 0 14.3363V2.01772C0 1.5602 0.162903 1.16853 0.48871 0.842725C0.814516 0.516903 1.20618 0.353991 1.66371 0.353991H8.97346C9.16904 0.353991 9.33297 0.420173 9.46526 0.552536C9.59756 0.684899 9.66371 0.848906 9.66371 1.04456C9.66371 1.24023 9.59756 1.40414 9.46526 1.53628C9.33297 1.66843 9.16904 1.7345 8.97346 1.7345H1.66371C1.58111 1.7345 1.51325 1.76106 1.46015 1.81416C1.40704 1.86727 1.38049 1.93512 1.38049 2.01772V14.3363C1.38049 14.4189 1.40704 14.4867 1.46015 14.5399C1.51325 14.593 1.58111 14.6195 1.66371 14.6195H13.9823C14.0649 14.6195 14.1327 14.593 14.1858 14.5399C14.2389 14.4867 14.2655 14.4189 14.2655 14.3363V7.02654C14.2655 6.83098 14.3317 6.66705 14.464 6.53474C14.5964 6.40244 14.7604 6.33629 14.9561 6.33629C15.1517 6.33629 15.3156 6.40244 15.4478 6.53474C15.5799 6.66705 15.646 6.83098 15.646 7.02654V14.3363C15.646 14.7938 15.4831 15.1855 15.1573 15.5113C14.8315 15.8371 14.4398 16 13.9823 16H1.66371ZM12.7788 3.2212H11.6283C11.4327 3.2212 11.2688 3.15503 11.1365 3.02268C11.0042 2.89032 10.9381 2.72631 10.9381 2.53066C10.9381 2.33499 11.0042 2.17108 11.1365 2.03894C11.2688 1.90679 11.4327 1.84071 11.6283 1.84071H12.7788V0.690244C12.7788 0.494668 12.845 0.33073 12.9773 0.198428C13.1097 0.0661421 13.2737 0 13.4694 0C13.665 0 13.8289 0.0661421 13.9611 0.198428C14.0932 0.33073 14.1593 0.494668 14.1593 0.690244V1.84071H15.3098C15.5053 1.84071 15.6693 1.90689 15.8016 2.03924C15.9339 2.1716 16 2.33561 16 2.53126C16 2.72693 15.9339 2.89083 15.8016 3.02298C15.6693 3.15513 15.5053 3.2212 15.3098 3.2212H14.1593V4.37167C14.1593 4.56725 14.0931 4.73119 13.9608 4.86349C13.8284 4.99578 13.6644 5.06192 13.4687 5.06192C13.2731 5.06192 13.1092 4.99578 12.977 4.86349C12.8449 4.73119 12.7788 4.56725 12.7788 4.37167V3.2212ZM7.11503 11.8761L5.60707 9.9434C5.52094 9.83839 5.4115 9.78588 5.27876 9.78588C5.14601 9.78588 5.03657 9.84134 4.95044 9.95226L3.49913 11.8832C3.38821 12.0248 3.37361 12.1711 3.45532 12.3221C3.53703 12.4732 3.6596 12.5487 3.82303 12.5487H11.8938C12.0572 12.5487 12.1798 12.4732 12.2615 12.3221C12.3432 12.1711 12.3315 12.0248 12.2265 11.8832L10.0318 8.94341C9.9457 8.83249 9.83479 8.77703 9.69909 8.77703C9.5634 8.77703 9.45228 8.83325 9.36572 8.94569L7.11503 11.8761Z" fill="#980AC9"/>
</svg>
