<svg width="20" height="20" viewBox="0 0 20 20" fill="none" xmlns="http://www.w3.org/2000/svg">
<mask id="mask0_49584_178716" style="mask-type:alpha" maskUnits="userSpaceOnUse" x="0" y="0" width="20" height="20">
<rect width="20" height="20" fill="#D9D9D9"/>
</mask>
<g mask="url(#mask0_49584_178716)">
<path d="M4.26348 17.0809C3.84921 17.0809 3.49458 16.9334 3.19958 16.6384C2.90458 16.3434 2.75708 15.9887 2.75708 15.5745V4.42069C2.75708 4.00642 2.90458 3.65179 3.19958 3.35679C3.49458 3.06178 3.84921 2.91427 4.26348 2.91427H10.8821C11.0591 2.91427 11.2076 2.97419 11.3274 3.09404C11.4471 3.21389 11.507 3.36239 11.507 3.53954C11.507 3.71671 11.4471 3.86512 11.3274 3.98477C11.2076 4.10442 11.0591 4.16425 10.8821 4.16425H4.26348C4.18868 4.16425 4.12725 4.18829 4.07916 4.23637C4.03108 4.28446 4.00704 4.3459 4.00704 4.42069V15.5745C4.00704 15.6493 4.03108 15.7107 4.07916 15.7588C4.12725 15.8069 4.18868 15.8309 4.26348 15.8309H15.4173C15.4921 15.8309 15.5535 15.8069 15.6016 15.7588C15.6497 15.7107 15.6737 15.6493 15.6737 15.5745V8.95589C15.6737 8.77883 15.7336 8.63039 15.8535 8.5106C15.9733 8.39081 16.1218 8.33091 16.299 8.33091C16.4761 8.33091 16.6245 8.39081 16.7442 8.5106C16.8639 8.63039 16.9237 8.77883 16.9237 8.95589V15.5745C16.9237 15.9887 16.7762 16.3434 16.4812 16.6384C16.1862 16.9334 15.8315 17.0809 15.4173 17.0809H4.26348ZM14.3276 5.51037H13.2859C13.1088 5.51037 12.9604 5.45046 12.8406 5.33062C12.7208 5.21078 12.6609 5.06228 12.6609 4.88512C12.6609 4.70796 12.7208 4.55955 12.8406 4.4399C12.9604 4.32024 13.1088 4.26042 13.2859 4.26042H14.3276V3.21873C14.3276 3.04164 14.3875 2.89321 14.5074 2.77342C14.6272 2.65364 14.7757 2.59375 14.9529 2.59375C15.13 2.59375 15.2784 2.65364 15.3981 2.77342C15.5177 2.89321 15.5775 3.04164 15.5775 3.21873V4.26042H16.6192C16.7963 4.26042 16.9447 4.32033 17.0645 4.44017C17.1843 4.56001 17.2442 4.70851 17.2442 4.88567C17.2442 5.06283 17.1843 5.21124 17.0645 5.3309C16.9447 5.45055 16.7963 5.51037 16.6192 5.51037H15.5775V6.55206C15.5775 6.72914 15.5176 6.87758 15.3978 6.99737C15.2779 7.11715 15.1294 7.17704 14.9523 7.17704C14.7751 7.17704 14.6267 7.11715 14.5071 6.99737C14.3874 6.87758 14.3276 6.72914 14.3276 6.55206V5.51037ZM9.19935 13.3469L7.83398 11.597C7.75599 11.5019 7.6569 11.4543 7.53671 11.4543C7.41651 11.4543 7.31742 11.5045 7.23943 11.605L5.92535 13.3533C5.82492 13.4815 5.8117 13.614 5.88568 13.7508C5.95967 13.8875 6.07065 13.9559 6.21862 13.9559H13.5262C13.6742 13.9559 13.7852 13.8875 13.8592 13.7508C13.9331 13.614 13.9226 13.4815 13.8275 13.3533L11.8404 10.6915C11.7624 10.5911 11.6619 10.5409 11.5391 10.5409C11.4162 10.5409 11.3156 10.5918 11.2372 10.6936L9.19935 13.3469Z" fill="#44025E"/>
</g>
</svg>
