<svg width="32" height="32" viewBox="0 0 32 32" fill="none" xmlns="http://www.w3.org/2000/svg">
<rect width="32" height="32" rx="12" fill="#7D08A4"/>
<rect width="32" height="32" rx="12" fill="white"/>
<path d="M9.66371 24C9.20618 24 8.81452 23.8371 8.48871 23.5113C8.1629 23.1855 8 22.7938 8 22.3363V10.0177C8 9.5602 8.1629 9.16853 8.48871 8.84272C8.81452 8.5169 9.20618 8.35399 9.66371 8.35399H16.9735C17.169 8.35399 17.333 8.42017 17.4653 8.55254C17.5976 8.6849 17.6637 8.84891 17.6637 9.04456C17.6637 9.24023 17.5976 9.40414 17.4653 9.53628C17.333 9.66843 17.169 9.7345 16.9735 9.7345H9.66371C9.58111 9.7345 9.51325 9.76106 9.46015 9.81416C9.40704 9.86727 9.38049 9.93512 9.38049 10.0177V22.3363C9.38049 22.4189 9.40704 22.4867 9.46015 22.5399C9.51325 22.593 9.58111 22.6195 9.66371 22.6195H21.9823C22.0649 22.6195 22.1327 22.593 22.1858 22.5399C22.2389 22.4867 22.2655 22.4189 22.2655 22.3363V15.0265C22.2655 14.831 22.3317 14.667 22.464 14.5347C22.5964 14.4024 22.7604 14.3363 22.9561 14.3363C23.1517 14.3363 23.3156 14.4024 23.4478 14.5347C23.5799 14.667 23.646 14.831 23.646 15.0265V22.3363C23.646 22.7938 23.4831 23.1855 23.1573 23.5113C22.8315 23.8371 22.4398 24 21.9823 24H9.66371ZM20.7788 11.2212H19.6283C19.4327 11.2212 19.2688 11.155 19.1365 11.0227C19.0042 10.8903 18.9381 10.7263 18.9381 10.5307C18.9381 10.335 19.0042 10.1711 19.1365 10.0389C19.2688 9.90679 19.4327 9.84071 19.6283 9.84071H20.7788V8.69024C20.7788 8.49467 20.845 8.33073 20.9773 8.19843C21.1097 8.06614 21.2737 8 21.4694 8C21.665 8 21.8289 8.06614 21.9611 8.19843C22.0932 8.33073 22.1593 8.49467 22.1593 8.69024V9.84071H23.3098C23.5053 9.84071 23.6693 9.90689 23.8016 10.0392C23.9339 10.1716 24 10.3356 24 10.5313C24 10.7269 23.9339 10.8908 23.8016 11.023C23.6693 11.1551 23.5053 11.2212 23.3098 11.2212H22.1593V12.3717C22.1593 12.5672 22.0931 12.7312 21.9608 12.8635C21.8284 12.9958 21.6644 13.0619 21.4687 13.0619C21.2731 13.0619 21.1092 12.9958 20.977 12.8635C20.8449 12.7312 20.7788 12.5672 20.7788 12.3717V11.2212ZM15.115 19.8761L13.6071 17.9434C13.5209 17.8384 13.4115 17.7859 13.2788 17.7859C13.146 17.7859 13.0366 17.8413 12.9504 17.9523L11.4991 19.8832C11.3882 20.0248 11.3736 20.1711 11.4553 20.3221C11.537 20.4732 11.6596 20.5487 11.823 20.5487H19.8938C20.0572 20.5487 20.1798 20.4732 20.2615 20.3221C20.3432 20.1711 20.3315 20.0248 20.2265 19.8832L18.0318 16.9434C17.9457 16.8325 17.8348 16.777 17.6991 16.777C17.5634 16.777 17.4523 16.8333 17.3657 16.9457L15.115 19.8761Z" fill="#980AC9"/>
</svg>
