<svg width="15" height="15" viewBox="0 0 16 11" fill="none" xmlns="http://www.w3.org/2000/svg">
<path d="M10.9846 5.32571C12.352 5.32571 13.4663 4.10771 13.4663 2.62571C13.4663 1.16057 12.3577 0 10.9846 0C9.62286 0 8.50257 1.17771 8.50257 2.63714C8.50829 4.11343 9.62286 5.32571 10.9846 5.32571ZM4.36629 5.452C5.54971 5.452 6.52057 4.38914 6.52057 3.08514C6.52057 1.80971 5.56114 0.781428 4.36629 0.781428C3.18286 0.781428 2.20629 1.82714 2.212 3.09657C2.21771 4.39514 3.18286 5.452 4.36629 5.452ZM10.9846 4.45829C10.1457 4.45829 9.42743 3.654 9.42743 2.63714C9.42743 1.63714 10.1343 0.867714 10.9846 0.867714C11.8406 0.867714 12.5414 1.626 12.5414 2.62543C12.5414 3.64257 11.8349 4.45829 10.9846 4.45829ZM4.36629 4.596C3.66543 4.596 3.068 3.924 3.068 3.09657C3.068 2.28657 3.65943 1.63743 4.36629 1.63743C5.09 1.63743 5.67029 2.27514 5.67029 3.08514C5.67029 3.924 5.07286 4.596 4.36629 4.596ZM1.172 10.7203H5.682C5.406 10.5651 5.19343 10.2203 5.23371 9.87H1.02857C0.913714 9.87 0.856286 9.82429 0.856286 9.71486C0.856286 8.29029 2.482 6.95743 4.36086 6.95743C5.08457 6.95743 5.73371 7.12971 6.29114 7.45714C6.47605 7.22304 6.69484 7.01783 6.94029 6.84829C6.19914 6.35971 5.30886 6.10714 4.36086 6.10714C1.95343 6.10714 0 7.85343 0 9.76657C0 10.4043 0.390572 10.7203 1.172 10.7203ZM7.37657 10.7203H14.5926C15.546 10.7203 16 10.4331 16 9.80114C16 8.296 14.0983 6.11829 10.9846 6.11829C7.86486 6.11829 5.96343 8.296 5.96343 9.80114C5.96343 10.4331 6.41714 10.7203 7.37657 10.7203ZM7.10086 9.85286C6.95143 9.85286 6.88829 9.81286 6.88829 9.692C6.88829 8.74971 8.34743 6.98629 10.9846 6.98629C13.616 6.98629 15.0749 8.74971 15.0749 9.692C15.0749 9.81257 15.0177 9.85286 14.868 9.85286H7.10086Z" fill="#727272"/>
</svg>
