<svg width="24" height="24" viewBox="0 0 24 24" fill="none" xmlns="http://www.w3.org/2000/svg">
<path d="M13.5 2C13.5 2 15.834 2.212 18.803 5.182C21.773 8.152 21.985 10.485 21.985 10.485M14.207 5.536C14.207 5.536 15.197 5.818 16.682 7.303C18.167 8.788 18.45 9.778 18.45 9.778" stroke="#B611F5" stroke-width="1.5" stroke-linecap="round"/>
<path opacity="0.5" d="M15.645 15.5442L16.1 15.0642L15.012 14.0312L14.557 14.5122L15.645 15.5442ZM17.599 14.8622L19.509 15.9632L20.258 14.6622L18.347 13.5622L17.599 14.8622ZM19.878 18.2422L18.458 19.7372L19.545 20.7712L20.965 19.2762L19.878 18.2422ZM17.603 20.2172C16.168 20.3582 12.423 20.2382 8.359 15.9602L7.272 16.9922C11.701 21.6552 15.926 21.8912 17.75 21.7102L17.603 20.2172ZM8.359 15.9602C4.483 11.8792 3.833 8.43625 3.752 6.92625L2.254 7.00725C2.354 8.85725 3.138 12.6402 7.272 16.9922L8.359 15.9602ZM9.735 9.32225L10.021 9.02025L8.934 7.98725L8.647 8.28925L9.735 9.32225ZM10.247 5.26025L8.986 3.47825L7.761 4.34425L9.021 6.12725L10.247 5.26025ZM4.717 3.09225L3.149 4.74625L4.237 5.77925L5.807 4.12625L4.717 3.09225ZM9.191 8.80525C9.01103 8.63179 8.82936 8.46012 8.646 8.29025L8.644 8.29225L8.641 8.29525L8.591 8.35325C8.49308 8.48307 8.41552 8.62705 8.361 8.78025C8.263 9.05525 8.211 9.41925 8.277 9.87325C8.407 10.7652 8.992 11.9642 10.519 13.5732L11.607 12.5392C10.179 11.0362 9.827 10.1112 9.761 9.65525C9.729 9.43525 9.761 9.32025 9.774 9.28325L9.782 9.26425L9.754 9.30125L9.736 9.32125C9.736 9.32125 9.734 9.32125 9.191 8.80525ZM10.519 13.5732C12.042 15.1772 13.192 15.8062 14.069 15.9492C14.52 16.0222 14.885 15.9632 15.161 15.8542C15.3141 15.7945 15.4563 15.7101 15.582 15.6042L15.618 15.5702L15.632 15.5562L15.639 15.5502L15.642 15.5472L15.643 15.5452C15.643 15.5452 15.645 15.5442 15.101 15.0272C14.557 14.5112 14.558 14.5102 14.558 14.5092L14.56 14.5082L14.562 14.5052L14.567 14.5002L14.577 14.4902L14.614 14.4582C14.624 14.4529 14.6227 14.4532 14.61 14.4592C14.59 14.4672 14.5 14.4992 14.31 14.4682C13.908 14.4022 13.04 14.0482 11.607 12.5392L10.519 13.5732ZM8.986 3.47825C7.972 2.04425 5.944 1.80125 4.718 3.09325L5.804 4.12625C6.327 3.57625 7.249 3.61925 7.761 4.34425L8.986 3.47825ZM3.752 6.92625C3.73 6.52625 3.905 6.12725 4.237 5.77925L3.149 4.74625C2.613 5.31025 2.205 6.09325 2.254 7.00725L3.752 6.92625ZM18.457 19.7382C18.178 20.0322 17.887 20.1892 17.603 20.2172L17.75 21.7102C18.497 21.6372 19.102 21.2382 19.545 20.7712L18.457 19.7382ZM10.021 9.02125C10.989 8.00225 11.057 6.40825 10.247 5.26125L9.022 6.12725C9.444 6.72425 9.379 7.51925 8.934 7.98725L10.021 9.02125ZM19.509 15.9632C20.33 16.4362 20.491 17.5982 19.878 18.2432L20.965 19.2762C22.27 17.9022 21.89 15.6022 20.258 14.6622L19.509 15.9632ZM16.1 15.0652C16.485 14.6592 17.086 14.5682 17.599 14.8632L18.347 13.5632C17.248 12.9312 15.887 13.1132 15.012 14.0332L16.1 15.0652Z" fill="#B611F5"/>
</svg>
