<svg width="16" height="16" viewBox="0 0 16 16" fill="none" xmlns="http://www.w3.org/2000/svg">
<mask id="mask0_48921_194943" style="mask-type:alpha" maskUnits="userSpaceOnUse" x="0" y="0" width="16" height="16">
<rect width="16" height="16" fill="#D9D9D9"/>
</mask>
<g mask="url(#mask0_48921_194943)">
<path d="M2.53622 12.3333H12.7926C12.8524 12.3333 12.9016 12.3141 12.9401 12.2757C12.9785 12.2372 12.9977 12.1881 12.9977 12.1282V10.9552C12.9977 10.8953 12.9785 10.8461 12.9401 10.8077C12.9016 10.7692 12.8524 10.75 12.7926 10.75H2.53622C2.47633 10.75 2.42717 10.7692 2.38872 10.8077C2.35028 10.8461 2.33105 10.8953 2.33105 10.9552V12.1282C2.33105 12.1881 2.35028 12.2372 2.38872 12.2757C2.42717 12.3141 2.47633 12.3333 2.53622 12.3333ZM6.22205 6.37817C6.22205 5.98328 6.36328 5.64528 6.64572 5.36417C6.92817 5.08294 7.26772 4.94233 7.66439 4.94233C7.80605 4.94233 7.92478 4.89439 8.02055 4.7985C8.11644 4.70261 8.16439 4.58383 8.16439 4.44217C8.16439 4.30039 8.11644 4.18161 8.02055 4.08583C7.92478 3.99017 7.80605 3.94233 7.66439 3.94233C6.99272 3.94233 6.41778 4.17994 5.93955 4.65517C5.46122 5.13039 5.22205 5.70472 5.22205 6.37817V7.81417C5.22205 7.95583 5.27 8.07456 5.36589 8.17033C5.46178 8.26622 5.58061 8.31417 5.72239 8.31417C5.86405 8.31417 5.98278 8.26622 6.07855 8.17033C6.17422 8.07456 6.22205 7.95583 6.22205 7.81417V6.37817ZM4.27339 9.75H11.0554V6.37817C11.0554 5.43883 10.7247 4.641 10.0632 3.98467C9.40167 3.32822 8.60167 3 7.66322 3C6.72467 3 5.92505 3.32822 5.26439 3.98467C4.60372 4.641 4.27339 5.43883 4.27339 6.37817V9.75ZM2.53622 13.3333C2.20478 13.3333 1.92105 13.2153 1.68505 12.9793C1.44905 12.7433 1.33105 12.4596 1.33105 12.1282V10.9552C1.33105 10.6237 1.44905 10.34 1.68505 10.104C1.92105 9.868 2.20478 9.75 2.53622 9.75H3.27339V6.37817C3.27339 5.15861 3.69939 4.124 4.55139 3.27433C5.4035 2.42478 6.44111 2 7.66422 2C8.88744 2 9.92511 2.42478 10.7772 3.27433C11.6293 4.124 12.0554 5.15861 12.0554 6.37817V9.75H12.7926C13.124 9.75 13.4077 9.868 13.6437 10.104C13.8797 10.34 13.9977 10.6237 13.9977 10.9552V12.1282C13.9977 12.4596 13.8797 12.7433 13.6437 12.9793C13.4077 13.2153 13.124 13.3333 12.7926 13.3333H2.53622Z" fill="#4B4B4B"/>
</g>
</svg>
