<svg width="95" height="75" viewBox="0 0 95 75" fill="none" xmlns="http://www.w3.org/2000/svg">
  <svg width="26" height="26" viewBox="0 0 26 26" fill="none" xmlns="http://www.w3.org/2000/svg">
    <path fill-rule="evenodd" clip-rule="evenodd" d="M12.5274 4.27622C12.5299 4.55225 12.6419 4.81598 12.8389 5.00939C13.0358 5.20281 13.3015 5.31006 13.5776 5.30755L18.3506 5.26423L12.8917 10.8231C12.7475 10.97 12.6501 11.1563 12.6118 11.3585C12.5735 11.5607 12.596 11.7698 12.6765 11.9592C12.757 12.1487 12.8918 12.31 13.064 12.4228C13.2361 12.5356 13.4379 12.5948 13.6437 12.593L20.9291 12.5269C21.2052 12.5244 21.4689 12.4123 21.6623 12.2154C21.8557 12.0184 21.963 11.7527 21.9605 11.4767C21.958 11.2006 21.8459 10.9369 21.649 10.7435C21.452 10.5501 21.1863 10.4428 20.9103 10.4453L16.1372 10.4887L21.5961 4.9298C21.7403 4.78293 21.8377 4.5966 21.876 4.39437C21.9143 4.19215 21.8918 3.9831 21.8113 3.79367C21.7308 3.60423 21.596 3.44291 21.4239 3.3301C21.2517 3.21729 21.05 3.15805 20.8442 3.15987L13.5587 3.22599C13.2827 3.2285 13.0189 3.34055 12.8255 3.53751C12.6321 3.73446 12.5248 4.00019 12.5274 4.27622ZM4.25776 10.5965C3.98173 10.599 3.71601 10.4917 3.51906 10.2983C3.3221 10.1049 3.21005 9.84117 3.20754 9.56513C3.20504 9.2891 3.31229 9.02338 3.5057 8.82642C3.69911 8.62947 3.96285 8.51741 4.23888 8.51491L9.44278 8.46768C9.6486 8.46585 9.85033 8.52509 10.0225 8.63791C10.1946 8.75072 10.3295 8.91204 10.41 9.10148C10.4904 9.29091 10.5129 9.49995 10.4746 9.70218C10.4363 9.90441 10.3389 10.0907 10.1947 10.2376L6.79854 13.696L9.49 13.6716C9.76603 13.6691 10.0318 13.7763 10.2287 13.9697C10.4257 14.1632 10.5377 14.4269 10.5402 14.7029C10.5427 14.9789 10.4355 15.2447 10.2421 15.4416C10.0487 15.6386 9.78492 15.7506 9.50889 15.7531L4.30498 15.8004C4.09917 15.8022 3.89743 15.743 3.72528 15.6301C3.55313 15.5173 3.41829 15.356 3.33781 15.1666C3.25733 14.9771 3.23482 14.7681 3.27312 14.5659C3.31143 14.3636 3.40884 14.1773 3.55303 14.0304L6.94922 10.572L4.25776 10.5965ZM12.6501 17.8064C12.3741 17.8089 12.1084 17.7016 11.9114 17.5082C11.7145 17.3148 11.6024 17.0511 11.5999 16.775C11.5974 16.499 11.7046 16.2333 11.8981 16.0363C12.0915 15.8394 12.3552 15.7273 12.6312 15.7248L16.7944 15.687C17.0002 15.6852 17.2019 15.7444 17.3741 15.8573C17.5462 15.9701 17.681 16.1314 17.7615 16.3208C17.842 16.5103 17.8645 16.7193 17.8262 16.9215C17.7879 17.1238 17.6905 17.3101 17.5463 17.457L15.1814 19.8651L16.8321 19.8501C17.1082 19.8476 17.3739 19.9549 17.5708 20.1483C17.7678 20.3417 17.8798 20.6054 17.8824 20.8815C17.8849 21.1575 17.7776 21.4232 17.5842 21.6202C17.3908 21.8171 17.127 21.9292 16.851 21.9317L12.6879 21.9695C12.4821 21.9713 12.2803 21.9121 12.1082 21.7993C11.936 21.6865 11.8012 21.5251 11.7207 21.3357C11.6402 21.1463 11.6177 20.9372 11.656 20.735C11.6943 20.5328 11.7917 20.3464 11.9359 20.1996L14.3008 17.7914L12.6501 17.8064Z" fill="black"/>
  </svg>
  <path d="M70.4958 38.8336C65.5763 41.4424 59.1541 44.0456 51.2018 46.4841C43.2495 48.9171 36.4708 50.356 30.9316 50.9492C35.0998 55.6504 41.1764 58.6161 47.9496 58.6161C48.4432 58.6161 48.9313 58.5942 49.4194 58.5612C51.2951 58.4788 56.8397 58.2482 62.6367 58.2482C66.5306 58.2482 70.5342 58.3525 73.6164 58.6656C73.6164 58.6656 67.1777 53.1076 69.9035 41.7993C70.1667 40.8327 70.3642 39.8442 70.5013 38.8281" fill="#D370F9"/>
  <path d="M25.3982 32.8359C16.2393 37.6964 12.2961 42.5679 13.4642 46.3959C14.6324 50.2239 20.6213 52.0528 30.9319 50.9543C27.3671 46.9341 25.1953 41.6398 25.1953 35.8401C25.1953 34.8241 25.2666 33.8245 25.3982 32.8414V32.8359Z" fill="#B611F5"/>
  <path d="M82.4354 25.2724C81.2673 21.4444 75.2784 19.6156 64.9678 20.714C68.5326 24.7342 70.7044 30.0286 70.7044 35.8282C70.7044 36.8443 70.6331 37.8438 70.5015 38.8269C79.6604 33.9664 83.6036 29.0949 82.4354 25.2669V25.2724Z" fill="#B611F5"/>
  <path d="M64.9702 20.7216C60.8021 16.0204 54.7254 13.0547 47.9522 13.0547C36.4022 13.0547 26.8704 21.6718 25.406 32.8372C25.2744 33.8203 25.2031 34.8198 25.2031 35.8359C25.2031 41.6355 27.3694 46.9299 30.9398 50.9501C36.479 50.357 43.2576 48.918 51.2099 46.4851C59.1623 44.0521 65.5844 41.4433 70.5039 38.8346C70.6355 37.8515 70.7068 36.8519 70.7068 35.8359C70.7068 30.0362 68.5405 24.7419 64.9702 20.7216ZM35 28C32 28 32 27 32 27C32 27 32 26 35 26C38 26 38 27 38 27C38 27 38.5 28 35 28ZM45 28C42 28 42 27 42 27C42 27 42 25.9453 45 26C48 26.0547 48 27 48 27C48 27 47.9525 28 45 28Z" fill="#1D1D1B"/>
</svg>
