<svg width="16" height="16" viewBox="0 0 16 16" fill="none" xmlns="http://www.w3.org/2000/svg">
<path d="M5.75016 5.66927H2.75016C2.57335 5.66927 2.40378 5.59903 2.27876 5.47401C2.15373 5.34898 2.0835 5.17942 2.0835 5.0026V2.0026C2.0835 1.82579 2.15373 1.65622 2.27876 1.5312C2.40378 1.40618 2.57335 1.33594 2.75016 1.33594C2.92697 1.33594 3.09654 1.40618 3.22157 1.5312C3.34659 1.65622 3.41683 1.82579 3.41683 2.0026V4.33594H5.75016C5.92697 4.33594 6.09654 4.40618 6.22157 4.5312C6.34659 4.65622 6.41683 4.82579 6.41683 5.0026C6.41683 5.17942 6.34659 5.34898 6.22157 5.47401C6.09654 5.59903 5.92697 5.66927 5.75016 5.66927Z" fill="#4B4B4B"/>
<path d="M14.0001 8.66836C13.8233 8.66836 13.6537 8.59812 13.5287 8.4731C13.4037 8.34807 13.3334 8.17851 13.3334 8.00169C13.3339 6.82805 12.9471 5.68706 12.2328 4.75577C11.5186 3.82447 10.517 3.15496 9.38332 2.85111C8.2497 2.54727 7.04748 2.62608 5.96322 3.07533C4.87896 3.52457 3.9733 4.31913 3.38677 5.3357C3.29818 5.48873 3.15244 5.6003 2.98159 5.64587C2.81075 5.69144 2.6288 5.66728 2.47577 5.5787C2.32274 5.49011 2.21116 5.34437 2.16559 5.17352C2.12002 5.00268 2.14418 4.82072 2.23277 4.6677C2.96627 3.39719 4.09856 2.40426 5.45397 1.84295C6.80939 1.28165 8.31216 1.18334 9.72915 1.56329C11.1461 1.94323 12.3981 2.78019 13.2909 3.94431C14.1837 5.10844 14.6673 6.53465 14.6668 8.00169C14.6668 8.17851 14.5965 8.34807 14.4715 8.4731C14.3465 8.59812 14.1769 8.66836 14.0001 8.66836ZM13.2501 14.6684C13.0733 14.6684 12.9037 14.5981 12.7787 14.4731C12.6537 14.3481 12.5834 14.1785 12.5834 14.0017V11.6684H10.2501C10.0733 11.6684 9.90372 11.5981 9.77869 11.4731C9.65367 11.3481 9.58343 11.1785 9.58343 11.0017C9.58343 10.8249 9.65367 10.6553 9.77869 10.5303C9.90372 10.4053 10.0733 10.335 10.2501 10.335H13.2501C13.4269 10.335 13.5965 10.4053 13.7215 10.5303C13.8465 10.6553 13.9168 10.8249 13.9168 11.0017V14.0017C13.9168 14.1785 13.8465 14.3481 13.7215 14.4731C13.5965 14.5981 13.4269 14.6684 13.2501 14.6684Z" fill="#4B4B4B"/>
<path d="M8.00016 14.6693C6.23259 14.6675 4.53793 13.9646 3.28807 12.7147C2.03821 11.4648 1.33526 9.77017 1.3335 8.0026C1.3335 7.82579 1.40373 7.65622 1.52876 7.5312C1.65378 7.40618 1.82335 7.33594 2.00016 7.33594C2.17697 7.33594 2.34654 7.40618 2.47157 7.5312C2.59659 7.65622 2.66683 7.82579 2.66683 8.0026C2.66632 9.17625 3.0532 10.3172 3.76743 11.2485C4.48166 12.1798 5.48331 12.8493 6.61694 13.1532C7.75057 13.457 8.95279 13.3782 10.037 12.929C11.1213 12.4797 12.027 11.6852 12.6135 10.6686C12.6574 10.5928 12.7157 10.5264 12.7852 10.4732C12.8548 10.42 12.9341 10.381 13.0187 10.3584C13.1033 10.3359 13.1915 10.3302 13.2783 10.3417C13.3651 10.3532 13.4487 10.3817 13.5245 10.4256C13.6003 10.4695 13.6667 10.5278 13.7199 10.5973C13.7731 10.6669 13.8121 10.7462 13.8347 10.8308C13.8572 10.9154 13.8629 11.0036 13.8514 11.0904C13.8399 11.1772 13.8114 11.2608 13.7675 11.3366C13.1813 12.3477 12.3403 13.1874 11.3283 13.7722C10.3164 14.3569 9.16889 14.6662 8.00016 14.6693Z" fill="#4B4B4B"/>
</svg>
